G04 #@! TF.GenerationSoftware,KiCad,Pcbnew,5.0.0-rc2-dev-unknown-62522ee~64~ubuntu17.10.1*
G04 #@! TF.CreationDate,2018-05-05T21:53:19+02:00*
G04 #@! TF.ProjectId,gbcart,6762636172742E6B696361645F706362,rev?*
G04 #@! TF.SameCoordinates,Original*
G04 #@! TF.FileFunction,Legend,Top*
G04 #@! TF.FilePolarity,Positive*
%FSLAX46Y46*%
G04 Gerber Fmt 4.6, Leading zero omitted, Abs format (unit mm)*
G04 Created by KiCad (PCBNEW 5.0.0-rc2-dev-unknown-62522ee~64~ubuntu17.10.1) date Sat May  5 21:53:19 2018*
%MOMM*%
%LPD*%
G01*
G04 APERTURE LIST*
%ADD10C,0.120000*%
%ADD11C,0.150000*%
%ADD12C,0.200660*%
%ADD13C,0.099060*%
G04 APERTURE END LIST*
D10*
X103980000Y-46790000D02*
X104420000Y-46790000D01*
X103980000Y-47810000D02*
X104420000Y-47810000D01*
X114355000Y-79510000D02*
X114795000Y-79510000D01*
X114355000Y-78490000D02*
X114795000Y-78490000D01*
X114794999Y-78010000D02*
X114354999Y-78010000D01*
X114794999Y-76990000D02*
X114354999Y-76990000D01*
X105523779Y-62597470D02*
X105834906Y-62286343D01*
X104802530Y-61876221D02*
X105113657Y-61565094D01*
X89513657Y-67234906D02*
X89202530Y-66923779D01*
X90234906Y-66513657D02*
X89923779Y-66202530D01*
X82595000Y-70690000D02*
X82895000Y-70690000D01*
X82595000Y-72110000D02*
X82895000Y-72110000D01*
X82950000Y-65090000D02*
X82650000Y-65090000D01*
X82950000Y-66510000D02*
X82650000Y-66510000D01*
X82400000Y-45400000D02*
X86300000Y-45400000D01*
X82400000Y-47400000D02*
X86300000Y-47400000D01*
X82400000Y-45400000D02*
X82400000Y-47400000D01*
X77600000Y-84150000D02*
X75600000Y-84150000D01*
X75600000Y-84150000D02*
X75600000Y-88050000D01*
X77600000Y-84150000D02*
X77600000Y-88050000D01*
X104750000Y-45100000D02*
X105200000Y-45550000D01*
X108150000Y-45100000D02*
X107700000Y-45550000D01*
X108150000Y-40500000D02*
X107700000Y-40050000D01*
X104750000Y-40500000D02*
X105200000Y-40050000D01*
X109200000Y-41800000D02*
X109200000Y-43800000D01*
X105200000Y-45550000D02*
X107700000Y-45550000D01*
X103700000Y-41800000D02*
X103700000Y-43800000D01*
X105200000Y-40050000D02*
X107700000Y-40050000D01*
X82040000Y-67020000D02*
X82040000Y-67950000D01*
X82040000Y-70180000D02*
X82040000Y-69250000D01*
X82040000Y-70180000D02*
X84200000Y-70180000D01*
X82040000Y-67020000D02*
X83500000Y-67020000D01*
D11*
X100000000Y-78618555D02*
X100707107Y-77911448D01*
X92681445Y-71300000D02*
X93441585Y-70539860D01*
X100000000Y-63981445D02*
X99239860Y-64741585D01*
X107318555Y-71300000D02*
X106558415Y-72060140D01*
X100000000Y-78618555D02*
X99239860Y-77858415D01*
X107318555Y-71300000D02*
X106558415Y-70539860D01*
X100000000Y-63981445D02*
X100760140Y-64741585D01*
X92681445Y-71300000D02*
X93441585Y-72060140D01*
X100707107Y-77911448D02*
X101431891Y-78636233D01*
D10*
X102286000Y-59650000D02*
G75*
G03X102286000Y-59650000I-2286000J0D01*
G01*
X102286000Y-84650000D02*
G75*
G03X102286000Y-84650000I-2286000J0D01*
G01*
X93760000Y-42000000D02*
X93760000Y-39730000D01*
X93760000Y-39730000D02*
X92240000Y-39730000D01*
X92240000Y-39730000D02*
X92240000Y-42000000D01*
X94246256Y-39703514D02*
X94246256Y-41973514D01*
X95766256Y-39703514D02*
X94246256Y-39703514D01*
X95766256Y-41973514D02*
X95766256Y-39703514D01*
X97760000Y-42000000D02*
X97760000Y-39730000D01*
X97760000Y-39730000D02*
X96240000Y-39730000D01*
X96240000Y-39730000D02*
X96240000Y-42000000D01*
X98240000Y-39730000D02*
X98240000Y-42000000D01*
X99760000Y-39730000D02*
X98240000Y-39730000D01*
X99760000Y-42000000D02*
X99760000Y-39730000D01*
X119965000Y-42085000D02*
X119965000Y-45615000D01*
X113495000Y-42085000D02*
X113495000Y-45615000D01*
X119900000Y-40760000D02*
X119900000Y-42085000D01*
X119965000Y-42085000D02*
X119900000Y-42085000D01*
X119965000Y-45615000D02*
X119900000Y-45615000D01*
X113560000Y-42085000D02*
X113495000Y-42085000D01*
X113560000Y-45615000D02*
X113495000Y-45615000D01*
X109400000Y-75650000D02*
X109400000Y-81400000D01*
X109400000Y-81400000D02*
X113000000Y-81400000D01*
X113000000Y-81400000D02*
X113000000Y-75650000D01*
D12*
X88801160Y-38701020D02*
X80398840Y-38701020D01*
X88801160Y-38599420D02*
X80398840Y-38599420D01*
X80398840Y-38599420D02*
X80398840Y-38800080D01*
X80398840Y-38800080D02*
X88801160Y-38800080D01*
X88801160Y-38800080D02*
X88801160Y-38599420D01*
X88498900Y-38599420D02*
X88498900Y-43600680D01*
X88498900Y-43600680D02*
X80701100Y-43600680D01*
X80701100Y-43600680D02*
X80701100Y-38599420D01*
D10*
X123584160Y-56985385D02*
G75*
G02X123200000Y-57900000I-984160J-124615D01*
G01*
X123584160Y-67814615D02*
G75*
G03X123200000Y-66900000I-984160J124615D01*
G01*
X123188671Y-57909339D02*
G75*
G03X123200000Y-66900000I3711329J-4490661D01*
G01*
X122050000Y-55650000D02*
G75*
G02X123600000Y-57100000I50000J-1500000D01*
G01*
X122050000Y-69150000D02*
G75*
G03X123600000Y-67700000I50000J1500000D01*
G01*
X120000000Y-55650000D02*
X122100000Y-55650000D01*
X120000000Y-69150000D02*
X122100000Y-69150000D01*
X116000000Y-69150000D02*
X114550000Y-69150000D01*
X114550000Y-69150000D02*
X111950000Y-66550000D01*
X111950000Y-66550000D02*
X111150000Y-66550000D01*
X111150000Y-66550000D02*
X111150000Y-58250000D01*
X111150000Y-58250000D02*
X111950000Y-58250000D01*
X111950000Y-58250000D02*
X114550000Y-55650000D01*
X114550000Y-55650000D02*
X116000000Y-55650000D01*
X107801903Y-56683883D02*
X109216117Y-58098097D01*
X109216117Y-58098097D02*
X111973833Y-55340381D01*
X107801903Y-56683883D02*
X110559619Y-53926167D01*
D11*
X82825000Y-52325000D02*
X82825000Y-52375000D01*
X86975000Y-52325000D02*
X86975000Y-52470000D01*
X86975000Y-57475000D02*
X86975000Y-57330000D01*
X82825000Y-57475000D02*
X82825000Y-57330000D01*
X82825000Y-52325000D02*
X86975000Y-52325000D01*
X82825000Y-57475000D02*
X86975000Y-57475000D01*
X82825000Y-52375000D02*
X81425000Y-52375000D01*
D10*
X110047523Y-53786935D02*
X109389914Y-53129325D01*
X107813065Y-51552477D02*
X108470675Y-52210086D01*
X107813065Y-51552477D02*
X106285715Y-53079828D01*
X110047523Y-53786935D02*
X109015147Y-54819310D01*
D11*
X104033333Y-49452380D02*
X103700000Y-48976190D01*
X103461904Y-49452380D02*
X103461904Y-48452380D01*
X103842857Y-48452380D01*
X103938095Y-48500000D01*
X103985714Y-48547619D01*
X104033333Y-48642857D01*
X104033333Y-48785714D01*
X103985714Y-48880952D01*
X103938095Y-48928571D01*
X103842857Y-48976190D01*
X103461904Y-48976190D01*
X104985714Y-49452380D02*
X104414285Y-49452380D01*
X104700000Y-49452380D02*
X104700000Y-48452380D01*
X104604761Y-48595238D01*
X104509523Y-48690476D01*
X104414285Y-48738095D01*
X114433333Y-80957142D02*
X114385714Y-81004761D01*
X114242857Y-81052380D01*
X114147619Y-81052380D01*
X114004761Y-81004761D01*
X113909523Y-80909523D01*
X113861904Y-80814285D01*
X113814285Y-80623809D01*
X113814285Y-80480952D01*
X113861904Y-80290476D01*
X113909523Y-80195238D01*
X114004761Y-80100000D01*
X114147619Y-80052380D01*
X114242857Y-80052380D01*
X114385714Y-80100000D01*
X114433333Y-80147619D01*
X114766666Y-80052380D02*
X115385714Y-80052380D01*
X115052380Y-80433333D01*
X115195238Y-80433333D01*
X115290476Y-80480952D01*
X115338095Y-80528571D01*
X115385714Y-80623809D01*
X115385714Y-80861904D01*
X115338095Y-80957142D01*
X115290476Y-81004761D01*
X115195238Y-81052380D01*
X114909523Y-81052380D01*
X114814285Y-81004761D01*
X114766666Y-80957142D01*
X114408332Y-76257142D02*
X114360713Y-76304761D01*
X114217856Y-76352380D01*
X114122618Y-76352380D01*
X113979760Y-76304761D01*
X113884522Y-76209523D01*
X113836903Y-76114285D01*
X113789284Y-75923809D01*
X113789284Y-75780952D01*
X113836903Y-75590476D01*
X113884522Y-75495238D01*
X113979760Y-75400000D01*
X114122618Y-75352380D01*
X114217856Y-75352380D01*
X114360713Y-75400000D01*
X114408332Y-75447619D01*
X115265475Y-75685714D02*
X115265475Y-76352380D01*
X115027379Y-75304761D02*
X114789284Y-76019047D01*
X115408332Y-76019047D01*
X106634687Y-63570390D02*
X106634687Y-63637733D01*
X106567343Y-63772420D01*
X106500000Y-63839764D01*
X106365312Y-63907107D01*
X106230625Y-63907107D01*
X106129610Y-63873436D01*
X105961251Y-63772420D01*
X105860236Y-63671405D01*
X105759221Y-63503046D01*
X105725549Y-63402031D01*
X105725549Y-63267344D01*
X105792893Y-63132657D01*
X105860236Y-63065313D01*
X105994923Y-62997970D01*
X106062267Y-62997970D01*
X106634687Y-62290863D02*
X106297969Y-62627581D01*
X106601015Y-62997970D01*
X106601015Y-62930626D01*
X106634687Y-62829611D01*
X106803045Y-62661252D01*
X106904061Y-62627581D01*
X106971404Y-62627581D01*
X107072419Y-62661252D01*
X107240778Y-62829611D01*
X107274450Y-62930626D01*
X107274450Y-62997970D01*
X107240778Y-63098985D01*
X107072419Y-63267344D01*
X106971404Y-63301016D01*
X106904061Y-63301016D01*
X88181602Y-68020131D02*
X88114259Y-68020131D01*
X87979572Y-67952787D01*
X87912228Y-67885444D01*
X87844885Y-67750756D01*
X87844885Y-67616069D01*
X87878556Y-67515054D01*
X87979572Y-67346695D01*
X88080587Y-67245680D01*
X88248946Y-67144665D01*
X88349961Y-67110993D01*
X88484648Y-67110993D01*
X88619335Y-67178337D01*
X88686679Y-67245680D01*
X88754022Y-67380367D01*
X88754022Y-67447711D01*
X89427457Y-67986459D02*
X89292770Y-67851772D01*
X89191755Y-67818100D01*
X89124411Y-67818100D01*
X88956053Y-67851772D01*
X88787694Y-67952787D01*
X88518320Y-68222161D01*
X88484648Y-68323176D01*
X88484648Y-68390520D01*
X88518320Y-68491535D01*
X88653007Y-68626222D01*
X88754022Y-68659894D01*
X88821366Y-68659894D01*
X88922381Y-68626222D01*
X89090740Y-68457863D01*
X89124411Y-68356848D01*
X89124411Y-68289505D01*
X89090740Y-68188489D01*
X88956053Y-68053802D01*
X88855037Y-68020131D01*
X88787694Y-68020131D01*
X88686679Y-68053802D01*
X79733333Y-71757142D02*
X79685714Y-71804761D01*
X79542857Y-71852380D01*
X79447619Y-71852380D01*
X79304761Y-71804761D01*
X79209523Y-71709523D01*
X79161904Y-71614285D01*
X79114285Y-71423809D01*
X79114285Y-71280952D01*
X79161904Y-71090476D01*
X79209523Y-70995238D01*
X79304761Y-70900000D01*
X79447619Y-70852380D01*
X79542857Y-70852380D01*
X79685714Y-70900000D01*
X79733333Y-70947619D01*
X80685714Y-71852380D02*
X80114285Y-71852380D01*
X80400000Y-71852380D02*
X80400000Y-70852380D01*
X80304761Y-70995238D01*
X80209523Y-71090476D01*
X80114285Y-71138095D01*
X79033333Y-66257142D02*
X78985714Y-66304761D01*
X78842857Y-66352380D01*
X78747619Y-66352380D01*
X78604761Y-66304761D01*
X78509523Y-66209523D01*
X78461904Y-66114285D01*
X78414285Y-65923809D01*
X78414285Y-65780952D01*
X78461904Y-65590476D01*
X78509523Y-65495238D01*
X78604761Y-65400000D01*
X78747619Y-65352380D01*
X78842857Y-65352380D01*
X78985714Y-65400000D01*
X79033333Y-65447619D01*
X79414285Y-65447619D02*
X79461904Y-65400000D01*
X79557142Y-65352380D01*
X79795238Y-65352380D01*
X79890476Y-65400000D01*
X79938095Y-65447619D01*
X79985714Y-65542857D01*
X79985714Y-65638095D01*
X79938095Y-65780952D01*
X79366666Y-66352380D01*
X79985714Y-66352380D01*
X83861904Y-48952380D02*
X83861904Y-47952380D01*
X84100000Y-47952380D01*
X84242857Y-48000000D01*
X84338095Y-48095238D01*
X84385714Y-48190476D01*
X84433333Y-48380952D01*
X84433333Y-48523809D01*
X84385714Y-48714285D01*
X84338095Y-48809523D01*
X84242857Y-48904761D01*
X84100000Y-48952380D01*
X83861904Y-48952380D01*
X85385714Y-48952380D02*
X84814285Y-48952380D01*
X85100000Y-48952380D02*
X85100000Y-47952380D01*
X85004761Y-48095238D01*
X84909523Y-48190476D01*
X84814285Y-48238095D01*
X79052380Y-87138095D02*
X78052380Y-87138095D01*
X78052380Y-86900000D01*
X78100000Y-86757142D01*
X78195238Y-86661904D01*
X78290476Y-86614285D01*
X78480952Y-86566666D01*
X78623809Y-86566666D01*
X78814285Y-86614285D01*
X78909523Y-86661904D01*
X79004761Y-86757142D01*
X79052380Y-86900000D01*
X79052380Y-87138095D01*
X78147619Y-86185714D02*
X78100000Y-86138095D01*
X78052380Y-86042857D01*
X78052380Y-85804761D01*
X78100000Y-85709523D01*
X78147619Y-85661904D01*
X78242857Y-85614285D01*
X78338095Y-85614285D01*
X78480952Y-85661904D01*
X79052380Y-86233333D01*
X79052380Y-85614285D01*
X99666666Y-89452380D02*
X99666666Y-90166666D01*
X99619047Y-90309523D01*
X99523809Y-90404761D01*
X99380952Y-90452380D01*
X99285714Y-90452380D01*
X100095238Y-89547619D02*
X100142857Y-89500000D01*
X100238095Y-89452380D01*
X100476190Y-89452380D01*
X100571428Y-89500000D01*
X100619047Y-89547619D01*
X100666666Y-89642857D01*
X100666666Y-89738095D01*
X100619047Y-89880952D01*
X100047619Y-90452380D01*
X100666666Y-90452380D01*
X122390476Y-90952380D02*
X123009523Y-90952380D01*
X122676190Y-91333333D01*
X122819047Y-91333333D01*
X122914285Y-91380952D01*
X122961904Y-91428571D01*
X123009523Y-91523809D01*
X123009523Y-91761904D01*
X122961904Y-91857142D01*
X122914285Y-91904761D01*
X122819047Y-91952380D01*
X122533333Y-91952380D01*
X122438095Y-91904761D01*
X122390476Y-91857142D01*
X123390476Y-91047619D02*
X123438095Y-91000000D01*
X123533333Y-90952380D01*
X123771428Y-90952380D01*
X123866666Y-91000000D01*
X123914285Y-91047619D01*
X123961904Y-91142857D01*
X123961904Y-91238095D01*
X123914285Y-91380952D01*
X123342857Y-91952380D01*
X123961904Y-91952380D01*
X76585714Y-91952380D02*
X76014285Y-91952380D01*
X76300000Y-91952380D02*
X76300000Y-90952380D01*
X76204761Y-91095238D01*
X76109523Y-91190476D01*
X76014285Y-91238095D01*
X107466666Y-47304761D02*
X107609523Y-47352380D01*
X107847619Y-47352380D01*
X107942857Y-47304761D01*
X107990476Y-47257142D01*
X108038095Y-47161904D01*
X108038095Y-47066666D01*
X107990476Y-46971428D01*
X107942857Y-46923809D01*
X107847619Y-46876190D01*
X107657142Y-46828571D01*
X107561904Y-46780952D01*
X107514285Y-46733333D01*
X107466666Y-46638095D01*
X107466666Y-46542857D01*
X107514285Y-46447619D01*
X107561904Y-46400000D01*
X107657142Y-46352380D01*
X107895238Y-46352380D01*
X108038095Y-46400000D01*
X108371428Y-46352380D02*
X108609523Y-47352380D01*
X108800000Y-46638095D01*
X108990476Y-47352380D01*
X109228571Y-46352380D01*
X110133333Y-47352380D02*
X109561904Y-47352380D01*
X109847619Y-47352380D02*
X109847619Y-46352380D01*
X109752380Y-46495238D01*
X109657142Y-46590476D01*
X109561904Y-46638095D01*
X78938095Y-68452380D02*
X78938095Y-69261904D01*
X78985714Y-69357142D01*
X79033333Y-69404761D01*
X79128571Y-69452380D01*
X79319047Y-69452380D01*
X79414285Y-69404761D01*
X79461904Y-69357142D01*
X79509523Y-69261904D01*
X79509523Y-68452380D01*
X80509523Y-69452380D02*
X79938095Y-69452380D01*
X80223809Y-69452380D02*
X80223809Y-68452380D01*
X80128571Y-68595238D01*
X80033333Y-68690476D01*
X79938095Y-68738095D01*
X94757308Y-75465195D02*
X94184888Y-76037615D01*
X94151216Y-76138630D01*
X94151216Y-76205974D01*
X94184888Y-76306989D01*
X94319575Y-76441676D01*
X94420590Y-76475348D01*
X94487934Y-76475348D01*
X94588949Y-76441676D01*
X95161369Y-75869256D01*
X95397071Y-76239646D02*
X95464414Y-76239646D01*
X95565430Y-76273317D01*
X95733788Y-76441676D01*
X95767460Y-76542691D01*
X95767460Y-76610035D01*
X95733788Y-76711050D01*
X95666445Y-76778394D01*
X95531758Y-76845737D01*
X94723636Y-76845737D01*
X95161369Y-77283470D01*
X93652380Y-48138095D02*
X92652380Y-48138095D01*
X92652380Y-47900000D01*
X92700000Y-47757142D01*
X92795238Y-47661904D01*
X92890476Y-47614285D01*
X93080952Y-47566666D01*
X93223809Y-47566666D01*
X93414285Y-47614285D01*
X93509523Y-47661904D01*
X93604761Y-47757142D01*
X93652380Y-47900000D01*
X93652380Y-48138095D01*
X92652380Y-47233333D02*
X92652380Y-46614285D01*
X93033333Y-46947619D01*
X93033333Y-46804761D01*
X93080952Y-46709523D01*
X93128571Y-46661904D01*
X93223809Y-46614285D01*
X93461904Y-46614285D01*
X93557142Y-46661904D01*
X93604761Y-46709523D01*
X93652380Y-46804761D01*
X93652380Y-47090476D01*
X93604761Y-47185714D01*
X93557142Y-47233333D01*
X95452380Y-48238095D02*
X94452380Y-48238095D01*
X94452380Y-48000000D01*
X94500000Y-47857142D01*
X94595238Y-47761904D01*
X94690476Y-47714285D01*
X94880952Y-47666666D01*
X95023809Y-47666666D01*
X95214285Y-47714285D01*
X95309523Y-47761904D01*
X95404761Y-47857142D01*
X95452380Y-48000000D01*
X95452380Y-48238095D01*
X94785714Y-46809523D02*
X95452380Y-46809523D01*
X94404761Y-47047619D02*
X95119047Y-47285714D01*
X95119047Y-46666666D01*
X97552380Y-48138095D02*
X96552380Y-48138095D01*
X96552380Y-47900000D01*
X96600000Y-47757142D01*
X96695238Y-47661904D01*
X96790476Y-47614285D01*
X96980952Y-47566666D01*
X97123809Y-47566666D01*
X97314285Y-47614285D01*
X97409523Y-47661904D01*
X97504761Y-47757142D01*
X97552380Y-47900000D01*
X97552380Y-48138095D01*
X96552380Y-46661904D02*
X96552380Y-47138095D01*
X97028571Y-47185714D01*
X96980952Y-47138095D01*
X96933333Y-47042857D01*
X96933333Y-46804761D01*
X96980952Y-46709523D01*
X97028571Y-46661904D01*
X97123809Y-46614285D01*
X97361904Y-46614285D01*
X97457142Y-46661904D01*
X97504761Y-46709523D01*
X97552380Y-46804761D01*
X97552380Y-47042857D01*
X97504761Y-47138095D01*
X97457142Y-47185714D01*
X99552380Y-48138095D02*
X98552380Y-48138095D01*
X98552380Y-47900000D01*
X98600000Y-47757142D01*
X98695238Y-47661904D01*
X98790476Y-47614285D01*
X98980952Y-47566666D01*
X99123809Y-47566666D01*
X99314285Y-47614285D01*
X99409523Y-47661904D01*
X99504761Y-47757142D01*
X99552380Y-47900000D01*
X99552380Y-48138095D01*
X98552380Y-46709523D02*
X98552380Y-46900000D01*
X98600000Y-46995238D01*
X98647619Y-47042857D01*
X98790476Y-47138095D01*
X98980952Y-47185714D01*
X99361904Y-47185714D01*
X99457142Y-47138095D01*
X99504761Y-47090476D01*
X99552380Y-46995238D01*
X99552380Y-46804761D01*
X99504761Y-46709523D01*
X99457142Y-46661904D01*
X99361904Y-46614285D01*
X99123809Y-46614285D01*
X99028571Y-46661904D01*
X98980952Y-46709523D01*
X98933333Y-46804761D01*
X98933333Y-46995238D01*
X98980952Y-47090476D01*
X99028571Y-47138095D01*
X99123809Y-47185714D01*
X120417380Y-44183333D02*
X121131666Y-44183333D01*
X121274523Y-44230952D01*
X121369761Y-44326190D01*
X121417380Y-44469047D01*
X121417380Y-44564285D01*
X120417380Y-43802380D02*
X120417380Y-43183333D01*
X120798333Y-43516666D01*
X120798333Y-43373809D01*
X120845952Y-43278571D01*
X120893571Y-43230952D01*
X120988809Y-43183333D01*
X121226904Y-43183333D01*
X121322142Y-43230952D01*
X121369761Y-43278571D01*
X121417380Y-43373809D01*
X121417380Y-43659523D01*
X121369761Y-43754761D01*
X121322142Y-43802380D01*
X93652380Y-49666666D02*
X93176190Y-50000000D01*
X93652380Y-50238095D02*
X92652380Y-50238095D01*
X92652380Y-49857142D01*
X92700000Y-49761904D01*
X92747619Y-49714285D01*
X92842857Y-49666666D01*
X92985714Y-49666666D01*
X93080952Y-49714285D01*
X93128571Y-49761904D01*
X93176190Y-49857142D01*
X93176190Y-50238095D01*
X92985714Y-48809523D02*
X93652380Y-48809523D01*
X92604761Y-49047619D02*
X93319047Y-49285714D01*
X93319047Y-48666666D01*
X95352380Y-49866666D02*
X94876190Y-50200000D01*
X95352380Y-50438095D02*
X94352380Y-50438095D01*
X94352380Y-50057142D01*
X94400000Y-49961904D01*
X94447619Y-49914285D01*
X94542857Y-49866666D01*
X94685714Y-49866666D01*
X94780952Y-49914285D01*
X94828571Y-49961904D01*
X94876190Y-50057142D01*
X94876190Y-50438095D01*
X94352380Y-48961904D02*
X94352380Y-49438095D01*
X94828571Y-49485714D01*
X94780952Y-49438095D01*
X94733333Y-49342857D01*
X94733333Y-49104761D01*
X94780952Y-49009523D01*
X94828571Y-48961904D01*
X94923809Y-48914285D01*
X95161904Y-48914285D01*
X95257142Y-48961904D01*
X95304761Y-49009523D01*
X95352380Y-49104761D01*
X95352380Y-49342857D01*
X95304761Y-49438095D01*
X95257142Y-49485714D01*
X97452380Y-49766666D02*
X96976190Y-50100000D01*
X97452380Y-50338095D02*
X96452380Y-50338095D01*
X96452380Y-49957142D01*
X96500000Y-49861904D01*
X96547619Y-49814285D01*
X96642857Y-49766666D01*
X96785714Y-49766666D01*
X96880952Y-49814285D01*
X96928571Y-49861904D01*
X96976190Y-49957142D01*
X96976190Y-50338095D01*
X96452380Y-48909523D02*
X96452380Y-49100000D01*
X96500000Y-49195238D01*
X96547619Y-49242857D01*
X96690476Y-49338095D01*
X96880952Y-49385714D01*
X97261904Y-49385714D01*
X97357142Y-49338095D01*
X97404761Y-49290476D01*
X97452380Y-49195238D01*
X97452380Y-49004761D01*
X97404761Y-48909523D01*
X97357142Y-48861904D01*
X97261904Y-48814285D01*
X97023809Y-48814285D01*
X96928571Y-48861904D01*
X96880952Y-48909523D01*
X96833333Y-49004761D01*
X96833333Y-49195238D01*
X96880952Y-49290476D01*
X96928571Y-49338095D01*
X97023809Y-49385714D01*
X99552380Y-49766666D02*
X99076190Y-50100000D01*
X99552380Y-50338095D02*
X98552380Y-50338095D01*
X98552380Y-49957142D01*
X98600000Y-49861904D01*
X98647619Y-49814285D01*
X98742857Y-49766666D01*
X98885714Y-49766666D01*
X98980952Y-49814285D01*
X99028571Y-49861904D01*
X99076190Y-49957142D01*
X99076190Y-50338095D01*
X98552380Y-49433333D02*
X98552380Y-48766666D01*
X99552380Y-49195238D01*
X111176190Y-74776190D02*
X111652380Y-74776190D01*
X110652380Y-75109523D02*
X111176190Y-74776190D01*
X110652380Y-74442857D01*
X111652380Y-73585714D02*
X111652380Y-74157142D01*
X111652380Y-73871428D02*
X110652380Y-73871428D01*
X110795238Y-73966666D01*
X110890476Y-74061904D01*
X110938095Y-74157142D01*
D13*
X80533206Y-44625982D02*
X80533206Y-44983396D01*
X80509379Y-45054879D01*
X80461723Y-45102534D01*
X80390240Y-45126362D01*
X80342585Y-45126362D01*
X81033586Y-45126362D02*
X80747655Y-45126362D01*
X80890620Y-45126362D02*
X80890620Y-44625982D01*
X80842965Y-44697465D01*
X80795310Y-44745120D01*
X80747655Y-44768948D01*
D11*
X94837631Y-83050288D02*
X94837631Y-83117631D01*
X94770287Y-83252318D01*
X94702944Y-83319662D01*
X94568256Y-83387005D01*
X94433569Y-83387005D01*
X94332554Y-83353334D01*
X94164195Y-83252318D01*
X94063180Y-83151303D01*
X93962165Y-82982944D01*
X93928493Y-82881929D01*
X93928493Y-82747242D01*
X93995837Y-82612555D01*
X94063180Y-82545211D01*
X94197867Y-82477868D01*
X94265211Y-82477868D01*
X94904974Y-82309509D02*
X94803959Y-82343181D01*
X94736615Y-82343181D01*
X94635600Y-82309509D01*
X94601928Y-82275837D01*
X94568256Y-82174822D01*
X94568256Y-82107479D01*
X94601928Y-82006463D01*
X94736615Y-81871776D01*
X94837631Y-81838105D01*
X94904974Y-81838105D01*
X95005989Y-81871776D01*
X95039661Y-81905448D01*
X95073333Y-82006463D01*
X95073333Y-82073807D01*
X95039661Y-82174822D01*
X94904974Y-82309509D01*
X94871302Y-82410524D01*
X94871302Y-82477868D01*
X94904974Y-82578883D01*
X95039661Y-82713570D01*
X95140676Y-82747242D01*
X95208020Y-82747242D01*
X95309035Y-82713570D01*
X95443722Y-82578883D01*
X95477394Y-82477868D01*
X95477394Y-82410524D01*
X95443722Y-82309509D01*
X95309035Y-82174822D01*
X95208020Y-82141150D01*
X95140676Y-82141150D01*
X95039661Y-82174822D01*
X103897969Y-59507106D02*
X103897969Y-59574450D01*
X103830625Y-59709137D01*
X103763282Y-59776480D01*
X103628595Y-59843824D01*
X103493908Y-59843824D01*
X103392893Y-59810152D01*
X103224534Y-59709137D01*
X103123519Y-59608122D01*
X103022503Y-59439763D01*
X102988832Y-59338748D01*
X102988832Y-59204061D01*
X103056175Y-59069374D01*
X103123519Y-59002030D01*
X103258206Y-58934687D01*
X103325549Y-58934687D01*
X104638748Y-58901015D02*
X104234687Y-59305076D01*
X104436717Y-59103045D02*
X103729610Y-58395938D01*
X103763282Y-58564297D01*
X103763282Y-58698984D01*
X103729610Y-58800000D01*
X104369374Y-57756175D02*
X104436717Y-57688832D01*
X104537732Y-57655160D01*
X104605076Y-57655160D01*
X104706091Y-57688832D01*
X104874450Y-57789847D01*
X105042809Y-57958206D01*
X105143824Y-58126564D01*
X105177496Y-58227580D01*
X105177496Y-58294923D01*
X105143824Y-58395938D01*
X105076480Y-58463282D01*
X104975465Y-58496954D01*
X104908122Y-58496954D01*
X104807106Y-58463282D01*
X104638748Y-58362267D01*
X104470389Y-58193908D01*
X104369374Y-58025549D01*
X104335702Y-57924534D01*
X104335702Y-57857190D01*
X104369374Y-57756175D01*
X107957142Y-66907142D02*
X107909523Y-66954761D01*
X107766666Y-67002380D01*
X107671428Y-67002380D01*
X107528571Y-66954761D01*
X107433333Y-66859523D01*
X107385714Y-66764285D01*
X107338095Y-66573809D01*
X107338095Y-66430952D01*
X107385714Y-66240476D01*
X107433333Y-66145238D01*
X107528571Y-66050000D01*
X107671428Y-66002380D01*
X107766666Y-66002380D01*
X107909523Y-66050000D01*
X107957142Y-66097619D01*
X108909523Y-67002380D02*
X108338095Y-67002380D01*
X108623809Y-67002380D02*
X108623809Y-66002380D01*
X108528571Y-66145238D01*
X108433333Y-66240476D01*
X108338095Y-66288095D01*
X109861904Y-67002380D02*
X109290476Y-67002380D01*
X109576190Y-67002380D02*
X109576190Y-66002380D01*
X109480952Y-66145238D01*
X109385714Y-66240476D01*
X109290476Y-66288095D01*
X109928571Y-63185714D02*
X109976190Y-63042857D01*
X110023809Y-62995238D01*
X110119047Y-62947619D01*
X110261904Y-62947619D01*
X110357142Y-62995238D01*
X110404761Y-63042857D01*
X110452380Y-63138095D01*
X110452380Y-63519047D01*
X109452380Y-63519047D01*
X109452380Y-63185714D01*
X109500000Y-63090476D01*
X109547619Y-63042857D01*
X109642857Y-62995238D01*
X109738095Y-62995238D01*
X109833333Y-63042857D01*
X109880952Y-63090476D01*
X109928571Y-63185714D01*
X109928571Y-63519047D01*
X109452380Y-62661904D02*
X109452380Y-62090476D01*
X110452380Y-62376190D02*
X109452380Y-62376190D01*
X110452380Y-61233333D02*
X110452380Y-61804761D01*
X110452380Y-61519047D02*
X109452380Y-61519047D01*
X109595238Y-61614285D01*
X109690476Y-61709523D01*
X109738095Y-61804761D01*
X109097969Y-60241793D02*
X108390862Y-59534687D01*
X108559221Y-59366328D01*
X108693908Y-59298984D01*
X108828595Y-59298984D01*
X108929610Y-59332656D01*
X109097969Y-59433671D01*
X109198984Y-59534687D01*
X109300000Y-59703045D01*
X109333671Y-59804061D01*
X109333671Y-59938748D01*
X109266328Y-60073435D01*
X109097969Y-60241793D01*
X109030625Y-58894923D02*
X109502030Y-58423519D01*
X109906091Y-59433671D01*
X82833333Y-60402380D02*
X82500000Y-59926190D01*
X82261904Y-60402380D02*
X82261904Y-59402380D01*
X82642857Y-59402380D01*
X82738095Y-59450000D01*
X82785714Y-59497619D01*
X82833333Y-59592857D01*
X82833333Y-59735714D01*
X82785714Y-59830952D01*
X82738095Y-59878571D01*
X82642857Y-59926190D01*
X82261904Y-59926190D01*
X83404761Y-59830952D02*
X83309523Y-59783333D01*
X83261904Y-59735714D01*
X83214285Y-59640476D01*
X83214285Y-59592857D01*
X83261904Y-59497619D01*
X83309523Y-59450000D01*
X83404761Y-59402380D01*
X83595238Y-59402380D01*
X83690476Y-59450000D01*
X83738095Y-59497619D01*
X83785714Y-59592857D01*
X83785714Y-59640476D01*
X83738095Y-59735714D01*
X83690476Y-59783333D01*
X83595238Y-59830952D01*
X83404761Y-59830952D01*
X83309523Y-59878571D01*
X83261904Y-59926190D01*
X83214285Y-60021428D01*
X83214285Y-60211904D01*
X83261904Y-60307142D01*
X83309523Y-60354761D01*
X83404761Y-60402380D01*
X83595238Y-60402380D01*
X83690476Y-60354761D01*
X83738095Y-60307142D01*
X83785714Y-60211904D01*
X83785714Y-60021428D01*
X83738095Y-59926190D01*
X83690476Y-59878571D01*
X83595238Y-59830952D01*
X80557142Y-59066666D02*
X80604761Y-59114285D01*
X80652380Y-59257142D01*
X80652380Y-59352380D01*
X80604761Y-59495238D01*
X80509523Y-59590476D01*
X80414285Y-59638095D01*
X80223809Y-59685714D01*
X80080952Y-59685714D01*
X79890476Y-59638095D01*
X79795238Y-59590476D01*
X79700000Y-59495238D01*
X79652380Y-59352380D01*
X79652380Y-59257142D01*
X79700000Y-59114285D01*
X79747619Y-59066666D01*
X79652380Y-58733333D02*
X79652380Y-58066666D01*
X80652380Y-58495238D01*
X84138095Y-50852380D02*
X84138095Y-51661904D01*
X84185714Y-51757142D01*
X84233333Y-51804761D01*
X84328571Y-51852380D01*
X84519047Y-51852380D01*
X84614285Y-51804761D01*
X84661904Y-51757142D01*
X84709523Y-51661904D01*
X84709523Y-50852380D01*
X85090476Y-50852380D02*
X85709523Y-50852380D01*
X85376190Y-51233333D01*
X85519047Y-51233333D01*
X85614285Y-51280952D01*
X85661904Y-51328571D01*
X85709523Y-51423809D01*
X85709523Y-51661904D01*
X85661904Y-51757142D01*
X85614285Y-51804761D01*
X85519047Y-51852380D01*
X85233333Y-51852380D01*
X85138095Y-51804761D01*
X85090476Y-51757142D01*
X106945007Y-51893908D02*
X106843992Y-51927580D01*
X106709305Y-51927580D01*
X106507274Y-51927580D01*
X106406259Y-51961252D01*
X106338916Y-52028595D01*
X106540946Y-52163282D02*
X106439931Y-52196954D01*
X106305244Y-52196954D01*
X106136885Y-52095939D01*
X105901183Y-51860236D01*
X105800168Y-51691878D01*
X105800168Y-51557191D01*
X105833839Y-51456175D01*
X105968526Y-51321488D01*
X106069542Y-51287817D01*
X106204229Y-51287817D01*
X106372587Y-51388832D01*
X106608290Y-51624534D01*
X106709305Y-51792893D01*
X106709305Y-51927580D01*
X106675633Y-52028595D01*
X106540946Y-52163282D01*
X107517427Y-51186801D02*
X107113366Y-51590862D01*
X107315396Y-51388832D02*
X106608290Y-50681725D01*
X106641961Y-50850084D01*
X106641961Y-50984771D01*
X106608290Y-51085786D01*
X104962267Y-56402030D02*
X105063282Y-55829610D01*
X104558206Y-55997969D02*
X105265312Y-55290862D01*
X105534687Y-55560236D01*
X105568358Y-55661251D01*
X105568358Y-55728595D01*
X105534687Y-55829610D01*
X105433671Y-55930625D01*
X105332656Y-55964297D01*
X105265312Y-55964297D01*
X105164297Y-55930625D01*
X104894923Y-55661251D01*
X105871404Y-56031641D02*
X105938748Y-56031641D01*
X106039763Y-56065312D01*
X106208122Y-56233671D01*
X106241793Y-56334687D01*
X106241793Y-56402030D01*
X106208122Y-56503045D01*
X106140778Y-56570389D01*
X106006091Y-56637732D01*
X105197969Y-56637732D01*
X105635702Y-57075465D01*
X87333333Y-73102380D02*
X87000000Y-72626190D01*
X86761904Y-73102380D02*
X86761904Y-72102380D01*
X87142857Y-72102380D01*
X87238095Y-72150000D01*
X87285714Y-72197619D01*
X87333333Y-72292857D01*
X87333333Y-72435714D01*
X87285714Y-72530952D01*
X87238095Y-72578571D01*
X87142857Y-72626190D01*
X86761904Y-72626190D01*
X87666666Y-72102380D02*
X88285714Y-72102380D01*
X87952380Y-72483333D01*
X88095238Y-72483333D01*
X88190476Y-72530952D01*
X88238095Y-72578571D01*
X88285714Y-72673809D01*
X88285714Y-72911904D01*
X88238095Y-73007142D01*
X88190476Y-73054761D01*
X88095238Y-73102380D01*
X87809523Y-73102380D01*
X87714285Y-73054761D01*
X87666666Y-73007142D01*
M02*
