G04 #@! TF.GenerationSoftware,KiCad,Pcbnew,5.0.0-rc2-dev-unknown-62522ee~64~ubuntu17.10.1*
G04 #@! TF.CreationDate,2018-05-05T21:53:19+02:00*
G04 #@! TF.ProjectId,gbcart,6762636172742E6B696361645F706362,rev?*
G04 #@! TF.SameCoordinates,Original*
G04 #@! TF.FileFunction,Soldermask,Top*
G04 #@! TF.FilePolarity,Negative*
%FSLAX46Y46*%
G04 Gerber Fmt 4.6, Leading zero omitted, Abs format (unit mm)*
G04 Created by KiCad (PCBNEW 5.0.0-rc2-dev-unknown-62522ee~64~ubuntu17.10.1) date Sat May  5 21:53:19 2018*
%MOMM*%
%LPD*%
G01*
G04 APERTURE LIST*
%ADD10R,1.070000X1.400000*%
%ADD11C,1.070000*%
%ADD12C,0.100000*%
%ADD13R,1.370000X1.900000*%
%ADD14R,1.300000X1.600000*%
%ADD15R,1.600000X1.300000*%
%ADD16R,1.700000X6.400000*%
%ADD17R,1.400000X5.900000*%
%ADD18R,2.100000X1.400000*%
%ADD19R,1.300000X1.200000*%
%ADD20C,0.650000*%
%ADD21C,2.650000*%
%ADD22C,7.600000*%
%ADD23R,1.400000X1.220000*%
%ADD24R,1.140000X2.800000*%
%ADD25R,2.800000X2.400000*%
%ADD26R,2.297380X2.297380*%
%ADD27R,0.798780X1.748740*%
%ADD28R,0.798780X1.746200*%
%ADD29C,1.197560*%
%ADD30C,1.220000*%
%ADD31R,1.220000X1.400000*%
%ADD32R,3.700000X3.900000*%
%ADD33R,4.400000X4.400000*%
%ADD34C,1.300000*%
%ADD35R,1.950000X1.000000*%
%ADD36C,1.200000*%
G04 APERTURE END LIST*
D10*
X103325000Y-47300000D03*
X105075000Y-47300000D03*
X115450000Y-79000000D03*
X113700000Y-79000000D03*
X115449999Y-77500000D03*
X113699999Y-77500000D03*
D11*
X105937436Y-61462564D03*
D12*
G36*
X106054109Y-62335841D02*
X105064159Y-61345891D01*
X105820763Y-60589287D01*
X106810713Y-61579237D01*
X106054109Y-62335841D01*
X106054109Y-62335841D01*
G37*
D11*
X104700000Y-62700000D03*
D12*
G36*
X104816673Y-63573277D02*
X103826723Y-62583327D01*
X104583327Y-61826723D01*
X105573277Y-62816673D01*
X104816673Y-63573277D01*
X104816673Y-63573277D01*
G37*
D11*
X90337436Y-67337436D03*
D12*
G36*
X91210713Y-67220763D02*
X90220763Y-68210713D01*
X89464159Y-67454109D01*
X90454109Y-66464159D01*
X91210713Y-67220763D01*
X91210713Y-67220763D01*
G37*
D11*
X89100000Y-66100000D03*
D12*
G36*
X89973277Y-65983327D02*
X88983327Y-66973277D01*
X88226723Y-66216673D01*
X89216673Y-65226723D01*
X89973277Y-65983327D01*
X89973277Y-65983327D01*
G37*
D13*
X81790000Y-71400000D03*
X83700000Y-71400000D03*
X81845000Y-65800000D03*
X83755000Y-65800000D03*
D14*
X86300000Y-46400000D03*
X83000000Y-46400000D03*
D15*
X76600000Y-84750000D03*
X76600000Y-88050000D03*
D16*
X123400000Y-96000000D03*
D17*
X121750000Y-95750000D03*
X120250000Y-95750000D03*
X118750000Y-95750000D03*
X117250000Y-95750000D03*
X115750000Y-95750000D03*
X114250000Y-95750000D03*
X112750000Y-95750000D03*
X111250000Y-95750000D03*
X109750000Y-95750000D03*
X108250000Y-95750000D03*
X106750000Y-95750000D03*
X105250000Y-95750000D03*
X103750000Y-95750000D03*
X102250000Y-95750000D03*
X100750000Y-95750000D03*
X99250000Y-95750000D03*
X97750000Y-95750000D03*
X96250000Y-95750000D03*
X94750000Y-95750000D03*
X93250000Y-95750000D03*
X91750000Y-95750000D03*
X90250000Y-95750000D03*
X88750000Y-95750000D03*
X87250000Y-95750000D03*
X85750000Y-95750000D03*
X84250000Y-95750000D03*
X82750000Y-95750000D03*
X81250000Y-95750000D03*
X79750000Y-95750000D03*
D16*
X76600000Y-96000000D03*
D17*
X78250000Y-95750000D03*
D18*
X103300000Y-40900000D03*
X109600000Y-40900000D03*
X103300000Y-44700000D03*
X109600000Y-44700000D03*
D19*
X83800000Y-69550000D03*
X83800000Y-67650000D03*
X81800000Y-68600000D03*
D20*
X101378858Y-77982159D03*
D12*
G36*
X102103642Y-78247324D02*
X101644023Y-78706943D01*
X100654074Y-77716994D01*
X101113693Y-77257375D01*
X102103642Y-78247324D01*
X102103642Y-78247324D01*
G37*
D20*
X101732412Y-77628606D03*
D12*
G36*
X102457196Y-77893771D02*
X101997577Y-78353390D01*
X101007628Y-77363441D01*
X101467247Y-76903822D01*
X102457196Y-77893771D01*
X102457196Y-77893771D01*
G37*
D20*
X102085965Y-77275052D03*
D12*
G36*
X102810749Y-77540217D02*
X102351130Y-77999836D01*
X101361181Y-77009887D01*
X101820800Y-76550268D01*
X102810749Y-77540217D01*
X102810749Y-77540217D01*
G37*
D20*
X102439518Y-76921499D03*
D12*
G36*
X103164302Y-77186664D02*
X102704683Y-77646283D01*
X101714734Y-76656334D01*
X102174353Y-76196715D01*
X103164302Y-77186664D01*
X103164302Y-77186664D01*
G37*
D20*
X102793072Y-76567946D03*
D12*
G36*
X103517856Y-76833111D02*
X103058237Y-77292730D01*
X102068288Y-76302781D01*
X102527907Y-75843162D01*
X103517856Y-76833111D01*
X103517856Y-76833111D01*
G37*
D20*
X103146625Y-76214392D03*
D12*
G36*
X103871409Y-76479557D02*
X103411790Y-76939176D01*
X102421841Y-75949227D01*
X102881460Y-75489608D01*
X103871409Y-76479557D01*
X103871409Y-76479557D01*
G37*
D20*
X103500179Y-75860839D03*
D12*
G36*
X104224963Y-76126004D02*
X103765344Y-76585623D01*
X102775395Y-75595674D01*
X103235014Y-75136055D01*
X104224963Y-76126004D01*
X104224963Y-76126004D01*
G37*
D20*
X103853732Y-75507285D03*
D12*
G36*
X104578516Y-75772450D02*
X104118897Y-76232069D01*
X103128948Y-75242120D01*
X103588567Y-74782501D01*
X104578516Y-75772450D01*
X104578516Y-75772450D01*
G37*
D20*
X104207285Y-75153732D03*
D12*
G36*
X104932069Y-75418897D02*
X104472450Y-75878516D01*
X103482501Y-74888567D01*
X103942120Y-74428948D01*
X104932069Y-75418897D01*
X104932069Y-75418897D01*
G37*
D20*
X104560839Y-74800179D03*
D12*
G36*
X105285623Y-75065344D02*
X104826004Y-75524963D01*
X103836055Y-74535014D01*
X104295674Y-74075395D01*
X105285623Y-75065344D01*
X105285623Y-75065344D01*
G37*
D20*
X104914392Y-74446625D03*
D12*
G36*
X105639176Y-74711790D02*
X105179557Y-75171409D01*
X104189608Y-74181460D01*
X104649227Y-73721841D01*
X105639176Y-74711790D01*
X105639176Y-74711790D01*
G37*
D20*
X105267946Y-74093072D03*
D12*
G36*
X105992730Y-74358237D02*
X105533111Y-74817856D01*
X104543162Y-73827907D01*
X105002781Y-73368288D01*
X105992730Y-74358237D01*
X105992730Y-74358237D01*
G37*
D20*
X105621499Y-73739518D03*
D12*
G36*
X106346283Y-74004683D02*
X105886664Y-74464302D01*
X104896715Y-73474353D01*
X105356334Y-73014734D01*
X106346283Y-74004683D01*
X106346283Y-74004683D01*
G37*
D20*
X105975052Y-73385965D03*
D12*
G36*
X106699836Y-73651130D02*
X106240217Y-74110749D01*
X105250268Y-73120800D01*
X105709887Y-72661181D01*
X106699836Y-73651130D01*
X106699836Y-73651130D01*
G37*
D20*
X106328606Y-73032412D03*
D12*
G36*
X107053390Y-73297577D02*
X106593771Y-73757196D01*
X105603822Y-72767247D01*
X106063441Y-72307628D01*
X107053390Y-73297577D01*
X107053390Y-73297577D01*
G37*
D20*
X106682159Y-72678858D03*
D12*
G36*
X107406943Y-72944023D02*
X106947324Y-73403642D01*
X105957375Y-72413693D01*
X106416994Y-71954074D01*
X107406943Y-72944023D01*
X107406943Y-72944023D01*
G37*
D20*
X106682159Y-69921142D03*
D12*
G36*
X106947324Y-69196358D02*
X107406943Y-69655977D01*
X106416994Y-70645926D01*
X105957375Y-70186307D01*
X106947324Y-69196358D01*
X106947324Y-69196358D01*
G37*
D20*
X106328606Y-69567588D03*
D12*
G36*
X106593771Y-68842804D02*
X107053390Y-69302423D01*
X106063441Y-70292372D01*
X105603822Y-69832753D01*
X106593771Y-68842804D01*
X106593771Y-68842804D01*
G37*
D20*
X105975052Y-69214035D03*
D12*
G36*
X106240217Y-68489251D02*
X106699836Y-68948870D01*
X105709887Y-69938819D01*
X105250268Y-69479200D01*
X106240217Y-68489251D01*
X106240217Y-68489251D01*
G37*
D20*
X105621499Y-68860482D03*
D12*
G36*
X105886664Y-68135698D02*
X106346283Y-68595317D01*
X105356334Y-69585266D01*
X104896715Y-69125647D01*
X105886664Y-68135698D01*
X105886664Y-68135698D01*
G37*
D20*
X105267946Y-68506928D03*
D12*
G36*
X105533111Y-67782144D02*
X105992730Y-68241763D01*
X105002781Y-69231712D01*
X104543162Y-68772093D01*
X105533111Y-67782144D01*
X105533111Y-67782144D01*
G37*
D20*
X104914392Y-68153375D03*
D12*
G36*
X105179557Y-67428591D02*
X105639176Y-67888210D01*
X104649227Y-68878159D01*
X104189608Y-68418540D01*
X105179557Y-67428591D01*
X105179557Y-67428591D01*
G37*
D20*
X104560839Y-67799821D03*
D12*
G36*
X104826004Y-67075037D02*
X105285623Y-67534656D01*
X104295674Y-68524605D01*
X103836055Y-68064986D01*
X104826004Y-67075037D01*
X104826004Y-67075037D01*
G37*
D20*
X104207285Y-67446268D03*
D12*
G36*
X104472450Y-66721484D02*
X104932069Y-67181103D01*
X103942120Y-68171052D01*
X103482501Y-67711433D01*
X104472450Y-66721484D01*
X104472450Y-66721484D01*
G37*
D20*
X103853732Y-67092715D03*
D12*
G36*
X104118897Y-66367931D02*
X104578516Y-66827550D01*
X103588567Y-67817499D01*
X103128948Y-67357880D01*
X104118897Y-66367931D01*
X104118897Y-66367931D01*
G37*
D20*
X103500179Y-66739161D03*
D12*
G36*
X103765344Y-66014377D02*
X104224963Y-66473996D01*
X103235014Y-67463945D01*
X102775395Y-67004326D01*
X103765344Y-66014377D01*
X103765344Y-66014377D01*
G37*
D20*
X103146625Y-66385608D03*
D12*
G36*
X103411790Y-65660824D02*
X103871409Y-66120443D01*
X102881460Y-67110392D01*
X102421841Y-66650773D01*
X103411790Y-65660824D01*
X103411790Y-65660824D01*
G37*
D20*
X102793072Y-66032054D03*
D12*
G36*
X103058237Y-65307270D02*
X103517856Y-65766889D01*
X102527907Y-66756838D01*
X102068288Y-66297219D01*
X103058237Y-65307270D01*
X103058237Y-65307270D01*
G37*
D20*
X102439518Y-65678501D03*
D12*
G36*
X102704683Y-64953717D02*
X103164302Y-65413336D01*
X102174353Y-66403285D01*
X101714734Y-65943666D01*
X102704683Y-64953717D01*
X102704683Y-64953717D01*
G37*
D20*
X102085965Y-65324948D03*
D12*
G36*
X102351130Y-64600164D02*
X102810749Y-65059783D01*
X101820800Y-66049732D01*
X101361181Y-65590113D01*
X102351130Y-64600164D01*
X102351130Y-64600164D01*
G37*
D20*
X101732412Y-64971394D03*
D12*
G36*
X101997577Y-64246610D02*
X102457196Y-64706229D01*
X101467247Y-65696178D01*
X101007628Y-65236559D01*
X101997577Y-64246610D01*
X101997577Y-64246610D01*
G37*
D20*
X101378858Y-64617841D03*
D12*
G36*
X101644023Y-63893057D02*
X102103642Y-64352676D01*
X101113693Y-65342625D01*
X100654074Y-64883006D01*
X101644023Y-63893057D01*
X101644023Y-63893057D01*
G37*
D20*
X98621142Y-64617841D03*
D12*
G36*
X99345926Y-64883006D02*
X98886307Y-65342625D01*
X97896358Y-64352676D01*
X98355977Y-63893057D01*
X99345926Y-64883006D01*
X99345926Y-64883006D01*
G37*
D20*
X98267588Y-64971394D03*
D12*
G36*
X98992372Y-65236559D02*
X98532753Y-65696178D01*
X97542804Y-64706229D01*
X98002423Y-64246610D01*
X98992372Y-65236559D01*
X98992372Y-65236559D01*
G37*
D20*
X97914035Y-65324948D03*
D12*
G36*
X98638819Y-65590113D02*
X98179200Y-66049732D01*
X97189251Y-65059783D01*
X97648870Y-64600164D01*
X98638819Y-65590113D01*
X98638819Y-65590113D01*
G37*
D20*
X97560482Y-65678501D03*
D12*
G36*
X98285266Y-65943666D02*
X97825647Y-66403285D01*
X96835698Y-65413336D01*
X97295317Y-64953717D01*
X98285266Y-65943666D01*
X98285266Y-65943666D01*
G37*
D20*
X97206928Y-66032054D03*
D12*
G36*
X97931712Y-66297219D02*
X97472093Y-66756838D01*
X96482144Y-65766889D01*
X96941763Y-65307270D01*
X97931712Y-66297219D01*
X97931712Y-66297219D01*
G37*
D20*
X96853375Y-66385608D03*
D12*
G36*
X97578159Y-66650773D02*
X97118540Y-67110392D01*
X96128591Y-66120443D01*
X96588210Y-65660824D01*
X97578159Y-66650773D01*
X97578159Y-66650773D01*
G37*
D20*
X96499821Y-66739161D03*
D12*
G36*
X97224605Y-67004326D02*
X96764986Y-67463945D01*
X95775037Y-66473996D01*
X96234656Y-66014377D01*
X97224605Y-67004326D01*
X97224605Y-67004326D01*
G37*
D20*
X96146268Y-67092715D03*
D12*
G36*
X96871052Y-67357880D02*
X96411433Y-67817499D01*
X95421484Y-66827550D01*
X95881103Y-66367931D01*
X96871052Y-67357880D01*
X96871052Y-67357880D01*
G37*
D20*
X95792715Y-67446268D03*
D12*
G36*
X96517499Y-67711433D02*
X96057880Y-68171052D01*
X95067931Y-67181103D01*
X95527550Y-66721484D01*
X96517499Y-67711433D01*
X96517499Y-67711433D01*
G37*
D20*
X95439161Y-67799821D03*
D12*
G36*
X96163945Y-68064986D02*
X95704326Y-68524605D01*
X94714377Y-67534656D01*
X95173996Y-67075037D01*
X96163945Y-68064986D01*
X96163945Y-68064986D01*
G37*
D20*
X95085608Y-68153375D03*
D12*
G36*
X95810392Y-68418540D02*
X95350773Y-68878159D01*
X94360824Y-67888210D01*
X94820443Y-67428591D01*
X95810392Y-68418540D01*
X95810392Y-68418540D01*
G37*
D20*
X94732054Y-68506928D03*
D12*
G36*
X95456838Y-68772093D02*
X94997219Y-69231712D01*
X94007270Y-68241763D01*
X94466889Y-67782144D01*
X95456838Y-68772093D01*
X95456838Y-68772093D01*
G37*
D20*
X94378501Y-68860482D03*
D12*
G36*
X95103285Y-69125647D02*
X94643666Y-69585266D01*
X93653717Y-68595317D01*
X94113336Y-68135698D01*
X95103285Y-69125647D01*
X95103285Y-69125647D01*
G37*
D20*
X94024948Y-69214035D03*
D12*
G36*
X94749732Y-69479200D02*
X94290113Y-69938819D01*
X93300164Y-68948870D01*
X93759783Y-68489251D01*
X94749732Y-69479200D01*
X94749732Y-69479200D01*
G37*
D20*
X93671394Y-69567588D03*
D12*
G36*
X94396178Y-69832753D02*
X93936559Y-70292372D01*
X92946610Y-69302423D01*
X93406229Y-68842804D01*
X94396178Y-69832753D01*
X94396178Y-69832753D01*
G37*
D20*
X93317841Y-69921142D03*
D12*
G36*
X94042625Y-70186307D02*
X93583006Y-70645926D01*
X92593057Y-69655977D01*
X93052676Y-69196358D01*
X94042625Y-70186307D01*
X94042625Y-70186307D01*
G37*
D20*
X93317841Y-72678858D03*
D12*
G36*
X93583006Y-71954074D02*
X94042625Y-72413693D01*
X93052676Y-73403642D01*
X92593057Y-72944023D01*
X93583006Y-71954074D01*
X93583006Y-71954074D01*
G37*
D20*
X93671394Y-73032412D03*
D12*
G36*
X93936559Y-72307628D02*
X94396178Y-72767247D01*
X93406229Y-73757196D01*
X92946610Y-73297577D01*
X93936559Y-72307628D01*
X93936559Y-72307628D01*
G37*
D20*
X94024948Y-73385965D03*
D12*
G36*
X94290113Y-72661181D02*
X94749732Y-73120800D01*
X93759783Y-74110749D01*
X93300164Y-73651130D01*
X94290113Y-72661181D01*
X94290113Y-72661181D01*
G37*
D20*
X94378501Y-73739518D03*
D12*
G36*
X94643666Y-73014734D02*
X95103285Y-73474353D01*
X94113336Y-74464302D01*
X93653717Y-74004683D01*
X94643666Y-73014734D01*
X94643666Y-73014734D01*
G37*
D20*
X94732054Y-74093072D03*
D12*
G36*
X94997219Y-73368288D02*
X95456838Y-73827907D01*
X94466889Y-74817856D01*
X94007270Y-74358237D01*
X94997219Y-73368288D01*
X94997219Y-73368288D01*
G37*
D20*
X95085608Y-74446625D03*
D12*
G36*
X95350773Y-73721841D02*
X95810392Y-74181460D01*
X94820443Y-75171409D01*
X94360824Y-74711790D01*
X95350773Y-73721841D01*
X95350773Y-73721841D01*
G37*
D20*
X95439161Y-74800179D03*
D12*
G36*
X95704326Y-74075395D02*
X96163945Y-74535014D01*
X95173996Y-75524963D01*
X94714377Y-75065344D01*
X95704326Y-74075395D01*
X95704326Y-74075395D01*
G37*
D20*
X95792715Y-75153732D03*
D12*
G36*
X96057880Y-74428948D02*
X96517499Y-74888567D01*
X95527550Y-75878516D01*
X95067931Y-75418897D01*
X96057880Y-74428948D01*
X96057880Y-74428948D01*
G37*
D20*
X96146268Y-75507285D03*
D12*
G36*
X96411433Y-74782501D02*
X96871052Y-75242120D01*
X95881103Y-76232069D01*
X95421484Y-75772450D01*
X96411433Y-74782501D01*
X96411433Y-74782501D01*
G37*
D20*
X96499821Y-75860839D03*
D12*
G36*
X96764986Y-75136055D02*
X97224605Y-75595674D01*
X96234656Y-76585623D01*
X95775037Y-76126004D01*
X96764986Y-75136055D01*
X96764986Y-75136055D01*
G37*
D20*
X96853375Y-76214392D03*
D12*
G36*
X97118540Y-75489608D02*
X97578159Y-75949227D01*
X96588210Y-76939176D01*
X96128591Y-76479557D01*
X97118540Y-75489608D01*
X97118540Y-75489608D01*
G37*
D20*
X97206928Y-76567946D03*
D12*
G36*
X97472093Y-75843162D02*
X97931712Y-76302781D01*
X96941763Y-77292730D01*
X96482144Y-76833111D01*
X97472093Y-75843162D01*
X97472093Y-75843162D01*
G37*
D20*
X97560482Y-76921499D03*
D12*
G36*
X97825647Y-76196715D02*
X98285266Y-76656334D01*
X97295317Y-77646283D01*
X96835698Y-77186664D01*
X97825647Y-76196715D01*
X97825647Y-76196715D01*
G37*
D20*
X97914035Y-77275052D03*
D12*
G36*
X98179200Y-76550268D02*
X98638819Y-77009887D01*
X97648870Y-77999836D01*
X97189251Y-77540217D01*
X98179200Y-76550268D01*
X98179200Y-76550268D01*
G37*
D20*
X98267588Y-77628606D03*
D12*
G36*
X98532753Y-76903822D02*
X98992372Y-77363441D01*
X98002423Y-78353390D01*
X97542804Y-77893771D01*
X98532753Y-76903822D01*
X98532753Y-76903822D01*
G37*
D20*
X98621142Y-77982159D03*
D12*
G36*
X98886307Y-77257375D02*
X99345926Y-77716994D01*
X98355977Y-78706943D01*
X97896358Y-78247324D01*
X98886307Y-77257375D01*
X98886307Y-77257375D01*
G37*
D21*
X100000000Y-59650000D03*
D22*
X100000000Y-84650000D03*
D23*
X93000000Y-40400000D03*
X93000000Y-42000000D03*
X95006256Y-41973514D03*
X95006256Y-40373514D03*
X97000000Y-40400000D03*
X97000000Y-42000000D03*
X99000000Y-42000000D03*
X99000000Y-40400000D03*
D24*
X119270000Y-41900000D03*
X119270000Y-45800000D03*
X118000000Y-41900000D03*
X118000000Y-45800000D03*
X116730000Y-41900000D03*
X116730000Y-45800000D03*
X115460000Y-41900000D03*
X115460000Y-45800000D03*
X114190000Y-41900000D03*
X114190000Y-45800000D03*
D23*
X93000000Y-44021832D03*
X93000000Y-45621832D03*
X95000000Y-45600000D03*
X95000000Y-44000000D03*
X97000000Y-45621832D03*
X97000000Y-44021832D03*
X99000000Y-44000000D03*
X99000000Y-45600000D03*
D25*
X111200000Y-80200000D03*
X111200000Y-76500000D03*
D26*
X85798880Y-40700000D03*
X83401120Y-40700000D03*
X80650300Y-40700000D03*
X88549700Y-40700000D03*
D27*
X85900480Y-43374620D03*
D28*
X85247700Y-43374620D03*
X84600000Y-43374620D03*
X83952300Y-43374620D03*
X83299520Y-43374620D03*
D29*
X82702620Y-42846300D03*
X86499920Y-42848840D03*
D30*
X96965685Y-80134315D03*
D12*
G36*
X96902045Y-79208005D02*
X97891995Y-80197955D01*
X97029325Y-81060625D01*
X96039375Y-80070675D01*
X96902045Y-79208005D01*
X96902045Y-79208005D01*
G37*
D30*
X95834315Y-81265685D03*
D12*
G36*
X95770675Y-80339375D02*
X96760625Y-81329325D01*
X95897955Y-82191995D01*
X94908005Y-81202045D01*
X95770675Y-80339375D01*
X95770675Y-80339375D01*
G37*
D30*
X103500000Y-61500000D03*
D12*
G36*
X103563640Y-62426310D02*
X102573690Y-61436360D01*
X103436360Y-60573690D01*
X104426310Y-61563640D01*
X103563640Y-62426310D01*
X103563640Y-62426310D01*
G37*
D30*
X104631370Y-60368630D03*
D12*
G36*
X104695010Y-61294940D02*
X103705060Y-60304990D01*
X104567730Y-59442320D01*
X105557680Y-60432270D01*
X104695010Y-61294940D01*
X104695010Y-61294940D01*
G37*
D31*
X109400000Y-68000000D03*
X107800000Y-68000000D03*
D32*
X118000000Y-70300000D03*
X118000000Y-54500000D03*
D33*
X118000000Y-62400000D03*
D34*
X108933274Y-56966726D03*
D12*
G36*
X109039340Y-57992031D02*
X107907969Y-56860660D01*
X108827208Y-55941421D01*
X109958579Y-57072792D01*
X109039340Y-57992031D01*
X109039340Y-57992031D01*
G37*
D34*
X111266726Y-54633274D03*
D12*
G36*
X111372792Y-55658579D02*
X110241421Y-54527208D01*
X111160660Y-53607969D01*
X112292031Y-54739340D01*
X111372792Y-55658579D01*
X111372792Y-55658579D01*
G37*
D31*
X82200000Y-61400000D03*
X83800000Y-61400000D03*
D23*
X80200000Y-57100000D03*
X80200000Y-55500000D03*
D35*
X82200000Y-52995000D03*
X82200000Y-54265000D03*
X82200000Y-55535000D03*
X82200000Y-56805000D03*
X87600000Y-56805000D03*
X87600000Y-55535000D03*
X87600000Y-54265000D03*
X87600000Y-52995000D03*
D36*
X107014035Y-53242462D03*
D12*
G36*
X106978680Y-54126345D02*
X106130152Y-53277817D01*
X107049390Y-52358579D01*
X107897918Y-53207107D01*
X106978680Y-54126345D01*
X106978680Y-54126345D01*
G37*
D36*
X108357538Y-54585965D03*
D12*
G36*
X108322183Y-55469848D02*
X107473655Y-54621320D01*
X108392893Y-53702082D01*
X109241421Y-54550610D01*
X108322183Y-55469848D01*
X108322183Y-55469848D01*
G37*
D36*
X109100000Y-52500000D03*
D12*
G36*
X109064645Y-53383883D02*
X108216117Y-52535355D01*
X109135355Y-51616117D01*
X109983883Y-52464645D01*
X109064645Y-53383883D01*
X109064645Y-53383883D01*
G37*
D30*
X106034315Y-54534315D03*
D12*
G36*
X105108005Y-54597955D02*
X106097955Y-53608005D01*
X106960625Y-54470675D01*
X105970675Y-55460625D01*
X105108005Y-54597955D01*
X105108005Y-54597955D01*
G37*
D30*
X107165685Y-55665685D03*
D12*
G36*
X106239375Y-55729325D02*
X107229325Y-54739375D01*
X108091995Y-55602045D01*
X107102045Y-56591995D01*
X106239375Y-55729325D01*
X106239375Y-55729325D01*
G37*
D31*
X88300000Y-71200000D03*
X86700000Y-71200000D03*
M02*
