M48
;DRILL file {KiCad 5.0.0-rc2-dev-unknown-62522ee~64~ubuntu17.10.1} date Sat May  5 21:53:25 2018
;FORMAT={-:-/ absolute / inch / decimal}
FMAT,2
INCH,TZ
T1C0.0157
%
G90
G05
M72
T1
X3.0709Y-3.5236
X3.1654Y-2.0827
X3.1654Y-2.1339
X3.1772Y-2.5906
X3.2047Y-2.2953
X3.2126Y-3.3031
X3.2165Y-3.2559
X3.252Y-3.3425
X3.2717Y-1.8858
X3.2756Y-1.7598
X3.2835Y-3.378
X3.2992Y-2.2087
X3.3322Y-2.8007
X3.3465Y-2.5866
X3.3583Y-2.4291
X3.3819Y-2.2362
X3.4016Y-1.9055
X3.4331Y-1.7677
X3.4764Y-2.5709
X3.4961Y-3.0591
X3.5Y-2.3268
X3.5039Y-2.8898
X3.5039Y-2.9331
X3.5039Y-2.9764
X3.5354Y-2.0827
X3.5354Y-2.2402
X3.5433Y-3.063
X3.5591Y-2.1762
X3.5591Y-2.4685
X3.6024Y-1.5906
X3.6142Y-1.8622
X3.6417Y-3.0236
X3.6811Y-2.5236
X3.7126Y-2.4921
X3.7205Y-3.4016
X3.7323Y-2.8307
X3.7451Y-2.751
X3.748Y-3.4409
X3.7756Y-2.811
X3.7948Y-2.1294
X3.7953Y-2.0827
X3.811Y-2.2756
X3.8258Y-2.4838
X3.8268Y-3.0983
X3.8349Y-2.0627
X3.8386Y-2.3583
X3.8386Y-2.4449
X3.8543Y-2.0276
X3.9094Y-2.2165
X3.9134Y-2.5118
X3.9134Y-2.5787
X3.9134Y-2.9331
X3.9183Y-2.6854
X3.9213Y-2.0236
X3.9213Y-2.8898
X3.9331Y-2.185
X3.9347Y-2.7257
X3.937Y-2.7756
X3.9518Y-2.6487
X3.9567Y-2.1496
X3.9685Y-2.1024
X3.9685Y-2.6102
X3.9803Y-2.9488
X4.0079Y-2.063
X4.0472Y-3.1417
X4.0748Y-3.1063
X4.0817Y-2.8819
X4.1161Y-2.5537
X4.122Y-3.1417
X4.1299Y-2.5906
X4.1496Y-3.1969
X4.1654Y-2.5
X4.1666Y-2.3349
X4.1828Y-3.2389
X4.1969Y-2.2913
X4.2087Y-2.5
X4.2087Y-3.2756
X4.2362Y-2.2283
X4.2402Y-3.3504
X4.2441Y-2.5197
X4.2441Y-3.2992
X4.2638Y-3.4173
X4.2874Y-1.9291
X4.2913Y-2.5157
X4.311Y-3.4291
X4.3268Y-2.7205
X4.3465Y-2.8268
X4.374Y-3.437
X4.4173Y-2.9055
X4.437Y-3.437
X4.4449Y-2.874
X4.4882Y-2.874
X4.5039Y-3.4331
X4.5118Y-2.1339
X4.5157Y-2.0472
X4.5315Y-2.8583
X4.5551Y-1.9252
X4.5591Y-3.4331
X4.5827Y-3.0787
X4.6457Y-1.9803
X4.7047Y-2.9094
X4.7283Y-3.5276
X4.8583Y-3.5433
T0
M30
