G04 #@! TF.GenerationSoftware,KiCad,Pcbnew,5.0.0-rc2-dev-unknown-62522ee~64~ubuntu17.10.1*
G04 #@! TF.CreationDate,2018-05-05T21:53:19+02:00*
G04 #@! TF.ProjectId,gbcart,6762636172742E6B696361645F706362,rev?*
G04 #@! TF.SameCoordinates,Original*
G04 #@! TF.FileFunction,Copper,L1,Top,Signal*
G04 #@! TF.FilePolarity,Positive*
%FSLAX46Y46*%
G04 Gerber Fmt 4.6, Leading zero omitted, Abs format (unit mm)*
G04 Created by KiCad (PCBNEW 5.0.0-rc2-dev-unknown-62522ee~64~ubuntu17.10.1) date Sat May  5 21:53:19 2018*
%MOMM*%
%LPD*%
G01*
G04 APERTURE LIST*
%ADD10R,0.670000X1.000000*%
%ADD11C,0.670000*%
%ADD12C,0.100000*%
%ADD13R,0.970000X1.500000*%
%ADD14R,0.900000X1.200000*%
%ADD15R,1.200000X0.900000*%
%ADD16R,1.300000X6.000000*%
%ADD17R,1.000000X5.500000*%
%ADD18R,1.700000X1.000000*%
%ADD19R,0.900000X0.800000*%
%ADD20C,0.250000*%
%ADD21R,1.000000X0.820000*%
%ADD22R,0.740000X2.400000*%
%ADD23R,2.400000X2.000000*%
%ADD24R,1.897380X1.897380*%
%ADD25R,0.398780X1.348740*%
%ADD26R,0.398780X1.346200*%
%ADD27C,0.820000*%
%ADD28R,0.820000X1.000000*%
%ADD29R,3.300000X3.500000*%
%ADD30R,4.000000X4.000000*%
%ADD31C,0.900000*%
%ADD32R,1.550000X0.600000*%
%ADD33C,0.800000*%
%ADD34C,0.500000*%
%ADD35C,0.300000*%
%ADD36C,0.250000*%
%ADD37C,0.400000*%
%ADD38C,0.254000*%
G04 APERTURE END LIST*
D10*
X103325000Y-47300000D03*
X105075000Y-47300000D03*
X115450000Y-79000000D03*
X113700000Y-79000000D03*
X115449999Y-77500000D03*
X113699999Y-77500000D03*
D11*
X105937436Y-61462564D03*
D12*
G36*
X106054109Y-62052998D02*
X105347002Y-61345891D01*
X105820763Y-60872130D01*
X106527870Y-61579237D01*
X106054109Y-62052998D01*
X106054109Y-62052998D01*
G37*
D11*
X104700000Y-62700000D03*
D12*
G36*
X104816673Y-63290434D02*
X104109566Y-62583327D01*
X104583327Y-62109566D01*
X105290434Y-62816673D01*
X104816673Y-63290434D01*
X104816673Y-63290434D01*
G37*
D11*
X90337436Y-67337436D03*
D12*
G36*
X90927870Y-67220763D02*
X90220763Y-67927870D01*
X89747002Y-67454109D01*
X90454109Y-66747002D01*
X90927870Y-67220763D01*
X90927870Y-67220763D01*
G37*
D11*
X89100000Y-66100000D03*
D12*
G36*
X89690434Y-65983327D02*
X88983327Y-66690434D01*
X88509566Y-66216673D01*
X89216673Y-65509566D01*
X89690434Y-65983327D01*
X89690434Y-65983327D01*
G37*
D13*
X81790000Y-71400000D03*
X83700000Y-71400000D03*
X81845000Y-65800000D03*
X83755000Y-65800000D03*
D14*
X86300000Y-46400000D03*
X83000000Y-46400000D03*
D15*
X76600000Y-84750000D03*
X76600000Y-88050000D03*
D16*
X123400000Y-96000000D03*
D17*
X121750000Y-95750000D03*
X120250000Y-95750000D03*
X118750000Y-95750000D03*
X117250000Y-95750000D03*
X115750000Y-95750000D03*
X114250000Y-95750000D03*
X112750000Y-95750000D03*
X111250000Y-95750000D03*
X109750000Y-95750000D03*
X108250000Y-95750000D03*
X106750000Y-95750000D03*
X105250000Y-95750000D03*
X103750000Y-95750000D03*
X102250000Y-95750000D03*
X100750000Y-95750000D03*
X99250000Y-95750000D03*
X97750000Y-95750000D03*
X96250000Y-95750000D03*
X94750000Y-95750000D03*
X93250000Y-95750000D03*
X91750000Y-95750000D03*
X90250000Y-95750000D03*
X88750000Y-95750000D03*
X87250000Y-95750000D03*
X85750000Y-95750000D03*
X84250000Y-95750000D03*
X82750000Y-95750000D03*
X81250000Y-95750000D03*
X79750000Y-95750000D03*
D16*
X76600000Y-96000000D03*
D17*
X78250000Y-95750000D03*
D18*
X103300000Y-40900000D03*
X109600000Y-40900000D03*
X103300000Y-44700000D03*
X109600000Y-44700000D03*
D19*
X83800000Y-69550000D03*
X83800000Y-67650000D03*
X81800000Y-68600000D03*
D20*
X101378858Y-77982159D03*
D12*
G36*
X101820800Y-78247324D02*
X101644023Y-78424101D01*
X100936916Y-77716994D01*
X101113693Y-77540217D01*
X101820800Y-78247324D01*
X101820800Y-78247324D01*
G37*
D20*
X101732412Y-77628606D03*
D12*
G36*
X102174354Y-77893771D02*
X101997577Y-78070548D01*
X101290470Y-77363441D01*
X101467247Y-77186664D01*
X102174354Y-77893771D01*
X102174354Y-77893771D01*
G37*
D20*
X102085965Y-77275052D03*
D12*
G36*
X102527907Y-77540217D02*
X102351130Y-77716994D01*
X101644023Y-77009887D01*
X101820800Y-76833110D01*
X102527907Y-77540217D01*
X102527907Y-77540217D01*
G37*
D20*
X102439518Y-76921499D03*
D12*
G36*
X102881460Y-77186664D02*
X102704683Y-77363441D01*
X101997576Y-76656334D01*
X102174353Y-76479557D01*
X102881460Y-77186664D01*
X102881460Y-77186664D01*
G37*
D20*
X102793072Y-76567946D03*
D12*
G36*
X103235014Y-76833111D02*
X103058237Y-77009888D01*
X102351130Y-76302781D01*
X102527907Y-76126004D01*
X103235014Y-76833111D01*
X103235014Y-76833111D01*
G37*
D20*
X103146625Y-76214392D03*
D12*
G36*
X103588567Y-76479557D02*
X103411790Y-76656334D01*
X102704683Y-75949227D01*
X102881460Y-75772450D01*
X103588567Y-76479557D01*
X103588567Y-76479557D01*
G37*
D20*
X103500179Y-75860839D03*
D12*
G36*
X103942121Y-76126004D02*
X103765344Y-76302781D01*
X103058237Y-75595674D01*
X103235014Y-75418897D01*
X103942121Y-76126004D01*
X103942121Y-76126004D01*
G37*
D20*
X103853732Y-75507285D03*
D12*
G36*
X104295674Y-75772450D02*
X104118897Y-75949227D01*
X103411790Y-75242120D01*
X103588567Y-75065343D01*
X104295674Y-75772450D01*
X104295674Y-75772450D01*
G37*
D20*
X104207285Y-75153732D03*
D12*
G36*
X104649227Y-75418897D02*
X104472450Y-75595674D01*
X103765343Y-74888567D01*
X103942120Y-74711790D01*
X104649227Y-75418897D01*
X104649227Y-75418897D01*
G37*
D20*
X104560839Y-74800179D03*
D12*
G36*
X105002781Y-75065344D02*
X104826004Y-75242121D01*
X104118897Y-74535014D01*
X104295674Y-74358237D01*
X105002781Y-75065344D01*
X105002781Y-75065344D01*
G37*
D20*
X104914392Y-74446625D03*
D12*
G36*
X105356334Y-74711790D02*
X105179557Y-74888567D01*
X104472450Y-74181460D01*
X104649227Y-74004683D01*
X105356334Y-74711790D01*
X105356334Y-74711790D01*
G37*
D20*
X105267946Y-74093072D03*
D12*
G36*
X105709888Y-74358237D02*
X105533111Y-74535014D01*
X104826004Y-73827907D01*
X105002781Y-73651130D01*
X105709888Y-74358237D01*
X105709888Y-74358237D01*
G37*
D20*
X105621499Y-73739518D03*
D12*
G36*
X106063441Y-74004683D02*
X105886664Y-74181460D01*
X105179557Y-73474353D01*
X105356334Y-73297576D01*
X106063441Y-74004683D01*
X106063441Y-74004683D01*
G37*
D20*
X105975052Y-73385965D03*
D12*
G36*
X106416994Y-73651130D02*
X106240217Y-73827907D01*
X105533110Y-73120800D01*
X105709887Y-72944023D01*
X106416994Y-73651130D01*
X106416994Y-73651130D01*
G37*
D20*
X106328606Y-73032412D03*
D12*
G36*
X106770548Y-73297577D02*
X106593771Y-73474354D01*
X105886664Y-72767247D01*
X106063441Y-72590470D01*
X106770548Y-73297577D01*
X106770548Y-73297577D01*
G37*
D20*
X106682159Y-72678858D03*
D12*
G36*
X107124101Y-72944023D02*
X106947324Y-73120800D01*
X106240217Y-72413693D01*
X106416994Y-72236916D01*
X107124101Y-72944023D01*
X107124101Y-72944023D01*
G37*
D20*
X106682159Y-69921142D03*
D12*
G36*
X106947324Y-69479200D02*
X107124101Y-69655977D01*
X106416994Y-70363084D01*
X106240217Y-70186307D01*
X106947324Y-69479200D01*
X106947324Y-69479200D01*
G37*
D20*
X106328606Y-69567588D03*
D12*
G36*
X106593771Y-69125646D02*
X106770548Y-69302423D01*
X106063441Y-70009530D01*
X105886664Y-69832753D01*
X106593771Y-69125646D01*
X106593771Y-69125646D01*
G37*
D20*
X105975052Y-69214035D03*
D12*
G36*
X106240217Y-68772093D02*
X106416994Y-68948870D01*
X105709887Y-69655977D01*
X105533110Y-69479200D01*
X106240217Y-68772093D01*
X106240217Y-68772093D01*
G37*
D20*
X105621499Y-68860482D03*
D12*
G36*
X105886664Y-68418540D02*
X106063441Y-68595317D01*
X105356334Y-69302424D01*
X105179557Y-69125647D01*
X105886664Y-68418540D01*
X105886664Y-68418540D01*
G37*
D20*
X105267946Y-68506928D03*
D12*
G36*
X105533111Y-68064986D02*
X105709888Y-68241763D01*
X105002781Y-68948870D01*
X104826004Y-68772093D01*
X105533111Y-68064986D01*
X105533111Y-68064986D01*
G37*
D20*
X104914392Y-68153375D03*
D12*
G36*
X105179557Y-67711433D02*
X105356334Y-67888210D01*
X104649227Y-68595317D01*
X104472450Y-68418540D01*
X105179557Y-67711433D01*
X105179557Y-67711433D01*
G37*
D20*
X104560839Y-67799821D03*
D12*
G36*
X104826004Y-67357879D02*
X105002781Y-67534656D01*
X104295674Y-68241763D01*
X104118897Y-68064986D01*
X104826004Y-67357879D01*
X104826004Y-67357879D01*
G37*
D20*
X104207285Y-67446268D03*
D12*
G36*
X104472450Y-67004326D02*
X104649227Y-67181103D01*
X103942120Y-67888210D01*
X103765343Y-67711433D01*
X104472450Y-67004326D01*
X104472450Y-67004326D01*
G37*
D20*
X103853732Y-67092715D03*
D12*
G36*
X104118897Y-66650773D02*
X104295674Y-66827550D01*
X103588567Y-67534657D01*
X103411790Y-67357880D01*
X104118897Y-66650773D01*
X104118897Y-66650773D01*
G37*
D20*
X103500179Y-66739161D03*
D12*
G36*
X103765344Y-66297219D02*
X103942121Y-66473996D01*
X103235014Y-67181103D01*
X103058237Y-67004326D01*
X103765344Y-66297219D01*
X103765344Y-66297219D01*
G37*
D20*
X103146625Y-66385608D03*
D12*
G36*
X103411790Y-65943666D02*
X103588567Y-66120443D01*
X102881460Y-66827550D01*
X102704683Y-66650773D01*
X103411790Y-65943666D01*
X103411790Y-65943666D01*
G37*
D20*
X102793072Y-66032054D03*
D12*
G36*
X103058237Y-65590112D02*
X103235014Y-65766889D01*
X102527907Y-66473996D01*
X102351130Y-66297219D01*
X103058237Y-65590112D01*
X103058237Y-65590112D01*
G37*
D20*
X102439518Y-65678501D03*
D12*
G36*
X102704683Y-65236559D02*
X102881460Y-65413336D01*
X102174353Y-66120443D01*
X101997576Y-65943666D01*
X102704683Y-65236559D01*
X102704683Y-65236559D01*
G37*
D20*
X102085965Y-65324948D03*
D12*
G36*
X102351130Y-64883006D02*
X102527907Y-65059783D01*
X101820800Y-65766890D01*
X101644023Y-65590113D01*
X102351130Y-64883006D01*
X102351130Y-64883006D01*
G37*
D20*
X101732412Y-64971394D03*
D12*
G36*
X101997577Y-64529452D02*
X102174354Y-64706229D01*
X101467247Y-65413336D01*
X101290470Y-65236559D01*
X101997577Y-64529452D01*
X101997577Y-64529452D01*
G37*
D20*
X101378858Y-64617841D03*
D12*
G36*
X101644023Y-64175899D02*
X101820800Y-64352676D01*
X101113693Y-65059783D01*
X100936916Y-64883006D01*
X101644023Y-64175899D01*
X101644023Y-64175899D01*
G37*
D20*
X98621142Y-64617841D03*
D12*
G36*
X99063084Y-64883006D02*
X98886307Y-65059783D01*
X98179200Y-64352676D01*
X98355977Y-64175899D01*
X99063084Y-64883006D01*
X99063084Y-64883006D01*
G37*
D20*
X98267588Y-64971394D03*
D12*
G36*
X98709530Y-65236559D02*
X98532753Y-65413336D01*
X97825646Y-64706229D01*
X98002423Y-64529452D01*
X98709530Y-65236559D01*
X98709530Y-65236559D01*
G37*
D20*
X97914035Y-65324948D03*
D12*
G36*
X98355977Y-65590113D02*
X98179200Y-65766890D01*
X97472093Y-65059783D01*
X97648870Y-64883006D01*
X98355977Y-65590113D01*
X98355977Y-65590113D01*
G37*
D20*
X97560482Y-65678501D03*
D12*
G36*
X98002424Y-65943666D02*
X97825647Y-66120443D01*
X97118540Y-65413336D01*
X97295317Y-65236559D01*
X98002424Y-65943666D01*
X98002424Y-65943666D01*
G37*
D20*
X97206928Y-66032054D03*
D12*
G36*
X97648870Y-66297219D02*
X97472093Y-66473996D01*
X96764986Y-65766889D01*
X96941763Y-65590112D01*
X97648870Y-66297219D01*
X97648870Y-66297219D01*
G37*
D20*
X96853375Y-66385608D03*
D12*
G36*
X97295317Y-66650773D02*
X97118540Y-66827550D01*
X96411433Y-66120443D01*
X96588210Y-65943666D01*
X97295317Y-66650773D01*
X97295317Y-66650773D01*
G37*
D20*
X96499821Y-66739161D03*
D12*
G36*
X96941763Y-67004326D02*
X96764986Y-67181103D01*
X96057879Y-66473996D01*
X96234656Y-66297219D01*
X96941763Y-67004326D01*
X96941763Y-67004326D01*
G37*
D20*
X96146268Y-67092715D03*
D12*
G36*
X96588210Y-67357880D02*
X96411433Y-67534657D01*
X95704326Y-66827550D01*
X95881103Y-66650773D01*
X96588210Y-67357880D01*
X96588210Y-67357880D01*
G37*
D20*
X95792715Y-67446268D03*
D12*
G36*
X96234657Y-67711433D02*
X96057880Y-67888210D01*
X95350773Y-67181103D01*
X95527550Y-67004326D01*
X96234657Y-67711433D01*
X96234657Y-67711433D01*
G37*
D20*
X95439161Y-67799821D03*
D12*
G36*
X95881103Y-68064986D02*
X95704326Y-68241763D01*
X94997219Y-67534656D01*
X95173996Y-67357879D01*
X95881103Y-68064986D01*
X95881103Y-68064986D01*
G37*
D20*
X95085608Y-68153375D03*
D12*
G36*
X95527550Y-68418540D02*
X95350773Y-68595317D01*
X94643666Y-67888210D01*
X94820443Y-67711433D01*
X95527550Y-68418540D01*
X95527550Y-68418540D01*
G37*
D20*
X94732054Y-68506928D03*
D12*
G36*
X95173996Y-68772093D02*
X94997219Y-68948870D01*
X94290112Y-68241763D01*
X94466889Y-68064986D01*
X95173996Y-68772093D01*
X95173996Y-68772093D01*
G37*
D20*
X94378501Y-68860482D03*
D12*
G36*
X94820443Y-69125647D02*
X94643666Y-69302424D01*
X93936559Y-68595317D01*
X94113336Y-68418540D01*
X94820443Y-69125647D01*
X94820443Y-69125647D01*
G37*
D20*
X94024948Y-69214035D03*
D12*
G36*
X94466890Y-69479200D02*
X94290113Y-69655977D01*
X93583006Y-68948870D01*
X93759783Y-68772093D01*
X94466890Y-69479200D01*
X94466890Y-69479200D01*
G37*
D20*
X93671394Y-69567588D03*
D12*
G36*
X94113336Y-69832753D02*
X93936559Y-70009530D01*
X93229452Y-69302423D01*
X93406229Y-69125646D01*
X94113336Y-69832753D01*
X94113336Y-69832753D01*
G37*
D20*
X93317841Y-69921142D03*
D12*
G36*
X93759783Y-70186307D02*
X93583006Y-70363084D01*
X92875899Y-69655977D01*
X93052676Y-69479200D01*
X93759783Y-70186307D01*
X93759783Y-70186307D01*
G37*
D20*
X93317841Y-72678858D03*
D12*
G36*
X93583006Y-72236916D02*
X93759783Y-72413693D01*
X93052676Y-73120800D01*
X92875899Y-72944023D01*
X93583006Y-72236916D01*
X93583006Y-72236916D01*
G37*
D20*
X93671394Y-73032412D03*
D12*
G36*
X93936559Y-72590470D02*
X94113336Y-72767247D01*
X93406229Y-73474354D01*
X93229452Y-73297577D01*
X93936559Y-72590470D01*
X93936559Y-72590470D01*
G37*
D20*
X94024948Y-73385965D03*
D12*
G36*
X94290113Y-72944023D02*
X94466890Y-73120800D01*
X93759783Y-73827907D01*
X93583006Y-73651130D01*
X94290113Y-72944023D01*
X94290113Y-72944023D01*
G37*
D20*
X94378501Y-73739518D03*
D12*
G36*
X94643666Y-73297576D02*
X94820443Y-73474353D01*
X94113336Y-74181460D01*
X93936559Y-74004683D01*
X94643666Y-73297576D01*
X94643666Y-73297576D01*
G37*
D20*
X94732054Y-74093072D03*
D12*
G36*
X94997219Y-73651130D02*
X95173996Y-73827907D01*
X94466889Y-74535014D01*
X94290112Y-74358237D01*
X94997219Y-73651130D01*
X94997219Y-73651130D01*
G37*
D20*
X95085608Y-74446625D03*
D12*
G36*
X95350773Y-74004683D02*
X95527550Y-74181460D01*
X94820443Y-74888567D01*
X94643666Y-74711790D01*
X95350773Y-74004683D01*
X95350773Y-74004683D01*
G37*
D20*
X95439161Y-74800179D03*
D12*
G36*
X95704326Y-74358237D02*
X95881103Y-74535014D01*
X95173996Y-75242121D01*
X94997219Y-75065344D01*
X95704326Y-74358237D01*
X95704326Y-74358237D01*
G37*
D20*
X95792715Y-75153732D03*
D12*
G36*
X96057880Y-74711790D02*
X96234657Y-74888567D01*
X95527550Y-75595674D01*
X95350773Y-75418897D01*
X96057880Y-74711790D01*
X96057880Y-74711790D01*
G37*
D20*
X96146268Y-75507285D03*
D12*
G36*
X96411433Y-75065343D02*
X96588210Y-75242120D01*
X95881103Y-75949227D01*
X95704326Y-75772450D01*
X96411433Y-75065343D01*
X96411433Y-75065343D01*
G37*
D20*
X96499821Y-75860839D03*
D12*
G36*
X96764986Y-75418897D02*
X96941763Y-75595674D01*
X96234656Y-76302781D01*
X96057879Y-76126004D01*
X96764986Y-75418897D01*
X96764986Y-75418897D01*
G37*
D20*
X96853375Y-76214392D03*
D12*
G36*
X97118540Y-75772450D02*
X97295317Y-75949227D01*
X96588210Y-76656334D01*
X96411433Y-76479557D01*
X97118540Y-75772450D01*
X97118540Y-75772450D01*
G37*
D20*
X97206928Y-76567946D03*
D12*
G36*
X97472093Y-76126004D02*
X97648870Y-76302781D01*
X96941763Y-77009888D01*
X96764986Y-76833111D01*
X97472093Y-76126004D01*
X97472093Y-76126004D01*
G37*
D20*
X97560482Y-76921499D03*
D12*
G36*
X97825647Y-76479557D02*
X98002424Y-76656334D01*
X97295317Y-77363441D01*
X97118540Y-77186664D01*
X97825647Y-76479557D01*
X97825647Y-76479557D01*
G37*
D20*
X97914035Y-77275052D03*
D12*
G36*
X98179200Y-76833110D02*
X98355977Y-77009887D01*
X97648870Y-77716994D01*
X97472093Y-77540217D01*
X98179200Y-76833110D01*
X98179200Y-76833110D01*
G37*
D20*
X98267588Y-77628606D03*
D12*
G36*
X98532753Y-77186664D02*
X98709530Y-77363441D01*
X98002423Y-78070548D01*
X97825646Y-77893771D01*
X98532753Y-77186664D01*
X98532753Y-77186664D01*
G37*
D20*
X98621142Y-77982159D03*
D12*
G36*
X98886307Y-77540217D02*
X99063084Y-77716994D01*
X98355977Y-78424101D01*
X98179200Y-78247324D01*
X98886307Y-77540217D01*
X98886307Y-77540217D01*
G37*
D21*
X93000000Y-40400000D03*
X93000000Y-42000000D03*
X95006256Y-41973514D03*
X95006256Y-40373514D03*
X97000000Y-40400000D03*
X97000000Y-42000000D03*
X99000000Y-42000000D03*
X99000000Y-40400000D03*
D22*
X119270000Y-41900000D03*
X119270000Y-45800000D03*
X118000000Y-41900000D03*
X118000000Y-45800000D03*
X116730000Y-41900000D03*
X116730000Y-45800000D03*
X115460000Y-41900000D03*
X115460000Y-45800000D03*
X114190000Y-41900000D03*
X114190000Y-45800000D03*
D21*
X93000000Y-44021832D03*
X93000000Y-45621832D03*
X95000000Y-45600000D03*
X95000000Y-44000000D03*
X97000000Y-45621832D03*
X97000000Y-44021832D03*
X99000000Y-44000000D03*
X99000000Y-45600000D03*
D23*
X111200000Y-80200000D03*
X111200000Y-76500000D03*
D24*
X85798880Y-40700000D03*
X83401120Y-40700000D03*
X80650300Y-40700000D03*
X88549700Y-40700000D03*
D25*
X85900480Y-43374620D03*
D26*
X85247700Y-43374620D03*
X84600000Y-43374620D03*
X83952300Y-43374620D03*
X83299520Y-43374620D03*
D27*
X96965685Y-80134315D03*
D12*
G36*
X96902045Y-79490848D02*
X97609152Y-80197955D01*
X97029325Y-80777782D01*
X96322218Y-80070675D01*
X96902045Y-79490848D01*
X96902045Y-79490848D01*
G37*
D27*
X95834315Y-81265685D03*
D12*
G36*
X95770675Y-80622218D02*
X96477782Y-81329325D01*
X95897955Y-81909152D01*
X95190848Y-81202045D01*
X95770675Y-80622218D01*
X95770675Y-80622218D01*
G37*
D27*
X103500000Y-61500000D03*
D12*
G36*
X103563640Y-62143467D02*
X102856533Y-61436360D01*
X103436360Y-60856533D01*
X104143467Y-61563640D01*
X103563640Y-62143467D01*
X103563640Y-62143467D01*
G37*
D27*
X104631370Y-60368630D03*
D12*
G36*
X104695010Y-61012097D02*
X103987903Y-60304990D01*
X104567730Y-59725163D01*
X105274837Y-60432270D01*
X104695010Y-61012097D01*
X104695010Y-61012097D01*
G37*
D28*
X109400000Y-68000000D03*
X107800000Y-68000000D03*
D29*
X118000000Y-70300000D03*
X118000000Y-54500000D03*
D30*
X118000000Y-62400000D03*
D31*
X108933274Y-56966726D03*
D12*
G36*
X109039340Y-57709188D02*
X108190812Y-56860660D01*
X108827208Y-56224264D01*
X109675736Y-57072792D01*
X109039340Y-57709188D01*
X109039340Y-57709188D01*
G37*
D31*
X111266726Y-54633274D03*
D12*
G36*
X111372792Y-55375736D02*
X110524264Y-54527208D01*
X111160660Y-53890812D01*
X112009188Y-54739340D01*
X111372792Y-55375736D01*
X111372792Y-55375736D01*
G37*
D28*
X82200000Y-61400000D03*
X83800000Y-61400000D03*
D21*
X80200000Y-57100000D03*
X80200000Y-55500000D03*
D32*
X82200000Y-52995000D03*
X82200000Y-54265000D03*
X82200000Y-55535000D03*
X82200000Y-56805000D03*
X87600000Y-56805000D03*
X87600000Y-55535000D03*
X87600000Y-54265000D03*
X87600000Y-52995000D03*
D33*
X107014035Y-53242462D03*
D12*
G36*
X106978680Y-53843503D02*
X106412994Y-53277817D01*
X107049390Y-52641421D01*
X107615076Y-53207107D01*
X106978680Y-53843503D01*
X106978680Y-53843503D01*
G37*
D33*
X108357538Y-54585965D03*
D12*
G36*
X108322183Y-55187006D02*
X107756497Y-54621320D01*
X108392893Y-53984924D01*
X108958579Y-54550610D01*
X108322183Y-55187006D01*
X108322183Y-55187006D01*
G37*
D33*
X109100000Y-52500000D03*
D12*
G36*
X109064645Y-53101041D02*
X108498959Y-52535355D01*
X109135355Y-51898959D01*
X109701041Y-52464645D01*
X109064645Y-53101041D01*
X109064645Y-53101041D01*
G37*
D27*
X106034315Y-54534315D03*
D12*
G36*
X105390848Y-54597955D02*
X106097955Y-53890848D01*
X106677782Y-54470675D01*
X105970675Y-55177782D01*
X105390848Y-54597955D01*
X105390848Y-54597955D01*
G37*
D27*
X107165685Y-55665685D03*
D12*
G36*
X106522218Y-55729325D02*
X107229325Y-55022218D01*
X107809152Y-55602045D01*
X107102045Y-56309152D01*
X106522218Y-55729325D01*
X106522218Y-55729325D01*
G37*
D28*
X88300000Y-71200000D03*
X86700000Y-71200000D03*
D33*
X87200000Y-44900000D03*
X83100000Y-47900000D03*
X108900000Y-49000000D03*
X91800000Y-47300000D03*
X116400000Y-78200000D03*
X80700000Y-65800000D03*
X88300000Y-65300000D03*
X91500000Y-40400000D03*
X83200000Y-44700000D03*
X84637340Y-71137340D03*
X123400000Y-90000000D03*
X109900000Y-69100000D03*
X103674990Y-73200000D03*
X105832854Y-59307534D03*
X81400000Y-58300000D03*
X110400000Y-71800000D03*
X97200000Y-78696194D03*
X101100000Y-74900000D03*
X107600000Y-56600000D03*
X97500000Y-59900000D03*
X89800000Y-52900000D03*
X88900000Y-59100000D03*
X90400000Y-62700000D03*
X115700000Y-48900000D03*
X85900000Y-56800000D03*
X83800000Y-56100000D03*
X85000000Y-65700000D03*
X120100000Y-89600000D03*
X92500000Y-76800000D03*
X99400000Y-74500000D03*
X107800000Y-83800000D03*
X99600000Y-73400000D03*
X107700000Y-85100000D03*
X104547905Y-64864023D03*
X115800000Y-87200000D03*
X104900000Y-65800000D03*
X114400000Y-87200000D03*
X115100000Y-72600000D03*
X112700000Y-87300000D03*
X114000000Y-73000000D03*
X111100000Y-87300000D03*
X112900000Y-73000000D03*
X109500000Y-87100000D03*
X112200000Y-73800000D03*
X108300000Y-86800000D03*
X97500000Y-62100000D03*
X106900000Y-83200000D03*
X97175021Y-63087999D03*
X106242995Y-82268620D03*
X105400000Y-81200000D03*
X99400000Y-63800000D03*
X104700000Y-79800000D03*
X99400000Y-65500000D03*
X103500000Y-78900000D03*
X100800000Y-66300000D03*
X102800000Y-79800000D03*
X100374990Y-67278061D03*
X89000000Y-75600000D03*
X99525942Y-68207950D03*
X89000000Y-74500000D03*
X99940954Y-69232406D03*
X89000000Y-73400000D03*
X100000000Y-70500000D03*
X83400000Y-85800000D03*
X90000000Y-77800000D03*
X82600000Y-84900000D03*
X88800000Y-77700000D03*
X93500000Y-64100000D03*
X81600000Y-83900000D03*
X94300000Y-63300000D03*
X81700000Y-82700000D03*
X96800000Y-57800000D03*
X95900000Y-71400000D03*
X114600000Y-54200000D03*
X119499999Y-73900000D03*
X118000000Y-50300004D03*
X95124979Y-69874990D03*
X94800000Y-71900000D03*
X114700000Y-52000000D03*
X94500000Y-86400000D03*
X86400000Y-48400000D03*
X95200000Y-87400000D03*
X78000000Y-89500000D03*
X106600000Y-58200000D03*
X101800000Y-52400000D03*
X99600000Y-51400000D03*
X85300000Y-61700000D03*
X109000000Y-63900000D03*
X100800000Y-53400000D03*
X97900000Y-51500000D03*
X80400000Y-52900000D03*
X107800000Y-64000000D03*
X100500000Y-54600000D03*
X97407115Y-52392885D03*
X90400000Y-55274990D03*
X106900000Y-63500000D03*
X99900000Y-55500000D03*
X96400000Y-52900000D03*
X80400000Y-54200000D03*
X105800000Y-63500000D03*
X99300000Y-56300000D03*
X89800000Y-56900000D03*
X96386799Y-54087881D03*
D34*
X80805000Y-71400000D02*
X81790000Y-71400000D01*
X76600000Y-75605000D02*
X80805000Y-71400000D01*
X81790000Y-68610000D02*
X81800000Y-68600000D01*
X81790000Y-71400000D02*
X81790000Y-68610000D01*
X80200000Y-68600000D02*
X81800000Y-68600000D01*
X83000000Y-46400000D02*
X80200000Y-46400000D01*
X80200000Y-46400000D02*
X79000000Y-47600000D01*
X79000000Y-67400000D02*
X80200000Y-68600000D01*
D35*
X87921832Y-45621832D02*
X87200000Y-44900000D01*
X83100000Y-46500000D02*
X83000000Y-46400000D01*
X83100000Y-47900000D02*
X83100000Y-46500000D01*
D34*
X76600000Y-84750000D02*
X76600000Y-80400000D01*
X76600000Y-80400000D02*
X76600000Y-75605000D01*
X82200000Y-61400000D02*
X79100000Y-61400000D01*
X79100000Y-61400000D02*
X79000000Y-61300000D01*
X79000000Y-47600000D02*
X79000000Y-61300000D01*
X79000000Y-61300000D02*
X79000000Y-67400000D01*
X106034315Y-54222182D02*
X107014035Y-53242462D01*
X106034315Y-54534315D02*
X106034315Y-54222182D01*
D36*
X106034315Y-51865685D02*
X108900000Y-49000000D01*
X106034315Y-54534315D02*
X106034315Y-51865685D01*
X91800000Y-45721832D02*
X91900000Y-45621832D01*
X91800000Y-47300000D02*
X91800000Y-45721832D01*
D35*
X93000000Y-45621832D02*
X91900000Y-45621832D01*
X91900000Y-45621832D02*
X87921832Y-45621832D01*
D36*
X115449999Y-78999999D02*
X115450000Y-79000000D01*
X115449999Y-78200000D02*
X116400000Y-78200000D01*
X115449999Y-77500000D02*
X115449999Y-78200000D01*
X115449999Y-78200000D02*
X115449999Y-78999999D01*
D37*
X83700000Y-69650000D02*
X83800000Y-69550000D01*
X83700000Y-71400000D02*
X83700000Y-69650000D01*
X81845000Y-65800000D02*
X80700000Y-65800000D01*
X89100000Y-66100000D02*
X88300000Y-65300000D01*
D36*
X99000000Y-40400000D02*
X97000000Y-40400000D01*
X95032742Y-40400000D02*
X95006256Y-40373514D01*
X97000000Y-40400000D02*
X95032742Y-40400000D01*
X93026486Y-40373514D02*
X93000000Y-40400000D01*
X95006256Y-40373514D02*
X93026486Y-40373514D01*
X93000000Y-40400000D02*
X91500000Y-40400000D01*
D35*
X83299520Y-43374620D02*
X83299520Y-44600480D01*
X83299520Y-44600480D02*
X83200000Y-44700000D01*
D37*
X84637340Y-71347660D02*
X84637340Y-71137340D01*
X84585000Y-71400000D02*
X84637340Y-71347660D01*
X83700000Y-71400000D02*
X84585000Y-71400000D01*
X123400000Y-96000000D02*
X123400000Y-90000000D01*
D36*
X109400000Y-68090000D02*
X109400000Y-68000000D01*
X108390000Y-69100000D02*
X109400000Y-68090000D01*
X106796194Y-69100000D02*
X108390000Y-69100000D01*
X106328606Y-69567588D02*
X106796194Y-69100000D01*
X109400000Y-68000000D02*
X109400000Y-68600000D01*
X109400000Y-68600000D02*
X109900000Y-69100000D01*
X104843502Y-60368630D02*
X105937436Y-61462564D01*
X104631370Y-60368630D02*
X104843502Y-60368630D01*
X105267946Y-74093072D02*
X104374874Y-73200000D01*
X104240675Y-73200000D02*
X103674990Y-73200000D01*
X104374874Y-73200000D02*
X104240675Y-73200000D01*
X83100000Y-69550000D02*
X82800000Y-69250000D01*
X83800000Y-69550000D02*
X83100000Y-69550000D01*
X81845000Y-66800000D02*
X81845000Y-65800000D01*
X82800000Y-67755000D02*
X81845000Y-66800000D01*
X82800000Y-69250000D02*
X82800000Y-67755000D01*
X87900001Y-64900001D02*
X85500001Y-64900001D01*
X88300000Y-65300000D02*
X87900001Y-64900001D01*
X85500001Y-64900001D02*
X85000000Y-64400000D01*
X81845000Y-65535000D02*
X81845000Y-65800000D01*
X82980000Y-64400000D02*
X81845000Y-65535000D01*
X85000000Y-64400000D02*
X82980000Y-64400000D01*
X123400000Y-89434315D02*
X121500000Y-87534315D01*
X123400000Y-90000000D02*
X123400000Y-89434315D01*
X121500000Y-87534315D02*
X121500000Y-83400000D01*
X117100000Y-79000000D02*
X115450000Y-79000000D01*
X121500000Y-83400000D02*
X117100000Y-79000000D01*
X105692466Y-59307534D02*
X105832854Y-59307534D01*
X104631370Y-60368630D02*
X105692466Y-59307534D01*
X80495000Y-56805000D02*
X80200000Y-57100000D01*
X82200000Y-56805000D02*
X80495000Y-56805000D01*
X80200000Y-57100000D02*
X81400000Y-58300000D01*
X105692209Y-74517335D02*
X107182665Y-74517335D01*
X105267946Y-74093072D02*
X105692209Y-74517335D01*
X107182665Y-74517335D02*
X109900000Y-71800000D01*
X109900000Y-71800000D02*
X110400000Y-71800000D01*
X95834315Y-80061879D02*
X95834315Y-81265685D01*
X97200000Y-78696194D02*
X95834315Y-80061879D01*
X98267588Y-77628606D02*
X97200000Y-78696194D01*
X103674990Y-73200000D02*
X102800000Y-73200000D01*
X102800000Y-73200000D02*
X101100000Y-74900000D01*
X107165685Y-55665685D02*
X107165685Y-56165685D01*
X107165685Y-56165685D02*
X107600000Y-56600000D01*
X84700000Y-71200000D02*
X84637340Y-71137340D01*
X86700000Y-71200000D02*
X84700000Y-71200000D01*
D37*
X83755000Y-67605000D02*
X83800000Y-67650000D01*
X83755000Y-65800000D02*
X83755000Y-67605000D01*
D36*
X84500000Y-67650000D02*
X85750000Y-68900000D01*
X83800000Y-67650000D02*
X84500000Y-67650000D01*
X92296699Y-68900000D02*
X93317841Y-69921142D01*
X85750000Y-68900000D02*
X92296699Y-68900000D01*
X99700000Y-72300000D02*
X102889087Y-72300000D01*
X104081981Y-72200000D02*
X105621499Y-73739518D01*
X102989087Y-72200000D02*
X104081981Y-72200000D01*
X102989087Y-72200000D02*
X105975052Y-69214035D01*
X102889087Y-72300000D02*
X102989087Y-72200000D01*
X107189087Y-68000000D02*
X107800000Y-68000000D01*
X105975052Y-69214035D02*
X107189087Y-68000000D01*
X101378858Y-64617841D02*
X101378858Y-63621142D01*
X103139377Y-61860623D02*
X103500000Y-61500000D01*
X101378858Y-63621142D02*
X103139377Y-61860623D01*
X119100000Y-43700000D02*
X119270000Y-43530000D01*
X113500000Y-43700000D02*
X119100000Y-43700000D01*
X119270000Y-43530000D02*
X119270000Y-41900000D01*
X109600000Y-40900000D02*
X110700000Y-40900000D01*
X110700000Y-40900000D02*
X113500000Y-43700000D01*
X103500000Y-59200000D02*
X103500000Y-61500000D01*
X105344366Y-57355634D02*
X105200000Y-57500000D01*
X108933274Y-56966726D02*
X108544366Y-57355634D01*
X108544366Y-57355634D02*
X105344366Y-57355634D01*
X105200000Y-57500000D02*
X103500000Y-59200000D01*
X99700000Y-72300000D02*
X98550009Y-71150009D01*
X98550009Y-71150009D02*
X98550009Y-67446690D01*
X98550009Y-67446690D02*
X100954595Y-65042104D01*
X100954595Y-65042104D02*
X101378858Y-64617841D01*
X98621142Y-77982159D02*
X100325002Y-76278299D01*
X93317841Y-69921142D02*
X93317841Y-70197919D01*
X93317841Y-70197919D02*
X93719922Y-70600000D01*
X93719922Y-70600000D02*
X96700000Y-70600000D01*
X96700000Y-70600000D02*
X96700000Y-73100000D01*
X99000000Y-75400000D02*
X100325002Y-75400000D01*
X96700000Y-73100000D02*
X99000000Y-75400000D01*
X100325002Y-76278299D02*
X100325002Y-75400000D01*
X80235000Y-55535000D02*
X80200000Y-55500000D01*
X82200000Y-55535000D02*
X80235000Y-55535000D01*
X87600000Y-52995000D02*
X87600000Y-54265000D01*
X85900000Y-55490000D02*
X85900000Y-56800000D01*
X87600000Y-54265000D02*
X87125000Y-54265000D01*
X87125000Y-54265000D02*
X85900000Y-55490000D01*
X83800000Y-56100000D02*
X83200000Y-55500000D01*
X82235000Y-55500000D02*
X82200000Y-55535000D01*
X83200000Y-55500000D02*
X82235000Y-55500000D01*
X83755000Y-65800000D02*
X84900000Y-65800000D01*
X84900000Y-65800000D02*
X85000000Y-65700000D01*
X98196879Y-78406422D02*
X98193578Y-78406422D01*
X98621142Y-77982159D02*
X98196879Y-78406422D01*
X98193578Y-78906422D02*
X96965685Y-80134315D01*
X98193578Y-78406422D02*
X98193578Y-78906422D01*
X100174998Y-74251998D02*
X100325002Y-74101994D01*
X100174998Y-75249996D02*
X100174998Y-74251998D01*
X100325002Y-72925002D02*
X99700000Y-72300000D01*
X100325002Y-74101994D02*
X100325002Y-72925002D01*
X100325002Y-75400000D02*
X100174998Y-75249996D01*
X108933274Y-55161701D02*
X108933274Y-56966726D01*
X108357538Y-54585965D02*
X108933274Y-55161701D01*
X105400000Y-50800000D02*
X110400000Y-45800000D01*
X105400000Y-57300000D02*
X105300000Y-57300000D01*
X110400000Y-45800000D02*
X111400000Y-45800000D01*
X111400000Y-45800000D02*
X113500000Y-43700000D01*
X105200000Y-57500000D02*
X105400000Y-57300000D01*
X105400000Y-52200000D02*
X105400000Y-50800000D01*
X105300000Y-57300000D02*
X103600000Y-55600000D01*
X103600000Y-54000000D02*
X105400000Y-52200000D01*
X103600000Y-55600000D02*
X103600000Y-54000000D01*
X120250000Y-95750000D02*
X120250000Y-89750000D01*
X120250000Y-89750000D02*
X120100000Y-89600000D01*
X92500000Y-76325126D02*
X92500000Y-76800000D01*
X94732054Y-74093072D02*
X92500000Y-76325126D01*
X97277638Y-69014049D02*
X97277638Y-71777638D01*
X96853375Y-66385608D02*
X97266773Y-66799006D01*
X97266773Y-66799006D02*
X97266773Y-69003184D01*
X97266773Y-69003184D02*
X97277638Y-69014049D01*
X99336410Y-74500000D02*
X99400000Y-74500000D01*
X97277638Y-71777638D02*
X97277638Y-72441228D01*
X97277638Y-72441228D02*
X99336410Y-74500000D01*
X108199999Y-84199999D02*
X115599999Y-84199999D01*
X107800000Y-83800000D02*
X108199999Y-84199999D01*
X118750000Y-87350000D02*
X118750000Y-95750000D01*
X115599999Y-84199999D02*
X118750000Y-87350000D01*
X97716784Y-66541911D02*
X97716784Y-68816785D01*
X97206928Y-66032054D02*
X97716784Y-66541911D01*
X97727648Y-68827649D02*
X97727648Y-71727648D01*
X97716784Y-68816785D02*
X97727648Y-68827649D01*
X97727648Y-71727648D02*
X99400000Y-73400000D01*
X99400000Y-73400000D02*
X99600000Y-73400000D01*
X107700000Y-85100000D02*
X115400000Y-85100000D01*
X117250000Y-86950000D02*
X117250000Y-95750000D01*
X115400000Y-85100000D02*
X117250000Y-86950000D01*
X104277995Y-66250999D02*
X104147906Y-66120910D01*
X104147906Y-65264022D02*
X104547905Y-64864023D01*
X104147906Y-66120910D02*
X104147906Y-65264022D01*
X104277995Y-66668452D02*
X104277995Y-66250999D01*
X103853732Y-67092715D02*
X104277995Y-66668452D01*
X115800000Y-95700000D02*
X115750000Y-95750000D01*
X115800000Y-87200000D02*
X115800000Y-95700000D01*
X104900000Y-66753553D02*
X104900000Y-65800000D01*
X104207285Y-67446268D02*
X104900000Y-66753553D01*
X114400000Y-95600000D02*
X114250000Y-95750000D01*
X114400000Y-87200000D02*
X114400000Y-95600000D01*
X104914392Y-74446625D02*
X105692769Y-75225002D01*
X105692769Y-75225002D02*
X107148002Y-75225002D01*
X107148002Y-75225002D02*
X109773004Y-72600000D01*
X109773004Y-72600000D02*
X110800000Y-72600000D01*
X110800000Y-72600000D02*
X110800000Y-72500000D01*
X110800000Y-72500000D02*
X111800000Y-71500000D01*
X111800000Y-71500000D02*
X114000000Y-71500000D01*
X114000000Y-71500000D02*
X115100000Y-72600000D01*
X112700000Y-95700000D02*
X112750000Y-95750000D01*
X112700000Y-87300000D02*
X112700000Y-95700000D01*
X107334402Y-75675013D02*
X109909415Y-73100000D01*
X109909415Y-73100000D02*
X110700000Y-73100000D01*
X105435673Y-75675013D02*
X107334402Y-75675013D01*
X104560839Y-74800179D02*
X105435673Y-75675013D01*
X110700000Y-73100000D02*
X110936410Y-73100000D01*
X111250010Y-72786400D02*
X111250010Y-72749990D01*
X110936410Y-73100000D02*
X111250010Y-72786400D01*
X111250010Y-72749990D02*
X112000000Y-72000000D01*
X112000000Y-72000000D02*
X113000000Y-72000000D01*
X113000000Y-72000000D02*
X114000000Y-73000000D01*
X111100000Y-95600000D02*
X111250000Y-95750000D01*
X111100000Y-87300000D02*
X111100000Y-95600000D01*
X104207285Y-75153732D02*
X105178577Y-76125024D01*
X105178577Y-76125024D02*
X107520802Y-76125024D01*
X110045826Y-73600000D02*
X110800000Y-73600000D01*
X107520802Y-76125024D02*
X110045826Y-73600000D01*
X110800000Y-73600000D02*
X111300000Y-73600000D01*
X111300000Y-73600000D02*
X111900000Y-73000000D01*
X111900000Y-73000000D02*
X112900000Y-73000000D01*
X109500000Y-95500000D02*
X109750000Y-95750000D01*
X109500000Y-87100000D02*
X109500000Y-95500000D01*
X104277995Y-75931548D02*
X103853732Y-75507285D01*
X110182237Y-74100000D02*
X107707202Y-76575035D01*
X110800000Y-74100000D02*
X110182237Y-74100000D01*
X107707202Y-76575035D02*
X104921482Y-76575035D01*
X104921482Y-76575035D02*
X104277995Y-75931548D01*
X110800000Y-74100000D02*
X111900000Y-74100000D01*
X111900000Y-74100000D02*
X112200000Y-73800000D01*
X108300000Y-95700000D02*
X108250000Y-95750000D01*
X108300000Y-86800000D02*
X108300000Y-95700000D01*
X106900000Y-95600000D02*
X106750000Y-95750000D01*
X106900000Y-83200000D02*
X106900000Y-95600000D01*
X96450011Y-62584304D02*
X96934315Y-62100000D01*
X96934315Y-62100000D02*
X97500000Y-62100000D01*
X97560482Y-65678501D02*
X96450011Y-64568030D01*
X96450011Y-64568030D02*
X96450011Y-62584304D01*
X97175021Y-63653684D02*
X97175021Y-63087999D01*
X97914035Y-65324948D02*
X97140489Y-64551402D01*
X97140489Y-64551402D02*
X97140489Y-63688216D01*
X97140489Y-63688216D02*
X97175021Y-63653684D01*
X105250000Y-95750000D02*
X105250000Y-87754644D01*
X105250000Y-87754644D02*
X106169369Y-86835275D01*
X106242995Y-82834305D02*
X106242995Y-82268620D01*
X106169369Y-86835275D02*
X106169369Y-82907931D01*
X106169369Y-82907931D02*
X106242995Y-82834305D01*
X98267588Y-64971394D02*
X97700000Y-64403806D01*
X97700000Y-64372241D02*
X97600000Y-64272241D01*
X97700000Y-64403806D02*
X97700000Y-64372241D01*
X97600000Y-64272241D02*
X97600000Y-64000000D01*
X97600000Y-64000000D02*
X97800000Y-63800000D01*
X97800000Y-63800000D02*
X99400000Y-63800000D01*
X103750000Y-95750000D02*
X103750000Y-88618235D01*
X105400000Y-81765685D02*
X105400000Y-81200000D01*
X105400000Y-82331765D02*
X105400000Y-81765685D01*
X105550033Y-82481798D02*
X105400000Y-82331765D01*
X105550033Y-86818202D02*
X105550033Y-82481798D01*
X103750000Y-88618235D02*
X105550033Y-86818202D01*
X98621142Y-64617841D02*
X99400000Y-65396699D01*
X99400000Y-65396699D02*
X99400000Y-65500000D01*
X105100022Y-82668198D02*
X104600000Y-82168176D01*
X104600000Y-82168176D02*
X104600000Y-80465685D01*
X102250000Y-89481824D02*
X105100022Y-86631802D01*
X104700000Y-80365685D02*
X104700000Y-79800000D01*
X102250000Y-95750000D02*
X102250000Y-89481824D01*
X104600000Y-80465685D02*
X104700000Y-80365685D01*
X105100022Y-86631802D02*
X105100022Y-82668198D01*
X101110913Y-66300000D02*
X102085965Y-65324948D01*
X100800000Y-66300000D02*
X101110913Y-66300000D01*
X100750000Y-95750000D02*
X100750000Y-90345413D01*
X103899999Y-82104586D02*
X103899999Y-79299999D01*
X103899999Y-79299999D02*
X103500000Y-78900000D01*
X104650011Y-86445402D02*
X104650011Y-82854598D01*
X104650011Y-82854598D02*
X103899999Y-82104586D01*
X100750000Y-90345413D02*
X104650011Y-86445402D01*
X102439518Y-65678501D02*
X102015255Y-66102764D01*
X102015255Y-66102764D02*
X102015255Y-66148335D01*
X100885529Y-67278061D02*
X100374990Y-67278061D01*
X102015255Y-66148335D02*
X100885529Y-67278061D01*
X102800000Y-81640998D02*
X102800000Y-80365685D01*
X104200000Y-83040998D02*
X102800000Y-81640998D01*
X102800000Y-80365685D02*
X102800000Y-79800000D01*
X104200000Y-86259002D02*
X104200000Y-83040998D01*
X99250000Y-91209002D02*
X104200000Y-86259002D01*
X99250000Y-95750000D02*
X99250000Y-91209002D01*
X93700000Y-87000000D02*
X97750000Y-91050000D01*
X96471192Y-78351998D02*
X96471192Y-78717895D01*
X96851998Y-77971192D02*
X96471192Y-78351998D01*
X97217895Y-77971192D02*
X96851998Y-77971192D01*
X97914035Y-77275052D02*
X97217895Y-77971192D01*
X93700000Y-81489087D02*
X93700000Y-87000000D01*
X97750000Y-91050000D02*
X97750000Y-92750000D01*
X96471192Y-78717895D02*
X93700000Y-81489087D01*
X97750000Y-92750000D02*
X97750000Y-95750000D01*
X96665598Y-77521181D02*
X96960800Y-77521181D01*
X96250000Y-90186411D02*
X93249989Y-87186400D01*
X93249989Y-81231992D02*
X96021181Y-78460800D01*
X93249989Y-87186400D02*
X93249989Y-81231992D01*
X96021181Y-78165598D02*
X96665598Y-77521181D01*
X97136219Y-77345762D02*
X97560482Y-76921499D01*
X96960800Y-77521181D02*
X97136219Y-77345762D01*
X96021181Y-78460800D02*
X96021181Y-78165598D01*
X96250000Y-95750000D02*
X96250000Y-90186411D01*
X94750000Y-92750000D02*
X94750000Y-95750000D01*
X96853375Y-76214392D02*
X92799978Y-80267789D01*
X92799978Y-80267789D02*
X92799978Y-87372800D01*
X92799978Y-87372800D02*
X94750000Y-89322822D01*
X94750000Y-89322822D02*
X94750000Y-92750000D01*
X92349967Y-87559200D02*
X93250000Y-88459233D01*
X96075558Y-76285102D02*
X96075558Y-76306679D01*
X96499821Y-75860839D02*
X96075558Y-76285102D01*
X92349967Y-80032270D02*
X92349967Y-87559200D01*
X93250000Y-88459233D02*
X93250000Y-92750000D01*
X93250000Y-92750000D02*
X93250000Y-95750000D01*
X96075558Y-76306679D02*
X92349967Y-80032270D01*
X91750000Y-92750000D02*
X91750000Y-95750000D01*
X96146268Y-75507285D02*
X94425024Y-77228529D01*
X94425024Y-77320802D02*
X91750000Y-79995826D01*
X94425024Y-77228529D02*
X94425024Y-77320802D01*
X91750000Y-79995826D02*
X91750000Y-92750000D01*
X93975013Y-76971434D02*
X93975013Y-77134402D01*
X95792715Y-75153732D02*
X93975013Y-76971434D01*
X90250000Y-80859415D02*
X90250000Y-92750000D01*
X93975013Y-77134402D02*
X90250000Y-80859415D01*
X90250000Y-92750000D02*
X90250000Y-95750000D01*
X88750000Y-81623004D02*
X88750000Y-92750000D01*
X95439161Y-74800179D02*
X93525002Y-76714338D01*
X92948002Y-77525002D02*
X92848002Y-77525002D01*
X92848002Y-77525002D02*
X88750000Y-81623004D01*
X93525002Y-76714338D02*
X93525002Y-76948002D01*
X88750000Y-92750000D02*
X88750000Y-95750000D01*
X93525002Y-76948002D02*
X92948002Y-77525002D01*
X87250000Y-95750000D02*
X87250000Y-77350000D01*
X87250000Y-77350000D02*
X89000000Y-75600000D01*
X102793072Y-66032054D02*
X100617176Y-68207950D01*
X100617176Y-68207950D02*
X100091627Y-68207950D01*
X100091627Y-68207950D02*
X99525942Y-68207950D01*
X89000000Y-75600000D02*
X89700000Y-75600000D01*
X89700000Y-75600000D02*
X90600000Y-74700000D01*
X90600000Y-74700000D02*
X90600000Y-72200000D01*
X89600000Y-71200000D02*
X88300000Y-71200000D01*
X90600000Y-72200000D02*
X89600000Y-71200000D01*
X85750000Y-92750000D02*
X85800000Y-92700000D01*
X85750000Y-95750000D02*
X85750000Y-92750000D01*
X85800000Y-92700000D02*
X85800000Y-77700000D01*
X85800000Y-77700000D02*
X89000000Y-74500000D01*
X103146625Y-66385608D02*
X100299827Y-69232406D01*
X100299827Y-69232406D02*
X99940954Y-69232406D01*
X84250000Y-92750000D02*
X84300000Y-92700000D01*
X84250000Y-95750000D02*
X84250000Y-92750000D01*
X84300000Y-92700000D02*
X84300000Y-78100000D01*
X84300000Y-78100000D02*
X89000000Y-73400000D01*
X103075916Y-67163424D02*
X103500179Y-66739161D01*
X100399999Y-70100001D02*
X100399999Y-69839341D01*
X100399999Y-69839341D02*
X103075916Y-67163424D01*
X100000000Y-70500000D02*
X100399999Y-70100001D01*
X82750000Y-95750000D02*
X82750000Y-86450000D01*
X82750000Y-86450000D02*
X83400000Y-85800000D01*
X92643021Y-75474998D02*
X93954238Y-74163781D01*
X90000000Y-77800000D02*
X92325002Y-75474998D01*
X93954238Y-74163781D02*
X94378501Y-73739518D01*
X92325002Y-75474998D02*
X92643021Y-75474998D01*
X81250000Y-92750000D02*
X81800000Y-92200000D01*
X81250000Y-95750000D02*
X81250000Y-92750000D01*
X81800000Y-92200000D02*
X81800000Y-85700000D01*
X81800000Y-85700000D02*
X82600000Y-84900000D01*
X88800000Y-77700000D02*
X91475013Y-75024987D01*
X92385926Y-75024987D02*
X93600685Y-73810228D01*
X91475013Y-75024987D02*
X92385926Y-75024987D01*
X93600685Y-73810228D02*
X94024948Y-73385965D01*
X96146268Y-67092715D02*
X93500000Y-64446447D01*
X93500000Y-64446447D02*
X93500000Y-64100000D01*
X79750000Y-85750000D02*
X79750000Y-95750000D01*
X81600000Y-83900000D02*
X79750000Y-85750000D01*
X96499821Y-66739161D02*
X94300000Y-64539340D01*
X94300000Y-64539340D02*
X94300000Y-63300000D01*
X78250000Y-92750000D02*
X79000000Y-92000000D01*
X78250000Y-95750000D02*
X78250000Y-92750000D01*
X79000000Y-92000000D02*
X79000000Y-85200000D01*
X79000000Y-85200000D02*
X81500000Y-82700000D01*
X81500000Y-82700000D02*
X81700000Y-82700000D01*
X95900000Y-71700000D02*
X95900000Y-71400000D01*
X103325000Y-44725000D02*
X103300000Y-44700000D01*
X103325000Y-47300000D02*
X103325000Y-44725000D01*
X95900000Y-73230149D02*
X95900000Y-71400000D01*
X95900000Y-73632233D02*
X95900000Y-73230149D01*
X95085608Y-74446625D02*
X95900000Y-73632233D01*
X97206928Y-76567946D02*
X97800000Y-75974874D01*
X97800000Y-75532233D02*
X95900000Y-73632233D01*
X97800000Y-75974874D02*
X97800000Y-75532233D01*
X95661798Y-52565198D02*
X95661798Y-56661798D01*
X95661798Y-56661798D02*
X96400001Y-57400001D01*
X100926996Y-47300000D02*
X95661798Y-52565198D01*
X96400001Y-57400001D02*
X96800000Y-57800000D01*
X103325000Y-47300000D02*
X100926996Y-47300000D01*
X114190000Y-47250000D02*
X113900000Y-47540000D01*
X114190000Y-45800000D02*
X114190000Y-47250000D01*
X113900000Y-47540000D02*
X113900000Y-53300000D01*
X113900000Y-53300000D02*
X114600000Y-54000000D01*
X114600000Y-54000000D02*
X114600000Y-54200000D01*
X118499998Y-74900001D02*
X119100000Y-74299999D01*
X119100000Y-74299999D02*
X119499999Y-73900000D01*
X110018647Y-74900001D02*
X118499998Y-74900001D01*
X107893602Y-77025046D02*
X110018647Y-74900001D01*
X104664386Y-77025046D02*
X107893602Y-77025046D01*
X103500179Y-75860839D02*
X104664386Y-77025046D01*
X112400000Y-79000000D02*
X111200000Y-80200000D01*
X113700000Y-79000000D02*
X112400000Y-79000000D01*
X110000000Y-79000000D02*
X111200000Y-80200000D01*
X102793072Y-76567946D02*
X105225126Y-79000000D01*
X105225126Y-79000000D02*
X110000000Y-79000000D01*
X112200000Y-77500000D02*
X111200000Y-76500000D01*
X113699999Y-77500000D02*
X112200000Y-77500000D01*
X110200000Y-77500000D02*
X111200000Y-76500000D01*
X103146625Y-76214392D02*
X104432233Y-77500000D01*
X104432233Y-77500000D02*
X110200000Y-77500000D01*
X101732412Y-64971394D02*
X104003806Y-62700000D01*
X104003806Y-62700000D02*
X104700000Y-62700000D01*
X119270000Y-45800000D02*
X119270000Y-49030004D01*
X118399999Y-49900005D02*
X118000000Y-50300004D01*
X119270000Y-49030004D02*
X118399999Y-49900005D01*
X94024948Y-69214035D02*
X94685903Y-69874990D01*
X94685903Y-69874990D02*
X95124979Y-69874990D01*
X91400000Y-68400000D02*
X90337436Y-67337436D01*
X93671394Y-69567588D02*
X92503806Y-68400000D01*
X92503806Y-68400000D02*
X91400000Y-68400000D01*
X93317841Y-72678858D02*
X94096699Y-71900000D01*
X94096699Y-71900000D02*
X94800000Y-71900000D01*
X118000000Y-48700000D02*
X118000000Y-45800000D01*
X114700000Y-52000000D02*
X118000000Y-48700000D01*
D37*
X85900000Y-43060000D02*
X85900000Y-44700000D01*
X86300000Y-45100000D02*
X86300000Y-46400000D01*
X85900000Y-44700000D02*
X86300000Y-45100000D01*
D36*
X86300000Y-46400000D02*
X86300000Y-46550000D01*
X101732412Y-77628606D02*
X101103806Y-77000000D01*
X101103806Y-77000000D02*
X100800000Y-77000000D01*
X100800000Y-77000000D02*
X98400000Y-79400000D01*
X98400000Y-79400000D02*
X98400000Y-79900000D01*
X98400000Y-79900000D02*
X95700000Y-82600000D01*
X95700000Y-82600000D02*
X95100000Y-82600000D01*
X95100000Y-82600000D02*
X94900000Y-82600000D01*
X94900000Y-82600000D02*
X94500000Y-83000000D01*
X94500000Y-83000000D02*
X94500000Y-86400000D01*
X86400000Y-46500000D02*
X86300000Y-46400000D01*
X86400000Y-48400000D02*
X86400000Y-46500000D01*
D34*
X76600000Y-96000000D02*
X76600000Y-88050000D01*
D36*
X101000000Y-80500000D02*
X98436410Y-80500000D01*
X98436410Y-80500000D02*
X95600000Y-83336410D01*
X102510228Y-78989772D02*
X101000000Y-80500000D01*
X102510228Y-77699315D02*
X102510228Y-78989772D01*
X95600000Y-83336410D02*
X95600000Y-84100000D01*
X102085965Y-77275052D02*
X102510228Y-77699315D01*
X95600000Y-84100000D02*
X95600000Y-87000000D01*
X95600000Y-87000000D02*
X95200000Y-87400000D01*
X78000000Y-89450000D02*
X76600000Y-88050000D01*
X78000000Y-89500000D02*
X78000000Y-89450000D01*
X85150000Y-44195001D02*
X85250000Y-44095001D01*
X85150000Y-58960228D02*
X85150000Y-44195001D01*
X85250000Y-44095001D02*
X85250000Y-43060000D01*
X93925126Y-67700000D02*
X93889772Y-67700000D01*
X94732054Y-68506928D02*
X93925126Y-67700000D01*
X93889772Y-67700000D02*
X85150000Y-58960228D01*
X84600000Y-44095001D02*
X84600000Y-43060000D01*
X84700000Y-44195001D02*
X84600000Y-44095001D01*
X84700000Y-59146626D02*
X84700000Y-44195001D01*
X94378501Y-68825127D02*
X84700000Y-59146626D01*
X94378501Y-68860482D02*
X94378501Y-68825127D01*
X93000000Y-44021832D02*
X93000000Y-42000000D01*
X95000000Y-41979770D02*
X95006256Y-41973514D01*
X95000000Y-44000000D02*
X95000000Y-41979770D01*
X97000000Y-44021832D02*
X97000000Y-42000000D01*
X99000000Y-44000000D02*
X99000000Y-42000000D01*
X95000000Y-48000000D02*
X95000000Y-45600000D01*
X91300000Y-51700000D02*
X95000000Y-48000000D01*
X91300000Y-64367767D02*
X91300000Y-51700000D01*
X95085608Y-68153375D02*
X91300000Y-64367767D01*
X97000000Y-47500000D02*
X97000000Y-45621832D01*
X91900000Y-52600000D02*
X97000000Y-47500000D01*
X91900000Y-64328803D02*
X91900000Y-52600000D01*
X94668143Y-67028803D02*
X94600000Y-67028803D01*
X95439161Y-67799821D02*
X94668143Y-67028803D01*
X94600000Y-67028803D02*
X91900000Y-64328803D01*
X99000000Y-47600000D02*
X99000000Y-45600000D01*
X92400000Y-54200000D02*
X99000000Y-47600000D01*
X94026969Y-65819361D02*
X92400000Y-64192392D01*
X95792715Y-67446268D02*
X94165808Y-65819361D01*
X92400000Y-64192392D02*
X92400000Y-54200000D01*
X94165808Y-65819361D02*
X94026969Y-65819361D01*
X118000000Y-54500000D02*
X116100000Y-54500000D01*
X111266726Y-54633274D02*
X112833274Y-54633274D01*
X116100000Y-54500000D02*
X115500000Y-55100000D01*
X112833274Y-54633274D02*
X113300000Y-55100000D01*
X115500000Y-55100000D02*
X113400000Y-55100000D01*
X113400000Y-55100000D02*
X113300000Y-55100000D01*
X119900000Y-70300000D02*
X118000000Y-70300000D01*
X113400000Y-55100000D02*
X113600000Y-55100000D01*
X123200000Y-67000000D02*
X119900000Y-70300000D01*
X113600000Y-55100000D02*
X115800000Y-57300000D01*
X118900000Y-57300000D02*
X123200000Y-61600000D01*
X115800000Y-57300000D02*
X118900000Y-57300000D01*
X123200000Y-61600000D02*
X123200000Y-67000000D01*
X111233274Y-54633274D02*
X111266726Y-54633274D01*
X109100000Y-52500000D02*
X111233274Y-54633274D01*
X106399315Y-73810228D02*
X106889772Y-73810228D01*
X105975052Y-73385965D02*
X106399315Y-73810228D01*
X106889772Y-73810228D02*
X108900000Y-71800000D01*
X108900000Y-71800000D02*
X108900000Y-71200000D01*
X108900000Y-71200000D02*
X110000000Y-70100000D01*
X110000000Y-70100000D02*
X110500000Y-70100000D01*
X110500000Y-70100000D02*
X112000000Y-68600000D01*
X112000000Y-68600000D02*
X112000000Y-65000000D01*
X107865802Y-60865802D02*
X107865802Y-59165802D01*
X112000000Y-65000000D02*
X107865802Y-60865802D01*
X107865802Y-59165802D02*
X106900000Y-58200000D01*
X106900000Y-58200000D02*
X106600000Y-58200000D01*
X101234315Y-52400000D02*
X100134315Y-51300000D01*
X101800000Y-52400000D02*
X101234315Y-52400000D01*
X100134315Y-51300000D02*
X99700000Y-51300000D01*
X99700000Y-51300000D02*
X99600000Y-51400000D01*
X83800000Y-61400000D02*
X85000000Y-61400000D01*
X85000000Y-61400000D02*
X85300000Y-61700000D01*
X106045762Y-68436219D02*
X106063781Y-68436219D01*
X105621499Y-68860482D02*
X106045762Y-68436219D01*
X106063781Y-68436219D02*
X106900000Y-67600000D01*
X106900000Y-67600000D02*
X106900000Y-67100000D01*
X106900000Y-67100000D02*
X107500000Y-66500000D01*
X107500000Y-66500000D02*
X107500000Y-65400000D01*
X107500000Y-65400000D02*
X109000000Y-63900000D01*
X100800000Y-53400000D02*
X99800000Y-53400000D01*
X99800000Y-53400000D02*
X97900000Y-51500000D01*
X82105000Y-52900000D02*
X82200000Y-52995000D01*
X80400000Y-52900000D02*
X82105000Y-52900000D01*
X105267946Y-68506928D02*
X106400000Y-67374874D01*
X106400000Y-67374874D02*
X106400000Y-66800000D01*
X106400000Y-66800000D02*
X106800000Y-66400000D01*
X106800000Y-66400000D02*
X106800000Y-64800000D01*
X106800000Y-64800000D02*
X107600000Y-64000000D01*
X107600000Y-64000000D02*
X107800000Y-64000000D01*
X99614230Y-54600000D02*
X97807114Y-52792884D01*
X97807114Y-52792884D02*
X97407115Y-52392885D01*
X100500000Y-54600000D02*
X99614230Y-54600000D01*
X87600000Y-55535000D02*
X90139990Y-55535000D01*
X90139990Y-55535000D02*
X90400000Y-55274990D01*
X105900000Y-67167767D02*
X104914392Y-68153375D01*
X105900000Y-66600000D02*
X105900000Y-67167767D01*
X105900000Y-66600000D02*
X106300000Y-66200000D01*
X106300000Y-66200000D02*
X106300000Y-64100000D01*
X106300000Y-64100000D02*
X106900000Y-63500000D01*
X99900000Y-55500000D02*
X99200000Y-55500000D01*
X99200000Y-55500000D02*
X97200000Y-53500000D01*
X97000000Y-53500000D02*
X96400000Y-52900000D01*
X97200000Y-53500000D02*
X97000000Y-53500000D01*
X82135000Y-54200000D02*
X82200000Y-54265000D01*
X80400000Y-54200000D02*
X82135000Y-54200000D01*
X104560839Y-67799821D02*
X105360660Y-67000000D01*
X105360660Y-67000000D02*
X105360660Y-66560660D01*
X105360660Y-66560660D02*
X105360660Y-66439340D01*
X105360660Y-66439340D02*
X105700000Y-66100000D01*
X105700000Y-66100000D02*
X105700000Y-63600000D01*
X105700000Y-63600000D02*
X105800000Y-63500000D01*
X87695000Y-56900000D02*
X87600000Y-56805000D01*
X89800000Y-56900000D02*
X87695000Y-56900000D01*
X98598918Y-56300000D02*
X96786798Y-54487880D01*
X96786798Y-54487880D02*
X96386799Y-54087881D01*
X99300000Y-56300000D02*
X98598918Y-56300000D01*
D38*
G36*
X79426924Y-39476624D02*
X79342716Y-39602651D01*
X79313146Y-39751310D01*
X79313146Y-41648690D01*
X79342716Y-41797349D01*
X79426924Y-41923376D01*
X79552951Y-42007584D01*
X79701610Y-42037154D01*
X81598990Y-42037154D01*
X81747649Y-42007584D01*
X81873676Y-41923376D01*
X81957884Y-41797349D01*
X81987454Y-41648690D01*
X81987454Y-39751310D01*
X81957884Y-39602651D01*
X81873676Y-39476624D01*
X81842810Y-39456000D01*
X82208610Y-39456000D01*
X82177744Y-39476624D01*
X82093536Y-39602651D01*
X82063966Y-39751310D01*
X82063966Y-41648690D01*
X82093536Y-41797349D01*
X82177744Y-41923376D01*
X82303771Y-42007584D01*
X82452430Y-42037154D01*
X84349810Y-42037154D01*
X84498469Y-42007584D01*
X84600000Y-41939744D01*
X84701531Y-42007584D01*
X84850190Y-42037154D01*
X86747570Y-42037154D01*
X86896229Y-42007584D01*
X87022256Y-41923376D01*
X87106464Y-41797349D01*
X87136034Y-41648690D01*
X87136034Y-39751310D01*
X87106464Y-39602651D01*
X87022256Y-39476624D01*
X86991390Y-39456000D01*
X87357190Y-39456000D01*
X87326324Y-39476624D01*
X87242116Y-39602651D01*
X87212546Y-39751310D01*
X87212546Y-41648690D01*
X87242116Y-41797349D01*
X87326324Y-41923376D01*
X87452351Y-42007584D01*
X87601010Y-42037154D01*
X89498390Y-42037154D01*
X89647049Y-42007584D01*
X89773076Y-41923376D01*
X89857284Y-41797349D01*
X89886854Y-41648690D01*
X89886854Y-40685750D01*
X91865000Y-40685750D01*
X91865000Y-40936309D01*
X91961673Y-41169698D01*
X92140301Y-41348327D01*
X92189609Y-41368751D01*
X92141106Y-41441341D01*
X92111536Y-41590000D01*
X92111536Y-42410000D01*
X92141106Y-42558659D01*
X92225314Y-42684686D01*
X92351341Y-42768894D01*
X92494001Y-42797271D01*
X92494000Y-43224561D01*
X92351341Y-43252938D01*
X92225314Y-43337146D01*
X92141106Y-43463173D01*
X92111536Y-43611832D01*
X92111536Y-44431832D01*
X92141106Y-44580491D01*
X92225314Y-44706518D01*
X92351341Y-44790726D01*
X92500000Y-44820296D01*
X93500000Y-44820296D01*
X93648659Y-44790726D01*
X93774686Y-44706518D01*
X93858894Y-44580491D01*
X93888464Y-44431832D01*
X93888464Y-43611832D01*
X93858894Y-43463173D01*
X93774686Y-43337146D01*
X93648659Y-43252938D01*
X93506000Y-43224561D01*
X93506000Y-42797271D01*
X93648659Y-42768894D01*
X93774686Y-42684686D01*
X93858894Y-42558659D01*
X93888464Y-42410000D01*
X93888464Y-41590000D01*
X93858894Y-41441341D01*
X93810391Y-41368751D01*
X93859699Y-41348327D01*
X94016371Y-41191654D01*
X94146557Y-41321841D01*
X94195865Y-41342265D01*
X94147362Y-41414855D01*
X94117792Y-41563514D01*
X94117792Y-42383514D01*
X94147362Y-42532173D01*
X94231570Y-42658200D01*
X94357597Y-42742408D01*
X94494001Y-42769540D01*
X94494000Y-43202729D01*
X94351341Y-43231106D01*
X94225314Y-43315314D01*
X94141106Y-43441341D01*
X94111536Y-43590000D01*
X94111536Y-44410000D01*
X94141106Y-44558659D01*
X94225314Y-44684686D01*
X94351341Y-44768894D01*
X94500000Y-44798464D01*
X95500000Y-44798464D01*
X95648659Y-44768894D01*
X95774686Y-44684686D01*
X95858894Y-44558659D01*
X95888464Y-44410000D01*
X95888464Y-43590000D01*
X95858894Y-43441341D01*
X95774686Y-43315314D01*
X95648659Y-43231106D01*
X95506000Y-43202729D01*
X95506000Y-42771978D01*
X95506256Y-42771978D01*
X95654915Y-42742408D01*
X95780942Y-42658200D01*
X95865150Y-42532173D01*
X95894720Y-42383514D01*
X95894720Y-41563514D01*
X95865150Y-41414855D01*
X95816647Y-41342265D01*
X95865955Y-41321841D01*
X95989885Y-41197910D01*
X96140301Y-41348327D01*
X96189609Y-41368751D01*
X96141106Y-41441341D01*
X96111536Y-41590000D01*
X96111536Y-42410000D01*
X96141106Y-42558659D01*
X96225314Y-42684686D01*
X96351341Y-42768894D01*
X96494001Y-42797271D01*
X96494000Y-43224561D01*
X96351341Y-43252938D01*
X96225314Y-43337146D01*
X96141106Y-43463173D01*
X96111536Y-43611832D01*
X96111536Y-44431832D01*
X96141106Y-44580491D01*
X96225314Y-44706518D01*
X96351341Y-44790726D01*
X96500000Y-44820296D01*
X97500000Y-44820296D01*
X97648659Y-44790726D01*
X97774686Y-44706518D01*
X97858894Y-44580491D01*
X97888464Y-44431832D01*
X97888464Y-43611832D01*
X97858894Y-43463173D01*
X97774686Y-43337146D01*
X97648659Y-43252938D01*
X97506000Y-43224561D01*
X97506000Y-42797271D01*
X97648659Y-42768894D01*
X97774686Y-42684686D01*
X97858894Y-42558659D01*
X97888464Y-42410000D01*
X97888464Y-41590000D01*
X97858894Y-41441341D01*
X97810391Y-41368751D01*
X97859699Y-41348327D01*
X98000000Y-41208025D01*
X98140301Y-41348327D01*
X98189609Y-41368751D01*
X98141106Y-41441341D01*
X98111536Y-41590000D01*
X98111536Y-42410000D01*
X98141106Y-42558659D01*
X98225314Y-42684686D01*
X98351341Y-42768894D01*
X98494001Y-42797271D01*
X98494000Y-43202729D01*
X98351341Y-43231106D01*
X98225314Y-43315314D01*
X98141106Y-43441341D01*
X98111536Y-43590000D01*
X98111536Y-44410000D01*
X98141106Y-44558659D01*
X98225314Y-44684686D01*
X98351341Y-44768894D01*
X98500000Y-44798464D01*
X99500000Y-44798464D01*
X99648659Y-44768894D01*
X99774686Y-44684686D01*
X99858894Y-44558659D01*
X99888464Y-44410000D01*
X99888464Y-43590000D01*
X99858894Y-43441341D01*
X99774686Y-43315314D01*
X99648659Y-43231106D01*
X99506000Y-43202729D01*
X99506000Y-42797271D01*
X99648659Y-42768894D01*
X99774686Y-42684686D01*
X99858894Y-42558659D01*
X99888464Y-42410000D01*
X99888464Y-41590000D01*
X99858894Y-41441341D01*
X99810391Y-41368751D01*
X99859699Y-41348327D01*
X100038327Y-41169698D01*
X100135000Y-40936309D01*
X100135000Y-40685750D01*
X99976250Y-40527000D01*
X99127000Y-40527000D01*
X99127000Y-40547000D01*
X98873000Y-40547000D01*
X98873000Y-40527000D01*
X98023750Y-40527000D01*
X98000000Y-40550750D01*
X97976250Y-40527000D01*
X97127000Y-40527000D01*
X97127000Y-40547000D01*
X96873000Y-40547000D01*
X96873000Y-40527000D01*
X96023750Y-40527000D01*
X96016371Y-40534379D01*
X95982506Y-40500514D01*
X95133256Y-40500514D01*
X95133256Y-40520514D01*
X94879256Y-40520514D01*
X94879256Y-40500514D01*
X94030006Y-40500514D01*
X93989885Y-40540635D01*
X93976250Y-40527000D01*
X93127000Y-40527000D01*
X93127000Y-40547000D01*
X92873000Y-40547000D01*
X92873000Y-40527000D01*
X92023750Y-40527000D01*
X91865000Y-40685750D01*
X89886854Y-40685750D01*
X89886854Y-40400000D01*
X102061536Y-40400000D01*
X102061536Y-41400000D01*
X102091106Y-41548659D01*
X102175314Y-41674686D01*
X102301341Y-41758894D01*
X102450000Y-41788464D01*
X104150000Y-41788464D01*
X104298659Y-41758894D01*
X104424686Y-41674686D01*
X104508894Y-41548659D01*
X104538464Y-41400000D01*
X104538464Y-40400000D01*
X104508894Y-40251341D01*
X104424686Y-40125314D01*
X104298659Y-40041106D01*
X104150000Y-40011536D01*
X102450000Y-40011536D01*
X102301341Y-40041106D01*
X102175314Y-40125314D01*
X102091106Y-40251341D01*
X102061536Y-40400000D01*
X89886854Y-40400000D01*
X89886854Y-39751310D01*
X89857284Y-39602651D01*
X89773076Y-39476624D01*
X89742210Y-39456000D01*
X92135974Y-39456000D01*
X91961673Y-39630302D01*
X91865000Y-39863691D01*
X91865000Y-40114250D01*
X92023750Y-40273000D01*
X92873000Y-40273000D01*
X92873000Y-40253000D01*
X93127000Y-40253000D01*
X93127000Y-40273000D01*
X93976250Y-40273000D01*
X94016371Y-40232879D01*
X94030006Y-40246514D01*
X94879256Y-40246514D01*
X94879256Y-40226514D01*
X95133256Y-40226514D01*
X95133256Y-40246514D01*
X95982506Y-40246514D01*
X95989885Y-40239135D01*
X96023750Y-40273000D01*
X96873000Y-40273000D01*
X96873000Y-40253000D01*
X97127000Y-40253000D01*
X97127000Y-40273000D01*
X97976250Y-40273000D01*
X98000000Y-40249250D01*
X98023750Y-40273000D01*
X98873000Y-40273000D01*
X98873000Y-40253000D01*
X99127000Y-40253000D01*
X99127000Y-40273000D01*
X99976250Y-40273000D01*
X100135000Y-40114250D01*
X100135000Y-39863691D01*
X100038327Y-39630302D01*
X99864026Y-39456000D01*
X121244000Y-39456000D01*
X121244001Y-41555086D01*
X121235067Y-41600000D01*
X121270458Y-41777922D01*
X121371243Y-41928757D01*
X121522078Y-42029542D01*
X121655091Y-42056000D01*
X121700000Y-42064933D01*
X121744909Y-42056000D01*
X125244001Y-42056000D01*
X125244000Y-90944000D01*
X124644909Y-90944000D01*
X124600000Y-90935067D01*
X124555091Y-90944000D01*
X124422078Y-90970458D01*
X124271243Y-91071243D01*
X124170458Y-91222078D01*
X124135067Y-91400000D01*
X124144001Y-91444914D01*
X124144001Y-91873000D01*
X120756000Y-91873000D01*
X120756000Y-90048501D01*
X120762100Y-90042401D01*
X120881000Y-89755351D01*
X120881000Y-89444649D01*
X120762100Y-89157599D01*
X120542401Y-88937900D01*
X120255351Y-88819000D01*
X119944649Y-88819000D01*
X119657599Y-88937900D01*
X119437900Y-89157599D01*
X119319000Y-89444649D01*
X119319000Y-89755351D01*
X119437900Y-90042401D01*
X119657599Y-90262100D01*
X119744001Y-90297889D01*
X119744001Y-91873000D01*
X119256000Y-91873000D01*
X119256000Y-87399833D01*
X119265913Y-87349999D01*
X119238370Y-87211536D01*
X119226641Y-87152569D01*
X119114806Y-86985194D01*
X119072556Y-86956964D01*
X115993038Y-83877447D01*
X115964805Y-83835193D01*
X115797430Y-83723358D01*
X115649834Y-83693999D01*
X115649833Y-83693999D01*
X115599999Y-83684086D01*
X115550165Y-83693999D01*
X108581000Y-83693999D01*
X108581000Y-83644649D01*
X108462100Y-83357599D01*
X108242401Y-83137900D01*
X107955351Y-83019000D01*
X107670376Y-83019000D01*
X107562100Y-82757599D01*
X107342401Y-82537900D01*
X107055351Y-82419000D01*
X107023995Y-82419000D01*
X107023995Y-82113269D01*
X106905095Y-81826219D01*
X106685396Y-81606520D01*
X106398346Y-81487620D01*
X106126212Y-81487620D01*
X106181000Y-81355351D01*
X106181000Y-81044649D01*
X106062100Y-80757599D01*
X105842401Y-80537900D01*
X105555351Y-80419000D01*
X105244649Y-80419000D01*
X105201775Y-80436759D01*
X105206000Y-80415520D01*
X105206000Y-80415519D01*
X105210226Y-80394275D01*
X105362100Y-80242401D01*
X105481000Y-79955351D01*
X105481000Y-79644649D01*
X105423570Y-79506000D01*
X109611536Y-79506000D01*
X109611536Y-81200000D01*
X109641106Y-81348659D01*
X109725314Y-81474686D01*
X109851341Y-81558894D01*
X110000000Y-81588464D01*
X112400000Y-81588464D01*
X112548659Y-81558894D01*
X112674686Y-81474686D01*
X112758894Y-81348659D01*
X112788464Y-81200000D01*
X112788464Y-79506000D01*
X112977729Y-79506000D01*
X113006106Y-79648659D01*
X113090314Y-79774686D01*
X113216341Y-79858894D01*
X113365000Y-79888464D01*
X114035000Y-79888464D01*
X114183659Y-79858894D01*
X114309686Y-79774686D01*
X114393894Y-79648659D01*
X114423464Y-79500000D01*
X114423464Y-79285750D01*
X114480000Y-79285750D01*
X114480000Y-79626310D01*
X114576673Y-79859699D01*
X114755302Y-80038327D01*
X114988691Y-80135000D01*
X115164250Y-80135000D01*
X115323000Y-79976250D01*
X115323000Y-79127000D01*
X115577000Y-79127000D01*
X115577000Y-79976250D01*
X115735750Y-80135000D01*
X115911309Y-80135000D01*
X116144698Y-80038327D01*
X116323327Y-79859699D01*
X116420000Y-79626310D01*
X116420000Y-79285750D01*
X116261250Y-79127000D01*
X115577000Y-79127000D01*
X115323000Y-79127000D01*
X114638750Y-79127000D01*
X114480000Y-79285750D01*
X114423464Y-79285750D01*
X114423464Y-78500000D01*
X114393894Y-78351341D01*
X114326180Y-78249999D01*
X114393893Y-78148659D01*
X114423463Y-78000000D01*
X114423463Y-77785750D01*
X114479999Y-77785750D01*
X114479999Y-78126310D01*
X114531234Y-78250001D01*
X114480000Y-78373690D01*
X114480000Y-78714250D01*
X114638750Y-78873000D01*
X115323000Y-78873000D01*
X115323000Y-78023750D01*
X115322999Y-78023749D01*
X115322999Y-77627000D01*
X115576999Y-77627000D01*
X115576999Y-78476250D01*
X115577000Y-78476251D01*
X115577000Y-78873000D01*
X116261250Y-78873000D01*
X116420000Y-78714250D01*
X116420000Y-78373690D01*
X116368765Y-78249999D01*
X116419999Y-78126310D01*
X116419999Y-77785750D01*
X116261249Y-77627000D01*
X115576999Y-77627000D01*
X115322999Y-77627000D01*
X114638749Y-77627000D01*
X114479999Y-77785750D01*
X114423463Y-77785750D01*
X114423463Y-77000000D01*
X114398339Y-76873690D01*
X114479999Y-76873690D01*
X114479999Y-77214250D01*
X114638749Y-77373000D01*
X115322999Y-77373000D01*
X115322999Y-76523750D01*
X115576999Y-76523750D01*
X115576999Y-77373000D01*
X116261249Y-77373000D01*
X116419999Y-77214250D01*
X116419999Y-76873690D01*
X116323326Y-76640301D01*
X116144697Y-76461673D01*
X115911308Y-76365000D01*
X115735749Y-76365000D01*
X115576999Y-76523750D01*
X115322999Y-76523750D01*
X115164249Y-76365000D01*
X114988690Y-76365000D01*
X114755301Y-76461673D01*
X114576672Y-76640301D01*
X114479999Y-76873690D01*
X114398339Y-76873690D01*
X114393893Y-76851341D01*
X114309685Y-76725314D01*
X114183658Y-76641106D01*
X114034999Y-76611536D01*
X113364999Y-76611536D01*
X113216340Y-76641106D01*
X113090313Y-76725314D01*
X113006105Y-76851341D01*
X112977728Y-76994000D01*
X112788464Y-76994000D01*
X112788464Y-75500000D01*
X112769767Y-75406001D01*
X118450164Y-75406001D01*
X118499998Y-75415914D01*
X118549832Y-75406001D01*
X118549833Y-75406001D01*
X118697429Y-75376642D01*
X118864804Y-75264807D01*
X118893036Y-75222554D01*
X119434591Y-74681000D01*
X119655350Y-74681000D01*
X119942400Y-74562100D01*
X120162099Y-74342401D01*
X120280999Y-74055351D01*
X120280999Y-73744649D01*
X120162099Y-73457599D01*
X119942400Y-73237900D01*
X119655350Y-73119000D01*
X119344648Y-73119000D01*
X119057598Y-73237900D01*
X118837899Y-73457599D01*
X118718999Y-73744649D01*
X118718999Y-73965408D01*
X118290407Y-74394001D01*
X112710500Y-74394001D01*
X112862100Y-74242401D01*
X112981000Y-73955351D01*
X112981000Y-73781000D01*
X113055351Y-73781000D01*
X113342401Y-73662100D01*
X113450000Y-73554501D01*
X113557599Y-73662100D01*
X113844649Y-73781000D01*
X114155351Y-73781000D01*
X114442401Y-73662100D01*
X114662100Y-73442401D01*
X114725187Y-73290096D01*
X114944649Y-73381000D01*
X115255351Y-73381000D01*
X115542401Y-73262100D01*
X115762100Y-73042401D01*
X115881000Y-72755351D01*
X115881000Y-72444649D01*
X115762100Y-72157599D01*
X115542401Y-71937900D01*
X115255351Y-71819000D01*
X115034592Y-71819000D01*
X114393038Y-71177447D01*
X114364806Y-71135194D01*
X114197431Y-71023359D01*
X114049835Y-70994000D01*
X114049834Y-70994000D01*
X114000000Y-70984087D01*
X113950166Y-70994000D01*
X111849835Y-70994000D01*
X111800000Y-70984087D01*
X111750165Y-70994000D01*
X111602569Y-71023359D01*
X111435194Y-71135194D01*
X111406965Y-71177442D01*
X110490409Y-72094000D01*
X109822837Y-72094000D01*
X109773003Y-72084087D01*
X109723169Y-72094000D01*
X109575573Y-72123359D01*
X109408198Y-72235194D01*
X109379967Y-72277445D01*
X106938411Y-74719002D01*
X106247148Y-74719002D01*
X106248215Y-74717935D01*
X106344888Y-74484546D01*
X106344887Y-74315314D01*
X106349480Y-74316228D01*
X106399314Y-74326141D01*
X106449148Y-74316228D01*
X106839938Y-74316228D01*
X106889772Y-74326141D01*
X106939606Y-74316228D01*
X106939607Y-74316228D01*
X107087203Y-74286869D01*
X107254578Y-74175034D01*
X107282811Y-74132781D01*
X109222556Y-72193036D01*
X109264806Y-72164806D01*
X109359317Y-72023359D01*
X109376641Y-71997432D01*
X109415913Y-71800000D01*
X109406000Y-71750165D01*
X109406000Y-71409591D01*
X110209592Y-70606000D01*
X110450166Y-70606000D01*
X110500000Y-70615913D01*
X110549834Y-70606000D01*
X110549835Y-70606000D01*
X110697431Y-70576641D01*
X110864806Y-70464806D01*
X110893039Y-70422553D01*
X112322556Y-68993036D01*
X112364806Y-68964806D01*
X112476641Y-68797431D01*
X112506000Y-68649835D01*
X112506000Y-68649834D01*
X112515913Y-68600001D01*
X112506000Y-68550167D01*
X112506000Y-65049834D01*
X112515913Y-65000000D01*
X112502553Y-64932836D01*
X112476641Y-64802569D01*
X112364806Y-64635194D01*
X112322555Y-64606963D01*
X110401342Y-62685750D01*
X115365000Y-62685750D01*
X115365000Y-64526309D01*
X115461673Y-64759698D01*
X115640301Y-64938327D01*
X115873690Y-65035000D01*
X117714250Y-65035000D01*
X117873000Y-64876250D01*
X117873000Y-62527000D01*
X118127000Y-62527000D01*
X118127000Y-64876250D01*
X118285750Y-65035000D01*
X120126310Y-65035000D01*
X120359699Y-64938327D01*
X120538327Y-64759698D01*
X120635000Y-64526309D01*
X120635000Y-62685750D01*
X120476250Y-62527000D01*
X118127000Y-62527000D01*
X117873000Y-62527000D01*
X115523750Y-62527000D01*
X115365000Y-62685750D01*
X110401342Y-62685750D01*
X108371802Y-60656211D01*
X108371802Y-60273691D01*
X115365000Y-60273691D01*
X115365000Y-62114250D01*
X115523750Y-62273000D01*
X117873000Y-62273000D01*
X117873000Y-59923750D01*
X118127000Y-59923750D01*
X118127000Y-62273000D01*
X120476250Y-62273000D01*
X120635000Y-62114250D01*
X120635000Y-60273691D01*
X120538327Y-60040302D01*
X120359699Y-59861673D01*
X120126310Y-59765000D01*
X118285750Y-59765000D01*
X118127000Y-59923750D01*
X117873000Y-59923750D01*
X117714250Y-59765000D01*
X115873690Y-59765000D01*
X115640301Y-59861673D01*
X115461673Y-60040302D01*
X115365000Y-60273691D01*
X108371802Y-60273691D01*
X108371802Y-59215635D01*
X108381715Y-59165801D01*
X108350736Y-59010063D01*
X108342443Y-58968371D01*
X108230608Y-58800996D01*
X108188357Y-58772765D01*
X107324969Y-57909378D01*
X107305193Y-57861634D01*
X108494532Y-57861634D01*
X108544366Y-57871547D01*
X108594200Y-57861634D01*
X108594201Y-57861634D01*
X108634415Y-57853635D01*
X108764654Y-57983874D01*
X108890681Y-58068082D01*
X109039340Y-58097652D01*
X109187999Y-58068082D01*
X109314026Y-57983874D01*
X109950422Y-57347478D01*
X110034630Y-57221451D01*
X110064200Y-57072792D01*
X110034630Y-56924133D01*
X109950422Y-56798106D01*
X109439274Y-56286958D01*
X109439274Y-55211536D01*
X109449187Y-55161701D01*
X109409915Y-54964269D01*
X109368688Y-54902569D01*
X109298080Y-54796895D01*
X109266390Y-54775721D01*
X109317473Y-54699269D01*
X109347043Y-54550610D01*
X109317473Y-54401951D01*
X109233265Y-54275924D01*
X108667579Y-53710238D01*
X108541552Y-53626030D01*
X108392893Y-53596460D01*
X108244234Y-53626030D01*
X108118207Y-53710238D01*
X107481811Y-54346634D01*
X107433220Y-54419355D01*
X107355634Y-54387218D01*
X107103016Y-54387218D01*
X107053708Y-54407642D01*
X107036676Y-54322016D01*
X106976175Y-54231469D01*
X106978680Y-54231967D01*
X107127339Y-54202397D01*
X107253366Y-54118189D01*
X107889762Y-53481793D01*
X107973970Y-53355766D01*
X108003540Y-53207107D01*
X107973970Y-53058448D01*
X107889762Y-52932421D01*
X107324076Y-52366735D01*
X107198049Y-52282527D01*
X107049390Y-52252957D01*
X106900731Y-52282527D01*
X106774704Y-52366735D01*
X106540315Y-52601124D01*
X106540315Y-52075276D01*
X108834592Y-49781000D01*
X109055351Y-49781000D01*
X109342401Y-49662100D01*
X109562100Y-49442401D01*
X109681000Y-49155351D01*
X109681000Y-48844649D01*
X109562100Y-48557599D01*
X109342401Y-48337900D01*
X109055351Y-48219000D01*
X108744649Y-48219000D01*
X108662610Y-48252982D01*
X110609592Y-46306000D01*
X111350166Y-46306000D01*
X111400000Y-46315913D01*
X111449834Y-46306000D01*
X111449835Y-46306000D01*
X111597431Y-46276641D01*
X111764806Y-46164806D01*
X111793039Y-46122552D01*
X113460325Y-44455267D01*
X113431536Y-44600000D01*
X113431536Y-47000000D01*
X113461106Y-47148659D01*
X113507015Y-47217367D01*
X113423359Y-47342570D01*
X113400925Y-47455351D01*
X113384087Y-47540000D01*
X113394000Y-47589834D01*
X113394001Y-53250161D01*
X113384087Y-53300000D01*
X113409246Y-53426476D01*
X113423360Y-53497431D01*
X113535195Y-53664806D01*
X113577445Y-53693036D01*
X113851235Y-53966827D01*
X113819000Y-54044649D01*
X113819000Y-54355351D01*
X113917852Y-54594000D01*
X113649834Y-54594000D01*
X113600000Y-54584087D01*
X113550166Y-54594000D01*
X113509592Y-54594000D01*
X113226312Y-54310721D01*
X113198080Y-54268468D01*
X113030705Y-54156633D01*
X112883109Y-54127274D01*
X112883108Y-54127274D01*
X112833274Y-54117361D01*
X112783440Y-54127274D01*
X111946494Y-54127274D01*
X111435346Y-53616126D01*
X111309319Y-53531918D01*
X111160660Y-53502348D01*
X111012001Y-53531918D01*
X110913395Y-53597804D01*
X110007448Y-52691857D01*
X110059935Y-52613304D01*
X110089505Y-52464645D01*
X110059935Y-52315986D01*
X109975727Y-52189959D01*
X109410041Y-51624273D01*
X109284014Y-51540065D01*
X109135355Y-51510495D01*
X108986696Y-51540065D01*
X108860669Y-51624273D01*
X108224273Y-52260669D01*
X108140065Y-52386696D01*
X108110495Y-52535355D01*
X108140065Y-52684014D01*
X108224273Y-52810041D01*
X108789959Y-53375727D01*
X108915986Y-53459935D01*
X109064645Y-53489505D01*
X109213304Y-53459935D01*
X109291857Y-53407448D01*
X110204458Y-54320050D01*
X110165370Y-54378549D01*
X110135800Y-54527208D01*
X110165370Y-54675867D01*
X110249578Y-54801894D01*
X111098106Y-55650422D01*
X111224133Y-55734630D01*
X111372792Y-55764200D01*
X111521451Y-55734630D01*
X111647478Y-55650422D01*
X112158626Y-55139274D01*
X112623683Y-55139274D01*
X112906963Y-55422555D01*
X112935194Y-55464806D01*
X113102569Y-55576641D01*
X113250165Y-55606000D01*
X113299999Y-55615913D01*
X113349833Y-55606000D01*
X113390409Y-55606000D01*
X115406963Y-57622555D01*
X115435194Y-57664806D01*
X115602569Y-57776641D01*
X115750165Y-57806000D01*
X115750166Y-57806000D01*
X115800000Y-57815913D01*
X115849834Y-57806000D01*
X118690409Y-57806000D01*
X122694000Y-61809592D01*
X122694001Y-66790407D01*
X120038464Y-69445945D01*
X120038464Y-68550000D01*
X120008894Y-68401341D01*
X119924686Y-68275314D01*
X119798659Y-68191106D01*
X119650000Y-68161536D01*
X116350000Y-68161536D01*
X116201341Y-68191106D01*
X116075314Y-68275314D01*
X115991106Y-68401341D01*
X115961536Y-68550000D01*
X115961536Y-72050000D01*
X115991106Y-72198659D01*
X116075314Y-72324686D01*
X116201341Y-72408894D01*
X116350000Y-72438464D01*
X119650000Y-72438464D01*
X119798659Y-72408894D01*
X119924686Y-72324686D01*
X120008894Y-72198659D01*
X120038464Y-72050000D01*
X120038464Y-70788370D01*
X120097431Y-70776641D01*
X120264806Y-70664806D01*
X120293039Y-70622552D01*
X123522555Y-67393037D01*
X123564806Y-67364806D01*
X123655707Y-67228762D01*
X123676641Y-67197432D01*
X123715913Y-67000000D01*
X123706000Y-66950165D01*
X123706000Y-61649833D01*
X123715913Y-61599999D01*
X123696021Y-61500000D01*
X123676641Y-61402569D01*
X123564806Y-61235194D01*
X123522556Y-61206964D01*
X119293039Y-56977448D01*
X119264806Y-56935194D01*
X119097431Y-56823359D01*
X118949835Y-56794000D01*
X118949834Y-56794000D01*
X118900000Y-56784087D01*
X118850166Y-56794000D01*
X116009592Y-56794000D01*
X114821591Y-55606000D01*
X115450166Y-55606000D01*
X115500000Y-55615913D01*
X115549834Y-55606000D01*
X115549835Y-55606000D01*
X115697431Y-55576641D01*
X115864806Y-55464806D01*
X115893038Y-55422553D01*
X115961536Y-55354055D01*
X115961536Y-56250000D01*
X115991106Y-56398659D01*
X116075314Y-56524686D01*
X116201341Y-56608894D01*
X116350000Y-56638464D01*
X119650000Y-56638464D01*
X119798659Y-56608894D01*
X119924686Y-56524686D01*
X120008894Y-56398659D01*
X120038464Y-56250000D01*
X120038464Y-52750000D01*
X120008894Y-52601341D01*
X119924686Y-52475314D01*
X119798659Y-52391106D01*
X119650000Y-52361536D01*
X116350000Y-52361536D01*
X116201341Y-52391106D01*
X116075314Y-52475314D01*
X115991106Y-52601341D01*
X115961536Y-52750000D01*
X115961536Y-54011630D01*
X115902569Y-54023359D01*
X115735194Y-54135194D01*
X115706963Y-54177445D01*
X115290409Y-54594000D01*
X115282148Y-54594000D01*
X115381000Y-54355351D01*
X115381000Y-54044649D01*
X115262100Y-53757599D01*
X115042401Y-53537900D01*
X114755351Y-53419000D01*
X114734592Y-53419000D01*
X114406000Y-53090409D01*
X114406000Y-52723570D01*
X114544649Y-52781000D01*
X114855351Y-52781000D01*
X115142401Y-52662100D01*
X115362100Y-52442401D01*
X115481000Y-52155351D01*
X115481000Y-51934591D01*
X117219000Y-50196592D01*
X117219000Y-50455355D01*
X117337900Y-50742405D01*
X117557599Y-50962104D01*
X117844649Y-51081004D01*
X118155351Y-51081004D01*
X118442401Y-50962104D01*
X118662100Y-50742405D01*
X118781000Y-50455355D01*
X118781000Y-50234596D01*
X118793033Y-50222563D01*
X118793035Y-50222560D01*
X119592555Y-49423041D01*
X119634806Y-49394810D01*
X119746641Y-49227435D01*
X119776000Y-49079839D01*
X119785913Y-49030005D01*
X119776000Y-48980171D01*
X119776000Y-47361412D01*
X119788659Y-47358894D01*
X119914686Y-47274686D01*
X119998894Y-47148659D01*
X120028464Y-47000000D01*
X120028464Y-44600000D01*
X119998894Y-44451341D01*
X119914686Y-44325314D01*
X119788659Y-44241106D01*
X119640000Y-44211536D01*
X119122004Y-44211536D01*
X119149834Y-44206000D01*
X119149835Y-44206000D01*
X119297431Y-44176641D01*
X119464806Y-44064806D01*
X119493039Y-44022552D01*
X119592553Y-43923038D01*
X119634806Y-43894806D01*
X119746641Y-43727431D01*
X119776000Y-43579835D01*
X119776000Y-43579834D01*
X119785913Y-43530001D01*
X119776000Y-43480167D01*
X119776000Y-43461412D01*
X119788659Y-43458894D01*
X119914686Y-43374686D01*
X119998894Y-43248659D01*
X120028464Y-43100000D01*
X120028464Y-40700000D01*
X119998894Y-40551341D01*
X119914686Y-40425314D01*
X119788659Y-40341106D01*
X119640000Y-40311536D01*
X118900000Y-40311536D01*
X118882952Y-40314927D01*
X118729699Y-40161673D01*
X118496310Y-40065000D01*
X118285750Y-40065000D01*
X118127000Y-40223750D01*
X118127000Y-41773000D01*
X118147000Y-41773000D01*
X118147000Y-42027000D01*
X118127000Y-42027000D01*
X118127000Y-42047000D01*
X117873000Y-42047000D01*
X117873000Y-42027000D01*
X116857000Y-42027000D01*
X116857000Y-42047000D01*
X116603000Y-42047000D01*
X116603000Y-42027000D01*
X116583000Y-42027000D01*
X116583000Y-41773000D01*
X116603000Y-41773000D01*
X116603000Y-40223750D01*
X116857000Y-40223750D01*
X116857000Y-41773000D01*
X117873000Y-41773000D01*
X117873000Y-40223750D01*
X117714250Y-40065000D01*
X117503690Y-40065000D01*
X117365000Y-40122447D01*
X117226310Y-40065000D01*
X117015750Y-40065000D01*
X116857000Y-40223750D01*
X116603000Y-40223750D01*
X116444250Y-40065000D01*
X116233690Y-40065000D01*
X116000301Y-40161673D01*
X115847048Y-40314927D01*
X115830000Y-40311536D01*
X115090000Y-40311536D01*
X115072952Y-40314927D01*
X114919699Y-40161673D01*
X114686310Y-40065000D01*
X114475750Y-40065000D01*
X114317000Y-40223750D01*
X114317000Y-41773000D01*
X114337000Y-41773000D01*
X114337000Y-42027000D01*
X114317000Y-42027000D01*
X114317000Y-42047000D01*
X114063000Y-42047000D01*
X114063000Y-42027000D01*
X113343750Y-42027000D01*
X113185000Y-42185750D01*
X113185000Y-42669408D01*
X111093039Y-40577448D01*
X111090529Y-40573691D01*
X113185000Y-40573691D01*
X113185000Y-41614250D01*
X113343750Y-41773000D01*
X114063000Y-41773000D01*
X114063000Y-40223750D01*
X113904250Y-40065000D01*
X113693690Y-40065000D01*
X113460301Y-40161673D01*
X113281673Y-40340302D01*
X113185000Y-40573691D01*
X111090529Y-40573691D01*
X111064806Y-40535194D01*
X110897431Y-40423359D01*
X110838464Y-40411630D01*
X110838464Y-40400000D01*
X110808894Y-40251341D01*
X110724686Y-40125314D01*
X110598659Y-40041106D01*
X110450000Y-40011536D01*
X108750000Y-40011536D01*
X108601341Y-40041106D01*
X108475314Y-40125314D01*
X108391106Y-40251341D01*
X108361536Y-40400000D01*
X108361536Y-41400000D01*
X108391106Y-41548659D01*
X108475314Y-41674686D01*
X108601341Y-41758894D01*
X108750000Y-41788464D01*
X110450000Y-41788464D01*
X110598659Y-41758894D01*
X110724686Y-41674686D01*
X110738468Y-41654059D01*
X112784408Y-43700000D01*
X111190409Y-45294000D01*
X110819766Y-45294000D01*
X110838464Y-45200000D01*
X110838464Y-44200000D01*
X110808894Y-44051341D01*
X110724686Y-43925314D01*
X110598659Y-43841106D01*
X110450000Y-43811536D01*
X108750000Y-43811536D01*
X108601341Y-43841106D01*
X108475314Y-43925314D01*
X108391106Y-44051341D01*
X108361536Y-44200000D01*
X108361536Y-45200000D01*
X108391106Y-45348659D01*
X108475314Y-45474686D01*
X108601341Y-45558894D01*
X108750000Y-45588464D01*
X109895944Y-45588464D01*
X105077446Y-50406963D01*
X105035195Y-50435194D01*
X104923360Y-50602569D01*
X104884087Y-50800000D01*
X104894001Y-50849839D01*
X104894000Y-51990408D01*
X103277445Y-53606963D01*
X103235195Y-53635194D01*
X103185053Y-53710238D01*
X103123360Y-53802569D01*
X103084087Y-54000000D01*
X103094001Y-54049839D01*
X103094000Y-55550166D01*
X103084087Y-55600000D01*
X103094000Y-55649834D01*
X103123359Y-55797430D01*
X103235194Y-55964806D01*
X103277447Y-55993039D01*
X104634408Y-57350000D01*
X103177447Y-58806961D01*
X103135194Y-58835194D01*
X103023359Y-59002570D01*
X103000803Y-59115967D01*
X102984087Y-59200000D01*
X102994000Y-59249834D01*
X102994001Y-60749520D01*
X102581847Y-61161674D01*
X102497639Y-61287701D01*
X102468069Y-61436360D01*
X102497639Y-61585019D01*
X102578448Y-61705960D01*
X101056303Y-63228105D01*
X101014053Y-63256336D01*
X100913407Y-63406966D01*
X100902218Y-63423711D01*
X100862945Y-63621142D01*
X100872859Y-63670981D01*
X100872858Y-64397692D01*
X100662230Y-64608320D01*
X100640970Y-64640137D01*
X100632040Y-64649068D01*
X100632037Y-64649070D01*
X100109375Y-65171732D01*
X100062100Y-65057599D01*
X99842401Y-64837900D01*
X99555351Y-64719000D01*
X99437893Y-64719000D01*
X99359028Y-64640135D01*
X99337770Y-64608320D01*
X99310450Y-64581000D01*
X99555351Y-64581000D01*
X99842401Y-64462100D01*
X100062100Y-64242401D01*
X100181000Y-63955351D01*
X100181000Y-63644649D01*
X100062100Y-63357599D01*
X99842401Y-63137900D01*
X99555351Y-63019000D01*
X99244649Y-63019000D01*
X98957599Y-63137900D01*
X98801499Y-63294000D01*
X97935041Y-63294000D01*
X97956021Y-63243350D01*
X97956021Y-62932648D01*
X97893729Y-62782261D01*
X97942401Y-62762100D01*
X98162100Y-62542401D01*
X98281000Y-62255351D01*
X98281000Y-61944649D01*
X98162100Y-61657599D01*
X97942401Y-61437900D01*
X97655351Y-61319000D01*
X97344649Y-61319000D01*
X97057599Y-61437900D01*
X96905725Y-61589774D01*
X96884480Y-61594000D01*
X96736884Y-61623359D01*
X96569509Y-61735194D01*
X96541278Y-61777445D01*
X96127456Y-62191268D01*
X96085206Y-62219498D01*
X96007901Y-62335195D01*
X95973371Y-62386873D01*
X95934098Y-62584304D01*
X95944012Y-62634143D01*
X95944011Y-64518196D01*
X95934098Y-64568030D01*
X95944011Y-64617864D01*
X95973370Y-64765460D01*
X96085205Y-64932836D01*
X96127458Y-64961068D01*
X96574446Y-65408057D01*
X96490300Y-65492203D01*
X96419493Y-65598175D01*
X96313524Y-65668980D01*
X96229378Y-65753126D01*
X94806000Y-64329749D01*
X94806000Y-63898501D01*
X94962100Y-63742401D01*
X95081000Y-63455351D01*
X95081000Y-63144649D01*
X94962100Y-62857599D01*
X94742401Y-62637900D01*
X94455351Y-62519000D01*
X94144649Y-62519000D01*
X93857599Y-62637900D01*
X93637900Y-62857599D01*
X93519000Y-63144649D01*
X93519000Y-63319000D01*
X93344649Y-63319000D01*
X93057599Y-63437900D01*
X92906000Y-63589499D01*
X92906000Y-59350438D01*
X98494000Y-59350438D01*
X98494000Y-59949562D01*
X98723275Y-60503080D01*
X99146920Y-60926725D01*
X99700438Y-61156000D01*
X100299562Y-61156000D01*
X100853080Y-60926725D01*
X101276725Y-60503080D01*
X101506000Y-59949562D01*
X101506000Y-59350438D01*
X101276725Y-58796920D01*
X100853080Y-58373275D01*
X100299562Y-58144000D01*
X99700438Y-58144000D01*
X99146920Y-58373275D01*
X98723275Y-58796920D01*
X98494000Y-59350438D01*
X92906000Y-59350438D01*
X92906000Y-54409591D01*
X94750393Y-52565198D01*
X95145885Y-52565198D01*
X95155798Y-52615032D01*
X95155799Y-56611959D01*
X95145885Y-56661798D01*
X95182821Y-56847479D01*
X95185158Y-56859229D01*
X95296993Y-57026604D01*
X95339243Y-57054834D01*
X96019000Y-57734592D01*
X96019000Y-57955351D01*
X96137900Y-58242401D01*
X96357599Y-58462100D01*
X96644649Y-58581000D01*
X96955351Y-58581000D01*
X97242401Y-58462100D01*
X97462100Y-58242401D01*
X97581000Y-57955351D01*
X97581000Y-57644649D01*
X97462100Y-57357599D01*
X97242401Y-57137900D01*
X96955351Y-57019000D01*
X96734592Y-57019000D01*
X96167798Y-56452207D01*
X96167798Y-54842516D01*
X96231448Y-54868881D01*
X96452207Y-54868881D01*
X96464240Y-54880914D01*
X96464243Y-54880916D01*
X98205881Y-56622555D01*
X98234112Y-56664806D01*
X98346699Y-56740033D01*
X98401486Y-56776641D01*
X98598918Y-56815913D01*
X98648753Y-56806000D01*
X98701499Y-56806000D01*
X98857599Y-56962100D01*
X99144649Y-57081000D01*
X99455351Y-57081000D01*
X99742401Y-56962100D01*
X99962100Y-56742401D01*
X100081000Y-56455351D01*
X100081000Y-56270376D01*
X100342401Y-56162100D01*
X100562100Y-55942401D01*
X100681000Y-55655351D01*
X100681000Y-55370376D01*
X100942401Y-55262100D01*
X101162100Y-55042401D01*
X101281000Y-54755351D01*
X101281000Y-54444649D01*
X101162100Y-54157599D01*
X101118092Y-54113591D01*
X101242401Y-54062100D01*
X101462100Y-53842401D01*
X101581000Y-53555351D01*
X101581000Y-53244649D01*
X101535993Y-53135993D01*
X101644649Y-53181000D01*
X101955351Y-53181000D01*
X102242401Y-53062100D01*
X102462100Y-52842401D01*
X102581000Y-52555351D01*
X102581000Y-52244649D01*
X102462100Y-51957599D01*
X102242401Y-51737900D01*
X101955351Y-51619000D01*
X101644649Y-51619000D01*
X101357599Y-51737900D01*
X101322703Y-51772796D01*
X100527353Y-50977447D01*
X100499121Y-50935194D01*
X100331746Y-50823359D01*
X100184150Y-50794000D01*
X100184149Y-50794000D01*
X100134315Y-50784087D01*
X100096175Y-50791674D01*
X100042401Y-50737900D01*
X99755351Y-50619000D01*
X99444649Y-50619000D01*
X99157599Y-50737900D01*
X98937900Y-50957599D01*
X98819000Y-51244649D01*
X98819000Y-51555351D01*
X98923693Y-51808101D01*
X98681000Y-51565409D01*
X98681000Y-51344649D01*
X98562100Y-51057599D01*
X98342401Y-50837900D01*
X98174312Y-50768275D01*
X101136588Y-47806000D01*
X102602729Y-47806000D01*
X102631106Y-47948659D01*
X102715314Y-48074686D01*
X102841341Y-48158894D01*
X102990000Y-48188464D01*
X103660000Y-48188464D01*
X103808659Y-48158894D01*
X103934686Y-48074686D01*
X104018894Y-47948659D01*
X104048464Y-47800000D01*
X104048464Y-47585750D01*
X104105000Y-47585750D01*
X104105000Y-47926310D01*
X104201673Y-48159699D01*
X104380302Y-48338327D01*
X104613691Y-48435000D01*
X104789250Y-48435000D01*
X104948000Y-48276250D01*
X104948000Y-47427000D01*
X105202000Y-47427000D01*
X105202000Y-48276250D01*
X105360750Y-48435000D01*
X105536309Y-48435000D01*
X105769698Y-48338327D01*
X105948327Y-48159699D01*
X106045000Y-47926310D01*
X106045000Y-47585750D01*
X105886250Y-47427000D01*
X105202000Y-47427000D01*
X104948000Y-47427000D01*
X104263750Y-47427000D01*
X104105000Y-47585750D01*
X104048464Y-47585750D01*
X104048464Y-46800000D01*
X104023340Y-46673690D01*
X104105000Y-46673690D01*
X104105000Y-47014250D01*
X104263750Y-47173000D01*
X104948000Y-47173000D01*
X104948000Y-46323750D01*
X105202000Y-46323750D01*
X105202000Y-47173000D01*
X105886250Y-47173000D01*
X106045000Y-47014250D01*
X106045000Y-46673690D01*
X105948327Y-46440301D01*
X105769698Y-46261673D01*
X105536309Y-46165000D01*
X105360750Y-46165000D01*
X105202000Y-46323750D01*
X104948000Y-46323750D01*
X104789250Y-46165000D01*
X104613691Y-46165000D01*
X104380302Y-46261673D01*
X104201673Y-46440301D01*
X104105000Y-46673690D01*
X104023340Y-46673690D01*
X104018894Y-46651341D01*
X103934686Y-46525314D01*
X103831000Y-46456034D01*
X103831000Y-45588464D01*
X104150000Y-45588464D01*
X104298659Y-45558894D01*
X104424686Y-45474686D01*
X104508894Y-45348659D01*
X104538464Y-45200000D01*
X104538464Y-44200000D01*
X104508894Y-44051341D01*
X104424686Y-43925314D01*
X104298659Y-43841106D01*
X104150000Y-43811536D01*
X102450000Y-43811536D01*
X102301341Y-43841106D01*
X102175314Y-43925314D01*
X102091106Y-44051341D01*
X102061536Y-44200000D01*
X102061536Y-45200000D01*
X102091106Y-45348659D01*
X102175314Y-45474686D01*
X102301341Y-45558894D01*
X102450000Y-45588464D01*
X102819001Y-45588464D01*
X102819000Y-46456033D01*
X102715314Y-46525314D01*
X102631106Y-46651341D01*
X102602729Y-46794000D01*
X100976829Y-46794000D01*
X100926995Y-46784087D01*
X100877161Y-46794000D01*
X100729565Y-46823359D01*
X100562190Y-46935194D01*
X100533959Y-46977445D01*
X95339246Y-52172159D01*
X95296992Y-52200392D01*
X95185157Y-52367768D01*
X95156312Y-52512778D01*
X95145885Y-52565198D01*
X94750393Y-52565198D01*
X99322559Y-47993034D01*
X99364806Y-47964806D01*
X99476641Y-47797431D01*
X99496532Y-47697432D01*
X99515913Y-47600000D01*
X99506000Y-47550165D01*
X99506000Y-46397271D01*
X99648659Y-46368894D01*
X99774686Y-46284686D01*
X99858894Y-46158659D01*
X99888464Y-46010000D01*
X99888464Y-45190000D01*
X99858894Y-45041341D01*
X99774686Y-44915314D01*
X99648659Y-44831106D01*
X99500000Y-44801536D01*
X98500000Y-44801536D01*
X98351341Y-44831106D01*
X98225314Y-44915314D01*
X98141106Y-45041341D01*
X98111536Y-45190000D01*
X98111536Y-46010000D01*
X98141106Y-46158659D01*
X98225314Y-46284686D01*
X98351341Y-46368894D01*
X98494001Y-46397271D01*
X98494000Y-47390407D01*
X92406000Y-53478409D01*
X92406000Y-52809591D01*
X97322556Y-47893036D01*
X97364806Y-47864806D01*
X97476641Y-47697431D01*
X97506000Y-47549835D01*
X97506000Y-47549834D01*
X97515913Y-47500001D01*
X97506000Y-47450167D01*
X97506000Y-46419103D01*
X97648659Y-46390726D01*
X97774686Y-46306518D01*
X97858894Y-46180491D01*
X97888464Y-46031832D01*
X97888464Y-45211832D01*
X97858894Y-45063173D01*
X97774686Y-44937146D01*
X97648659Y-44852938D01*
X97500000Y-44823368D01*
X96500000Y-44823368D01*
X96351341Y-44852938D01*
X96225314Y-44937146D01*
X96141106Y-45063173D01*
X96111536Y-45211832D01*
X96111536Y-46031832D01*
X96141106Y-46180491D01*
X96225314Y-46306518D01*
X96351341Y-46390726D01*
X96494001Y-46419103D01*
X96494000Y-47290408D01*
X91806000Y-51978409D01*
X91806000Y-51909591D01*
X95322556Y-48393036D01*
X95364806Y-48364806D01*
X95476641Y-48197431D01*
X95506000Y-48049835D01*
X95506000Y-48049834D01*
X95515913Y-48000001D01*
X95506000Y-47950167D01*
X95506000Y-46397271D01*
X95648659Y-46368894D01*
X95774686Y-46284686D01*
X95858894Y-46158659D01*
X95888464Y-46010000D01*
X95888464Y-45190000D01*
X95858894Y-45041341D01*
X95774686Y-44915314D01*
X95648659Y-44831106D01*
X95500000Y-44801536D01*
X94500000Y-44801536D01*
X94351341Y-44831106D01*
X94225314Y-44915314D01*
X94141106Y-45041341D01*
X94111536Y-45190000D01*
X94111536Y-46010000D01*
X94141106Y-46158659D01*
X94225314Y-46284686D01*
X94351341Y-46368894D01*
X94494001Y-46397271D01*
X94494000Y-47790408D01*
X90977446Y-51306963D01*
X90935195Y-51335194D01*
X90891894Y-51400000D01*
X90823360Y-51502569D01*
X90784087Y-51700000D01*
X90794001Y-51749839D01*
X90794001Y-54592842D01*
X90555351Y-54493990D01*
X90244649Y-54493990D01*
X89957599Y-54612890D01*
X89737900Y-54832589D01*
X89656544Y-55029000D01*
X88695580Y-55029000D01*
X88649686Y-54960314D01*
X88559419Y-54900000D01*
X88649686Y-54839686D01*
X88733894Y-54713659D01*
X88763464Y-54565000D01*
X88763464Y-53965000D01*
X88733894Y-53816341D01*
X88649686Y-53690314D01*
X88559419Y-53630000D01*
X88649686Y-53569686D01*
X88733894Y-53443659D01*
X88763464Y-53295000D01*
X88763464Y-52695000D01*
X88733894Y-52546341D01*
X88649686Y-52420314D01*
X88523659Y-52336106D01*
X88375000Y-52306536D01*
X86825000Y-52306536D01*
X86676341Y-52336106D01*
X86550314Y-52420314D01*
X86466106Y-52546341D01*
X86436536Y-52695000D01*
X86436536Y-53295000D01*
X86466106Y-53443659D01*
X86550314Y-53569686D01*
X86640581Y-53630000D01*
X86550314Y-53690314D01*
X86466106Y-53816341D01*
X86436536Y-53965000D01*
X86436536Y-54237872D01*
X85656000Y-55018409D01*
X85656000Y-48644677D01*
X85737900Y-48842401D01*
X85957599Y-49062100D01*
X86244649Y-49181000D01*
X86555351Y-49181000D01*
X86842401Y-49062100D01*
X87062100Y-48842401D01*
X87181000Y-48555351D01*
X87181000Y-48244649D01*
X87062100Y-47957599D01*
X86906000Y-47801499D01*
X86906000Y-47353989D01*
X87024686Y-47274686D01*
X87108894Y-47148659D01*
X87138464Y-47000000D01*
X87138464Y-45800000D01*
X87114794Y-45681000D01*
X87230053Y-45681000D01*
X87509380Y-45960327D01*
X87539003Y-46004661D01*
X87714646Y-46122022D01*
X87869538Y-46152832D01*
X87921832Y-46163234D01*
X87974126Y-46152832D01*
X91294001Y-46152832D01*
X91294000Y-46701499D01*
X91137900Y-46857599D01*
X91019000Y-47144649D01*
X91019000Y-47455351D01*
X91137900Y-47742401D01*
X91357599Y-47962100D01*
X91644649Y-48081000D01*
X91955351Y-48081000D01*
X92242401Y-47962100D01*
X92462100Y-47742401D01*
X92581000Y-47455351D01*
X92581000Y-47144649D01*
X92462100Y-46857599D01*
X92306000Y-46701499D01*
X92306000Y-46360430D01*
X92351341Y-46390726D01*
X92500000Y-46420296D01*
X93500000Y-46420296D01*
X93648659Y-46390726D01*
X93774686Y-46306518D01*
X93858894Y-46180491D01*
X93888464Y-46031832D01*
X93888464Y-45211832D01*
X93858894Y-45063173D01*
X93774686Y-44937146D01*
X93648659Y-44852938D01*
X93500000Y-44823368D01*
X92500000Y-44823368D01*
X92351341Y-44852938D01*
X92225314Y-44937146D01*
X92141106Y-45063173D01*
X92135604Y-45090832D01*
X88141779Y-45090832D01*
X87981000Y-44930053D01*
X87981000Y-44744649D01*
X87862100Y-44457599D01*
X87642401Y-44237900D01*
X87355351Y-44119000D01*
X87044649Y-44119000D01*
X86757599Y-44237900D01*
X86537900Y-44457599D01*
X86520724Y-44499066D01*
X86481000Y-44459343D01*
X86481000Y-44085861D01*
X86488334Y-44048990D01*
X86488334Y-43628620D01*
X86655028Y-43628620D01*
X86941630Y-43509906D01*
X87160986Y-43290550D01*
X87279700Y-43003948D01*
X87279700Y-42693732D01*
X87160986Y-42407130D01*
X86941630Y-42187774D01*
X86655028Y-42069060D01*
X86344812Y-42069060D01*
X86058210Y-42187774D01*
X85934198Y-42311786D01*
X85701090Y-42311786D01*
X85570898Y-42337683D01*
X85447090Y-42313056D01*
X85048310Y-42313056D01*
X84923850Y-42337813D01*
X84799390Y-42313056D01*
X84400610Y-42313056D01*
X84276150Y-42337813D01*
X84151690Y-42313056D01*
X84008472Y-42313056D01*
X83858608Y-42163193D01*
X83625219Y-42066520D01*
X83557965Y-42066520D01*
X83399215Y-42225270D01*
X83399215Y-42490365D01*
X83363686Y-42404590D01*
X83199825Y-42240729D01*
X83199825Y-42225270D01*
X83041075Y-42066520D01*
X82973821Y-42066520D01*
X82915775Y-42090564D01*
X82857728Y-42066520D01*
X82547512Y-42066520D01*
X82260910Y-42185234D01*
X82041554Y-42404590D01*
X81922840Y-42691192D01*
X81922840Y-43001408D01*
X82041554Y-43288010D01*
X82260910Y-43507366D01*
X82513506Y-43611994D01*
X82465130Y-43660370D01*
X82465130Y-44174030D01*
X82561803Y-44407419D01*
X82740432Y-44586047D01*
X82973821Y-44682720D01*
X83041075Y-44682720D01*
X83199825Y-44523970D01*
X83199825Y-43501620D01*
X83152520Y-43501620D01*
X83152520Y-43499176D01*
X83363686Y-43288010D01*
X83364446Y-43286175D01*
X83364446Y-44047720D01*
X83394016Y-44196379D01*
X83399215Y-44204160D01*
X83399215Y-44523970D01*
X83557965Y-44682720D01*
X83625219Y-44682720D01*
X83858608Y-44586047D01*
X84008472Y-44436184D01*
X84151690Y-44436184D01*
X84194001Y-44427768D01*
X84194000Y-55417852D01*
X83955351Y-55319000D01*
X83734591Y-55319000D01*
X83593038Y-55177447D01*
X83564806Y-55135194D01*
X83397431Y-55023359D01*
X83275621Y-54999129D01*
X83249686Y-54960314D01*
X83159419Y-54900000D01*
X83249686Y-54839686D01*
X83333894Y-54713659D01*
X83363464Y-54565000D01*
X83363464Y-53965000D01*
X83333894Y-53816341D01*
X83249686Y-53690314D01*
X83159419Y-53630000D01*
X83249686Y-53569686D01*
X83333894Y-53443659D01*
X83363464Y-53295000D01*
X83363464Y-52695000D01*
X83333894Y-52546341D01*
X83249686Y-52420314D01*
X83123659Y-52336106D01*
X82975000Y-52306536D01*
X81425000Y-52306536D01*
X81276341Y-52336106D01*
X81189696Y-52394000D01*
X80998501Y-52394000D01*
X80842401Y-52237900D01*
X80555351Y-52119000D01*
X80244649Y-52119000D01*
X79957599Y-52237900D01*
X79737900Y-52457599D01*
X79631000Y-52715678D01*
X79631000Y-47861368D01*
X80461369Y-47031000D01*
X82167702Y-47031000D01*
X82191106Y-47148659D01*
X82275314Y-47274686D01*
X82401341Y-47358894D01*
X82514163Y-47381336D01*
X82437900Y-47457599D01*
X82319000Y-47744649D01*
X82319000Y-48055351D01*
X82437900Y-48342401D01*
X82657599Y-48562100D01*
X82944649Y-48681000D01*
X83255351Y-48681000D01*
X83542401Y-48562100D01*
X83762100Y-48342401D01*
X83881000Y-48055351D01*
X83881000Y-47744649D01*
X83762100Y-47457599D01*
X83637465Y-47332964D01*
X83724686Y-47274686D01*
X83808894Y-47148659D01*
X83838464Y-47000000D01*
X83838464Y-45800000D01*
X83808894Y-45651341D01*
X83724686Y-45525314D01*
X83598659Y-45441106D01*
X83450000Y-45411536D01*
X82550000Y-45411536D01*
X82401341Y-45441106D01*
X82275314Y-45525314D01*
X82191106Y-45651341D01*
X82167702Y-45769000D01*
X80262146Y-45769000D01*
X80199999Y-45756638D01*
X80137852Y-45769000D01*
X79953796Y-45805611D01*
X79745074Y-45945074D01*
X79709869Y-45997762D01*
X78597764Y-47109868D01*
X78545074Y-47145074D01*
X78458471Y-47274686D01*
X78405611Y-47353797D01*
X78356638Y-47600000D01*
X78369000Y-47662148D01*
X78369001Y-61237847D01*
X78356638Y-61300000D01*
X78369000Y-61362148D01*
X78369001Y-67337847D01*
X78356638Y-67400000D01*
X78405611Y-67646203D01*
X78441557Y-67700000D01*
X78545075Y-67854926D01*
X78597762Y-67890130D01*
X79709869Y-69002238D01*
X79745074Y-69054926D01*
X79953796Y-69194389D01*
X80137852Y-69231000D01*
X80199999Y-69243362D01*
X80262146Y-69231000D01*
X81046124Y-69231000D01*
X81075314Y-69274686D01*
X81159001Y-69330603D01*
X81159000Y-70290577D01*
X81156341Y-70291106D01*
X81030314Y-70375314D01*
X80946106Y-70501341D01*
X80916536Y-70650000D01*
X80916536Y-70769000D01*
X80867146Y-70769000D01*
X80804999Y-70756638D01*
X80742853Y-70769000D01*
X80742852Y-70769000D01*
X80558796Y-70805611D01*
X80350074Y-70945074D01*
X80314869Y-70997762D01*
X76197762Y-75114869D01*
X76145075Y-75150074D01*
X76088200Y-75235194D01*
X76005611Y-75358797D01*
X75956638Y-75605000D01*
X75969001Y-75667153D01*
X75969000Y-80462147D01*
X75969001Y-80462152D01*
X75969000Y-83917702D01*
X75851341Y-83941106D01*
X75725314Y-84025314D01*
X75641106Y-84151341D01*
X75611536Y-84300000D01*
X75611536Y-85200000D01*
X75641106Y-85348659D01*
X75725314Y-85474686D01*
X75851341Y-85558894D01*
X76000000Y-85588464D01*
X77200000Y-85588464D01*
X77348659Y-85558894D01*
X77474686Y-85474686D01*
X77558894Y-85348659D01*
X77588464Y-85200000D01*
X77588464Y-84300000D01*
X77558894Y-84151341D01*
X77474686Y-84025314D01*
X77348659Y-83941106D01*
X77231000Y-83917702D01*
X77231000Y-75866368D01*
X80921651Y-72175717D01*
X80946106Y-72298659D01*
X81030314Y-72424686D01*
X81156341Y-72508894D01*
X81305000Y-72538464D01*
X82275000Y-72538464D01*
X82423659Y-72508894D01*
X82549686Y-72424686D01*
X82606339Y-72339898D01*
X82676673Y-72509699D01*
X82855302Y-72688327D01*
X83088691Y-72785000D01*
X83414250Y-72785000D01*
X83573000Y-72626250D01*
X83573000Y-71527000D01*
X83827000Y-71527000D01*
X83827000Y-72626250D01*
X83985750Y-72785000D01*
X84311309Y-72785000D01*
X84544698Y-72688327D01*
X84723327Y-72509699D01*
X84820000Y-72276310D01*
X84820000Y-71685750D01*
X84661250Y-71527000D01*
X83827000Y-71527000D01*
X83573000Y-71527000D01*
X83553000Y-71527000D01*
X83553000Y-71485750D01*
X85655000Y-71485750D01*
X85655000Y-71826310D01*
X85751673Y-72059699D01*
X85930302Y-72238327D01*
X86163691Y-72335000D01*
X86414250Y-72335000D01*
X86573000Y-72176250D01*
X86573000Y-71327000D01*
X85813750Y-71327000D01*
X85655000Y-71485750D01*
X83553000Y-71485750D01*
X83553000Y-71273000D01*
X83573000Y-71273000D01*
X83573000Y-70526250D01*
X83673000Y-70426250D01*
X83673000Y-70173750D01*
X83827000Y-70173750D01*
X83827000Y-71273000D01*
X84661250Y-71273000D01*
X84820000Y-71114250D01*
X84820000Y-70573690D01*
X85655000Y-70573690D01*
X85655000Y-70914250D01*
X85813750Y-71073000D01*
X86573000Y-71073000D01*
X86573000Y-70223750D01*
X86414250Y-70065000D01*
X86163691Y-70065000D01*
X85930302Y-70161673D01*
X85751673Y-70340301D01*
X85655000Y-70573690D01*
X84820000Y-70573690D01*
X84820000Y-70523690D01*
X84748047Y-70349979D01*
X84788327Y-70309699D01*
X84885000Y-70076310D01*
X84885000Y-69835750D01*
X84726250Y-69677000D01*
X83927000Y-69677000D01*
X83927000Y-70073750D01*
X83827000Y-70173750D01*
X83673000Y-70173750D01*
X83673000Y-69677000D01*
X82873750Y-69677000D01*
X82715000Y-69835750D01*
X82715000Y-70076310D01*
X82766451Y-70200524D01*
X82676673Y-70290301D01*
X82606339Y-70460102D01*
X82549686Y-70375314D01*
X82423659Y-70291106D01*
X82421000Y-70290577D01*
X82421000Y-69343966D01*
X82524686Y-69274686D01*
X82608894Y-69148659D01*
X82633751Y-69023690D01*
X82715000Y-69023690D01*
X82715000Y-69264250D01*
X82873750Y-69423000D01*
X83673000Y-69423000D01*
X83673000Y-68673750D01*
X83927000Y-68673750D01*
X83927000Y-69423000D01*
X84726250Y-69423000D01*
X84885000Y-69264250D01*
X84885000Y-69023690D01*
X84788327Y-68790301D01*
X84609698Y-68611673D01*
X84376309Y-68515000D01*
X84085750Y-68515000D01*
X83927000Y-68673750D01*
X83673000Y-68673750D01*
X83514250Y-68515000D01*
X83223691Y-68515000D01*
X82990302Y-68611673D01*
X82811673Y-68790301D01*
X82715000Y-69023690D01*
X82633751Y-69023690D01*
X82638464Y-69000000D01*
X82638464Y-68200000D01*
X82608894Y-68051341D01*
X82524686Y-67925314D01*
X82398659Y-67841106D01*
X82250000Y-67811536D01*
X81350000Y-67811536D01*
X81201341Y-67841106D01*
X81075314Y-67925314D01*
X81046124Y-67969000D01*
X80461369Y-67969000D01*
X79631000Y-67138632D01*
X79631000Y-66085750D01*
X80725000Y-66085750D01*
X80725000Y-66676310D01*
X80821673Y-66909699D01*
X81000302Y-67088327D01*
X81233691Y-67185000D01*
X81559250Y-67185000D01*
X81718000Y-67026250D01*
X81718000Y-65927000D01*
X80883750Y-65927000D01*
X80725000Y-66085750D01*
X79631000Y-66085750D01*
X79631000Y-64923690D01*
X80725000Y-64923690D01*
X80725000Y-65514250D01*
X80883750Y-65673000D01*
X81718000Y-65673000D01*
X81718000Y-64573750D01*
X81559250Y-64415000D01*
X81233691Y-64415000D01*
X81000302Y-64511673D01*
X80821673Y-64690301D01*
X80725000Y-64923690D01*
X79631000Y-64923690D01*
X79631000Y-62031000D01*
X81427593Y-62031000D01*
X81431106Y-62048659D01*
X81515314Y-62174686D01*
X81641341Y-62258894D01*
X81790000Y-62288464D01*
X82610000Y-62288464D01*
X82758659Y-62258894D01*
X82884686Y-62174686D01*
X82968894Y-62048659D01*
X82998464Y-61900000D01*
X82998464Y-60900000D01*
X83001536Y-60900000D01*
X83001536Y-61900000D01*
X83031106Y-62048659D01*
X83115314Y-62174686D01*
X83241341Y-62258894D01*
X83390000Y-62288464D01*
X84210000Y-62288464D01*
X84358659Y-62258894D01*
X84484686Y-62174686D01*
X84568894Y-62048659D01*
X84578684Y-61999441D01*
X84637900Y-62142401D01*
X84857599Y-62362100D01*
X85144649Y-62481000D01*
X85455351Y-62481000D01*
X85742401Y-62362100D01*
X85962100Y-62142401D01*
X86081000Y-61855351D01*
X86081000Y-61544649D01*
X85962100Y-61257599D01*
X85742401Y-61037900D01*
X85455351Y-60919000D01*
X85175517Y-60919000D01*
X85049835Y-60894000D01*
X85049834Y-60894000D01*
X85000000Y-60884087D01*
X84950166Y-60894000D01*
X84597271Y-60894000D01*
X84568894Y-60751341D01*
X84484686Y-60625314D01*
X84358659Y-60541106D01*
X84210000Y-60511536D01*
X83390000Y-60511536D01*
X83241341Y-60541106D01*
X83115314Y-60625314D01*
X83031106Y-60751341D01*
X83001536Y-60900000D01*
X82998464Y-60900000D01*
X82968894Y-60751341D01*
X82884686Y-60625314D01*
X82758659Y-60541106D01*
X82610000Y-60511536D01*
X81790000Y-60511536D01*
X81641341Y-60541106D01*
X81515314Y-60625314D01*
X81431106Y-60751341D01*
X81427593Y-60769000D01*
X79631000Y-60769000D01*
X79631000Y-58145000D01*
X79914250Y-58145000D01*
X80073000Y-57986250D01*
X80073000Y-57227000D01*
X80053000Y-57227000D01*
X80053000Y-56973000D01*
X80073000Y-56973000D01*
X80073000Y-56953000D01*
X80327000Y-56953000D01*
X80327000Y-56973000D01*
X80347000Y-56973000D01*
X80347000Y-57227000D01*
X80327000Y-57227000D01*
X80327000Y-57986250D01*
X80485750Y-58145000D01*
X80826310Y-58145000D01*
X81059699Y-58048327D01*
X81238327Y-57869698D01*
X81293022Y-57737652D01*
X81298691Y-57740000D01*
X81914250Y-57740000D01*
X82073000Y-57581250D01*
X82073000Y-56932000D01*
X82053000Y-56932000D01*
X82053000Y-56678000D01*
X82073000Y-56678000D01*
X82073000Y-56658000D01*
X82327000Y-56658000D01*
X82327000Y-56678000D01*
X82347000Y-56678000D01*
X82347000Y-56932000D01*
X82327000Y-56932000D01*
X82327000Y-57581250D01*
X82485750Y-57740000D01*
X83101309Y-57740000D01*
X83334698Y-57643327D01*
X83513327Y-57464699D01*
X83610000Y-57231310D01*
X83610000Y-57090750D01*
X83451252Y-56932002D01*
X83610000Y-56932002D01*
X83610000Y-56866648D01*
X83644649Y-56881000D01*
X83955351Y-56881000D01*
X84194000Y-56782148D01*
X84194000Y-59096792D01*
X84184087Y-59146626D01*
X84194000Y-59196460D01*
X84223359Y-59344056D01*
X84335194Y-59511432D01*
X84377448Y-59539665D01*
X93410143Y-68572361D01*
X93400951Y-68581553D01*
X92896844Y-68077447D01*
X92868612Y-68035194D01*
X92701237Y-67923359D01*
X92553641Y-67894000D01*
X92553640Y-67894000D01*
X92503806Y-67884087D01*
X92453972Y-67894000D01*
X91609592Y-67894000D01*
X91205954Y-67490363D01*
X91286764Y-67369422D01*
X91316334Y-67220763D01*
X91286764Y-67072104D01*
X91202556Y-66946077D01*
X90728795Y-66472316D01*
X90602768Y-66388108D01*
X90454109Y-66358538D01*
X90305450Y-66388108D01*
X90179423Y-66472316D01*
X89472316Y-67179423D01*
X89388108Y-67305450D01*
X89358538Y-67454109D01*
X89388108Y-67602768D01*
X89472316Y-67728795D01*
X89946077Y-68202556D01*
X90072104Y-68286764D01*
X90220763Y-68316334D01*
X90369422Y-68286764D01*
X90490363Y-68205954D01*
X90678408Y-68394000D01*
X85959592Y-68394000D01*
X84893038Y-67327447D01*
X84864806Y-67285194D01*
X84697431Y-67173359D01*
X84620162Y-67157989D01*
X84608894Y-67101341D01*
X84524686Y-66975314D01*
X84406970Y-66896659D01*
X84431728Y-66880116D01*
X88499490Y-66880116D01*
X88499490Y-67104622D01*
X88623629Y-67228761D01*
X88857018Y-67325434D01*
X89109636Y-67325434D01*
X89343026Y-67228762D01*
X89521654Y-67050133D01*
X89583838Y-66987949D01*
X89583838Y-66763443D01*
X89100000Y-66279605D01*
X88499490Y-66880116D01*
X84431728Y-66880116D01*
X84514686Y-66824686D01*
X84598894Y-66698659D01*
X84628464Y-66550000D01*
X84628464Y-66391453D01*
X84844649Y-66481000D01*
X85155351Y-66481000D01*
X85442401Y-66362100D01*
X85662100Y-66142401D01*
X85683654Y-66090364D01*
X87874566Y-66090364D01*
X87874566Y-66342982D01*
X87971239Y-66576371D01*
X88095378Y-66700510D01*
X88319884Y-66700510D01*
X88920395Y-66100000D01*
X89279605Y-66100000D01*
X89763443Y-66583838D01*
X89987949Y-66583838D01*
X90050133Y-66521654D01*
X90228762Y-66343026D01*
X90325434Y-66109636D01*
X90325434Y-65857018D01*
X90228761Y-65623629D01*
X90104622Y-65499490D01*
X89880116Y-65499490D01*
X89279605Y-66100000D01*
X88920395Y-66100000D01*
X88436557Y-65616162D01*
X88212051Y-65616162D01*
X88149867Y-65678346D01*
X87971238Y-65856974D01*
X87874566Y-66090364D01*
X85683654Y-66090364D01*
X85781000Y-65855351D01*
X85781000Y-65544649D01*
X85662100Y-65257599D01*
X85616552Y-65212051D01*
X88616162Y-65212051D01*
X88616162Y-65436557D01*
X89100000Y-65920395D01*
X89700510Y-65319884D01*
X89700510Y-65095378D01*
X89576371Y-64971239D01*
X89342982Y-64874566D01*
X89090364Y-64874566D01*
X88856974Y-64971238D01*
X88678346Y-65149867D01*
X88616162Y-65212051D01*
X85616552Y-65212051D01*
X85442401Y-65037900D01*
X85155351Y-64919000D01*
X84844649Y-64919000D01*
X84620846Y-65011702D01*
X84598894Y-64901341D01*
X84514686Y-64775314D01*
X84388659Y-64691106D01*
X84240000Y-64661536D01*
X83270000Y-64661536D01*
X83121341Y-64691106D01*
X82995314Y-64775314D01*
X82938661Y-64860102D01*
X82868327Y-64690301D01*
X82689698Y-64511673D01*
X82456309Y-64415000D01*
X82130750Y-64415000D01*
X81972000Y-64573750D01*
X81972000Y-65673000D01*
X81992000Y-65673000D01*
X81992000Y-65927000D01*
X81972000Y-65927000D01*
X81972000Y-67026250D01*
X82130750Y-67185000D01*
X82456309Y-67185000D01*
X82689698Y-67088327D01*
X82868327Y-66909699D01*
X82938661Y-66739898D01*
X82995314Y-66824686D01*
X83121341Y-66908894D01*
X83162474Y-66917076D01*
X83075314Y-66975314D01*
X82991106Y-67101341D01*
X82961536Y-67250000D01*
X82961536Y-68050000D01*
X82991106Y-68198659D01*
X83075314Y-68324686D01*
X83201341Y-68408894D01*
X83350000Y-68438464D01*
X84250000Y-68438464D01*
X84398659Y-68408894D01*
X84485367Y-68350958D01*
X85356963Y-69222555D01*
X85385194Y-69264806D01*
X85552569Y-69376641D01*
X85700165Y-69406000D01*
X85700166Y-69406000D01*
X85750000Y-69415913D01*
X85799834Y-69406000D01*
X92087108Y-69406000D01*
X92579954Y-69898847D01*
X92601213Y-69930663D01*
X92811841Y-70141291D01*
X92811841Y-70148085D01*
X92801928Y-70197919D01*
X92811841Y-70247753D01*
X92811841Y-70247754D01*
X92841200Y-70395350D01*
X92953036Y-70562725D01*
X92995286Y-70590955D01*
X93326885Y-70922555D01*
X93355116Y-70964806D01*
X93522491Y-71076641D01*
X93670087Y-71106000D01*
X93719921Y-71115913D01*
X93769755Y-71106000D01*
X95176430Y-71106000D01*
X95139458Y-71195260D01*
X94955351Y-71119000D01*
X94644649Y-71119000D01*
X94357599Y-71237900D01*
X94201499Y-71394000D01*
X94146534Y-71394000D01*
X94096699Y-71384087D01*
X93899268Y-71423359D01*
X93825624Y-71472566D01*
X93731893Y-71535194D01*
X93703664Y-71577442D01*
X93340135Y-71940972D01*
X93308320Y-71962230D01*
X92601213Y-72669337D01*
X92517005Y-72795364D01*
X92487435Y-72944023D01*
X92517005Y-73092682D01*
X92601213Y-73218709D01*
X92777990Y-73395486D01*
X92883959Y-73466291D01*
X92954766Y-73572263D01*
X93038912Y-73656409D01*
X92176335Y-74518987D01*
X91524848Y-74518987D01*
X91475013Y-74509074D01*
X91277581Y-74548346D01*
X91235235Y-74576641D01*
X91110207Y-74660181D01*
X91108500Y-74662735D01*
X91106000Y-74650167D01*
X91106000Y-72249835D01*
X91115913Y-72200000D01*
X91076641Y-72002569D01*
X90993035Y-71877442D01*
X90964806Y-71835194D01*
X90922558Y-71806965D01*
X89993038Y-70877447D01*
X89964806Y-70835194D01*
X89797431Y-70723359D01*
X89649835Y-70694000D01*
X89649834Y-70694000D01*
X89600000Y-70684087D01*
X89550166Y-70694000D01*
X89097271Y-70694000D01*
X89068894Y-70551341D01*
X88984686Y-70425314D01*
X88858659Y-70341106D01*
X88710000Y-70311536D01*
X87890000Y-70311536D01*
X87741341Y-70341106D01*
X87668751Y-70389609D01*
X87648327Y-70340301D01*
X87469698Y-70161673D01*
X87236309Y-70065000D01*
X86985750Y-70065000D01*
X86827000Y-70223750D01*
X86827000Y-71073000D01*
X86847000Y-71073000D01*
X86847000Y-71327000D01*
X86827000Y-71327000D01*
X86827000Y-72176250D01*
X86985750Y-72335000D01*
X87236309Y-72335000D01*
X87469698Y-72238327D01*
X87648327Y-72059699D01*
X87668751Y-72010391D01*
X87741341Y-72058894D01*
X87890000Y-72088464D01*
X88710000Y-72088464D01*
X88858659Y-72058894D01*
X88984686Y-71974686D01*
X89068894Y-71848659D01*
X89097271Y-71706000D01*
X89390409Y-71706000D01*
X90094001Y-72409594D01*
X90094000Y-74490408D01*
X89676307Y-74908101D01*
X89781000Y-74655351D01*
X89781000Y-74344649D01*
X89662100Y-74057599D01*
X89554501Y-73950000D01*
X89662100Y-73842401D01*
X89781000Y-73555351D01*
X89781000Y-73244649D01*
X89662100Y-72957599D01*
X89442401Y-72737900D01*
X89155351Y-72619000D01*
X88844649Y-72619000D01*
X88557599Y-72737900D01*
X88337900Y-72957599D01*
X88219000Y-73244649D01*
X88219000Y-73465408D01*
X83977446Y-77706963D01*
X83935195Y-77735194D01*
X83841542Y-77875357D01*
X83823360Y-77902569D01*
X83784087Y-78100000D01*
X83794001Y-78149839D01*
X83794001Y-85117852D01*
X83555351Y-85019000D01*
X83381000Y-85019000D01*
X83381000Y-84744649D01*
X83262100Y-84457599D01*
X83042401Y-84237900D01*
X82755351Y-84119000D01*
X82444649Y-84119000D01*
X82335993Y-84164007D01*
X82381000Y-84055351D01*
X82381000Y-83744649D01*
X82262100Y-83457599D01*
X82154501Y-83350000D01*
X82362100Y-83142401D01*
X82481000Y-82855351D01*
X82481000Y-82544649D01*
X82362100Y-82257599D01*
X82142401Y-82037900D01*
X81855351Y-81919000D01*
X81544649Y-81919000D01*
X81257599Y-82037900D01*
X81037900Y-82257599D01*
X80919000Y-82544649D01*
X80919000Y-82565408D01*
X78677446Y-84806963D01*
X78635195Y-84835194D01*
X78527614Y-84996203D01*
X78523360Y-85002569D01*
X78484087Y-85200000D01*
X78494001Y-85249839D01*
X78494000Y-88889499D01*
X78442401Y-88837900D01*
X78155351Y-88719000D01*
X77984592Y-88719000D01*
X77588464Y-88322873D01*
X77588464Y-87600000D01*
X77558894Y-87451341D01*
X77474686Y-87325314D01*
X77348659Y-87241106D01*
X77200000Y-87211536D01*
X76000000Y-87211536D01*
X75851341Y-87241106D01*
X75725314Y-87325314D01*
X75641106Y-87451341D01*
X75611536Y-87600000D01*
X75611536Y-88500000D01*
X75641106Y-88648659D01*
X75725314Y-88774686D01*
X75851341Y-88858894D01*
X75969001Y-88882298D01*
X75969001Y-91873000D01*
X75856000Y-91873000D01*
X75856000Y-91444908D01*
X75864933Y-91400000D01*
X75829542Y-91222078D01*
X75728757Y-91071243D01*
X75577922Y-90970458D01*
X75444909Y-90944000D01*
X75400000Y-90935067D01*
X75355091Y-90944000D01*
X74756000Y-90944000D01*
X74756000Y-39456000D01*
X79457790Y-39456000D01*
X79426924Y-39476624D01*
X79426924Y-39476624D01*
G37*
X79426924Y-39476624D02*
X79342716Y-39602651D01*
X79313146Y-39751310D01*
X79313146Y-41648690D01*
X79342716Y-41797349D01*
X79426924Y-41923376D01*
X79552951Y-42007584D01*
X79701610Y-42037154D01*
X81598990Y-42037154D01*
X81747649Y-42007584D01*
X81873676Y-41923376D01*
X81957884Y-41797349D01*
X81987454Y-41648690D01*
X81987454Y-39751310D01*
X81957884Y-39602651D01*
X81873676Y-39476624D01*
X81842810Y-39456000D01*
X82208610Y-39456000D01*
X82177744Y-39476624D01*
X82093536Y-39602651D01*
X82063966Y-39751310D01*
X82063966Y-41648690D01*
X82093536Y-41797349D01*
X82177744Y-41923376D01*
X82303771Y-42007584D01*
X82452430Y-42037154D01*
X84349810Y-42037154D01*
X84498469Y-42007584D01*
X84600000Y-41939744D01*
X84701531Y-42007584D01*
X84850190Y-42037154D01*
X86747570Y-42037154D01*
X86896229Y-42007584D01*
X87022256Y-41923376D01*
X87106464Y-41797349D01*
X87136034Y-41648690D01*
X87136034Y-39751310D01*
X87106464Y-39602651D01*
X87022256Y-39476624D01*
X86991390Y-39456000D01*
X87357190Y-39456000D01*
X87326324Y-39476624D01*
X87242116Y-39602651D01*
X87212546Y-39751310D01*
X87212546Y-41648690D01*
X87242116Y-41797349D01*
X87326324Y-41923376D01*
X87452351Y-42007584D01*
X87601010Y-42037154D01*
X89498390Y-42037154D01*
X89647049Y-42007584D01*
X89773076Y-41923376D01*
X89857284Y-41797349D01*
X89886854Y-41648690D01*
X89886854Y-40685750D01*
X91865000Y-40685750D01*
X91865000Y-40936309D01*
X91961673Y-41169698D01*
X92140301Y-41348327D01*
X92189609Y-41368751D01*
X92141106Y-41441341D01*
X92111536Y-41590000D01*
X92111536Y-42410000D01*
X92141106Y-42558659D01*
X92225314Y-42684686D01*
X92351341Y-42768894D01*
X92494001Y-42797271D01*
X92494000Y-43224561D01*
X92351341Y-43252938D01*
X92225314Y-43337146D01*
X92141106Y-43463173D01*
X92111536Y-43611832D01*
X92111536Y-44431832D01*
X92141106Y-44580491D01*
X92225314Y-44706518D01*
X92351341Y-44790726D01*
X92500000Y-44820296D01*
X93500000Y-44820296D01*
X93648659Y-44790726D01*
X93774686Y-44706518D01*
X93858894Y-44580491D01*
X93888464Y-44431832D01*
X93888464Y-43611832D01*
X93858894Y-43463173D01*
X93774686Y-43337146D01*
X93648659Y-43252938D01*
X93506000Y-43224561D01*
X93506000Y-42797271D01*
X93648659Y-42768894D01*
X93774686Y-42684686D01*
X93858894Y-42558659D01*
X93888464Y-42410000D01*
X93888464Y-41590000D01*
X93858894Y-41441341D01*
X93810391Y-41368751D01*
X93859699Y-41348327D01*
X94016371Y-41191654D01*
X94146557Y-41321841D01*
X94195865Y-41342265D01*
X94147362Y-41414855D01*
X94117792Y-41563514D01*
X94117792Y-42383514D01*
X94147362Y-42532173D01*
X94231570Y-42658200D01*
X94357597Y-42742408D01*
X94494001Y-42769540D01*
X94494000Y-43202729D01*
X94351341Y-43231106D01*
X94225314Y-43315314D01*
X94141106Y-43441341D01*
X94111536Y-43590000D01*
X94111536Y-44410000D01*
X94141106Y-44558659D01*
X94225314Y-44684686D01*
X94351341Y-44768894D01*
X94500000Y-44798464D01*
X95500000Y-44798464D01*
X95648659Y-44768894D01*
X95774686Y-44684686D01*
X95858894Y-44558659D01*
X95888464Y-44410000D01*
X95888464Y-43590000D01*
X95858894Y-43441341D01*
X95774686Y-43315314D01*
X95648659Y-43231106D01*
X95506000Y-43202729D01*
X95506000Y-42771978D01*
X95506256Y-42771978D01*
X95654915Y-42742408D01*
X95780942Y-42658200D01*
X95865150Y-42532173D01*
X95894720Y-42383514D01*
X95894720Y-41563514D01*
X95865150Y-41414855D01*
X95816647Y-41342265D01*
X95865955Y-41321841D01*
X95989885Y-41197910D01*
X96140301Y-41348327D01*
X96189609Y-41368751D01*
X96141106Y-41441341D01*
X96111536Y-41590000D01*
X96111536Y-42410000D01*
X96141106Y-42558659D01*
X96225314Y-42684686D01*
X96351341Y-42768894D01*
X96494001Y-42797271D01*
X96494000Y-43224561D01*
X96351341Y-43252938D01*
X96225314Y-43337146D01*
X96141106Y-43463173D01*
X96111536Y-43611832D01*
X96111536Y-44431832D01*
X96141106Y-44580491D01*
X96225314Y-44706518D01*
X96351341Y-44790726D01*
X96500000Y-44820296D01*
X97500000Y-44820296D01*
X97648659Y-44790726D01*
X97774686Y-44706518D01*
X97858894Y-44580491D01*
X97888464Y-44431832D01*
X97888464Y-43611832D01*
X97858894Y-43463173D01*
X97774686Y-43337146D01*
X97648659Y-43252938D01*
X97506000Y-43224561D01*
X97506000Y-42797271D01*
X97648659Y-42768894D01*
X97774686Y-42684686D01*
X97858894Y-42558659D01*
X97888464Y-42410000D01*
X97888464Y-41590000D01*
X97858894Y-41441341D01*
X97810391Y-41368751D01*
X97859699Y-41348327D01*
X98000000Y-41208025D01*
X98140301Y-41348327D01*
X98189609Y-41368751D01*
X98141106Y-41441341D01*
X98111536Y-41590000D01*
X98111536Y-42410000D01*
X98141106Y-42558659D01*
X98225314Y-42684686D01*
X98351341Y-42768894D01*
X98494001Y-42797271D01*
X98494000Y-43202729D01*
X98351341Y-43231106D01*
X98225314Y-43315314D01*
X98141106Y-43441341D01*
X98111536Y-43590000D01*
X98111536Y-44410000D01*
X98141106Y-44558659D01*
X98225314Y-44684686D01*
X98351341Y-44768894D01*
X98500000Y-44798464D01*
X99500000Y-44798464D01*
X99648659Y-44768894D01*
X99774686Y-44684686D01*
X99858894Y-44558659D01*
X99888464Y-44410000D01*
X99888464Y-43590000D01*
X99858894Y-43441341D01*
X99774686Y-43315314D01*
X99648659Y-43231106D01*
X99506000Y-43202729D01*
X99506000Y-42797271D01*
X99648659Y-42768894D01*
X99774686Y-42684686D01*
X99858894Y-42558659D01*
X99888464Y-42410000D01*
X99888464Y-41590000D01*
X99858894Y-41441341D01*
X99810391Y-41368751D01*
X99859699Y-41348327D01*
X100038327Y-41169698D01*
X100135000Y-40936309D01*
X100135000Y-40685750D01*
X99976250Y-40527000D01*
X99127000Y-40527000D01*
X99127000Y-40547000D01*
X98873000Y-40547000D01*
X98873000Y-40527000D01*
X98023750Y-40527000D01*
X98000000Y-40550750D01*
X97976250Y-40527000D01*
X97127000Y-40527000D01*
X97127000Y-40547000D01*
X96873000Y-40547000D01*
X96873000Y-40527000D01*
X96023750Y-40527000D01*
X96016371Y-40534379D01*
X95982506Y-40500514D01*
X95133256Y-40500514D01*
X95133256Y-40520514D01*
X94879256Y-40520514D01*
X94879256Y-40500514D01*
X94030006Y-40500514D01*
X93989885Y-40540635D01*
X93976250Y-40527000D01*
X93127000Y-40527000D01*
X93127000Y-40547000D01*
X92873000Y-40547000D01*
X92873000Y-40527000D01*
X92023750Y-40527000D01*
X91865000Y-40685750D01*
X89886854Y-40685750D01*
X89886854Y-40400000D01*
X102061536Y-40400000D01*
X102061536Y-41400000D01*
X102091106Y-41548659D01*
X102175314Y-41674686D01*
X102301341Y-41758894D01*
X102450000Y-41788464D01*
X104150000Y-41788464D01*
X104298659Y-41758894D01*
X104424686Y-41674686D01*
X104508894Y-41548659D01*
X104538464Y-41400000D01*
X104538464Y-40400000D01*
X104508894Y-40251341D01*
X104424686Y-40125314D01*
X104298659Y-40041106D01*
X104150000Y-40011536D01*
X102450000Y-40011536D01*
X102301341Y-40041106D01*
X102175314Y-40125314D01*
X102091106Y-40251341D01*
X102061536Y-40400000D01*
X89886854Y-40400000D01*
X89886854Y-39751310D01*
X89857284Y-39602651D01*
X89773076Y-39476624D01*
X89742210Y-39456000D01*
X92135974Y-39456000D01*
X91961673Y-39630302D01*
X91865000Y-39863691D01*
X91865000Y-40114250D01*
X92023750Y-40273000D01*
X92873000Y-40273000D01*
X92873000Y-40253000D01*
X93127000Y-40253000D01*
X93127000Y-40273000D01*
X93976250Y-40273000D01*
X94016371Y-40232879D01*
X94030006Y-40246514D01*
X94879256Y-40246514D01*
X94879256Y-40226514D01*
X95133256Y-40226514D01*
X95133256Y-40246514D01*
X95982506Y-40246514D01*
X95989885Y-40239135D01*
X96023750Y-40273000D01*
X96873000Y-40273000D01*
X96873000Y-40253000D01*
X97127000Y-40253000D01*
X97127000Y-40273000D01*
X97976250Y-40273000D01*
X98000000Y-40249250D01*
X98023750Y-40273000D01*
X98873000Y-40273000D01*
X98873000Y-40253000D01*
X99127000Y-40253000D01*
X99127000Y-40273000D01*
X99976250Y-40273000D01*
X100135000Y-40114250D01*
X100135000Y-39863691D01*
X100038327Y-39630302D01*
X99864026Y-39456000D01*
X121244000Y-39456000D01*
X121244001Y-41555086D01*
X121235067Y-41600000D01*
X121270458Y-41777922D01*
X121371243Y-41928757D01*
X121522078Y-42029542D01*
X121655091Y-42056000D01*
X121700000Y-42064933D01*
X121744909Y-42056000D01*
X125244001Y-42056000D01*
X125244000Y-90944000D01*
X124644909Y-90944000D01*
X124600000Y-90935067D01*
X124555091Y-90944000D01*
X124422078Y-90970458D01*
X124271243Y-91071243D01*
X124170458Y-91222078D01*
X124135067Y-91400000D01*
X124144001Y-91444914D01*
X124144001Y-91873000D01*
X120756000Y-91873000D01*
X120756000Y-90048501D01*
X120762100Y-90042401D01*
X120881000Y-89755351D01*
X120881000Y-89444649D01*
X120762100Y-89157599D01*
X120542401Y-88937900D01*
X120255351Y-88819000D01*
X119944649Y-88819000D01*
X119657599Y-88937900D01*
X119437900Y-89157599D01*
X119319000Y-89444649D01*
X119319000Y-89755351D01*
X119437900Y-90042401D01*
X119657599Y-90262100D01*
X119744001Y-90297889D01*
X119744001Y-91873000D01*
X119256000Y-91873000D01*
X119256000Y-87399833D01*
X119265913Y-87349999D01*
X119238370Y-87211536D01*
X119226641Y-87152569D01*
X119114806Y-86985194D01*
X119072556Y-86956964D01*
X115993038Y-83877447D01*
X115964805Y-83835193D01*
X115797430Y-83723358D01*
X115649834Y-83693999D01*
X115649833Y-83693999D01*
X115599999Y-83684086D01*
X115550165Y-83693999D01*
X108581000Y-83693999D01*
X108581000Y-83644649D01*
X108462100Y-83357599D01*
X108242401Y-83137900D01*
X107955351Y-83019000D01*
X107670376Y-83019000D01*
X107562100Y-82757599D01*
X107342401Y-82537900D01*
X107055351Y-82419000D01*
X107023995Y-82419000D01*
X107023995Y-82113269D01*
X106905095Y-81826219D01*
X106685396Y-81606520D01*
X106398346Y-81487620D01*
X106126212Y-81487620D01*
X106181000Y-81355351D01*
X106181000Y-81044649D01*
X106062100Y-80757599D01*
X105842401Y-80537900D01*
X105555351Y-80419000D01*
X105244649Y-80419000D01*
X105201775Y-80436759D01*
X105206000Y-80415520D01*
X105206000Y-80415519D01*
X105210226Y-80394275D01*
X105362100Y-80242401D01*
X105481000Y-79955351D01*
X105481000Y-79644649D01*
X105423570Y-79506000D01*
X109611536Y-79506000D01*
X109611536Y-81200000D01*
X109641106Y-81348659D01*
X109725314Y-81474686D01*
X109851341Y-81558894D01*
X110000000Y-81588464D01*
X112400000Y-81588464D01*
X112548659Y-81558894D01*
X112674686Y-81474686D01*
X112758894Y-81348659D01*
X112788464Y-81200000D01*
X112788464Y-79506000D01*
X112977729Y-79506000D01*
X113006106Y-79648659D01*
X113090314Y-79774686D01*
X113216341Y-79858894D01*
X113365000Y-79888464D01*
X114035000Y-79888464D01*
X114183659Y-79858894D01*
X114309686Y-79774686D01*
X114393894Y-79648659D01*
X114423464Y-79500000D01*
X114423464Y-79285750D01*
X114480000Y-79285750D01*
X114480000Y-79626310D01*
X114576673Y-79859699D01*
X114755302Y-80038327D01*
X114988691Y-80135000D01*
X115164250Y-80135000D01*
X115323000Y-79976250D01*
X115323000Y-79127000D01*
X115577000Y-79127000D01*
X115577000Y-79976250D01*
X115735750Y-80135000D01*
X115911309Y-80135000D01*
X116144698Y-80038327D01*
X116323327Y-79859699D01*
X116420000Y-79626310D01*
X116420000Y-79285750D01*
X116261250Y-79127000D01*
X115577000Y-79127000D01*
X115323000Y-79127000D01*
X114638750Y-79127000D01*
X114480000Y-79285750D01*
X114423464Y-79285750D01*
X114423464Y-78500000D01*
X114393894Y-78351341D01*
X114326180Y-78249999D01*
X114393893Y-78148659D01*
X114423463Y-78000000D01*
X114423463Y-77785750D01*
X114479999Y-77785750D01*
X114479999Y-78126310D01*
X114531234Y-78250001D01*
X114480000Y-78373690D01*
X114480000Y-78714250D01*
X114638750Y-78873000D01*
X115323000Y-78873000D01*
X115323000Y-78023750D01*
X115322999Y-78023749D01*
X115322999Y-77627000D01*
X115576999Y-77627000D01*
X115576999Y-78476250D01*
X115577000Y-78476251D01*
X115577000Y-78873000D01*
X116261250Y-78873000D01*
X116420000Y-78714250D01*
X116420000Y-78373690D01*
X116368765Y-78249999D01*
X116419999Y-78126310D01*
X116419999Y-77785750D01*
X116261249Y-77627000D01*
X115576999Y-77627000D01*
X115322999Y-77627000D01*
X114638749Y-77627000D01*
X114479999Y-77785750D01*
X114423463Y-77785750D01*
X114423463Y-77000000D01*
X114398339Y-76873690D01*
X114479999Y-76873690D01*
X114479999Y-77214250D01*
X114638749Y-77373000D01*
X115322999Y-77373000D01*
X115322999Y-76523750D01*
X115576999Y-76523750D01*
X115576999Y-77373000D01*
X116261249Y-77373000D01*
X116419999Y-77214250D01*
X116419999Y-76873690D01*
X116323326Y-76640301D01*
X116144697Y-76461673D01*
X115911308Y-76365000D01*
X115735749Y-76365000D01*
X115576999Y-76523750D01*
X115322999Y-76523750D01*
X115164249Y-76365000D01*
X114988690Y-76365000D01*
X114755301Y-76461673D01*
X114576672Y-76640301D01*
X114479999Y-76873690D01*
X114398339Y-76873690D01*
X114393893Y-76851341D01*
X114309685Y-76725314D01*
X114183658Y-76641106D01*
X114034999Y-76611536D01*
X113364999Y-76611536D01*
X113216340Y-76641106D01*
X113090313Y-76725314D01*
X113006105Y-76851341D01*
X112977728Y-76994000D01*
X112788464Y-76994000D01*
X112788464Y-75500000D01*
X112769767Y-75406001D01*
X118450164Y-75406001D01*
X118499998Y-75415914D01*
X118549832Y-75406001D01*
X118549833Y-75406001D01*
X118697429Y-75376642D01*
X118864804Y-75264807D01*
X118893036Y-75222554D01*
X119434591Y-74681000D01*
X119655350Y-74681000D01*
X119942400Y-74562100D01*
X120162099Y-74342401D01*
X120280999Y-74055351D01*
X120280999Y-73744649D01*
X120162099Y-73457599D01*
X119942400Y-73237900D01*
X119655350Y-73119000D01*
X119344648Y-73119000D01*
X119057598Y-73237900D01*
X118837899Y-73457599D01*
X118718999Y-73744649D01*
X118718999Y-73965408D01*
X118290407Y-74394001D01*
X112710500Y-74394001D01*
X112862100Y-74242401D01*
X112981000Y-73955351D01*
X112981000Y-73781000D01*
X113055351Y-73781000D01*
X113342401Y-73662100D01*
X113450000Y-73554501D01*
X113557599Y-73662100D01*
X113844649Y-73781000D01*
X114155351Y-73781000D01*
X114442401Y-73662100D01*
X114662100Y-73442401D01*
X114725187Y-73290096D01*
X114944649Y-73381000D01*
X115255351Y-73381000D01*
X115542401Y-73262100D01*
X115762100Y-73042401D01*
X115881000Y-72755351D01*
X115881000Y-72444649D01*
X115762100Y-72157599D01*
X115542401Y-71937900D01*
X115255351Y-71819000D01*
X115034592Y-71819000D01*
X114393038Y-71177447D01*
X114364806Y-71135194D01*
X114197431Y-71023359D01*
X114049835Y-70994000D01*
X114049834Y-70994000D01*
X114000000Y-70984087D01*
X113950166Y-70994000D01*
X111849835Y-70994000D01*
X111800000Y-70984087D01*
X111750165Y-70994000D01*
X111602569Y-71023359D01*
X111435194Y-71135194D01*
X111406965Y-71177442D01*
X110490409Y-72094000D01*
X109822837Y-72094000D01*
X109773003Y-72084087D01*
X109723169Y-72094000D01*
X109575573Y-72123359D01*
X109408198Y-72235194D01*
X109379967Y-72277445D01*
X106938411Y-74719002D01*
X106247148Y-74719002D01*
X106248215Y-74717935D01*
X106344888Y-74484546D01*
X106344887Y-74315314D01*
X106349480Y-74316228D01*
X106399314Y-74326141D01*
X106449148Y-74316228D01*
X106839938Y-74316228D01*
X106889772Y-74326141D01*
X106939606Y-74316228D01*
X106939607Y-74316228D01*
X107087203Y-74286869D01*
X107254578Y-74175034D01*
X107282811Y-74132781D01*
X109222556Y-72193036D01*
X109264806Y-72164806D01*
X109359317Y-72023359D01*
X109376641Y-71997432D01*
X109415913Y-71800000D01*
X109406000Y-71750165D01*
X109406000Y-71409591D01*
X110209592Y-70606000D01*
X110450166Y-70606000D01*
X110500000Y-70615913D01*
X110549834Y-70606000D01*
X110549835Y-70606000D01*
X110697431Y-70576641D01*
X110864806Y-70464806D01*
X110893039Y-70422553D01*
X112322556Y-68993036D01*
X112364806Y-68964806D01*
X112476641Y-68797431D01*
X112506000Y-68649835D01*
X112506000Y-68649834D01*
X112515913Y-68600001D01*
X112506000Y-68550167D01*
X112506000Y-65049834D01*
X112515913Y-65000000D01*
X112502553Y-64932836D01*
X112476641Y-64802569D01*
X112364806Y-64635194D01*
X112322555Y-64606963D01*
X110401342Y-62685750D01*
X115365000Y-62685750D01*
X115365000Y-64526309D01*
X115461673Y-64759698D01*
X115640301Y-64938327D01*
X115873690Y-65035000D01*
X117714250Y-65035000D01*
X117873000Y-64876250D01*
X117873000Y-62527000D01*
X118127000Y-62527000D01*
X118127000Y-64876250D01*
X118285750Y-65035000D01*
X120126310Y-65035000D01*
X120359699Y-64938327D01*
X120538327Y-64759698D01*
X120635000Y-64526309D01*
X120635000Y-62685750D01*
X120476250Y-62527000D01*
X118127000Y-62527000D01*
X117873000Y-62527000D01*
X115523750Y-62527000D01*
X115365000Y-62685750D01*
X110401342Y-62685750D01*
X108371802Y-60656211D01*
X108371802Y-60273691D01*
X115365000Y-60273691D01*
X115365000Y-62114250D01*
X115523750Y-62273000D01*
X117873000Y-62273000D01*
X117873000Y-59923750D01*
X118127000Y-59923750D01*
X118127000Y-62273000D01*
X120476250Y-62273000D01*
X120635000Y-62114250D01*
X120635000Y-60273691D01*
X120538327Y-60040302D01*
X120359699Y-59861673D01*
X120126310Y-59765000D01*
X118285750Y-59765000D01*
X118127000Y-59923750D01*
X117873000Y-59923750D01*
X117714250Y-59765000D01*
X115873690Y-59765000D01*
X115640301Y-59861673D01*
X115461673Y-60040302D01*
X115365000Y-60273691D01*
X108371802Y-60273691D01*
X108371802Y-59215635D01*
X108381715Y-59165801D01*
X108350736Y-59010063D01*
X108342443Y-58968371D01*
X108230608Y-58800996D01*
X108188357Y-58772765D01*
X107324969Y-57909378D01*
X107305193Y-57861634D01*
X108494532Y-57861634D01*
X108544366Y-57871547D01*
X108594200Y-57861634D01*
X108594201Y-57861634D01*
X108634415Y-57853635D01*
X108764654Y-57983874D01*
X108890681Y-58068082D01*
X109039340Y-58097652D01*
X109187999Y-58068082D01*
X109314026Y-57983874D01*
X109950422Y-57347478D01*
X110034630Y-57221451D01*
X110064200Y-57072792D01*
X110034630Y-56924133D01*
X109950422Y-56798106D01*
X109439274Y-56286958D01*
X109439274Y-55211536D01*
X109449187Y-55161701D01*
X109409915Y-54964269D01*
X109368688Y-54902569D01*
X109298080Y-54796895D01*
X109266390Y-54775721D01*
X109317473Y-54699269D01*
X109347043Y-54550610D01*
X109317473Y-54401951D01*
X109233265Y-54275924D01*
X108667579Y-53710238D01*
X108541552Y-53626030D01*
X108392893Y-53596460D01*
X108244234Y-53626030D01*
X108118207Y-53710238D01*
X107481811Y-54346634D01*
X107433220Y-54419355D01*
X107355634Y-54387218D01*
X107103016Y-54387218D01*
X107053708Y-54407642D01*
X107036676Y-54322016D01*
X106976175Y-54231469D01*
X106978680Y-54231967D01*
X107127339Y-54202397D01*
X107253366Y-54118189D01*
X107889762Y-53481793D01*
X107973970Y-53355766D01*
X108003540Y-53207107D01*
X107973970Y-53058448D01*
X107889762Y-52932421D01*
X107324076Y-52366735D01*
X107198049Y-52282527D01*
X107049390Y-52252957D01*
X106900731Y-52282527D01*
X106774704Y-52366735D01*
X106540315Y-52601124D01*
X106540315Y-52075276D01*
X108834592Y-49781000D01*
X109055351Y-49781000D01*
X109342401Y-49662100D01*
X109562100Y-49442401D01*
X109681000Y-49155351D01*
X109681000Y-48844649D01*
X109562100Y-48557599D01*
X109342401Y-48337900D01*
X109055351Y-48219000D01*
X108744649Y-48219000D01*
X108662610Y-48252982D01*
X110609592Y-46306000D01*
X111350166Y-46306000D01*
X111400000Y-46315913D01*
X111449834Y-46306000D01*
X111449835Y-46306000D01*
X111597431Y-46276641D01*
X111764806Y-46164806D01*
X111793039Y-46122552D01*
X113460325Y-44455267D01*
X113431536Y-44600000D01*
X113431536Y-47000000D01*
X113461106Y-47148659D01*
X113507015Y-47217367D01*
X113423359Y-47342570D01*
X113400925Y-47455351D01*
X113384087Y-47540000D01*
X113394000Y-47589834D01*
X113394001Y-53250161D01*
X113384087Y-53300000D01*
X113409246Y-53426476D01*
X113423360Y-53497431D01*
X113535195Y-53664806D01*
X113577445Y-53693036D01*
X113851235Y-53966827D01*
X113819000Y-54044649D01*
X113819000Y-54355351D01*
X113917852Y-54594000D01*
X113649834Y-54594000D01*
X113600000Y-54584087D01*
X113550166Y-54594000D01*
X113509592Y-54594000D01*
X113226312Y-54310721D01*
X113198080Y-54268468D01*
X113030705Y-54156633D01*
X112883109Y-54127274D01*
X112883108Y-54127274D01*
X112833274Y-54117361D01*
X112783440Y-54127274D01*
X111946494Y-54127274D01*
X111435346Y-53616126D01*
X111309319Y-53531918D01*
X111160660Y-53502348D01*
X111012001Y-53531918D01*
X110913395Y-53597804D01*
X110007448Y-52691857D01*
X110059935Y-52613304D01*
X110089505Y-52464645D01*
X110059935Y-52315986D01*
X109975727Y-52189959D01*
X109410041Y-51624273D01*
X109284014Y-51540065D01*
X109135355Y-51510495D01*
X108986696Y-51540065D01*
X108860669Y-51624273D01*
X108224273Y-52260669D01*
X108140065Y-52386696D01*
X108110495Y-52535355D01*
X108140065Y-52684014D01*
X108224273Y-52810041D01*
X108789959Y-53375727D01*
X108915986Y-53459935D01*
X109064645Y-53489505D01*
X109213304Y-53459935D01*
X109291857Y-53407448D01*
X110204458Y-54320050D01*
X110165370Y-54378549D01*
X110135800Y-54527208D01*
X110165370Y-54675867D01*
X110249578Y-54801894D01*
X111098106Y-55650422D01*
X111224133Y-55734630D01*
X111372792Y-55764200D01*
X111521451Y-55734630D01*
X111647478Y-55650422D01*
X112158626Y-55139274D01*
X112623683Y-55139274D01*
X112906963Y-55422555D01*
X112935194Y-55464806D01*
X113102569Y-55576641D01*
X113250165Y-55606000D01*
X113299999Y-55615913D01*
X113349833Y-55606000D01*
X113390409Y-55606000D01*
X115406963Y-57622555D01*
X115435194Y-57664806D01*
X115602569Y-57776641D01*
X115750165Y-57806000D01*
X115750166Y-57806000D01*
X115800000Y-57815913D01*
X115849834Y-57806000D01*
X118690409Y-57806000D01*
X122694000Y-61809592D01*
X122694001Y-66790407D01*
X120038464Y-69445945D01*
X120038464Y-68550000D01*
X120008894Y-68401341D01*
X119924686Y-68275314D01*
X119798659Y-68191106D01*
X119650000Y-68161536D01*
X116350000Y-68161536D01*
X116201341Y-68191106D01*
X116075314Y-68275314D01*
X115991106Y-68401341D01*
X115961536Y-68550000D01*
X115961536Y-72050000D01*
X115991106Y-72198659D01*
X116075314Y-72324686D01*
X116201341Y-72408894D01*
X116350000Y-72438464D01*
X119650000Y-72438464D01*
X119798659Y-72408894D01*
X119924686Y-72324686D01*
X120008894Y-72198659D01*
X120038464Y-72050000D01*
X120038464Y-70788370D01*
X120097431Y-70776641D01*
X120264806Y-70664806D01*
X120293039Y-70622552D01*
X123522555Y-67393037D01*
X123564806Y-67364806D01*
X123655707Y-67228762D01*
X123676641Y-67197432D01*
X123715913Y-67000000D01*
X123706000Y-66950165D01*
X123706000Y-61649833D01*
X123715913Y-61599999D01*
X123696021Y-61500000D01*
X123676641Y-61402569D01*
X123564806Y-61235194D01*
X123522556Y-61206964D01*
X119293039Y-56977448D01*
X119264806Y-56935194D01*
X119097431Y-56823359D01*
X118949835Y-56794000D01*
X118949834Y-56794000D01*
X118900000Y-56784087D01*
X118850166Y-56794000D01*
X116009592Y-56794000D01*
X114821591Y-55606000D01*
X115450166Y-55606000D01*
X115500000Y-55615913D01*
X115549834Y-55606000D01*
X115549835Y-55606000D01*
X115697431Y-55576641D01*
X115864806Y-55464806D01*
X115893038Y-55422553D01*
X115961536Y-55354055D01*
X115961536Y-56250000D01*
X115991106Y-56398659D01*
X116075314Y-56524686D01*
X116201341Y-56608894D01*
X116350000Y-56638464D01*
X119650000Y-56638464D01*
X119798659Y-56608894D01*
X119924686Y-56524686D01*
X120008894Y-56398659D01*
X120038464Y-56250000D01*
X120038464Y-52750000D01*
X120008894Y-52601341D01*
X119924686Y-52475314D01*
X119798659Y-52391106D01*
X119650000Y-52361536D01*
X116350000Y-52361536D01*
X116201341Y-52391106D01*
X116075314Y-52475314D01*
X115991106Y-52601341D01*
X115961536Y-52750000D01*
X115961536Y-54011630D01*
X115902569Y-54023359D01*
X115735194Y-54135194D01*
X115706963Y-54177445D01*
X115290409Y-54594000D01*
X115282148Y-54594000D01*
X115381000Y-54355351D01*
X115381000Y-54044649D01*
X115262100Y-53757599D01*
X115042401Y-53537900D01*
X114755351Y-53419000D01*
X114734592Y-53419000D01*
X114406000Y-53090409D01*
X114406000Y-52723570D01*
X114544649Y-52781000D01*
X114855351Y-52781000D01*
X115142401Y-52662100D01*
X115362100Y-52442401D01*
X115481000Y-52155351D01*
X115481000Y-51934591D01*
X117219000Y-50196592D01*
X117219000Y-50455355D01*
X117337900Y-50742405D01*
X117557599Y-50962104D01*
X117844649Y-51081004D01*
X118155351Y-51081004D01*
X118442401Y-50962104D01*
X118662100Y-50742405D01*
X118781000Y-50455355D01*
X118781000Y-50234596D01*
X118793033Y-50222563D01*
X118793035Y-50222560D01*
X119592555Y-49423041D01*
X119634806Y-49394810D01*
X119746641Y-49227435D01*
X119776000Y-49079839D01*
X119785913Y-49030005D01*
X119776000Y-48980171D01*
X119776000Y-47361412D01*
X119788659Y-47358894D01*
X119914686Y-47274686D01*
X119998894Y-47148659D01*
X120028464Y-47000000D01*
X120028464Y-44600000D01*
X119998894Y-44451341D01*
X119914686Y-44325314D01*
X119788659Y-44241106D01*
X119640000Y-44211536D01*
X119122004Y-44211536D01*
X119149834Y-44206000D01*
X119149835Y-44206000D01*
X119297431Y-44176641D01*
X119464806Y-44064806D01*
X119493039Y-44022552D01*
X119592553Y-43923038D01*
X119634806Y-43894806D01*
X119746641Y-43727431D01*
X119776000Y-43579835D01*
X119776000Y-43579834D01*
X119785913Y-43530001D01*
X119776000Y-43480167D01*
X119776000Y-43461412D01*
X119788659Y-43458894D01*
X119914686Y-43374686D01*
X119998894Y-43248659D01*
X120028464Y-43100000D01*
X120028464Y-40700000D01*
X119998894Y-40551341D01*
X119914686Y-40425314D01*
X119788659Y-40341106D01*
X119640000Y-40311536D01*
X118900000Y-40311536D01*
X118882952Y-40314927D01*
X118729699Y-40161673D01*
X118496310Y-40065000D01*
X118285750Y-40065000D01*
X118127000Y-40223750D01*
X118127000Y-41773000D01*
X118147000Y-41773000D01*
X118147000Y-42027000D01*
X118127000Y-42027000D01*
X118127000Y-42047000D01*
X117873000Y-42047000D01*
X117873000Y-42027000D01*
X116857000Y-42027000D01*
X116857000Y-42047000D01*
X116603000Y-42047000D01*
X116603000Y-42027000D01*
X116583000Y-42027000D01*
X116583000Y-41773000D01*
X116603000Y-41773000D01*
X116603000Y-40223750D01*
X116857000Y-40223750D01*
X116857000Y-41773000D01*
X117873000Y-41773000D01*
X117873000Y-40223750D01*
X117714250Y-40065000D01*
X117503690Y-40065000D01*
X117365000Y-40122447D01*
X117226310Y-40065000D01*
X117015750Y-40065000D01*
X116857000Y-40223750D01*
X116603000Y-40223750D01*
X116444250Y-40065000D01*
X116233690Y-40065000D01*
X116000301Y-40161673D01*
X115847048Y-40314927D01*
X115830000Y-40311536D01*
X115090000Y-40311536D01*
X115072952Y-40314927D01*
X114919699Y-40161673D01*
X114686310Y-40065000D01*
X114475750Y-40065000D01*
X114317000Y-40223750D01*
X114317000Y-41773000D01*
X114337000Y-41773000D01*
X114337000Y-42027000D01*
X114317000Y-42027000D01*
X114317000Y-42047000D01*
X114063000Y-42047000D01*
X114063000Y-42027000D01*
X113343750Y-42027000D01*
X113185000Y-42185750D01*
X113185000Y-42669408D01*
X111093039Y-40577448D01*
X111090529Y-40573691D01*
X113185000Y-40573691D01*
X113185000Y-41614250D01*
X113343750Y-41773000D01*
X114063000Y-41773000D01*
X114063000Y-40223750D01*
X113904250Y-40065000D01*
X113693690Y-40065000D01*
X113460301Y-40161673D01*
X113281673Y-40340302D01*
X113185000Y-40573691D01*
X111090529Y-40573691D01*
X111064806Y-40535194D01*
X110897431Y-40423359D01*
X110838464Y-40411630D01*
X110838464Y-40400000D01*
X110808894Y-40251341D01*
X110724686Y-40125314D01*
X110598659Y-40041106D01*
X110450000Y-40011536D01*
X108750000Y-40011536D01*
X108601341Y-40041106D01*
X108475314Y-40125314D01*
X108391106Y-40251341D01*
X108361536Y-40400000D01*
X108361536Y-41400000D01*
X108391106Y-41548659D01*
X108475314Y-41674686D01*
X108601341Y-41758894D01*
X108750000Y-41788464D01*
X110450000Y-41788464D01*
X110598659Y-41758894D01*
X110724686Y-41674686D01*
X110738468Y-41654059D01*
X112784408Y-43700000D01*
X111190409Y-45294000D01*
X110819766Y-45294000D01*
X110838464Y-45200000D01*
X110838464Y-44200000D01*
X110808894Y-44051341D01*
X110724686Y-43925314D01*
X110598659Y-43841106D01*
X110450000Y-43811536D01*
X108750000Y-43811536D01*
X108601341Y-43841106D01*
X108475314Y-43925314D01*
X108391106Y-44051341D01*
X108361536Y-44200000D01*
X108361536Y-45200000D01*
X108391106Y-45348659D01*
X108475314Y-45474686D01*
X108601341Y-45558894D01*
X108750000Y-45588464D01*
X109895944Y-45588464D01*
X105077446Y-50406963D01*
X105035195Y-50435194D01*
X104923360Y-50602569D01*
X104884087Y-50800000D01*
X104894001Y-50849839D01*
X104894000Y-51990408D01*
X103277445Y-53606963D01*
X103235195Y-53635194D01*
X103185053Y-53710238D01*
X103123360Y-53802569D01*
X103084087Y-54000000D01*
X103094001Y-54049839D01*
X103094000Y-55550166D01*
X103084087Y-55600000D01*
X103094000Y-55649834D01*
X103123359Y-55797430D01*
X103235194Y-55964806D01*
X103277447Y-55993039D01*
X104634408Y-57350000D01*
X103177447Y-58806961D01*
X103135194Y-58835194D01*
X103023359Y-59002570D01*
X103000803Y-59115967D01*
X102984087Y-59200000D01*
X102994000Y-59249834D01*
X102994001Y-60749520D01*
X102581847Y-61161674D01*
X102497639Y-61287701D01*
X102468069Y-61436360D01*
X102497639Y-61585019D01*
X102578448Y-61705960D01*
X101056303Y-63228105D01*
X101014053Y-63256336D01*
X100913407Y-63406966D01*
X100902218Y-63423711D01*
X100862945Y-63621142D01*
X100872859Y-63670981D01*
X100872858Y-64397692D01*
X100662230Y-64608320D01*
X100640970Y-64640137D01*
X100632040Y-64649068D01*
X100632037Y-64649070D01*
X100109375Y-65171732D01*
X100062100Y-65057599D01*
X99842401Y-64837900D01*
X99555351Y-64719000D01*
X99437893Y-64719000D01*
X99359028Y-64640135D01*
X99337770Y-64608320D01*
X99310450Y-64581000D01*
X99555351Y-64581000D01*
X99842401Y-64462100D01*
X100062100Y-64242401D01*
X100181000Y-63955351D01*
X100181000Y-63644649D01*
X100062100Y-63357599D01*
X99842401Y-63137900D01*
X99555351Y-63019000D01*
X99244649Y-63019000D01*
X98957599Y-63137900D01*
X98801499Y-63294000D01*
X97935041Y-63294000D01*
X97956021Y-63243350D01*
X97956021Y-62932648D01*
X97893729Y-62782261D01*
X97942401Y-62762100D01*
X98162100Y-62542401D01*
X98281000Y-62255351D01*
X98281000Y-61944649D01*
X98162100Y-61657599D01*
X97942401Y-61437900D01*
X97655351Y-61319000D01*
X97344649Y-61319000D01*
X97057599Y-61437900D01*
X96905725Y-61589774D01*
X96884480Y-61594000D01*
X96736884Y-61623359D01*
X96569509Y-61735194D01*
X96541278Y-61777445D01*
X96127456Y-62191268D01*
X96085206Y-62219498D01*
X96007901Y-62335195D01*
X95973371Y-62386873D01*
X95934098Y-62584304D01*
X95944012Y-62634143D01*
X95944011Y-64518196D01*
X95934098Y-64568030D01*
X95944011Y-64617864D01*
X95973370Y-64765460D01*
X96085205Y-64932836D01*
X96127458Y-64961068D01*
X96574446Y-65408057D01*
X96490300Y-65492203D01*
X96419493Y-65598175D01*
X96313524Y-65668980D01*
X96229378Y-65753126D01*
X94806000Y-64329749D01*
X94806000Y-63898501D01*
X94962100Y-63742401D01*
X95081000Y-63455351D01*
X95081000Y-63144649D01*
X94962100Y-62857599D01*
X94742401Y-62637900D01*
X94455351Y-62519000D01*
X94144649Y-62519000D01*
X93857599Y-62637900D01*
X93637900Y-62857599D01*
X93519000Y-63144649D01*
X93519000Y-63319000D01*
X93344649Y-63319000D01*
X93057599Y-63437900D01*
X92906000Y-63589499D01*
X92906000Y-59350438D01*
X98494000Y-59350438D01*
X98494000Y-59949562D01*
X98723275Y-60503080D01*
X99146920Y-60926725D01*
X99700438Y-61156000D01*
X100299562Y-61156000D01*
X100853080Y-60926725D01*
X101276725Y-60503080D01*
X101506000Y-59949562D01*
X101506000Y-59350438D01*
X101276725Y-58796920D01*
X100853080Y-58373275D01*
X100299562Y-58144000D01*
X99700438Y-58144000D01*
X99146920Y-58373275D01*
X98723275Y-58796920D01*
X98494000Y-59350438D01*
X92906000Y-59350438D01*
X92906000Y-54409591D01*
X94750393Y-52565198D01*
X95145885Y-52565198D01*
X95155798Y-52615032D01*
X95155799Y-56611959D01*
X95145885Y-56661798D01*
X95182821Y-56847479D01*
X95185158Y-56859229D01*
X95296993Y-57026604D01*
X95339243Y-57054834D01*
X96019000Y-57734592D01*
X96019000Y-57955351D01*
X96137900Y-58242401D01*
X96357599Y-58462100D01*
X96644649Y-58581000D01*
X96955351Y-58581000D01*
X97242401Y-58462100D01*
X97462100Y-58242401D01*
X97581000Y-57955351D01*
X97581000Y-57644649D01*
X97462100Y-57357599D01*
X97242401Y-57137900D01*
X96955351Y-57019000D01*
X96734592Y-57019000D01*
X96167798Y-56452207D01*
X96167798Y-54842516D01*
X96231448Y-54868881D01*
X96452207Y-54868881D01*
X96464240Y-54880914D01*
X96464243Y-54880916D01*
X98205881Y-56622555D01*
X98234112Y-56664806D01*
X98346699Y-56740033D01*
X98401486Y-56776641D01*
X98598918Y-56815913D01*
X98648753Y-56806000D01*
X98701499Y-56806000D01*
X98857599Y-56962100D01*
X99144649Y-57081000D01*
X99455351Y-57081000D01*
X99742401Y-56962100D01*
X99962100Y-56742401D01*
X100081000Y-56455351D01*
X100081000Y-56270376D01*
X100342401Y-56162100D01*
X100562100Y-55942401D01*
X100681000Y-55655351D01*
X100681000Y-55370376D01*
X100942401Y-55262100D01*
X101162100Y-55042401D01*
X101281000Y-54755351D01*
X101281000Y-54444649D01*
X101162100Y-54157599D01*
X101118092Y-54113591D01*
X101242401Y-54062100D01*
X101462100Y-53842401D01*
X101581000Y-53555351D01*
X101581000Y-53244649D01*
X101535993Y-53135993D01*
X101644649Y-53181000D01*
X101955351Y-53181000D01*
X102242401Y-53062100D01*
X102462100Y-52842401D01*
X102581000Y-52555351D01*
X102581000Y-52244649D01*
X102462100Y-51957599D01*
X102242401Y-51737900D01*
X101955351Y-51619000D01*
X101644649Y-51619000D01*
X101357599Y-51737900D01*
X101322703Y-51772796D01*
X100527353Y-50977447D01*
X100499121Y-50935194D01*
X100331746Y-50823359D01*
X100184150Y-50794000D01*
X100184149Y-50794000D01*
X100134315Y-50784087D01*
X100096175Y-50791674D01*
X100042401Y-50737900D01*
X99755351Y-50619000D01*
X99444649Y-50619000D01*
X99157599Y-50737900D01*
X98937900Y-50957599D01*
X98819000Y-51244649D01*
X98819000Y-51555351D01*
X98923693Y-51808101D01*
X98681000Y-51565409D01*
X98681000Y-51344649D01*
X98562100Y-51057599D01*
X98342401Y-50837900D01*
X98174312Y-50768275D01*
X101136588Y-47806000D01*
X102602729Y-47806000D01*
X102631106Y-47948659D01*
X102715314Y-48074686D01*
X102841341Y-48158894D01*
X102990000Y-48188464D01*
X103660000Y-48188464D01*
X103808659Y-48158894D01*
X103934686Y-48074686D01*
X104018894Y-47948659D01*
X104048464Y-47800000D01*
X104048464Y-47585750D01*
X104105000Y-47585750D01*
X104105000Y-47926310D01*
X104201673Y-48159699D01*
X104380302Y-48338327D01*
X104613691Y-48435000D01*
X104789250Y-48435000D01*
X104948000Y-48276250D01*
X104948000Y-47427000D01*
X105202000Y-47427000D01*
X105202000Y-48276250D01*
X105360750Y-48435000D01*
X105536309Y-48435000D01*
X105769698Y-48338327D01*
X105948327Y-48159699D01*
X106045000Y-47926310D01*
X106045000Y-47585750D01*
X105886250Y-47427000D01*
X105202000Y-47427000D01*
X104948000Y-47427000D01*
X104263750Y-47427000D01*
X104105000Y-47585750D01*
X104048464Y-47585750D01*
X104048464Y-46800000D01*
X104023340Y-46673690D01*
X104105000Y-46673690D01*
X104105000Y-47014250D01*
X104263750Y-47173000D01*
X104948000Y-47173000D01*
X104948000Y-46323750D01*
X105202000Y-46323750D01*
X105202000Y-47173000D01*
X105886250Y-47173000D01*
X106045000Y-47014250D01*
X106045000Y-46673690D01*
X105948327Y-46440301D01*
X105769698Y-46261673D01*
X105536309Y-46165000D01*
X105360750Y-46165000D01*
X105202000Y-46323750D01*
X104948000Y-46323750D01*
X104789250Y-46165000D01*
X104613691Y-46165000D01*
X104380302Y-46261673D01*
X104201673Y-46440301D01*
X104105000Y-46673690D01*
X104023340Y-46673690D01*
X104018894Y-46651341D01*
X103934686Y-46525314D01*
X103831000Y-46456034D01*
X103831000Y-45588464D01*
X104150000Y-45588464D01*
X104298659Y-45558894D01*
X104424686Y-45474686D01*
X104508894Y-45348659D01*
X104538464Y-45200000D01*
X104538464Y-44200000D01*
X104508894Y-44051341D01*
X104424686Y-43925314D01*
X104298659Y-43841106D01*
X104150000Y-43811536D01*
X102450000Y-43811536D01*
X102301341Y-43841106D01*
X102175314Y-43925314D01*
X102091106Y-44051341D01*
X102061536Y-44200000D01*
X102061536Y-45200000D01*
X102091106Y-45348659D01*
X102175314Y-45474686D01*
X102301341Y-45558894D01*
X102450000Y-45588464D01*
X102819001Y-45588464D01*
X102819000Y-46456033D01*
X102715314Y-46525314D01*
X102631106Y-46651341D01*
X102602729Y-46794000D01*
X100976829Y-46794000D01*
X100926995Y-46784087D01*
X100877161Y-46794000D01*
X100729565Y-46823359D01*
X100562190Y-46935194D01*
X100533959Y-46977445D01*
X95339246Y-52172159D01*
X95296992Y-52200392D01*
X95185157Y-52367768D01*
X95156312Y-52512778D01*
X95145885Y-52565198D01*
X94750393Y-52565198D01*
X99322559Y-47993034D01*
X99364806Y-47964806D01*
X99476641Y-47797431D01*
X99496532Y-47697432D01*
X99515913Y-47600000D01*
X99506000Y-47550165D01*
X99506000Y-46397271D01*
X99648659Y-46368894D01*
X99774686Y-46284686D01*
X99858894Y-46158659D01*
X99888464Y-46010000D01*
X99888464Y-45190000D01*
X99858894Y-45041341D01*
X99774686Y-44915314D01*
X99648659Y-44831106D01*
X99500000Y-44801536D01*
X98500000Y-44801536D01*
X98351341Y-44831106D01*
X98225314Y-44915314D01*
X98141106Y-45041341D01*
X98111536Y-45190000D01*
X98111536Y-46010000D01*
X98141106Y-46158659D01*
X98225314Y-46284686D01*
X98351341Y-46368894D01*
X98494001Y-46397271D01*
X98494000Y-47390407D01*
X92406000Y-53478409D01*
X92406000Y-52809591D01*
X97322556Y-47893036D01*
X97364806Y-47864806D01*
X97476641Y-47697431D01*
X97506000Y-47549835D01*
X97506000Y-47549834D01*
X97515913Y-47500001D01*
X97506000Y-47450167D01*
X97506000Y-46419103D01*
X97648659Y-46390726D01*
X97774686Y-46306518D01*
X97858894Y-46180491D01*
X97888464Y-46031832D01*
X97888464Y-45211832D01*
X97858894Y-45063173D01*
X97774686Y-44937146D01*
X97648659Y-44852938D01*
X97500000Y-44823368D01*
X96500000Y-44823368D01*
X96351341Y-44852938D01*
X96225314Y-44937146D01*
X96141106Y-45063173D01*
X96111536Y-45211832D01*
X96111536Y-46031832D01*
X96141106Y-46180491D01*
X96225314Y-46306518D01*
X96351341Y-46390726D01*
X96494001Y-46419103D01*
X96494000Y-47290408D01*
X91806000Y-51978409D01*
X91806000Y-51909591D01*
X95322556Y-48393036D01*
X95364806Y-48364806D01*
X95476641Y-48197431D01*
X95506000Y-48049835D01*
X95506000Y-48049834D01*
X95515913Y-48000001D01*
X95506000Y-47950167D01*
X95506000Y-46397271D01*
X95648659Y-46368894D01*
X95774686Y-46284686D01*
X95858894Y-46158659D01*
X95888464Y-46010000D01*
X95888464Y-45190000D01*
X95858894Y-45041341D01*
X95774686Y-44915314D01*
X95648659Y-44831106D01*
X95500000Y-44801536D01*
X94500000Y-44801536D01*
X94351341Y-44831106D01*
X94225314Y-44915314D01*
X94141106Y-45041341D01*
X94111536Y-45190000D01*
X94111536Y-46010000D01*
X94141106Y-46158659D01*
X94225314Y-46284686D01*
X94351341Y-46368894D01*
X94494001Y-46397271D01*
X94494000Y-47790408D01*
X90977446Y-51306963D01*
X90935195Y-51335194D01*
X90891894Y-51400000D01*
X90823360Y-51502569D01*
X90784087Y-51700000D01*
X90794001Y-51749839D01*
X90794001Y-54592842D01*
X90555351Y-54493990D01*
X90244649Y-54493990D01*
X89957599Y-54612890D01*
X89737900Y-54832589D01*
X89656544Y-55029000D01*
X88695580Y-55029000D01*
X88649686Y-54960314D01*
X88559419Y-54900000D01*
X88649686Y-54839686D01*
X88733894Y-54713659D01*
X88763464Y-54565000D01*
X88763464Y-53965000D01*
X88733894Y-53816341D01*
X88649686Y-53690314D01*
X88559419Y-53630000D01*
X88649686Y-53569686D01*
X88733894Y-53443659D01*
X88763464Y-53295000D01*
X88763464Y-52695000D01*
X88733894Y-52546341D01*
X88649686Y-52420314D01*
X88523659Y-52336106D01*
X88375000Y-52306536D01*
X86825000Y-52306536D01*
X86676341Y-52336106D01*
X86550314Y-52420314D01*
X86466106Y-52546341D01*
X86436536Y-52695000D01*
X86436536Y-53295000D01*
X86466106Y-53443659D01*
X86550314Y-53569686D01*
X86640581Y-53630000D01*
X86550314Y-53690314D01*
X86466106Y-53816341D01*
X86436536Y-53965000D01*
X86436536Y-54237872D01*
X85656000Y-55018409D01*
X85656000Y-48644677D01*
X85737900Y-48842401D01*
X85957599Y-49062100D01*
X86244649Y-49181000D01*
X86555351Y-49181000D01*
X86842401Y-49062100D01*
X87062100Y-48842401D01*
X87181000Y-48555351D01*
X87181000Y-48244649D01*
X87062100Y-47957599D01*
X86906000Y-47801499D01*
X86906000Y-47353989D01*
X87024686Y-47274686D01*
X87108894Y-47148659D01*
X87138464Y-47000000D01*
X87138464Y-45800000D01*
X87114794Y-45681000D01*
X87230053Y-45681000D01*
X87509380Y-45960327D01*
X87539003Y-46004661D01*
X87714646Y-46122022D01*
X87869538Y-46152832D01*
X87921832Y-46163234D01*
X87974126Y-46152832D01*
X91294001Y-46152832D01*
X91294000Y-46701499D01*
X91137900Y-46857599D01*
X91019000Y-47144649D01*
X91019000Y-47455351D01*
X91137900Y-47742401D01*
X91357599Y-47962100D01*
X91644649Y-48081000D01*
X91955351Y-48081000D01*
X92242401Y-47962100D01*
X92462100Y-47742401D01*
X92581000Y-47455351D01*
X92581000Y-47144649D01*
X92462100Y-46857599D01*
X92306000Y-46701499D01*
X92306000Y-46360430D01*
X92351341Y-46390726D01*
X92500000Y-46420296D01*
X93500000Y-46420296D01*
X93648659Y-46390726D01*
X93774686Y-46306518D01*
X93858894Y-46180491D01*
X93888464Y-46031832D01*
X93888464Y-45211832D01*
X93858894Y-45063173D01*
X93774686Y-44937146D01*
X93648659Y-44852938D01*
X93500000Y-44823368D01*
X92500000Y-44823368D01*
X92351341Y-44852938D01*
X92225314Y-44937146D01*
X92141106Y-45063173D01*
X92135604Y-45090832D01*
X88141779Y-45090832D01*
X87981000Y-44930053D01*
X87981000Y-44744649D01*
X87862100Y-44457599D01*
X87642401Y-44237900D01*
X87355351Y-44119000D01*
X87044649Y-44119000D01*
X86757599Y-44237900D01*
X86537900Y-44457599D01*
X86520724Y-44499066D01*
X86481000Y-44459343D01*
X86481000Y-44085861D01*
X86488334Y-44048990D01*
X86488334Y-43628620D01*
X86655028Y-43628620D01*
X86941630Y-43509906D01*
X87160986Y-43290550D01*
X87279700Y-43003948D01*
X87279700Y-42693732D01*
X87160986Y-42407130D01*
X86941630Y-42187774D01*
X86655028Y-42069060D01*
X86344812Y-42069060D01*
X86058210Y-42187774D01*
X85934198Y-42311786D01*
X85701090Y-42311786D01*
X85570898Y-42337683D01*
X85447090Y-42313056D01*
X85048310Y-42313056D01*
X84923850Y-42337813D01*
X84799390Y-42313056D01*
X84400610Y-42313056D01*
X84276150Y-42337813D01*
X84151690Y-42313056D01*
X84008472Y-42313056D01*
X83858608Y-42163193D01*
X83625219Y-42066520D01*
X83557965Y-42066520D01*
X83399215Y-42225270D01*
X83399215Y-42490365D01*
X83363686Y-42404590D01*
X83199825Y-42240729D01*
X83199825Y-42225270D01*
X83041075Y-42066520D01*
X82973821Y-42066520D01*
X82915775Y-42090564D01*
X82857728Y-42066520D01*
X82547512Y-42066520D01*
X82260910Y-42185234D01*
X82041554Y-42404590D01*
X81922840Y-42691192D01*
X81922840Y-43001408D01*
X82041554Y-43288010D01*
X82260910Y-43507366D01*
X82513506Y-43611994D01*
X82465130Y-43660370D01*
X82465130Y-44174030D01*
X82561803Y-44407419D01*
X82740432Y-44586047D01*
X82973821Y-44682720D01*
X83041075Y-44682720D01*
X83199825Y-44523970D01*
X83199825Y-43501620D01*
X83152520Y-43501620D01*
X83152520Y-43499176D01*
X83363686Y-43288010D01*
X83364446Y-43286175D01*
X83364446Y-44047720D01*
X83394016Y-44196379D01*
X83399215Y-44204160D01*
X83399215Y-44523970D01*
X83557965Y-44682720D01*
X83625219Y-44682720D01*
X83858608Y-44586047D01*
X84008472Y-44436184D01*
X84151690Y-44436184D01*
X84194001Y-44427768D01*
X84194000Y-55417852D01*
X83955351Y-55319000D01*
X83734591Y-55319000D01*
X83593038Y-55177447D01*
X83564806Y-55135194D01*
X83397431Y-55023359D01*
X83275621Y-54999129D01*
X83249686Y-54960314D01*
X83159419Y-54900000D01*
X83249686Y-54839686D01*
X83333894Y-54713659D01*
X83363464Y-54565000D01*
X83363464Y-53965000D01*
X83333894Y-53816341D01*
X83249686Y-53690314D01*
X83159419Y-53630000D01*
X83249686Y-53569686D01*
X83333894Y-53443659D01*
X83363464Y-53295000D01*
X83363464Y-52695000D01*
X83333894Y-52546341D01*
X83249686Y-52420314D01*
X83123659Y-52336106D01*
X82975000Y-52306536D01*
X81425000Y-52306536D01*
X81276341Y-52336106D01*
X81189696Y-52394000D01*
X80998501Y-52394000D01*
X80842401Y-52237900D01*
X80555351Y-52119000D01*
X80244649Y-52119000D01*
X79957599Y-52237900D01*
X79737900Y-52457599D01*
X79631000Y-52715678D01*
X79631000Y-47861368D01*
X80461369Y-47031000D01*
X82167702Y-47031000D01*
X82191106Y-47148659D01*
X82275314Y-47274686D01*
X82401341Y-47358894D01*
X82514163Y-47381336D01*
X82437900Y-47457599D01*
X82319000Y-47744649D01*
X82319000Y-48055351D01*
X82437900Y-48342401D01*
X82657599Y-48562100D01*
X82944649Y-48681000D01*
X83255351Y-48681000D01*
X83542401Y-48562100D01*
X83762100Y-48342401D01*
X83881000Y-48055351D01*
X83881000Y-47744649D01*
X83762100Y-47457599D01*
X83637465Y-47332964D01*
X83724686Y-47274686D01*
X83808894Y-47148659D01*
X83838464Y-47000000D01*
X83838464Y-45800000D01*
X83808894Y-45651341D01*
X83724686Y-45525314D01*
X83598659Y-45441106D01*
X83450000Y-45411536D01*
X82550000Y-45411536D01*
X82401341Y-45441106D01*
X82275314Y-45525314D01*
X82191106Y-45651341D01*
X82167702Y-45769000D01*
X80262146Y-45769000D01*
X80199999Y-45756638D01*
X80137852Y-45769000D01*
X79953796Y-45805611D01*
X79745074Y-45945074D01*
X79709869Y-45997762D01*
X78597764Y-47109868D01*
X78545074Y-47145074D01*
X78458471Y-47274686D01*
X78405611Y-47353797D01*
X78356638Y-47600000D01*
X78369000Y-47662148D01*
X78369001Y-61237847D01*
X78356638Y-61300000D01*
X78369000Y-61362148D01*
X78369001Y-67337847D01*
X78356638Y-67400000D01*
X78405611Y-67646203D01*
X78441557Y-67700000D01*
X78545075Y-67854926D01*
X78597762Y-67890130D01*
X79709869Y-69002238D01*
X79745074Y-69054926D01*
X79953796Y-69194389D01*
X80137852Y-69231000D01*
X80199999Y-69243362D01*
X80262146Y-69231000D01*
X81046124Y-69231000D01*
X81075314Y-69274686D01*
X81159001Y-69330603D01*
X81159000Y-70290577D01*
X81156341Y-70291106D01*
X81030314Y-70375314D01*
X80946106Y-70501341D01*
X80916536Y-70650000D01*
X80916536Y-70769000D01*
X80867146Y-70769000D01*
X80804999Y-70756638D01*
X80742853Y-70769000D01*
X80742852Y-70769000D01*
X80558796Y-70805611D01*
X80350074Y-70945074D01*
X80314869Y-70997762D01*
X76197762Y-75114869D01*
X76145075Y-75150074D01*
X76088200Y-75235194D01*
X76005611Y-75358797D01*
X75956638Y-75605000D01*
X75969001Y-75667153D01*
X75969000Y-80462147D01*
X75969001Y-80462152D01*
X75969000Y-83917702D01*
X75851341Y-83941106D01*
X75725314Y-84025314D01*
X75641106Y-84151341D01*
X75611536Y-84300000D01*
X75611536Y-85200000D01*
X75641106Y-85348659D01*
X75725314Y-85474686D01*
X75851341Y-85558894D01*
X76000000Y-85588464D01*
X77200000Y-85588464D01*
X77348659Y-85558894D01*
X77474686Y-85474686D01*
X77558894Y-85348659D01*
X77588464Y-85200000D01*
X77588464Y-84300000D01*
X77558894Y-84151341D01*
X77474686Y-84025314D01*
X77348659Y-83941106D01*
X77231000Y-83917702D01*
X77231000Y-75866368D01*
X80921651Y-72175717D01*
X80946106Y-72298659D01*
X81030314Y-72424686D01*
X81156341Y-72508894D01*
X81305000Y-72538464D01*
X82275000Y-72538464D01*
X82423659Y-72508894D01*
X82549686Y-72424686D01*
X82606339Y-72339898D01*
X82676673Y-72509699D01*
X82855302Y-72688327D01*
X83088691Y-72785000D01*
X83414250Y-72785000D01*
X83573000Y-72626250D01*
X83573000Y-71527000D01*
X83827000Y-71527000D01*
X83827000Y-72626250D01*
X83985750Y-72785000D01*
X84311309Y-72785000D01*
X84544698Y-72688327D01*
X84723327Y-72509699D01*
X84820000Y-72276310D01*
X84820000Y-71685750D01*
X84661250Y-71527000D01*
X83827000Y-71527000D01*
X83573000Y-71527000D01*
X83553000Y-71527000D01*
X83553000Y-71485750D01*
X85655000Y-71485750D01*
X85655000Y-71826310D01*
X85751673Y-72059699D01*
X85930302Y-72238327D01*
X86163691Y-72335000D01*
X86414250Y-72335000D01*
X86573000Y-72176250D01*
X86573000Y-71327000D01*
X85813750Y-71327000D01*
X85655000Y-71485750D01*
X83553000Y-71485750D01*
X83553000Y-71273000D01*
X83573000Y-71273000D01*
X83573000Y-70526250D01*
X83673000Y-70426250D01*
X83673000Y-70173750D01*
X83827000Y-70173750D01*
X83827000Y-71273000D01*
X84661250Y-71273000D01*
X84820000Y-71114250D01*
X84820000Y-70573690D01*
X85655000Y-70573690D01*
X85655000Y-70914250D01*
X85813750Y-71073000D01*
X86573000Y-71073000D01*
X86573000Y-70223750D01*
X86414250Y-70065000D01*
X86163691Y-70065000D01*
X85930302Y-70161673D01*
X85751673Y-70340301D01*
X85655000Y-70573690D01*
X84820000Y-70573690D01*
X84820000Y-70523690D01*
X84748047Y-70349979D01*
X84788327Y-70309699D01*
X84885000Y-70076310D01*
X84885000Y-69835750D01*
X84726250Y-69677000D01*
X83927000Y-69677000D01*
X83927000Y-70073750D01*
X83827000Y-70173750D01*
X83673000Y-70173750D01*
X83673000Y-69677000D01*
X82873750Y-69677000D01*
X82715000Y-69835750D01*
X82715000Y-70076310D01*
X82766451Y-70200524D01*
X82676673Y-70290301D01*
X82606339Y-70460102D01*
X82549686Y-70375314D01*
X82423659Y-70291106D01*
X82421000Y-70290577D01*
X82421000Y-69343966D01*
X82524686Y-69274686D01*
X82608894Y-69148659D01*
X82633751Y-69023690D01*
X82715000Y-69023690D01*
X82715000Y-69264250D01*
X82873750Y-69423000D01*
X83673000Y-69423000D01*
X83673000Y-68673750D01*
X83927000Y-68673750D01*
X83927000Y-69423000D01*
X84726250Y-69423000D01*
X84885000Y-69264250D01*
X84885000Y-69023690D01*
X84788327Y-68790301D01*
X84609698Y-68611673D01*
X84376309Y-68515000D01*
X84085750Y-68515000D01*
X83927000Y-68673750D01*
X83673000Y-68673750D01*
X83514250Y-68515000D01*
X83223691Y-68515000D01*
X82990302Y-68611673D01*
X82811673Y-68790301D01*
X82715000Y-69023690D01*
X82633751Y-69023690D01*
X82638464Y-69000000D01*
X82638464Y-68200000D01*
X82608894Y-68051341D01*
X82524686Y-67925314D01*
X82398659Y-67841106D01*
X82250000Y-67811536D01*
X81350000Y-67811536D01*
X81201341Y-67841106D01*
X81075314Y-67925314D01*
X81046124Y-67969000D01*
X80461369Y-67969000D01*
X79631000Y-67138632D01*
X79631000Y-66085750D01*
X80725000Y-66085750D01*
X80725000Y-66676310D01*
X80821673Y-66909699D01*
X81000302Y-67088327D01*
X81233691Y-67185000D01*
X81559250Y-67185000D01*
X81718000Y-67026250D01*
X81718000Y-65927000D01*
X80883750Y-65927000D01*
X80725000Y-66085750D01*
X79631000Y-66085750D01*
X79631000Y-64923690D01*
X80725000Y-64923690D01*
X80725000Y-65514250D01*
X80883750Y-65673000D01*
X81718000Y-65673000D01*
X81718000Y-64573750D01*
X81559250Y-64415000D01*
X81233691Y-64415000D01*
X81000302Y-64511673D01*
X80821673Y-64690301D01*
X80725000Y-64923690D01*
X79631000Y-64923690D01*
X79631000Y-62031000D01*
X81427593Y-62031000D01*
X81431106Y-62048659D01*
X81515314Y-62174686D01*
X81641341Y-62258894D01*
X81790000Y-62288464D01*
X82610000Y-62288464D01*
X82758659Y-62258894D01*
X82884686Y-62174686D01*
X82968894Y-62048659D01*
X82998464Y-61900000D01*
X82998464Y-60900000D01*
X83001536Y-60900000D01*
X83001536Y-61900000D01*
X83031106Y-62048659D01*
X83115314Y-62174686D01*
X83241341Y-62258894D01*
X83390000Y-62288464D01*
X84210000Y-62288464D01*
X84358659Y-62258894D01*
X84484686Y-62174686D01*
X84568894Y-62048659D01*
X84578684Y-61999441D01*
X84637900Y-62142401D01*
X84857599Y-62362100D01*
X85144649Y-62481000D01*
X85455351Y-62481000D01*
X85742401Y-62362100D01*
X85962100Y-62142401D01*
X86081000Y-61855351D01*
X86081000Y-61544649D01*
X85962100Y-61257599D01*
X85742401Y-61037900D01*
X85455351Y-60919000D01*
X85175517Y-60919000D01*
X85049835Y-60894000D01*
X85049834Y-60894000D01*
X85000000Y-60884087D01*
X84950166Y-60894000D01*
X84597271Y-60894000D01*
X84568894Y-60751341D01*
X84484686Y-60625314D01*
X84358659Y-60541106D01*
X84210000Y-60511536D01*
X83390000Y-60511536D01*
X83241341Y-60541106D01*
X83115314Y-60625314D01*
X83031106Y-60751341D01*
X83001536Y-60900000D01*
X82998464Y-60900000D01*
X82968894Y-60751341D01*
X82884686Y-60625314D01*
X82758659Y-60541106D01*
X82610000Y-60511536D01*
X81790000Y-60511536D01*
X81641341Y-60541106D01*
X81515314Y-60625314D01*
X81431106Y-60751341D01*
X81427593Y-60769000D01*
X79631000Y-60769000D01*
X79631000Y-58145000D01*
X79914250Y-58145000D01*
X80073000Y-57986250D01*
X80073000Y-57227000D01*
X80053000Y-57227000D01*
X80053000Y-56973000D01*
X80073000Y-56973000D01*
X80073000Y-56953000D01*
X80327000Y-56953000D01*
X80327000Y-56973000D01*
X80347000Y-56973000D01*
X80347000Y-57227000D01*
X80327000Y-57227000D01*
X80327000Y-57986250D01*
X80485750Y-58145000D01*
X80826310Y-58145000D01*
X81059699Y-58048327D01*
X81238327Y-57869698D01*
X81293022Y-57737652D01*
X81298691Y-57740000D01*
X81914250Y-57740000D01*
X82073000Y-57581250D01*
X82073000Y-56932000D01*
X82053000Y-56932000D01*
X82053000Y-56678000D01*
X82073000Y-56678000D01*
X82073000Y-56658000D01*
X82327000Y-56658000D01*
X82327000Y-56678000D01*
X82347000Y-56678000D01*
X82347000Y-56932000D01*
X82327000Y-56932000D01*
X82327000Y-57581250D01*
X82485750Y-57740000D01*
X83101309Y-57740000D01*
X83334698Y-57643327D01*
X83513327Y-57464699D01*
X83610000Y-57231310D01*
X83610000Y-57090750D01*
X83451252Y-56932002D01*
X83610000Y-56932002D01*
X83610000Y-56866648D01*
X83644649Y-56881000D01*
X83955351Y-56881000D01*
X84194000Y-56782148D01*
X84194000Y-59096792D01*
X84184087Y-59146626D01*
X84194000Y-59196460D01*
X84223359Y-59344056D01*
X84335194Y-59511432D01*
X84377448Y-59539665D01*
X93410143Y-68572361D01*
X93400951Y-68581553D01*
X92896844Y-68077447D01*
X92868612Y-68035194D01*
X92701237Y-67923359D01*
X92553641Y-67894000D01*
X92553640Y-67894000D01*
X92503806Y-67884087D01*
X92453972Y-67894000D01*
X91609592Y-67894000D01*
X91205954Y-67490363D01*
X91286764Y-67369422D01*
X91316334Y-67220763D01*
X91286764Y-67072104D01*
X91202556Y-66946077D01*
X90728795Y-66472316D01*
X90602768Y-66388108D01*
X90454109Y-66358538D01*
X90305450Y-66388108D01*
X90179423Y-66472316D01*
X89472316Y-67179423D01*
X89388108Y-67305450D01*
X89358538Y-67454109D01*
X89388108Y-67602768D01*
X89472316Y-67728795D01*
X89946077Y-68202556D01*
X90072104Y-68286764D01*
X90220763Y-68316334D01*
X90369422Y-68286764D01*
X90490363Y-68205954D01*
X90678408Y-68394000D01*
X85959592Y-68394000D01*
X84893038Y-67327447D01*
X84864806Y-67285194D01*
X84697431Y-67173359D01*
X84620162Y-67157989D01*
X84608894Y-67101341D01*
X84524686Y-66975314D01*
X84406970Y-66896659D01*
X84431728Y-66880116D01*
X88499490Y-66880116D01*
X88499490Y-67104622D01*
X88623629Y-67228761D01*
X88857018Y-67325434D01*
X89109636Y-67325434D01*
X89343026Y-67228762D01*
X89521654Y-67050133D01*
X89583838Y-66987949D01*
X89583838Y-66763443D01*
X89100000Y-66279605D01*
X88499490Y-66880116D01*
X84431728Y-66880116D01*
X84514686Y-66824686D01*
X84598894Y-66698659D01*
X84628464Y-66550000D01*
X84628464Y-66391453D01*
X84844649Y-66481000D01*
X85155351Y-66481000D01*
X85442401Y-66362100D01*
X85662100Y-66142401D01*
X85683654Y-66090364D01*
X87874566Y-66090364D01*
X87874566Y-66342982D01*
X87971239Y-66576371D01*
X88095378Y-66700510D01*
X88319884Y-66700510D01*
X88920395Y-66100000D01*
X89279605Y-66100000D01*
X89763443Y-66583838D01*
X89987949Y-66583838D01*
X90050133Y-66521654D01*
X90228762Y-66343026D01*
X90325434Y-66109636D01*
X90325434Y-65857018D01*
X90228761Y-65623629D01*
X90104622Y-65499490D01*
X89880116Y-65499490D01*
X89279605Y-66100000D01*
X88920395Y-66100000D01*
X88436557Y-65616162D01*
X88212051Y-65616162D01*
X88149867Y-65678346D01*
X87971238Y-65856974D01*
X87874566Y-66090364D01*
X85683654Y-66090364D01*
X85781000Y-65855351D01*
X85781000Y-65544649D01*
X85662100Y-65257599D01*
X85616552Y-65212051D01*
X88616162Y-65212051D01*
X88616162Y-65436557D01*
X89100000Y-65920395D01*
X89700510Y-65319884D01*
X89700510Y-65095378D01*
X89576371Y-64971239D01*
X89342982Y-64874566D01*
X89090364Y-64874566D01*
X88856974Y-64971238D01*
X88678346Y-65149867D01*
X88616162Y-65212051D01*
X85616552Y-65212051D01*
X85442401Y-65037900D01*
X85155351Y-64919000D01*
X84844649Y-64919000D01*
X84620846Y-65011702D01*
X84598894Y-64901341D01*
X84514686Y-64775314D01*
X84388659Y-64691106D01*
X84240000Y-64661536D01*
X83270000Y-64661536D01*
X83121341Y-64691106D01*
X82995314Y-64775314D01*
X82938661Y-64860102D01*
X82868327Y-64690301D01*
X82689698Y-64511673D01*
X82456309Y-64415000D01*
X82130750Y-64415000D01*
X81972000Y-64573750D01*
X81972000Y-65673000D01*
X81992000Y-65673000D01*
X81992000Y-65927000D01*
X81972000Y-65927000D01*
X81972000Y-67026250D01*
X82130750Y-67185000D01*
X82456309Y-67185000D01*
X82689698Y-67088327D01*
X82868327Y-66909699D01*
X82938661Y-66739898D01*
X82995314Y-66824686D01*
X83121341Y-66908894D01*
X83162474Y-66917076D01*
X83075314Y-66975314D01*
X82991106Y-67101341D01*
X82961536Y-67250000D01*
X82961536Y-68050000D01*
X82991106Y-68198659D01*
X83075314Y-68324686D01*
X83201341Y-68408894D01*
X83350000Y-68438464D01*
X84250000Y-68438464D01*
X84398659Y-68408894D01*
X84485367Y-68350958D01*
X85356963Y-69222555D01*
X85385194Y-69264806D01*
X85552569Y-69376641D01*
X85700165Y-69406000D01*
X85700166Y-69406000D01*
X85750000Y-69415913D01*
X85799834Y-69406000D01*
X92087108Y-69406000D01*
X92579954Y-69898847D01*
X92601213Y-69930663D01*
X92811841Y-70141291D01*
X92811841Y-70148085D01*
X92801928Y-70197919D01*
X92811841Y-70247753D01*
X92811841Y-70247754D01*
X92841200Y-70395350D01*
X92953036Y-70562725D01*
X92995286Y-70590955D01*
X93326885Y-70922555D01*
X93355116Y-70964806D01*
X93522491Y-71076641D01*
X93670087Y-71106000D01*
X93719921Y-71115913D01*
X93769755Y-71106000D01*
X95176430Y-71106000D01*
X95139458Y-71195260D01*
X94955351Y-71119000D01*
X94644649Y-71119000D01*
X94357599Y-71237900D01*
X94201499Y-71394000D01*
X94146534Y-71394000D01*
X94096699Y-71384087D01*
X93899268Y-71423359D01*
X93825624Y-71472566D01*
X93731893Y-71535194D01*
X93703664Y-71577442D01*
X93340135Y-71940972D01*
X93308320Y-71962230D01*
X92601213Y-72669337D01*
X92517005Y-72795364D01*
X92487435Y-72944023D01*
X92517005Y-73092682D01*
X92601213Y-73218709D01*
X92777990Y-73395486D01*
X92883959Y-73466291D01*
X92954766Y-73572263D01*
X93038912Y-73656409D01*
X92176335Y-74518987D01*
X91524848Y-74518987D01*
X91475013Y-74509074D01*
X91277581Y-74548346D01*
X91235235Y-74576641D01*
X91110207Y-74660181D01*
X91108500Y-74662735D01*
X91106000Y-74650167D01*
X91106000Y-72249835D01*
X91115913Y-72200000D01*
X91076641Y-72002569D01*
X90993035Y-71877442D01*
X90964806Y-71835194D01*
X90922558Y-71806965D01*
X89993038Y-70877447D01*
X89964806Y-70835194D01*
X89797431Y-70723359D01*
X89649835Y-70694000D01*
X89649834Y-70694000D01*
X89600000Y-70684087D01*
X89550166Y-70694000D01*
X89097271Y-70694000D01*
X89068894Y-70551341D01*
X88984686Y-70425314D01*
X88858659Y-70341106D01*
X88710000Y-70311536D01*
X87890000Y-70311536D01*
X87741341Y-70341106D01*
X87668751Y-70389609D01*
X87648327Y-70340301D01*
X87469698Y-70161673D01*
X87236309Y-70065000D01*
X86985750Y-70065000D01*
X86827000Y-70223750D01*
X86827000Y-71073000D01*
X86847000Y-71073000D01*
X86847000Y-71327000D01*
X86827000Y-71327000D01*
X86827000Y-72176250D01*
X86985750Y-72335000D01*
X87236309Y-72335000D01*
X87469698Y-72238327D01*
X87648327Y-72059699D01*
X87668751Y-72010391D01*
X87741341Y-72058894D01*
X87890000Y-72088464D01*
X88710000Y-72088464D01*
X88858659Y-72058894D01*
X88984686Y-71974686D01*
X89068894Y-71848659D01*
X89097271Y-71706000D01*
X89390409Y-71706000D01*
X90094001Y-72409594D01*
X90094000Y-74490408D01*
X89676307Y-74908101D01*
X89781000Y-74655351D01*
X89781000Y-74344649D01*
X89662100Y-74057599D01*
X89554501Y-73950000D01*
X89662100Y-73842401D01*
X89781000Y-73555351D01*
X89781000Y-73244649D01*
X89662100Y-72957599D01*
X89442401Y-72737900D01*
X89155351Y-72619000D01*
X88844649Y-72619000D01*
X88557599Y-72737900D01*
X88337900Y-72957599D01*
X88219000Y-73244649D01*
X88219000Y-73465408D01*
X83977446Y-77706963D01*
X83935195Y-77735194D01*
X83841542Y-77875357D01*
X83823360Y-77902569D01*
X83784087Y-78100000D01*
X83794001Y-78149839D01*
X83794001Y-85117852D01*
X83555351Y-85019000D01*
X83381000Y-85019000D01*
X83381000Y-84744649D01*
X83262100Y-84457599D01*
X83042401Y-84237900D01*
X82755351Y-84119000D01*
X82444649Y-84119000D01*
X82335993Y-84164007D01*
X82381000Y-84055351D01*
X82381000Y-83744649D01*
X82262100Y-83457599D01*
X82154501Y-83350000D01*
X82362100Y-83142401D01*
X82481000Y-82855351D01*
X82481000Y-82544649D01*
X82362100Y-82257599D01*
X82142401Y-82037900D01*
X81855351Y-81919000D01*
X81544649Y-81919000D01*
X81257599Y-82037900D01*
X81037900Y-82257599D01*
X80919000Y-82544649D01*
X80919000Y-82565408D01*
X78677446Y-84806963D01*
X78635195Y-84835194D01*
X78527614Y-84996203D01*
X78523360Y-85002569D01*
X78484087Y-85200000D01*
X78494001Y-85249839D01*
X78494000Y-88889499D01*
X78442401Y-88837900D01*
X78155351Y-88719000D01*
X77984592Y-88719000D01*
X77588464Y-88322873D01*
X77588464Y-87600000D01*
X77558894Y-87451341D01*
X77474686Y-87325314D01*
X77348659Y-87241106D01*
X77200000Y-87211536D01*
X76000000Y-87211536D01*
X75851341Y-87241106D01*
X75725314Y-87325314D01*
X75641106Y-87451341D01*
X75611536Y-87600000D01*
X75611536Y-88500000D01*
X75641106Y-88648659D01*
X75725314Y-88774686D01*
X75851341Y-88858894D01*
X75969001Y-88882298D01*
X75969001Y-91873000D01*
X75856000Y-91873000D01*
X75856000Y-91444908D01*
X75864933Y-91400000D01*
X75829542Y-91222078D01*
X75728757Y-91071243D01*
X75577922Y-90970458D01*
X75444909Y-90944000D01*
X75400000Y-90935067D01*
X75355091Y-90944000D01*
X74756000Y-90944000D01*
X74756000Y-39456000D01*
X79457790Y-39456000D01*
X79426924Y-39476624D01*
G36*
X95834315Y-81086080D02*
X95848458Y-81071938D01*
X96028063Y-81251543D01*
X96013920Y-81265685D01*
X96028063Y-81279828D01*
X95848458Y-81459433D01*
X95834315Y-81445290D01*
X95297444Y-81982161D01*
X95297444Y-82094000D01*
X94949833Y-82094000D01*
X94899999Y-82084087D01*
X94850165Y-82094000D01*
X94702569Y-82123359D01*
X94535194Y-82235194D01*
X94506963Y-82277445D01*
X94206000Y-82578409D01*
X94206000Y-81698678D01*
X94561845Y-81342833D01*
X94652520Y-81561744D01*
X94831149Y-81740372D01*
X94893333Y-81802556D01*
X95117839Y-81802556D01*
X95654710Y-81265685D01*
X95640567Y-81251543D01*
X95820173Y-81071937D01*
X95834315Y-81086080D01*
X95834315Y-81086080D01*
G37*
X95834315Y-81086080D02*
X95848458Y-81071938D01*
X96028063Y-81251543D01*
X96013920Y-81265685D01*
X96028063Y-81279828D01*
X95848458Y-81459433D01*
X95834315Y-81445290D01*
X95297444Y-81982161D01*
X95297444Y-82094000D01*
X94949833Y-82094000D01*
X94899999Y-82084087D01*
X94850165Y-82094000D01*
X94702569Y-82123359D01*
X94535194Y-82235194D01*
X94506963Y-82277445D01*
X94206000Y-82578409D01*
X94206000Y-81698678D01*
X94561845Y-81342833D01*
X94652520Y-81561744D01*
X94831149Y-81740372D01*
X94893333Y-81802556D01*
X95117839Y-81802556D01*
X95654710Y-81265685D01*
X95640567Y-81251543D01*
X95820173Y-81071937D01*
X95834315Y-81086080D01*
G36*
X97716937Y-78208991D02*
X97702373Y-78282209D01*
X97621469Y-78363113D01*
X97621469Y-78587619D01*
X97642725Y-78608875D01*
X97687578Y-78627454D01*
X97687579Y-78696830D01*
X97171645Y-79212764D01*
X97050704Y-79131954D01*
X96902045Y-79102384D01*
X96777527Y-79127152D01*
X96793747Y-79110932D01*
X96835998Y-79082701D01*
X96947833Y-78915326D01*
X96977192Y-78767729D01*
X96987105Y-78717896D01*
X96977192Y-78668062D01*
X96977192Y-78561589D01*
X97015422Y-78523359D01*
X97557208Y-78523359D01*
X97621469Y-78587620D01*
X97621469Y-78587619D01*
X97557208Y-78523359D01*
X97015422Y-78523359D01*
X97061590Y-78477192D01*
X97168061Y-78477192D01*
X97217895Y-78487105D01*
X97267729Y-78477192D01*
X97267730Y-78477192D01*
X97415326Y-78447833D01*
X97455104Y-78421255D01*
X97582701Y-78335998D01*
X97610933Y-78293745D01*
X97759725Y-78144953D01*
X97716937Y-78208991D01*
X97716937Y-78208991D01*
G37*
X97716937Y-78208991D02*
X97702373Y-78282209D01*
X97621469Y-78363113D01*
X97621469Y-78587619D01*
X97642725Y-78608875D01*
X97687578Y-78627454D01*
X97687579Y-78696830D01*
X97171645Y-79212764D01*
X97050704Y-79131954D01*
X96902045Y-79102384D01*
X96777527Y-79127152D01*
X96793747Y-79110932D01*
X96835998Y-79082701D01*
X96947833Y-78915326D01*
X96977192Y-78767729D01*
X96987105Y-78717896D01*
X96977192Y-78668062D01*
X96977192Y-78561589D01*
X97015422Y-78523359D01*
X97557208Y-78523359D01*
X97621469Y-78587620D01*
X97621469Y-78587619D01*
X97557208Y-78523359D01*
X97015422Y-78523359D01*
X97061590Y-78477192D01*
X97168061Y-78477192D01*
X97217895Y-78487105D01*
X97267729Y-78477192D01*
X97267730Y-78477192D01*
X97415326Y-78447833D01*
X97455104Y-78421255D01*
X97582701Y-78335998D01*
X97610933Y-78293745D01*
X97759725Y-78144953D01*
X97716937Y-78208991D01*
G36*
X104461137Y-73294748D02*
X104461138Y-73294748D01*
X104379442Y-73376444D01*
X104450246Y-73305639D01*
X104308932Y-73446953D01*
X104308933Y-73446953D01*
X104287677Y-73468209D01*
X104191004Y-73701598D01*
X104191005Y-73916890D01*
X104126957Y-74012746D01*
X104020988Y-74083551D01*
X103844211Y-74260328D01*
X103773406Y-74366297D01*
X103667434Y-74437104D01*
X103490657Y-74613881D01*
X103419851Y-74719851D01*
X103313881Y-74790657D01*
X103137104Y-74967434D01*
X103066297Y-75073406D01*
X102960328Y-75144211D01*
X102783551Y-75320988D01*
X102712746Y-75426957D01*
X102606774Y-75497764D01*
X102429997Y-75674541D01*
X102359190Y-75780513D01*
X102253221Y-75851318D01*
X102076444Y-76028095D01*
X102005639Y-76134064D01*
X101899667Y-76204871D01*
X101722890Y-76381648D01*
X101652084Y-76487618D01*
X101546114Y-76558424D01*
X101468905Y-76635633D01*
X101468612Y-76635194D01*
X101301237Y-76523359D01*
X101153641Y-76494000D01*
X101153640Y-76494000D01*
X101103806Y-76484087D01*
X101053972Y-76494000D01*
X100849835Y-76494000D01*
X100800000Y-76484087D01*
X100795455Y-76484991D01*
X100801643Y-76475730D01*
X100831002Y-76328134D01*
X100831002Y-76328133D01*
X100840915Y-76278299D01*
X100831002Y-76228465D01*
X100831002Y-75449835D01*
X100840915Y-75400000D01*
X100801643Y-75202569D01*
X100689808Y-75035194D01*
X100680998Y-75029307D01*
X100680998Y-74472687D01*
X100689808Y-74466800D01*
X100801643Y-74299425D01*
X100825108Y-74181460D01*
X100840915Y-74101994D01*
X100831002Y-74052159D01*
X100831002Y-72974835D01*
X100840915Y-72925001D01*
X100825223Y-72846114D01*
X100817244Y-72806000D01*
X102839253Y-72806000D01*
X102889087Y-72815913D01*
X102938921Y-72806000D01*
X102938922Y-72806000D01*
X103086518Y-72776641D01*
X103192241Y-72706000D01*
X103872390Y-72706000D01*
X104461137Y-73294748D01*
X104461137Y-73294748D01*
G37*
X104461137Y-73294748D02*
X104461138Y-73294748D01*
X104379442Y-73376444D01*
X104450246Y-73305639D01*
X104308932Y-73446953D01*
X104308933Y-73446953D01*
X104287677Y-73468209D01*
X104191004Y-73701598D01*
X104191005Y-73916890D01*
X104126957Y-74012746D01*
X104020988Y-74083551D01*
X103844211Y-74260328D01*
X103773406Y-74366297D01*
X103667434Y-74437104D01*
X103490657Y-74613881D01*
X103419851Y-74719851D01*
X103313881Y-74790657D01*
X103137104Y-74967434D01*
X103066297Y-75073406D01*
X102960328Y-75144211D01*
X102783551Y-75320988D01*
X102712746Y-75426957D01*
X102606774Y-75497764D01*
X102429997Y-75674541D01*
X102359190Y-75780513D01*
X102253221Y-75851318D01*
X102076444Y-76028095D01*
X102005639Y-76134064D01*
X101899667Y-76204871D01*
X101722890Y-76381648D01*
X101652084Y-76487618D01*
X101546114Y-76558424D01*
X101468905Y-76635633D01*
X101468612Y-76635194D01*
X101301237Y-76523359D01*
X101153641Y-76494000D01*
X101153640Y-76494000D01*
X101103806Y-76484087D01*
X101053972Y-76494000D01*
X100849835Y-76494000D01*
X100800000Y-76484087D01*
X100795455Y-76484991D01*
X100801643Y-76475730D01*
X100831002Y-76328134D01*
X100831002Y-76328133D01*
X100840915Y-76278299D01*
X100831002Y-76228465D01*
X100831002Y-75449835D01*
X100840915Y-75400000D01*
X100801643Y-75202569D01*
X100689808Y-75035194D01*
X100680998Y-75029307D01*
X100680998Y-74472687D01*
X100689808Y-74466800D01*
X100801643Y-74299425D01*
X100825108Y-74181460D01*
X100840915Y-74101994D01*
X100831002Y-74052159D01*
X100831002Y-72974835D01*
X100840915Y-72925001D01*
X100825223Y-72846114D01*
X100817244Y-72806000D01*
X102839253Y-72806000D01*
X102889087Y-72815913D01*
X102938921Y-72806000D01*
X102938922Y-72806000D01*
X103086518Y-72776641D01*
X103192241Y-72706000D01*
X103872390Y-72706000D01*
X104461137Y-73294748D01*
G36*
X105819000Y-58044649D02*
X105819000Y-58355351D01*
X105937900Y-58642401D01*
X106157599Y-58862100D01*
X106444649Y-58981000D01*
X106755351Y-58981000D01*
X106903884Y-58919476D01*
X107359803Y-59375395D01*
X107359802Y-60815968D01*
X107349889Y-60865802D01*
X107359802Y-60915636D01*
X107389161Y-61063232D01*
X107500996Y-61230608D01*
X107543250Y-61258841D01*
X111494001Y-65209593D01*
X111494000Y-68390408D01*
X110290409Y-69594000D01*
X110049834Y-69594000D01*
X110000000Y-69584087D01*
X109950166Y-69594000D01*
X109950165Y-69594000D01*
X109802569Y-69623359D01*
X109635194Y-69735194D01*
X109606963Y-69777445D01*
X108577445Y-70806964D01*
X108535195Y-70835194D01*
X108461776Y-70945075D01*
X108423360Y-71002569D01*
X108384087Y-71200000D01*
X108394001Y-71249838D01*
X108394000Y-71590408D01*
X107356929Y-72627479D01*
X106691680Y-71962230D01*
X106565653Y-71878022D01*
X106416994Y-71848452D01*
X106268335Y-71878022D01*
X106142308Y-71962230D01*
X105965531Y-72139007D01*
X105894724Y-72244979D01*
X105788755Y-72315784D01*
X105611978Y-72492561D01*
X105541173Y-72598530D01*
X105435201Y-72669337D01*
X105351055Y-72753483D01*
X104475020Y-71877447D01*
X104446787Y-71835194D01*
X104279412Y-71723359D01*
X104197594Y-71707084D01*
X105439872Y-70464806D01*
X105620691Y-70464806D01*
X105682487Y-70526602D01*
X105682487Y-70526601D01*
X105620691Y-70464806D01*
X105439872Y-70464806D01*
X105530282Y-70374397D01*
X105530283Y-70374397D01*
X105615844Y-70459958D01*
X105682487Y-70393315D01*
X105682487Y-70526601D01*
X105703743Y-70547857D01*
X105937132Y-70644530D01*
X106152424Y-70644529D01*
X106268335Y-70721978D01*
X106416994Y-70751548D01*
X106565653Y-70721978D01*
X106691680Y-70637770D01*
X107398787Y-69930663D01*
X107482995Y-69804636D01*
X107512565Y-69655977D01*
X107482995Y-69507318D01*
X107405547Y-69391408D01*
X107405548Y-69176114D01*
X107308875Y-68942725D01*
X107287619Y-68921469D01*
X107154333Y-68921469D01*
X107187338Y-68888464D01*
X107254615Y-68888464D01*
X107287619Y-68921469D01*
X107287620Y-68921469D01*
X107254615Y-68888464D01*
X107187338Y-68888464D01*
X107220976Y-68854826D01*
X107192227Y-68826077D01*
X107192230Y-68826079D01*
X107192231Y-68826080D01*
X107241341Y-68858894D01*
X107390000Y-68888464D01*
X108210000Y-68888464D01*
X108358659Y-68858894D01*
X108431249Y-68810391D01*
X108451673Y-68859699D01*
X108630302Y-69038327D01*
X108863691Y-69135000D01*
X109114250Y-69135000D01*
X109273000Y-68976250D01*
X109273000Y-68127000D01*
X109527000Y-68127000D01*
X109527000Y-68976250D01*
X109685750Y-69135000D01*
X109936309Y-69135000D01*
X110169698Y-69038327D01*
X110348327Y-68859699D01*
X110445000Y-68626310D01*
X110445000Y-68285750D01*
X110286250Y-68127000D01*
X109527000Y-68127000D01*
X109273000Y-68127000D01*
X109253000Y-68127000D01*
X109253000Y-67873000D01*
X109273000Y-67873000D01*
X109273000Y-67023750D01*
X109527000Y-67023750D01*
X109527000Y-67873000D01*
X110286250Y-67873000D01*
X110445000Y-67714250D01*
X110445000Y-67373690D01*
X110348327Y-67140301D01*
X110169698Y-66961673D01*
X109936309Y-66865000D01*
X109685750Y-66865000D01*
X109527000Y-67023750D01*
X109273000Y-67023750D01*
X109114250Y-66865000D01*
X108863691Y-66865000D01*
X108630302Y-66961673D01*
X108451673Y-67140301D01*
X108431249Y-67189609D01*
X108358659Y-67141106D01*
X108210000Y-67111536D01*
X107604056Y-67111536D01*
X107822556Y-66893036D01*
X107864806Y-66864806D01*
X107976641Y-66697431D01*
X108006000Y-66549835D01*
X108006000Y-66549834D01*
X108015913Y-66500001D01*
X108006000Y-66450167D01*
X108006000Y-65609591D01*
X108934592Y-64681000D01*
X109155351Y-64681000D01*
X109442401Y-64562100D01*
X109662100Y-64342401D01*
X109781000Y-64055351D01*
X109781000Y-63744649D01*
X109662100Y-63457599D01*
X109442401Y-63237900D01*
X109155351Y-63119000D01*
X108844649Y-63119000D01*
X108557599Y-63237900D01*
X108350000Y-63445499D01*
X108242401Y-63337900D01*
X107955351Y-63219000D01*
X107644649Y-63219000D01*
X107631253Y-63224549D01*
X107562100Y-63057599D01*
X107342401Y-62837900D01*
X107055351Y-62719000D01*
X106744649Y-62719000D01*
X106457599Y-62837900D01*
X106350000Y-62945499D01*
X106242401Y-62837900D01*
X105955351Y-62719000D01*
X105659470Y-62719000D01*
X105649328Y-62668014D01*
X105565120Y-62541987D01*
X105149140Y-62126007D01*
X105453598Y-62126007D01*
X105453598Y-62350513D01*
X105515782Y-62412697D01*
X105694410Y-62591326D01*
X105927800Y-62687998D01*
X106180418Y-62687998D01*
X106413807Y-62591325D01*
X106537946Y-62467186D01*
X106537946Y-62242680D01*
X105937436Y-61642169D01*
X105453598Y-62126007D01*
X105149140Y-62126007D01*
X104858013Y-61834880D01*
X104731986Y-61750672D01*
X104583327Y-61721102D01*
X104483167Y-61741025D01*
X104502361Y-61712299D01*
X104519393Y-61626673D01*
X104568701Y-61647097D01*
X104784446Y-61647097D01*
X104808674Y-61705590D01*
X104987303Y-61884218D01*
X105049487Y-61946402D01*
X105273993Y-61946402D01*
X105757831Y-61462564D01*
X106117041Y-61462564D01*
X106717552Y-62063074D01*
X106942058Y-62063074D01*
X107066197Y-61938935D01*
X107162870Y-61705546D01*
X107162870Y-61452928D01*
X107066198Y-61219538D01*
X106887569Y-61040910D01*
X106825385Y-60978726D01*
X106600879Y-60978726D01*
X106117041Y-61462564D01*
X105757831Y-61462564D01*
X105743688Y-61448422D01*
X105923294Y-61268816D01*
X105937436Y-61282959D01*
X106421274Y-60799121D01*
X106421274Y-60574615D01*
X106359090Y-60512431D01*
X106180462Y-60333802D01*
X105947072Y-60237130D01*
X105881327Y-60237130D01*
X105813165Y-60072571D01*
X105634536Y-59893943D01*
X105572352Y-59831759D01*
X105347846Y-59831759D01*
X104810975Y-60368630D01*
X104825118Y-60382772D01*
X104645512Y-60562378D01*
X104631370Y-60548235D01*
X104617228Y-60562378D01*
X104437623Y-60382773D01*
X104451765Y-60368630D01*
X104437622Y-60354488D01*
X104617228Y-60174882D01*
X104631370Y-60189025D01*
X105168241Y-59652154D01*
X105168241Y-59427648D01*
X105106057Y-59365464D01*
X104927429Y-59186835D01*
X104694039Y-59090163D01*
X104441421Y-59090163D01*
X104243409Y-59172182D01*
X105553958Y-57861634D01*
X105894807Y-57861634D01*
X105819000Y-58044649D01*
X105819000Y-58044649D01*
G37*
X105819000Y-58044649D02*
X105819000Y-58355351D01*
X105937900Y-58642401D01*
X106157599Y-58862100D01*
X106444649Y-58981000D01*
X106755351Y-58981000D01*
X106903884Y-58919476D01*
X107359803Y-59375395D01*
X107359802Y-60815968D01*
X107349889Y-60865802D01*
X107359802Y-60915636D01*
X107389161Y-61063232D01*
X107500996Y-61230608D01*
X107543250Y-61258841D01*
X111494001Y-65209593D01*
X111494000Y-68390408D01*
X110290409Y-69594000D01*
X110049834Y-69594000D01*
X110000000Y-69584087D01*
X109950166Y-69594000D01*
X109950165Y-69594000D01*
X109802569Y-69623359D01*
X109635194Y-69735194D01*
X109606963Y-69777445D01*
X108577445Y-70806964D01*
X108535195Y-70835194D01*
X108461776Y-70945075D01*
X108423360Y-71002569D01*
X108384087Y-71200000D01*
X108394001Y-71249838D01*
X108394000Y-71590408D01*
X107356929Y-72627479D01*
X106691680Y-71962230D01*
X106565653Y-71878022D01*
X106416994Y-71848452D01*
X106268335Y-71878022D01*
X106142308Y-71962230D01*
X105965531Y-72139007D01*
X105894724Y-72244979D01*
X105788755Y-72315784D01*
X105611978Y-72492561D01*
X105541173Y-72598530D01*
X105435201Y-72669337D01*
X105351055Y-72753483D01*
X104475020Y-71877447D01*
X104446787Y-71835194D01*
X104279412Y-71723359D01*
X104197594Y-71707084D01*
X105439872Y-70464806D01*
X105620691Y-70464806D01*
X105682487Y-70526602D01*
X105682487Y-70526601D01*
X105620691Y-70464806D01*
X105439872Y-70464806D01*
X105530282Y-70374397D01*
X105530283Y-70374397D01*
X105615844Y-70459958D01*
X105682487Y-70393315D01*
X105682487Y-70526601D01*
X105703743Y-70547857D01*
X105937132Y-70644530D01*
X106152424Y-70644529D01*
X106268335Y-70721978D01*
X106416994Y-70751548D01*
X106565653Y-70721978D01*
X106691680Y-70637770D01*
X107398787Y-69930663D01*
X107482995Y-69804636D01*
X107512565Y-69655977D01*
X107482995Y-69507318D01*
X107405547Y-69391408D01*
X107405548Y-69176114D01*
X107308875Y-68942725D01*
X107287619Y-68921469D01*
X107154333Y-68921469D01*
X107187338Y-68888464D01*
X107254615Y-68888464D01*
X107287619Y-68921469D01*
X107287620Y-68921469D01*
X107254615Y-68888464D01*
X107187338Y-68888464D01*
X107220976Y-68854826D01*
X107192227Y-68826077D01*
X107192230Y-68826079D01*
X107192231Y-68826080D01*
X107241341Y-68858894D01*
X107390000Y-68888464D01*
X108210000Y-68888464D01*
X108358659Y-68858894D01*
X108431249Y-68810391D01*
X108451673Y-68859699D01*
X108630302Y-69038327D01*
X108863691Y-69135000D01*
X109114250Y-69135000D01*
X109273000Y-68976250D01*
X109273000Y-68127000D01*
X109527000Y-68127000D01*
X109527000Y-68976250D01*
X109685750Y-69135000D01*
X109936309Y-69135000D01*
X110169698Y-69038327D01*
X110348327Y-68859699D01*
X110445000Y-68626310D01*
X110445000Y-68285750D01*
X110286250Y-68127000D01*
X109527000Y-68127000D01*
X109273000Y-68127000D01*
X109253000Y-68127000D01*
X109253000Y-67873000D01*
X109273000Y-67873000D01*
X109273000Y-67023750D01*
X109527000Y-67023750D01*
X109527000Y-67873000D01*
X110286250Y-67873000D01*
X110445000Y-67714250D01*
X110445000Y-67373690D01*
X110348327Y-67140301D01*
X110169698Y-66961673D01*
X109936309Y-66865000D01*
X109685750Y-66865000D01*
X109527000Y-67023750D01*
X109273000Y-67023750D01*
X109114250Y-66865000D01*
X108863691Y-66865000D01*
X108630302Y-66961673D01*
X108451673Y-67140301D01*
X108431249Y-67189609D01*
X108358659Y-67141106D01*
X108210000Y-67111536D01*
X107604056Y-67111536D01*
X107822556Y-66893036D01*
X107864806Y-66864806D01*
X107976641Y-66697431D01*
X108006000Y-66549835D01*
X108006000Y-66549834D01*
X108015913Y-66500001D01*
X108006000Y-66450167D01*
X108006000Y-65609591D01*
X108934592Y-64681000D01*
X109155351Y-64681000D01*
X109442401Y-64562100D01*
X109662100Y-64342401D01*
X109781000Y-64055351D01*
X109781000Y-63744649D01*
X109662100Y-63457599D01*
X109442401Y-63237900D01*
X109155351Y-63119000D01*
X108844649Y-63119000D01*
X108557599Y-63237900D01*
X108350000Y-63445499D01*
X108242401Y-63337900D01*
X107955351Y-63219000D01*
X107644649Y-63219000D01*
X107631253Y-63224549D01*
X107562100Y-63057599D01*
X107342401Y-62837900D01*
X107055351Y-62719000D01*
X106744649Y-62719000D01*
X106457599Y-62837900D01*
X106350000Y-62945499D01*
X106242401Y-62837900D01*
X105955351Y-62719000D01*
X105659470Y-62719000D01*
X105649328Y-62668014D01*
X105565120Y-62541987D01*
X105149140Y-62126007D01*
X105453598Y-62126007D01*
X105453598Y-62350513D01*
X105515782Y-62412697D01*
X105694410Y-62591326D01*
X105927800Y-62687998D01*
X106180418Y-62687998D01*
X106413807Y-62591325D01*
X106537946Y-62467186D01*
X106537946Y-62242680D01*
X105937436Y-61642169D01*
X105453598Y-62126007D01*
X105149140Y-62126007D01*
X104858013Y-61834880D01*
X104731986Y-61750672D01*
X104583327Y-61721102D01*
X104483167Y-61741025D01*
X104502361Y-61712299D01*
X104519393Y-61626673D01*
X104568701Y-61647097D01*
X104784446Y-61647097D01*
X104808674Y-61705590D01*
X104987303Y-61884218D01*
X105049487Y-61946402D01*
X105273993Y-61946402D01*
X105757831Y-61462564D01*
X106117041Y-61462564D01*
X106717552Y-62063074D01*
X106942058Y-62063074D01*
X107066197Y-61938935D01*
X107162870Y-61705546D01*
X107162870Y-61452928D01*
X107066198Y-61219538D01*
X106887569Y-61040910D01*
X106825385Y-60978726D01*
X106600879Y-60978726D01*
X106117041Y-61462564D01*
X105757831Y-61462564D01*
X105743688Y-61448422D01*
X105923294Y-61268816D01*
X105937436Y-61282959D01*
X106421274Y-60799121D01*
X106421274Y-60574615D01*
X106359090Y-60512431D01*
X106180462Y-60333802D01*
X105947072Y-60237130D01*
X105881327Y-60237130D01*
X105813165Y-60072571D01*
X105634536Y-59893943D01*
X105572352Y-59831759D01*
X105347846Y-59831759D01*
X104810975Y-60368630D01*
X104825118Y-60382772D01*
X104645512Y-60562378D01*
X104631370Y-60548235D01*
X104617228Y-60562378D01*
X104437623Y-60382773D01*
X104451765Y-60368630D01*
X104437622Y-60354488D01*
X104617228Y-60174882D01*
X104631370Y-60189025D01*
X105168241Y-59652154D01*
X105168241Y-59427648D01*
X105106057Y-59365464D01*
X104927429Y-59186835D01*
X104694039Y-59090163D01*
X104441421Y-59090163D01*
X104243409Y-59172182D01*
X105553958Y-57861634D01*
X105894807Y-57861634D01*
X105819000Y-58044649D01*
G36*
X90794000Y-63888636D02*
X85656000Y-58750637D01*
X85656000Y-57544280D01*
X85744649Y-57581000D01*
X86055351Y-57581000D01*
X86342401Y-57462100D01*
X86500046Y-57304455D01*
X86550314Y-57379686D01*
X86676341Y-57463894D01*
X86825000Y-57493464D01*
X88375000Y-57493464D01*
X88523659Y-57463894D01*
X88610304Y-57406000D01*
X89201499Y-57406000D01*
X89357599Y-57562100D01*
X89644649Y-57681000D01*
X89955351Y-57681000D01*
X90242401Y-57562100D01*
X90462100Y-57342401D01*
X90581000Y-57055351D01*
X90581000Y-56744649D01*
X90462100Y-56457599D01*
X90242401Y-56237900D01*
X89955351Y-56119000D01*
X89644649Y-56119000D01*
X89357599Y-56237900D01*
X89201499Y-56394000D01*
X88741385Y-56394000D01*
X88733894Y-56356341D01*
X88649686Y-56230314D01*
X88559419Y-56170000D01*
X88649686Y-56109686D01*
X88695580Y-56041000D01*
X90090156Y-56041000D01*
X90139990Y-56050913D01*
X90189824Y-56041000D01*
X90189825Y-56041000D01*
X90202414Y-56038496D01*
X90244649Y-56055990D01*
X90555351Y-56055990D01*
X90794001Y-55957138D01*
X90794000Y-63888636D01*
X90794000Y-63888636D01*
G37*
X90794000Y-63888636D02*
X85656000Y-58750637D01*
X85656000Y-57544280D01*
X85744649Y-57581000D01*
X86055351Y-57581000D01*
X86342401Y-57462100D01*
X86500046Y-57304455D01*
X86550314Y-57379686D01*
X86676341Y-57463894D01*
X86825000Y-57493464D01*
X88375000Y-57493464D01*
X88523659Y-57463894D01*
X88610304Y-57406000D01*
X89201499Y-57406000D01*
X89357599Y-57562100D01*
X89644649Y-57681000D01*
X89955351Y-57681000D01*
X90242401Y-57562100D01*
X90462100Y-57342401D01*
X90581000Y-57055351D01*
X90581000Y-56744649D01*
X90462100Y-56457599D01*
X90242401Y-56237900D01*
X89955351Y-56119000D01*
X89644649Y-56119000D01*
X89357599Y-56237900D01*
X89201499Y-56394000D01*
X88741385Y-56394000D01*
X88733894Y-56356341D01*
X88649686Y-56230314D01*
X88559419Y-56170000D01*
X88649686Y-56109686D01*
X88695580Y-56041000D01*
X90090156Y-56041000D01*
X90139990Y-56050913D01*
X90189824Y-56041000D01*
X90189825Y-56041000D01*
X90202414Y-56038496D01*
X90244649Y-56055990D01*
X90555351Y-56055990D01*
X90794001Y-55957138D01*
X90794000Y-63888636D01*
G36*
X105528315Y-53843695D02*
X105439926Y-53975978D01*
X105434084Y-54005347D01*
X105116162Y-54323269D01*
X105031954Y-54449296D01*
X105002384Y-54597955D01*
X105031954Y-54746614D01*
X105116162Y-54872641D01*
X105695989Y-55452468D01*
X105822016Y-55536676D01*
X105907642Y-55553708D01*
X105887218Y-55603016D01*
X105887218Y-55855634D01*
X105983891Y-56089023D01*
X106161063Y-56266195D01*
X106385569Y-56266195D01*
X106986080Y-55665685D01*
X106971938Y-55651543D01*
X107151543Y-55471938D01*
X107165685Y-55486080D01*
X107179828Y-55471938D01*
X107359433Y-55651543D01*
X107345290Y-55665685D01*
X107882161Y-56202556D01*
X108106667Y-56202556D01*
X108168851Y-56140372D01*
X108347480Y-55961744D01*
X108427274Y-55769101D01*
X108427275Y-56074825D01*
X107916126Y-56585974D01*
X107831918Y-56712001D01*
X107804541Y-56849634D01*
X107456544Y-56849634D01*
X107461744Y-56847480D01*
X107640372Y-56668851D01*
X107702556Y-56606667D01*
X107702556Y-56382161D01*
X107165685Y-55845290D01*
X106565175Y-56445801D01*
X106565175Y-56670307D01*
X106742347Y-56847479D01*
X106747550Y-56849634D01*
X105636755Y-56849634D01*
X105597431Y-56823359D01*
X105559998Y-56815913D01*
X105524430Y-56808838D01*
X104106000Y-55390409D01*
X104106000Y-54209591D01*
X105528316Y-52787276D01*
X105528315Y-53843695D01*
X105528315Y-53843695D01*
G37*
X105528315Y-53843695D02*
X105439926Y-53975978D01*
X105434084Y-54005347D01*
X105116162Y-54323269D01*
X105031954Y-54449296D01*
X105002384Y-54597955D01*
X105031954Y-54746614D01*
X105116162Y-54872641D01*
X105695989Y-55452468D01*
X105822016Y-55536676D01*
X105907642Y-55553708D01*
X105887218Y-55603016D01*
X105887218Y-55855634D01*
X105983891Y-56089023D01*
X106161063Y-56266195D01*
X106385569Y-56266195D01*
X106986080Y-55665685D01*
X106971938Y-55651543D01*
X107151543Y-55471938D01*
X107165685Y-55486080D01*
X107179828Y-55471938D01*
X107359433Y-55651543D01*
X107345290Y-55665685D01*
X107882161Y-56202556D01*
X108106667Y-56202556D01*
X108168851Y-56140372D01*
X108347480Y-55961744D01*
X108427274Y-55769101D01*
X108427275Y-56074825D01*
X107916126Y-56585974D01*
X107831918Y-56712001D01*
X107804541Y-56849634D01*
X107456544Y-56849634D01*
X107461744Y-56847480D01*
X107640372Y-56668851D01*
X107702556Y-56606667D01*
X107702556Y-56382161D01*
X107165685Y-55845290D01*
X106565175Y-56445801D01*
X106565175Y-56670307D01*
X106742347Y-56847479D01*
X106747550Y-56849634D01*
X105636755Y-56849634D01*
X105597431Y-56823359D01*
X105559998Y-56815913D01*
X105524430Y-56808838D01*
X104106000Y-55390409D01*
X104106000Y-54209591D01*
X105528316Y-52787276D01*
X105528315Y-53843695D01*
G36*
X117481341Y-47358894D02*
X117494000Y-47361412D01*
X117494000Y-48490408D01*
X114765409Y-51219000D01*
X114544649Y-51219000D01*
X114406000Y-51276430D01*
X114406000Y-47749591D01*
X114512552Y-47643039D01*
X114554806Y-47614806D01*
X114666641Y-47447431D01*
X114683247Y-47363949D01*
X114708659Y-47358894D01*
X114825000Y-47281158D01*
X114941341Y-47358894D01*
X115090000Y-47388464D01*
X115830000Y-47388464D01*
X115978659Y-47358894D01*
X116095000Y-47281158D01*
X116211341Y-47358894D01*
X116360000Y-47388464D01*
X117100000Y-47388464D01*
X117248659Y-47358894D01*
X117365000Y-47281158D01*
X117481341Y-47358894D01*
X117481341Y-47358894D01*
G37*
X117481341Y-47358894D02*
X117494000Y-47361412D01*
X117494000Y-48490408D01*
X114765409Y-51219000D01*
X114544649Y-51219000D01*
X114406000Y-51276430D01*
X114406000Y-47749591D01*
X114512552Y-47643039D01*
X114554806Y-47614806D01*
X114666641Y-47447431D01*
X114683247Y-47363949D01*
X114708659Y-47358894D01*
X114825000Y-47281158D01*
X114941341Y-47358894D01*
X115090000Y-47388464D01*
X115830000Y-47388464D01*
X115978659Y-47358894D01*
X116095000Y-47281158D01*
X116211341Y-47358894D01*
X116360000Y-47388464D01*
X117100000Y-47388464D01*
X117248659Y-47358894D01*
X117365000Y-47281158D01*
X117481341Y-47358894D01*
M02*
