G04 #@! TF.GenerationSoftware,KiCad,Pcbnew,5.0.0-rc2-dev-unknown-62522ee~64~ubuntu17.10.1*
G04 #@! TF.CreationDate,2018-05-05T21:53:19+02:00*
G04 #@! TF.ProjectId,gbcart,6762636172742E6B696361645F706362,rev?*
G04 #@! TF.SameCoordinates,Original*
G04 #@! TF.FileFunction,Soldermask,Bot*
G04 #@! TF.FilePolarity,Negative*
%FSLAX46Y46*%
G04 Gerber Fmt 4.6, Leading zero omitted, Abs format (unit mm)*
G04 Created by KiCad (PCBNEW 5.0.0-rc2-dev-unknown-62522ee~64~ubuntu17.10.1) date Sat May  5 21:53:19 2018*
%MOMM*%
%LPD*%
G01*
G04 APERTURE LIST*
%ADD10C,0.010000*%
%ADD11C,2.650000*%
%ADD12C,7.600000*%
%ADD13C,1.197560*%
G04 APERTURE END LIST*
D10*
G36*
X111356279Y-54499202D02*
X111195610Y-54576475D01*
X111015347Y-54727442D01*
X110884126Y-54920896D01*
X110811312Y-55141695D01*
X110802132Y-55212506D01*
X110817559Y-55433335D01*
X110895754Y-55638114D01*
X111028591Y-55815511D01*
X111207946Y-55954188D01*
X111390239Y-56032956D01*
X111528800Y-56067706D01*
X111644590Y-56074594D01*
X111774160Y-56053960D01*
X111841572Y-56037143D01*
X111981081Y-55970859D01*
X112139215Y-55842571D01*
X112166388Y-55816007D01*
X112271020Y-55703540D01*
X112335318Y-55608408D01*
X112374828Y-55504069D01*
X112392160Y-55430574D01*
X112403887Y-55264615D01*
X111753986Y-55264615D01*
X111725450Y-55348885D01*
X111656662Y-55396513D01*
X111572853Y-55398428D01*
X111505697Y-55353888D01*
X111479161Y-55277108D01*
X111484262Y-55211790D01*
X111528776Y-55144108D01*
X111600876Y-55121845D01*
X111677590Y-55140502D01*
X111735946Y-55195580D01*
X111753986Y-55264615D01*
X112403887Y-55264615D01*
X112408404Y-55200708D01*
X112364690Y-54990178D01*
X112270180Y-54805522D01*
X112134033Y-54653279D01*
X111965410Y-54539987D01*
X111773470Y-54472185D01*
X111567373Y-54456410D01*
X111356279Y-54499202D01*
X111356279Y-54499202D01*
G37*
X111356279Y-54499202D02*
X111195610Y-54576475D01*
X111015347Y-54727442D01*
X110884126Y-54920896D01*
X110811312Y-55141695D01*
X110802132Y-55212506D01*
X110817559Y-55433335D01*
X110895754Y-55638114D01*
X111028591Y-55815511D01*
X111207946Y-55954188D01*
X111390239Y-56032956D01*
X111528800Y-56067706D01*
X111644590Y-56074594D01*
X111774160Y-56053960D01*
X111841572Y-56037143D01*
X111981081Y-55970859D01*
X112139215Y-55842571D01*
X112166388Y-55816007D01*
X112271020Y-55703540D01*
X112335318Y-55608408D01*
X112374828Y-55504069D01*
X112392160Y-55430574D01*
X112403887Y-55264615D01*
X111753986Y-55264615D01*
X111725450Y-55348885D01*
X111656662Y-55396513D01*
X111572853Y-55398428D01*
X111505697Y-55353888D01*
X111479161Y-55277108D01*
X111484262Y-55211790D01*
X111528776Y-55144108D01*
X111600876Y-55121845D01*
X111677590Y-55140502D01*
X111735946Y-55195580D01*
X111753986Y-55264615D01*
X112403887Y-55264615D01*
X112408404Y-55200708D01*
X112364690Y-54990178D01*
X112270180Y-54805522D01*
X112134033Y-54653279D01*
X111965410Y-54539987D01*
X111773470Y-54472185D01*
X111567373Y-54456410D01*
X111356279Y-54499202D01*
G36*
X108607363Y-56107025D02*
X108405187Y-56200483D01*
X108240446Y-56344418D01*
X108122025Y-56529952D01*
X108058808Y-56748204D01*
X108050692Y-56859869D01*
X108074772Y-57086677D01*
X108154072Y-57277524D01*
X108275605Y-57429161D01*
X108469551Y-57575890D01*
X108689535Y-57658311D01*
X108927381Y-57674388D01*
X109119948Y-57639589D01*
X109234831Y-57581542D01*
X109361857Y-57479551D01*
X109481793Y-57353417D01*
X109575405Y-57222942D01*
X109619367Y-57125413D01*
X109649453Y-56917715D01*
X108981889Y-56917715D01*
X108959737Y-56981285D01*
X108959394Y-56981632D01*
X108894022Y-57004991D01*
X108807302Y-56994445D01*
X108737232Y-56955149D01*
X108733532Y-56950976D01*
X108704200Y-56873536D01*
X108727315Y-56799778D01*
X108785330Y-56745579D01*
X108860700Y-56726817D01*
X108935877Y-56759370D01*
X108940447Y-56763748D01*
X108974296Y-56831832D01*
X108981889Y-56917715D01*
X109649453Y-56917715D01*
X109655128Y-56878538D01*
X109622194Y-56647633D01*
X109521511Y-56436383D01*
X109406923Y-56297843D01*
X109234927Y-56164329D01*
X109040543Y-56091536D01*
X108838088Y-56072925D01*
X108607363Y-56107025D01*
X108607363Y-56107025D01*
G37*
X108607363Y-56107025D02*
X108405187Y-56200483D01*
X108240446Y-56344418D01*
X108122025Y-56529952D01*
X108058808Y-56748204D01*
X108050692Y-56859869D01*
X108074772Y-57086677D01*
X108154072Y-57277524D01*
X108275605Y-57429161D01*
X108469551Y-57575890D01*
X108689535Y-57658311D01*
X108927381Y-57674388D01*
X109119948Y-57639589D01*
X109234831Y-57581542D01*
X109361857Y-57479551D01*
X109481793Y-57353417D01*
X109575405Y-57222942D01*
X109619367Y-57125413D01*
X109649453Y-56917715D01*
X108981889Y-56917715D01*
X108959737Y-56981285D01*
X108959394Y-56981632D01*
X108894022Y-57004991D01*
X108807302Y-56994445D01*
X108737232Y-56955149D01*
X108733532Y-56950976D01*
X108704200Y-56873536D01*
X108727315Y-56799778D01*
X108785330Y-56745579D01*
X108860700Y-56726817D01*
X108935877Y-56759370D01*
X108940447Y-56763748D01*
X108974296Y-56831832D01*
X108981889Y-56917715D01*
X109649453Y-56917715D01*
X109655128Y-56878538D01*
X109622194Y-56647633D01*
X109521511Y-56436383D01*
X109406923Y-56297843D01*
X109234927Y-56164329D01*
X109040543Y-56091536D01*
X108838088Y-56072925D01*
X108607363Y-56107025D01*
G36*
X111106155Y-56513056D02*
X110920375Y-56521451D01*
X110777812Y-56537299D01*
X110669226Y-56561775D01*
X110585374Y-56596056D01*
X110517017Y-56641316D01*
X110494820Y-56660168D01*
X110443349Y-56722352D01*
X110366152Y-56836111D01*
X110269981Y-56989829D01*
X110161584Y-57171889D01*
X110047714Y-57370674D01*
X109935120Y-57574567D01*
X109830553Y-57771952D01*
X109740764Y-57951211D01*
X109723258Y-57987922D01*
X109625565Y-58229007D01*
X109572224Y-58440276D01*
X109566535Y-58485264D01*
X109559510Y-58597963D01*
X109567764Y-58689605D01*
X109597126Y-58785759D01*
X109653421Y-58911992D01*
X109673018Y-58952547D01*
X109776058Y-59146677D01*
X109902737Y-59358300D01*
X110044149Y-59574960D01*
X110191387Y-59784203D01*
X110335544Y-59973573D01*
X110467713Y-60130615D01*
X110578989Y-60242873D01*
X110618149Y-60274241D01*
X110677055Y-60307169D01*
X110756920Y-60332232D01*
X110871418Y-60352036D01*
X111034229Y-60369185D01*
X111175043Y-60380334D01*
X111400882Y-60394223D01*
X111651928Y-60405478D01*
X111892935Y-60412703D01*
X112040972Y-60414628D01*
X112219117Y-60414237D01*
X112343306Y-60409895D01*
X112430629Y-60398440D01*
X112498173Y-60376711D01*
X112563029Y-60341546D01*
X112613856Y-60308651D01*
X112759560Y-60187586D01*
X112926296Y-60005121D01*
X113110077Y-59766354D01*
X113306917Y-59476384D01*
X113468018Y-59216159D01*
X113595154Y-58995978D01*
X113687936Y-58810318D01*
X113745763Y-58646903D01*
X113768033Y-58493458D01*
X113764862Y-58457887D01*
X113103916Y-58457887D01*
X113099967Y-58502674D01*
X113084967Y-58555912D01*
X113054183Y-58626898D01*
X113002886Y-58724927D01*
X112926343Y-58859294D01*
X112819823Y-59039294D01*
X112741777Y-59169372D01*
X112630100Y-59357161D01*
X112543215Y-59498851D01*
X112468862Y-59600881D01*
X112394783Y-59669691D01*
X112308719Y-59711718D01*
X112198410Y-59733402D01*
X112051597Y-59741182D01*
X111856022Y-59741496D01*
X111654017Y-59740699D01*
X111412998Y-59740111D01*
X111233179Y-59737796D01*
X111104719Y-59732928D01*
X111017774Y-59724683D01*
X110962504Y-59712233D01*
X110929064Y-59694754D01*
X110912932Y-59678532D01*
X110857727Y-59603926D01*
X110774477Y-59485021D01*
X110673547Y-59337287D01*
X110565305Y-59176194D01*
X110460116Y-59017212D01*
X110368347Y-58875813D01*
X110300366Y-58767465D01*
X110283684Y-58739483D01*
X110186912Y-58573092D01*
X110265941Y-58384238D01*
X110311127Y-58286951D01*
X110383310Y-58143928D01*
X110474187Y-57971096D01*
X110575457Y-57784378D01*
X110628305Y-57689161D01*
X110911642Y-57182937D01*
X111612219Y-57182937D01*
X111854257Y-57183425D01*
X112035738Y-57185518D01*
X112167149Y-57190157D01*
X112258981Y-57198283D01*
X112321720Y-57210840D01*
X112365855Y-57228768D01*
X112401876Y-57253010D01*
X112403083Y-57253957D01*
X112453217Y-57310290D01*
X112527254Y-57414664D01*
X112617858Y-57554476D01*
X112717692Y-57717122D01*
X112819418Y-57889998D01*
X112915701Y-58060501D01*
X112999202Y-58216027D01*
X113062585Y-58343972D01*
X113098513Y-58431731D01*
X113103916Y-58457887D01*
X113764862Y-58457887D01*
X113754145Y-58337708D01*
X113703498Y-58167379D01*
X113615490Y-57970194D01*
X113489520Y-57733880D01*
X113386530Y-57552665D01*
X113237089Y-57298573D01*
X113111145Y-57099172D01*
X113001028Y-56945306D01*
X112899065Y-56827820D01*
X112797587Y-56737557D01*
X112688922Y-56665362D01*
X112606573Y-56621702D01*
X112539918Y-56590063D01*
X112478647Y-56566090D01*
X112411594Y-56548534D01*
X112327592Y-56536144D01*
X112215473Y-56527668D01*
X112064071Y-56521857D01*
X111862218Y-56517458D01*
X111644331Y-56513922D01*
X111344393Y-56510938D01*
X111106155Y-56513056D01*
X111106155Y-56513056D01*
G37*
X111106155Y-56513056D02*
X110920375Y-56521451D01*
X110777812Y-56537299D01*
X110669226Y-56561775D01*
X110585374Y-56596056D01*
X110517017Y-56641316D01*
X110494820Y-56660168D01*
X110443349Y-56722352D01*
X110366152Y-56836111D01*
X110269981Y-56989829D01*
X110161584Y-57171889D01*
X110047714Y-57370674D01*
X109935120Y-57574567D01*
X109830553Y-57771952D01*
X109740764Y-57951211D01*
X109723258Y-57987922D01*
X109625565Y-58229007D01*
X109572224Y-58440276D01*
X109566535Y-58485264D01*
X109559510Y-58597963D01*
X109567764Y-58689605D01*
X109597126Y-58785759D01*
X109653421Y-58911992D01*
X109673018Y-58952547D01*
X109776058Y-59146677D01*
X109902737Y-59358300D01*
X110044149Y-59574960D01*
X110191387Y-59784203D01*
X110335544Y-59973573D01*
X110467713Y-60130615D01*
X110578989Y-60242873D01*
X110618149Y-60274241D01*
X110677055Y-60307169D01*
X110756920Y-60332232D01*
X110871418Y-60352036D01*
X111034229Y-60369185D01*
X111175043Y-60380334D01*
X111400882Y-60394223D01*
X111651928Y-60405478D01*
X111892935Y-60412703D01*
X112040972Y-60414628D01*
X112219117Y-60414237D01*
X112343306Y-60409895D01*
X112430629Y-60398440D01*
X112498173Y-60376711D01*
X112563029Y-60341546D01*
X112613856Y-60308651D01*
X112759560Y-60187586D01*
X112926296Y-60005121D01*
X113110077Y-59766354D01*
X113306917Y-59476384D01*
X113468018Y-59216159D01*
X113595154Y-58995978D01*
X113687936Y-58810318D01*
X113745763Y-58646903D01*
X113768033Y-58493458D01*
X113764862Y-58457887D01*
X113103916Y-58457887D01*
X113099967Y-58502674D01*
X113084967Y-58555912D01*
X113054183Y-58626898D01*
X113002886Y-58724927D01*
X112926343Y-58859294D01*
X112819823Y-59039294D01*
X112741777Y-59169372D01*
X112630100Y-59357161D01*
X112543215Y-59498851D01*
X112468862Y-59600881D01*
X112394783Y-59669691D01*
X112308719Y-59711718D01*
X112198410Y-59733402D01*
X112051597Y-59741182D01*
X111856022Y-59741496D01*
X111654017Y-59740699D01*
X111412998Y-59740111D01*
X111233179Y-59737796D01*
X111104719Y-59732928D01*
X111017774Y-59724683D01*
X110962504Y-59712233D01*
X110929064Y-59694754D01*
X110912932Y-59678532D01*
X110857727Y-59603926D01*
X110774477Y-59485021D01*
X110673547Y-59337287D01*
X110565305Y-59176194D01*
X110460116Y-59017212D01*
X110368347Y-58875813D01*
X110300366Y-58767465D01*
X110283684Y-58739483D01*
X110186912Y-58573092D01*
X110265941Y-58384238D01*
X110311127Y-58286951D01*
X110383310Y-58143928D01*
X110474187Y-57971096D01*
X110575457Y-57784378D01*
X110628305Y-57689161D01*
X110911642Y-57182937D01*
X111612219Y-57182937D01*
X111854257Y-57183425D01*
X112035738Y-57185518D01*
X112167149Y-57190157D01*
X112258981Y-57198283D01*
X112321720Y-57210840D01*
X112365855Y-57228768D01*
X112401876Y-57253010D01*
X112403083Y-57253957D01*
X112453217Y-57310290D01*
X112527254Y-57414664D01*
X112617858Y-57554476D01*
X112717692Y-57717122D01*
X112819418Y-57889998D01*
X112915701Y-58060501D01*
X112999202Y-58216027D01*
X113062585Y-58343972D01*
X113098513Y-58431731D01*
X113103916Y-58457887D01*
X113764862Y-58457887D01*
X113754145Y-58337708D01*
X113703498Y-58167379D01*
X113615490Y-57970194D01*
X113489520Y-57733880D01*
X113386530Y-57552665D01*
X113237089Y-57298573D01*
X113111145Y-57099172D01*
X113001028Y-56945306D01*
X112899065Y-56827820D01*
X112797587Y-56737557D01*
X112688922Y-56665362D01*
X112606573Y-56621702D01*
X112539918Y-56590063D01*
X112478647Y-56566090D01*
X112411594Y-56548534D01*
X112327592Y-56536144D01*
X112215473Y-56527668D01*
X112064071Y-56521857D01*
X111862218Y-56517458D01*
X111644331Y-56513922D01*
X111344393Y-56510938D01*
X111106155Y-56513056D01*
G36*
X108525979Y-59374613D02*
X108334319Y-59485308D01*
X108176037Y-59649606D01*
X108091407Y-59793986D01*
X108035905Y-59991819D01*
X108035484Y-60207770D01*
X108086984Y-60419266D01*
X108187246Y-60603731D01*
X108208471Y-60630257D01*
X108382160Y-60783038D01*
X108590761Y-60881450D01*
X108817739Y-60919480D01*
X108972542Y-60908068D01*
X109191829Y-60838450D01*
X109368940Y-60721296D01*
X109502348Y-60567345D01*
X109590526Y-60387332D01*
X109631947Y-60191997D01*
X109630354Y-60145596D01*
X108974517Y-60145596D01*
X108927253Y-60217742D01*
X108864870Y-60266169D01*
X108807861Y-60260685D01*
X108755584Y-60227171D01*
X108702822Y-60154538D01*
X108707022Y-60075208D01*
X108761394Y-60013849D01*
X108819362Y-59995407D01*
X108919432Y-60009057D01*
X108974101Y-60065200D01*
X108974517Y-60145596D01*
X109630354Y-60145596D01*
X109625083Y-59992075D01*
X109568407Y-59798305D01*
X109460391Y-59621423D01*
X109299509Y-59472167D01*
X109186357Y-59404953D01*
X108963486Y-59330354D01*
X108739531Y-59321601D01*
X108525979Y-59374613D01*
X108525979Y-59374613D01*
G37*
X108525979Y-59374613D02*
X108334319Y-59485308D01*
X108176037Y-59649606D01*
X108091407Y-59793986D01*
X108035905Y-59991819D01*
X108035484Y-60207770D01*
X108086984Y-60419266D01*
X108187246Y-60603731D01*
X108208471Y-60630257D01*
X108382160Y-60783038D01*
X108590761Y-60881450D01*
X108817739Y-60919480D01*
X108972542Y-60908068D01*
X109191829Y-60838450D01*
X109368940Y-60721296D01*
X109502348Y-60567345D01*
X109590526Y-60387332D01*
X109631947Y-60191997D01*
X109630354Y-60145596D01*
X108974517Y-60145596D01*
X108927253Y-60217742D01*
X108864870Y-60266169D01*
X108807861Y-60260685D01*
X108755584Y-60227171D01*
X108702822Y-60154538D01*
X108707022Y-60075208D01*
X108761394Y-60013849D01*
X108819362Y-59995407D01*
X108919432Y-60009057D01*
X108974101Y-60065200D01*
X108974517Y-60145596D01*
X109630354Y-60145596D01*
X109625083Y-59992075D01*
X109568407Y-59798305D01*
X109460391Y-59621423D01*
X109299509Y-59472167D01*
X109186357Y-59404953D01*
X108963486Y-59330354D01*
X108739531Y-59321601D01*
X108525979Y-59374613D01*
G36*
X111469569Y-60893710D02*
X111271208Y-60970360D01*
X111094557Y-61101747D01*
X110982513Y-61237986D01*
X110908520Y-61400645D01*
X110870090Y-61595020D01*
X110869497Y-61793313D01*
X110909013Y-61967724D01*
X110920636Y-61994596D01*
X111046670Y-62185772D01*
X111215176Y-62332778D01*
X111412911Y-62430452D01*
X111626629Y-62473634D01*
X111843086Y-62457162D01*
X111984895Y-62409339D01*
X112185316Y-62281663D01*
X112334252Y-62112412D01*
X112427743Y-61912820D01*
X112461833Y-61694123D01*
X112459927Y-61679368D01*
X111789510Y-61679368D01*
X111763575Y-61766410D01*
X111700598Y-61809918D01*
X111622820Y-61805515D01*
X111552482Y-61748826D01*
X111539980Y-61728464D01*
X111522032Y-61634653D01*
X111566156Y-61559786D01*
X111616874Y-61533103D01*
X111704578Y-61536212D01*
X111768234Y-61594325D01*
X111789510Y-61679368D01*
X112459927Y-61679368D01*
X112432565Y-61467557D01*
X112372123Y-61310022D01*
X112243025Y-61122200D01*
X112076367Y-60986043D01*
X111884002Y-60902166D01*
X111677785Y-60871184D01*
X111469569Y-60893710D01*
X111469569Y-60893710D01*
G37*
X111469569Y-60893710D02*
X111271208Y-60970360D01*
X111094557Y-61101747D01*
X110982513Y-61237986D01*
X110908520Y-61400645D01*
X110870090Y-61595020D01*
X110869497Y-61793313D01*
X110909013Y-61967724D01*
X110920636Y-61994596D01*
X111046670Y-62185772D01*
X111215176Y-62332778D01*
X111412911Y-62430452D01*
X111626629Y-62473634D01*
X111843086Y-62457162D01*
X111984895Y-62409339D01*
X112185316Y-62281663D01*
X112334252Y-62112412D01*
X112427743Y-61912820D01*
X112461833Y-61694123D01*
X112459927Y-61679368D01*
X111789510Y-61679368D01*
X111763575Y-61766410D01*
X111700598Y-61809918D01*
X111622820Y-61805515D01*
X111552482Y-61748826D01*
X111539980Y-61728464D01*
X111522032Y-61634653D01*
X111566156Y-61559786D01*
X111616874Y-61533103D01*
X111704578Y-61536212D01*
X111768234Y-61594325D01*
X111789510Y-61679368D01*
X112459927Y-61679368D01*
X112432565Y-61467557D01*
X112372123Y-61310022D01*
X112243025Y-61122200D01*
X112076367Y-60986043D01*
X111884002Y-60902166D01*
X111677785Y-60871184D01*
X111469569Y-60893710D01*
G36*
X114323412Y-62441825D02*
X114201995Y-62474188D01*
X114104871Y-62522515D01*
X114005485Y-62602357D01*
X113938032Y-62667545D01*
X113826285Y-62790077D01*
X113757073Y-62898226D01*
X113714391Y-63017873D01*
X113709681Y-63036766D01*
X113688656Y-63267614D01*
X113732950Y-63488774D01*
X113836872Y-63688261D01*
X113994730Y-63854087D01*
X114142263Y-63947751D01*
X114360077Y-64024118D01*
X114574616Y-64031391D01*
X114795422Y-63969655D01*
X114831010Y-63953826D01*
X115020708Y-63830212D01*
X115165913Y-63663980D01*
X115261396Y-63468421D01*
X115301923Y-63256825D01*
X115297864Y-63212565D01*
X114622296Y-63212565D01*
X114616434Y-63277163D01*
X114584268Y-63344567D01*
X114520318Y-63359389D01*
X114500596Y-63357555D01*
X114415303Y-63326609D01*
X114368800Y-63284266D01*
X114351435Y-63205997D01*
X114385322Y-63138482D01*
X114450711Y-63095142D01*
X114527854Y-63089399D01*
X114594138Y-63131111D01*
X114622296Y-63212565D01*
X115297864Y-63212565D01*
X115282265Y-63042482D01*
X115239032Y-62917269D01*
X115111058Y-62714160D01*
X114939681Y-62560561D01*
X114735820Y-62462143D01*
X114510395Y-62424577D01*
X114323412Y-62441825D01*
X114323412Y-62441825D01*
G37*
X114323412Y-62441825D02*
X114201995Y-62474188D01*
X114104871Y-62522515D01*
X114005485Y-62602357D01*
X113938032Y-62667545D01*
X113826285Y-62790077D01*
X113757073Y-62898226D01*
X113714391Y-63017873D01*
X113709681Y-63036766D01*
X113688656Y-63267614D01*
X113732950Y-63488774D01*
X113836872Y-63688261D01*
X113994730Y-63854087D01*
X114142263Y-63947751D01*
X114360077Y-64024118D01*
X114574616Y-64031391D01*
X114795422Y-63969655D01*
X114831010Y-63953826D01*
X115020708Y-63830212D01*
X115165913Y-63663980D01*
X115261396Y-63468421D01*
X115301923Y-63256825D01*
X115297864Y-63212565D01*
X114622296Y-63212565D01*
X114616434Y-63277163D01*
X114584268Y-63344567D01*
X114520318Y-63359389D01*
X114500596Y-63357555D01*
X114415303Y-63326609D01*
X114368800Y-63284266D01*
X114351435Y-63205997D01*
X114385322Y-63138482D01*
X114450711Y-63095142D01*
X114527854Y-63089399D01*
X114594138Y-63131111D01*
X114622296Y-63212565D01*
X115297864Y-63212565D01*
X115282265Y-63042482D01*
X115239032Y-62917269D01*
X115111058Y-62714160D01*
X114939681Y-62560561D01*
X114735820Y-62462143D01*
X114510395Y-62424577D01*
X114323412Y-62441825D01*
G36*
X105641904Y-50462025D02*
X105535140Y-50535370D01*
X105457731Y-50634019D01*
X105430629Y-50730896D01*
X105454350Y-50885845D01*
X105521392Y-51080446D01*
X105625574Y-51303385D01*
X105760714Y-51543350D01*
X105920630Y-51789027D01*
X106099141Y-52029103D01*
X106218040Y-52172006D01*
X106512766Y-52488502D01*
X106819144Y-52771906D01*
X107147114Y-53028798D01*
X107506615Y-53265759D01*
X107907586Y-53489366D01*
X108359966Y-53706201D01*
X108846369Y-53911901D01*
X109045411Y-53990443D01*
X109191671Y-54043497D01*
X109297623Y-54073672D01*
X109375743Y-54083580D01*
X109438503Y-54075831D01*
X109498379Y-54053035D01*
X109505196Y-54049783D01*
X109573157Y-53992584D01*
X109634575Y-53903502D01*
X109639447Y-53893661D01*
X109673966Y-53804105D01*
X109672094Y-53730297D01*
X109644001Y-53651678D01*
X109615875Y-53595496D01*
X109576631Y-53546337D01*
X109516822Y-53498642D01*
X109427000Y-53446853D01*
X109297718Y-53385412D01*
X109119529Y-53308762D01*
X108924041Y-53228104D01*
X108399081Y-52996091D01*
X107937399Y-52753525D01*
X107531413Y-52495046D01*
X107173539Y-52215296D01*
X106856197Y-51908913D01*
X106571805Y-51570539D01*
X106563170Y-51559131D01*
X106465550Y-51420407D01*
X106364100Y-51260529D01*
X106266653Y-51093803D01*
X106181044Y-50934535D01*
X106115105Y-50797031D01*
X106076672Y-50695598D01*
X106070070Y-50658632D01*
X106039480Y-50587645D01*
X105962979Y-50515463D01*
X105863473Y-50458565D01*
X105763867Y-50433432D01*
X105756861Y-50433287D01*
X105641904Y-50462025D01*
X105641904Y-50462025D01*
G37*
X105641904Y-50462025D02*
X105535140Y-50535370D01*
X105457731Y-50634019D01*
X105430629Y-50730896D01*
X105454350Y-50885845D01*
X105521392Y-51080446D01*
X105625574Y-51303385D01*
X105760714Y-51543350D01*
X105920630Y-51789027D01*
X106099141Y-52029103D01*
X106218040Y-52172006D01*
X106512766Y-52488502D01*
X106819144Y-52771906D01*
X107147114Y-53028798D01*
X107506615Y-53265759D01*
X107907586Y-53489366D01*
X108359966Y-53706201D01*
X108846369Y-53911901D01*
X109045411Y-53990443D01*
X109191671Y-54043497D01*
X109297623Y-54073672D01*
X109375743Y-54083580D01*
X109438503Y-54075831D01*
X109498379Y-54053035D01*
X109505196Y-54049783D01*
X109573157Y-53992584D01*
X109634575Y-53903502D01*
X109639447Y-53893661D01*
X109673966Y-53804105D01*
X109672094Y-53730297D01*
X109644001Y-53651678D01*
X109615875Y-53595496D01*
X109576631Y-53546337D01*
X109516822Y-53498642D01*
X109427000Y-53446853D01*
X109297718Y-53385412D01*
X109119529Y-53308762D01*
X108924041Y-53228104D01*
X108399081Y-52996091D01*
X107937399Y-52753525D01*
X107531413Y-52495046D01*
X107173539Y-52215296D01*
X106856197Y-51908913D01*
X106571805Y-51570539D01*
X106563170Y-51559131D01*
X106465550Y-51420407D01*
X106364100Y-51260529D01*
X106266653Y-51093803D01*
X106181044Y-50934535D01*
X106115105Y-50797031D01*
X106076672Y-50695598D01*
X106070070Y-50658632D01*
X106039480Y-50587645D01*
X105962979Y-50515463D01*
X105863473Y-50458565D01*
X105763867Y-50433432D01*
X105756861Y-50433287D01*
X105641904Y-50462025D01*
G36*
X115034654Y-51750751D02*
X114948456Y-51816009D01*
X114881075Y-51899134D01*
X114850908Y-51987900D01*
X114855624Y-52101688D01*
X114892890Y-52259875D01*
X114894407Y-52265231D01*
X114952556Y-52499857D01*
X114977274Y-52679362D01*
X114969526Y-52810795D01*
X114969264Y-52812000D01*
X114956420Y-52847817D01*
X114928966Y-52882927D01*
X114878611Y-52922215D01*
X114797063Y-52970564D01*
X114676034Y-53032860D01*
X114507231Y-53113986D01*
X114282365Y-53218827D01*
X114265487Y-53226636D01*
X114036675Y-53333136D01*
X113863784Y-53415893D01*
X113737899Y-53480222D01*
X113650105Y-53531437D01*
X113591487Y-53574851D01*
X113553131Y-53615777D01*
X113526121Y-53659530D01*
X113520522Y-53670662D01*
X113481235Y-53807130D01*
X113508141Y-53930646D01*
X113603463Y-54051203D01*
X113605781Y-54053372D01*
X113721629Y-54114640D01*
X113868613Y-54116822D01*
X114027552Y-54064728D01*
X114375043Y-53900721D01*
X114663925Y-53762959D01*
X114900002Y-53647696D01*
X115089076Y-53551189D01*
X115236949Y-53469694D01*
X115349424Y-53399469D01*
X115432303Y-53336768D01*
X115491390Y-53277848D01*
X115532485Y-53218966D01*
X115561392Y-53156377D01*
X115583913Y-53086339D01*
X115592541Y-53054998D01*
X115623639Y-52849966D01*
X115622676Y-52605344D01*
X115591792Y-52343814D01*
X115533127Y-52088062D01*
X115488768Y-51955370D01*
X115407027Y-51818962D01*
X115294768Y-51736984D01*
X115165980Y-51713044D01*
X115034654Y-51750751D01*
X115034654Y-51750751D01*
G37*
X115034654Y-51750751D02*
X114948456Y-51816009D01*
X114881075Y-51899134D01*
X114850908Y-51987900D01*
X114855624Y-52101688D01*
X114892890Y-52259875D01*
X114894407Y-52265231D01*
X114952556Y-52499857D01*
X114977274Y-52679362D01*
X114969526Y-52810795D01*
X114969264Y-52812000D01*
X114956420Y-52847817D01*
X114928966Y-52882927D01*
X114878611Y-52922215D01*
X114797063Y-52970564D01*
X114676034Y-53032860D01*
X114507231Y-53113986D01*
X114282365Y-53218827D01*
X114265487Y-53226636D01*
X114036675Y-53333136D01*
X113863784Y-53415893D01*
X113737899Y-53480222D01*
X113650105Y-53531437D01*
X113591487Y-53574851D01*
X113553131Y-53615777D01*
X113526121Y-53659530D01*
X113520522Y-53670662D01*
X113481235Y-53807130D01*
X113508141Y-53930646D01*
X113603463Y-54051203D01*
X113605781Y-54053372D01*
X113721629Y-54114640D01*
X113868613Y-54116822D01*
X114027552Y-54064728D01*
X114375043Y-53900721D01*
X114663925Y-53762959D01*
X114900002Y-53647696D01*
X115089076Y-53551189D01*
X115236949Y-53469694D01*
X115349424Y-53399469D01*
X115432303Y-53336768D01*
X115491390Y-53277848D01*
X115532485Y-53218966D01*
X115561392Y-53156377D01*
X115583913Y-53086339D01*
X115592541Y-53054998D01*
X115623639Y-52849966D01*
X115622676Y-52605344D01*
X115591792Y-52343814D01*
X115533127Y-52088062D01*
X115488768Y-51955370D01*
X115407027Y-51818962D01*
X115294768Y-51736984D01*
X115165980Y-51713044D01*
X115034654Y-51750751D01*
G36*
X119697520Y-60199804D02*
X119578717Y-60287566D01*
X119478061Y-60414269D01*
X119406417Y-60563905D01*
X119374651Y-60720466D01*
X119380743Y-60819464D01*
X119414172Y-60940071D01*
X119468040Y-61077781D01*
X119532659Y-61212910D01*
X119598344Y-61325775D01*
X119655408Y-61396691D01*
X119669918Y-61407125D01*
X119796406Y-61442558D01*
X119931634Y-61432192D01*
X120018388Y-61394002D01*
X120117310Y-61287642D01*
X120154064Y-61149532D01*
X120129120Y-60977619D01*
X120120193Y-60949112D01*
X120086618Y-60836917D01*
X120078562Y-60758729D01*
X120095615Y-60682405D01*
X120116099Y-60628201D01*
X120144213Y-60479075D01*
X120113119Y-60344750D01*
X120031851Y-60239473D01*
X119909446Y-60177491D01*
X119823605Y-60166993D01*
X119697520Y-60199804D01*
X119697520Y-60199804D01*
G37*
X119697520Y-60199804D02*
X119578717Y-60287566D01*
X119478061Y-60414269D01*
X119406417Y-60563905D01*
X119374651Y-60720466D01*
X119380743Y-60819464D01*
X119414172Y-60940071D01*
X119468040Y-61077781D01*
X119532659Y-61212910D01*
X119598344Y-61325775D01*
X119655408Y-61396691D01*
X119669918Y-61407125D01*
X119796406Y-61442558D01*
X119931634Y-61432192D01*
X120018388Y-61394002D01*
X120117310Y-61287642D01*
X120154064Y-61149532D01*
X120129120Y-60977619D01*
X120120193Y-60949112D01*
X120086618Y-60836917D01*
X120078562Y-60758729D01*
X120095615Y-60682405D01*
X120116099Y-60628201D01*
X120144213Y-60479075D01*
X120113119Y-60344750D01*
X120031851Y-60239473D01*
X119909446Y-60177491D01*
X119823605Y-60166993D01*
X119697520Y-60199804D01*
G36*
X106786687Y-62453328D02*
X106666931Y-62487558D01*
X106584462Y-62552409D01*
X106531180Y-62659813D01*
X106498986Y-62821703D01*
X106491727Y-62887889D01*
X106466242Y-63064642D01*
X106420556Y-63227958D01*
X106345201Y-63409691D01*
X106322132Y-63458582D01*
X106186241Y-63714716D01*
X106024584Y-63975319D01*
X105845907Y-64229533D01*
X105658953Y-64466501D01*
X105472469Y-64675364D01*
X105295200Y-64845265D01*
X105135891Y-64965345D01*
X105085681Y-64993752D01*
X104972802Y-65039983D01*
X104853856Y-65062247D01*
X104712726Y-65060660D01*
X104533295Y-65035337D01*
X104355580Y-64999006D01*
X103779228Y-64838940D01*
X103200577Y-64614290D01*
X102997203Y-64519933D01*
X102702022Y-64362221D01*
X102475793Y-64207978D01*
X102316594Y-64055671D01*
X102222504Y-63903766D01*
X102221273Y-63900722D01*
X102135683Y-63758467D01*
X102022582Y-63672012D01*
X101894494Y-63644537D01*
X101763943Y-63679218D01*
X101661525Y-63758722D01*
X101587436Y-63860318D01*
X101563370Y-63964583D01*
X101588208Y-64090196D01*
X101634920Y-64202595D01*
X101761098Y-64400564D01*
X101949194Y-64599150D01*
X102190255Y-64794016D01*
X102475322Y-64980823D01*
X102795439Y-65155235D01*
X103141650Y-65312912D01*
X103505000Y-65449519D01*
X103876530Y-65560717D01*
X104247285Y-65642168D01*
X104608309Y-65689535D01*
X104720140Y-65696777D01*
X104897428Y-65704361D01*
X105021693Y-65705649D01*
X105110859Y-65698175D01*
X105182848Y-65679479D01*
X105255582Y-65647095D01*
X105316929Y-65614753D01*
X105473463Y-65522013D01*
X105622567Y-65413501D01*
X105777676Y-65277791D01*
X105952225Y-65103458D01*
X106083652Y-64962729D01*
X106415002Y-64563295D01*
X106697864Y-64137239D01*
X106869301Y-63823510D01*
X107004369Y-63529470D01*
X107092448Y-63269004D01*
X107138033Y-63026725D01*
X107146995Y-62872855D01*
X107145492Y-62745427D01*
X107132323Y-62664447D01*
X107098982Y-62605385D01*
X107036965Y-62543710D01*
X107031026Y-62538389D01*
X106943001Y-62470793D01*
X106866238Y-62447348D01*
X106786687Y-62453328D01*
X106786687Y-62453328D01*
G37*
X106786687Y-62453328D02*
X106666931Y-62487558D01*
X106584462Y-62552409D01*
X106531180Y-62659813D01*
X106498986Y-62821703D01*
X106491727Y-62887889D01*
X106466242Y-63064642D01*
X106420556Y-63227958D01*
X106345201Y-63409691D01*
X106322132Y-63458582D01*
X106186241Y-63714716D01*
X106024584Y-63975319D01*
X105845907Y-64229533D01*
X105658953Y-64466501D01*
X105472469Y-64675364D01*
X105295200Y-64845265D01*
X105135891Y-64965345D01*
X105085681Y-64993752D01*
X104972802Y-65039983D01*
X104853856Y-65062247D01*
X104712726Y-65060660D01*
X104533295Y-65035337D01*
X104355580Y-64999006D01*
X103779228Y-64838940D01*
X103200577Y-64614290D01*
X102997203Y-64519933D01*
X102702022Y-64362221D01*
X102475793Y-64207978D01*
X102316594Y-64055671D01*
X102222504Y-63903766D01*
X102221273Y-63900722D01*
X102135683Y-63758467D01*
X102022582Y-63672012D01*
X101894494Y-63644537D01*
X101763943Y-63679218D01*
X101661525Y-63758722D01*
X101587436Y-63860318D01*
X101563370Y-63964583D01*
X101588208Y-64090196D01*
X101634920Y-64202595D01*
X101761098Y-64400564D01*
X101949194Y-64599150D01*
X102190255Y-64794016D01*
X102475322Y-64980823D01*
X102795439Y-65155235D01*
X103141650Y-65312912D01*
X103505000Y-65449519D01*
X103876530Y-65560717D01*
X104247285Y-65642168D01*
X104608309Y-65689535D01*
X104720140Y-65696777D01*
X104897428Y-65704361D01*
X105021693Y-65705649D01*
X105110859Y-65698175D01*
X105182848Y-65679479D01*
X105255582Y-65647095D01*
X105316929Y-65614753D01*
X105473463Y-65522013D01*
X105622567Y-65413501D01*
X105777676Y-65277791D01*
X105952225Y-65103458D01*
X106083652Y-64962729D01*
X106415002Y-64563295D01*
X106697864Y-64137239D01*
X106869301Y-63823510D01*
X107004369Y-63529470D01*
X107092448Y-63269004D01*
X107138033Y-63026725D01*
X107146995Y-62872855D01*
X107145492Y-62745427D01*
X107132323Y-62664447D01*
X107098982Y-62605385D01*
X107036965Y-62543710D01*
X107031026Y-62538389D01*
X106943001Y-62470793D01*
X106866238Y-62447348D01*
X106786687Y-62453328D01*
G36*
X111077849Y-42034788D02*
X110772632Y-42128853D01*
X110530537Y-42258658D01*
X110408384Y-42377020D01*
X110310951Y-42544164D01*
X110247765Y-42739465D01*
X110228089Y-42913315D01*
X110237057Y-43060657D01*
X110273945Y-43167614D01*
X110348776Y-43242989D01*
X110471576Y-43295583D01*
X110652369Y-43334201D01*
X110718906Y-43344304D01*
X110853290Y-43365028D01*
X110935249Y-43386043D01*
X110982787Y-43417025D01*
X111013906Y-43467652D01*
X111032804Y-43513039D01*
X111063624Y-43603734D01*
X111061547Y-43664547D01*
X111024603Y-43729560D01*
X111019912Y-43736204D01*
X110961102Y-43798783D01*
X110889430Y-43815760D01*
X110830349Y-43810288D01*
X110630323Y-43782406D01*
X110487166Y-43765769D01*
X110387457Y-43761292D01*
X110317771Y-43769889D01*
X110264685Y-43792476D01*
X110214775Y-43829967D01*
X110187361Y-43854099D01*
X110066573Y-43962042D01*
X110067368Y-44319633D01*
X110068162Y-44677223D01*
X110244990Y-44857427D01*
X110503781Y-45073591D01*
X110790112Y-45228643D01*
X111095114Y-45322483D01*
X111409920Y-45355012D01*
X111725661Y-45326129D01*
X112033470Y-45235735D01*
X112324478Y-45083728D01*
X112575680Y-44883715D01*
X112756345Y-44710494D01*
X115869781Y-45158530D01*
X116466488Y-45244752D01*
X116995198Y-45321921D01*
X117458335Y-45390419D01*
X117858321Y-45450630D01*
X118197580Y-45502937D01*
X118478534Y-45547723D01*
X118703606Y-45585372D01*
X118875220Y-45616267D01*
X118995798Y-45640791D01*
X119067763Y-45659327D01*
X119088533Y-45667686D01*
X119180681Y-45742539D01*
X119258330Y-45839274D01*
X119260502Y-45842933D01*
X119282333Y-45899634D01*
X119319168Y-46018093D01*
X119369037Y-46191075D01*
X119429969Y-46411347D01*
X119499995Y-46671674D01*
X119577145Y-46964823D01*
X119659448Y-47283560D01*
X119744936Y-47620651D01*
X119748707Y-47635662D01*
X119834742Y-47977668D01*
X119917439Y-48305304D01*
X119994811Y-48610768D01*
X120064868Y-48886255D01*
X120125621Y-49123963D01*
X120175081Y-49316088D01*
X120211259Y-49454826D01*
X120232057Y-49531987D01*
X120293854Y-49749707D01*
X120180264Y-49980441D01*
X120136091Y-50060275D01*
X120060473Y-50186032D01*
X119958838Y-50349447D01*
X119836613Y-50542255D01*
X119699227Y-50756189D01*
X119552107Y-50982984D01*
X119400682Y-51214375D01*
X119250378Y-51442096D01*
X119106625Y-51657881D01*
X118974849Y-51853464D01*
X118860478Y-52020580D01*
X118768941Y-52150964D01*
X118705666Y-52236349D01*
X118678826Y-52266873D01*
X118620891Y-52284577D01*
X118511891Y-52297341D01*
X118371653Y-52304892D01*
X118220006Y-52306960D01*
X118076781Y-52303273D01*
X117961805Y-52293560D01*
X117895016Y-52277605D01*
X117849784Y-52223376D01*
X117820547Y-52134587D01*
X117820034Y-52131244D01*
X117818357Y-52065246D01*
X117838277Y-51994514D01*
X117886882Y-51903236D01*
X117971262Y-51775600D01*
X117994264Y-51742591D01*
X118178968Y-51449842D01*
X118339964Y-51137509D01*
X118467627Y-50826684D01*
X118552326Y-50538456D01*
X118559560Y-50504336D01*
X118602712Y-50163331D01*
X118606702Y-49763846D01*
X118571586Y-49306648D01*
X118497418Y-48792502D01*
X118398685Y-48287980D01*
X118355898Y-48107718D01*
X118312097Y-47972467D01*
X118256758Y-47856830D01*
X118179357Y-47735409D01*
X118155790Y-47701826D01*
X118061568Y-47580145D01*
X117933728Y-47429975D01*
X117790172Y-47271757D01*
X117669071Y-47146116D01*
X117510482Y-46992336D01*
X117375181Y-46876285D01*
X117240758Y-46781292D01*
X117084802Y-46690684D01*
X116989906Y-46640870D01*
X116577352Y-46448763D01*
X116178898Y-46306666D01*
X115777202Y-46210874D01*
X115354922Y-46157678D01*
X114894716Y-46143372D01*
X114684755Y-46148112D01*
X114129456Y-46191114D01*
X113624652Y-46279450D01*
X113164401Y-46415293D01*
X112742763Y-46600819D01*
X112353795Y-46838200D01*
X111991556Y-47129610D01*
X111984572Y-47135977D01*
X111897963Y-47218871D01*
X111773619Y-47342967D01*
X111622156Y-47497410D01*
X111454193Y-47671344D01*
X111280347Y-47853916D01*
X111226469Y-47911049D01*
X111043379Y-48103614D01*
X110853609Y-48299574D01*
X110670265Y-48485653D01*
X110506451Y-48648572D01*
X110375271Y-48775054D01*
X110355377Y-48793630D01*
X109953542Y-49132351D01*
X109545343Y-49410798D01*
X109134552Y-49627781D01*
X108724942Y-49782112D01*
X108320285Y-49872600D01*
X107924352Y-49898058D01*
X107540915Y-49857296D01*
X107242377Y-49775025D01*
X107031706Y-49688441D01*
X106800313Y-49574787D01*
X106569747Y-49446151D01*
X106361559Y-49314622D01*
X106197302Y-49192290D01*
X106185336Y-49182081D01*
X106086608Y-49102203D01*
X106014050Y-49063162D01*
X105944055Y-49055095D01*
X105894987Y-49060776D01*
X105757760Y-49113533D01*
X105661939Y-49211026D01*
X105614197Y-49336396D01*
X105621206Y-49472780D01*
X105683351Y-49595543D01*
X105795586Y-49708531D01*
X105961238Y-49836511D01*
X106166461Y-49971590D01*
X106397409Y-50105874D01*
X106640235Y-50231472D01*
X106881094Y-50340490D01*
X107106140Y-50425036D01*
X107176847Y-50446878D01*
X107623171Y-50540553D01*
X108070623Y-50563831D01*
X108521437Y-50516645D01*
X108977846Y-50398927D01*
X109000839Y-50391193D01*
X109286958Y-50284702D01*
X109557981Y-50163048D01*
X109820845Y-50021027D01*
X110082489Y-49853435D01*
X110349851Y-49655070D01*
X110629870Y-49420727D01*
X110929483Y-49145203D01*
X111255629Y-48823293D01*
X111615247Y-48449795D01*
X111677475Y-48383708D01*
X111927320Y-48119957D01*
X112138213Y-47903233D01*
X112317730Y-47726864D01*
X112473444Y-47584181D01*
X112612930Y-47468513D01*
X112743761Y-47373191D01*
X112873513Y-47291544D01*
X112991860Y-47226210D01*
X113307009Y-47076677D01*
X113617394Y-46963812D01*
X113937829Y-46884680D01*
X114283124Y-46836345D01*
X114668091Y-46815871D01*
X115048955Y-46818499D01*
X115285368Y-46826581D01*
X115467959Y-46836953D01*
X115613953Y-46851744D01*
X115740578Y-46873080D01*
X115865059Y-46903089D01*
X115963636Y-46931442D01*
X116218367Y-47018972D01*
X116476814Y-47127302D01*
X116720671Y-47247420D01*
X116931630Y-47370310D01*
X117090622Y-47486304D01*
X117195890Y-47586122D01*
X117313041Y-47711823D01*
X117431942Y-47850630D01*
X117542457Y-47989768D01*
X117634453Y-48116459D01*
X117697793Y-48217928D01*
X117722343Y-48281399D01*
X117722375Y-48282706D01*
X117730808Y-48350223D01*
X117752932Y-48464559D01*
X117784405Y-48603808D01*
X117793065Y-48639301D01*
X117827595Y-48802989D01*
X117861289Y-49005812D01*
X117892399Y-49231517D01*
X117919178Y-49463852D01*
X117939878Y-49686567D01*
X117952751Y-49883409D01*
X117956049Y-50038127D01*
X117951611Y-50113567D01*
X117894743Y-50433523D01*
X117808099Y-50714975D01*
X117754780Y-50842393D01*
X117675077Y-50998482D01*
X117568273Y-51180555D01*
X117446242Y-51370819D01*
X117320860Y-51551479D01*
X117204002Y-51704741D01*
X117107543Y-51812811D01*
X117106480Y-51813835D01*
X116982261Y-51933265D01*
X116490669Y-51769430D01*
X116311425Y-51711001D01*
X116152920Y-51661772D01*
X116028891Y-51625827D01*
X115953072Y-51607250D01*
X115939676Y-51605595D01*
X115859898Y-51633076D01*
X115769709Y-51700920D01*
X115692926Y-51787228D01*
X115653631Y-51868639D01*
X115661414Y-52004496D01*
X115729083Y-52130983D01*
X115846081Y-52229469D01*
X115863374Y-52238745D01*
X116012137Y-52304548D01*
X116201332Y-52374363D01*
X116411676Y-52442489D01*
X116623882Y-52503226D01*
X116818669Y-52550872D01*
X116976750Y-52579727D01*
X117035742Y-52585315D01*
X117163459Y-52595067D01*
X117249259Y-52618010D01*
X117322266Y-52666201D01*
X117393360Y-52733361D01*
X117517810Y-52834488D01*
X117665117Y-52906089D01*
X117846700Y-52950975D01*
X118073978Y-52971954D01*
X118358370Y-52971837D01*
X118362015Y-52971724D01*
X118588297Y-52960693D01*
X118759204Y-52939586D01*
X118890314Y-52902048D01*
X118997204Y-52841723D01*
X119095449Y-52752255D01*
X119198001Y-52630628D01*
X119360604Y-52418254D01*
X119537646Y-52176636D01*
X119723548Y-51914307D01*
X119912731Y-51639799D01*
X120099614Y-51361644D01*
X120278620Y-51088373D01*
X120444169Y-50828520D01*
X120590682Y-50590617D01*
X120712579Y-50383195D01*
X120804282Y-50214787D01*
X120860212Y-50093925D01*
X120864712Y-50081730D01*
X120916822Y-49832902D01*
X120911110Y-49552398D01*
X120847896Y-49249378D01*
X120834007Y-49204209D01*
X120806325Y-49109768D01*
X120763994Y-48954838D01*
X120709219Y-48747954D01*
X120644203Y-48497648D01*
X120571151Y-48212454D01*
X120492267Y-47900905D01*
X120409755Y-47571534D01*
X120347936Y-47322472D01*
X120266015Y-46993490D01*
X120187503Y-46682777D01*
X120114357Y-46397759D01*
X120048534Y-46145861D01*
X119991994Y-45934511D01*
X119946693Y-45771133D01*
X119914590Y-45663155D01*
X119899297Y-45620780D01*
X119768826Y-45421014D01*
X119591172Y-45230362D01*
X119421069Y-45094679D01*
X119231888Y-44965828D01*
X115981398Y-44502297D01*
X115506320Y-44434757D01*
X115049220Y-44370175D01*
X114615270Y-44309260D01*
X114209645Y-44252720D01*
X113837517Y-44201262D01*
X113504059Y-44155595D01*
X113214443Y-44116426D01*
X112973843Y-44084464D01*
X112787431Y-44060416D01*
X112660381Y-44044990D01*
X112597864Y-44038895D01*
X112594959Y-44038824D01*
X112534068Y-44040730D01*
X112483716Y-44052153D01*
X112432403Y-44081736D01*
X112368631Y-44138122D01*
X112280900Y-44229957D01*
X112157713Y-44365883D01*
X112153195Y-44370903D01*
X111988649Y-44516806D01*
X111797492Y-44611735D01*
X111565032Y-44662109D01*
X111466710Y-44670673D01*
X111312819Y-44675902D01*
X111200902Y-44666727D01*
X111102614Y-44638899D01*
X111022654Y-44604115D01*
X110848112Y-44521452D01*
X110990210Y-44510488D01*
X111103249Y-44498966D01*
X111197767Y-44484782D01*
X111206712Y-44482937D01*
X110830349Y-44482937D01*
X110812587Y-44500699D01*
X110794825Y-44482937D01*
X110812587Y-44465175D01*
X110830349Y-44482937D01*
X111206712Y-44482937D01*
X111209442Y-44482374D01*
X111265458Y-44445492D01*
X111347350Y-44362017D01*
X111444525Y-44246334D01*
X111546390Y-44112825D01*
X111642353Y-43975873D01*
X111721820Y-43849862D01*
X111774197Y-43749174D01*
X111789510Y-43694773D01*
X111775006Y-43620286D01*
X111736522Y-43500452D01*
X111681598Y-43353601D01*
X111617775Y-43198059D01*
X111552595Y-43052156D01*
X111493598Y-42934218D01*
X111448326Y-42862573D01*
X111446014Y-42859928D01*
X111374664Y-42808985D01*
X111270516Y-42763171D01*
X111242121Y-42754316D01*
X111155079Y-42727967D01*
X111129793Y-42711036D01*
X111159233Y-42695148D01*
X111185594Y-42686958D01*
X111395838Y-42658521D01*
X111621395Y-42685431D01*
X111843845Y-42760508D01*
X112044766Y-42876569D01*
X112205737Y-43026432D01*
X112262532Y-43106801D01*
X112320392Y-43217368D01*
X112381837Y-43355269D01*
X112411189Y-43430171D01*
X112467512Y-43552035D01*
X112533516Y-43650173D01*
X112571049Y-43686431D01*
X112602805Y-43700052D01*
X112666156Y-43717077D01*
X112764635Y-43738061D01*
X112901773Y-43763561D01*
X113081101Y-43794133D01*
X113306152Y-43830332D01*
X113580456Y-43872714D01*
X113907546Y-43921835D01*
X114290954Y-43978251D01*
X114734210Y-44042518D01*
X115240846Y-44115192D01*
X115808428Y-44195982D01*
X116275239Y-44262059D01*
X116723514Y-44325188D01*
X117148049Y-44384653D01*
X117543639Y-44439741D01*
X117905080Y-44489737D01*
X118227167Y-44533927D01*
X118504696Y-44571596D01*
X118732461Y-44602031D01*
X118905258Y-44624517D01*
X119017883Y-44638340D01*
X119064438Y-44642797D01*
X119184787Y-44610145D01*
X119320699Y-44518462D01*
X119416521Y-44445626D01*
X119499811Y-44408413D01*
X119603625Y-44395276D01*
X119676595Y-44394126D01*
X119831945Y-44402015D01*
X119993366Y-44422066D01*
X120063200Y-44435566D01*
X120173938Y-44466868D01*
X120236190Y-44505551D01*
X120272026Y-44567351D01*
X120280088Y-44590203D01*
X120303464Y-44656376D01*
X120330413Y-44710841D01*
X120368266Y-44755973D01*
X120424355Y-44794146D01*
X120506010Y-44827736D01*
X120620562Y-44859118D01*
X120775343Y-44890667D01*
X120977683Y-44924759D01*
X121234914Y-44963769D01*
X121554366Y-45010071D01*
X121593277Y-45015662D01*
X121867036Y-45054840D01*
X122118538Y-45090543D01*
X122339071Y-45121557D01*
X122519924Y-45146670D01*
X122652387Y-45164666D01*
X122727748Y-45174333D01*
X122741451Y-45175664D01*
X122755178Y-45205685D01*
X122756660Y-45276695D01*
X122748091Y-45360119D01*
X122731664Y-45427380D01*
X122720657Y-45446569D01*
X122683415Y-45445187D01*
X122584919Y-45434609D01*
X122434203Y-45415998D01*
X122240303Y-45390514D01*
X122012253Y-45359320D01*
X121759089Y-45323575D01*
X121719085Y-45317832D01*
X121454390Y-45280498D01*
X121205704Y-45246831D01*
X120983756Y-45218173D01*
X120799273Y-45195867D01*
X120662983Y-45181256D01*
X120585615Y-45175682D01*
X120583149Y-45175664D01*
X120430947Y-45207644D01*
X120310710Y-45295882D01*
X120233195Y-45428829D01*
X120208847Y-45577627D01*
X120223673Y-45633305D01*
X120264875Y-45741217D01*
X120327572Y-45889793D01*
X120406885Y-46067462D01*
X120496271Y-46259161D01*
X120735662Y-46768413D01*
X120943987Y-47225930D01*
X121125223Y-47641783D01*
X121283343Y-48026044D01*
X121422322Y-48388787D01*
X121546135Y-48740082D01*
X121658756Y-49090002D01*
X121764159Y-49448619D01*
X121786607Y-49529078D01*
X121827823Y-49682952D01*
X121850516Y-49790520D01*
X121856173Y-49873646D01*
X121846280Y-49954198D01*
X121822324Y-50054041D01*
X121822296Y-50054147D01*
X121780396Y-50188251D01*
X121719269Y-50352843D01*
X121651314Y-50514789D01*
X121643477Y-50532063D01*
X121590721Y-50651603D01*
X121518364Y-50821755D01*
X121432852Y-51027028D01*
X121340635Y-51251935D01*
X121248160Y-51480984D01*
X121240945Y-51499021D01*
X121064152Y-51934358D01*
X120890700Y-52348092D01*
X120725383Y-52729194D01*
X120572998Y-53066633D01*
X120438342Y-53349379D01*
X120422252Y-53381818D01*
X120350922Y-53547958D01*
X120288368Y-53736347D01*
X120238324Y-53929914D01*
X120204523Y-54111592D01*
X120190696Y-54264313D01*
X120200576Y-54371007D01*
X120203821Y-54380671D01*
X120233330Y-54441119D01*
X120278348Y-54496370D01*
X120348314Y-54552684D01*
X120452671Y-54616324D01*
X120600857Y-54693549D01*
X120802315Y-54790622D01*
X120869625Y-54822244D01*
X121363356Y-55053365D01*
X121356670Y-55419307D01*
X121340211Y-55702982D01*
X121303434Y-55968146D01*
X121249499Y-56197635D01*
X121181562Y-56374288D01*
X121180600Y-56376161D01*
X121134603Y-56443046D01*
X121049321Y-56547208D01*
X120935830Y-56675808D01*
X120805206Y-56816005D01*
X120767046Y-56855614D01*
X120412282Y-57221019D01*
X120432781Y-57406244D01*
X120448465Y-57493350D01*
X120481223Y-57636229D01*
X120527911Y-57822541D01*
X120585385Y-58039947D01*
X120650502Y-58276108D01*
X120688150Y-58408532D01*
X120793832Y-58777003D01*
X120881496Y-59086447D01*
X120952928Y-59346070D01*
X121009912Y-59565079D01*
X121054232Y-59752680D01*
X121087674Y-59918080D01*
X121112023Y-60070484D01*
X121129063Y-60219099D01*
X121140579Y-60373132D01*
X121148356Y-60541790D01*
X121154178Y-60734277D01*
X121156464Y-60824196D01*
X121167375Y-61152598D01*
X121182008Y-61410603D01*
X121200352Y-61598031D01*
X121222391Y-61714703D01*
X121224785Y-61722430D01*
X121258623Y-61858160D01*
X121273968Y-61990002D01*
X121270949Y-62100731D01*
X121249696Y-62173117D01*
X121221259Y-62191888D01*
X121182116Y-62199858D01*
X121138844Y-62228354D01*
X121086356Y-62284256D01*
X121019569Y-62374444D01*
X120933398Y-62505796D01*
X120822758Y-62685194D01*
X120682564Y-62919515D01*
X120678857Y-62925764D01*
X120441870Y-63317703D01*
X120220153Y-63669063D01*
X120017598Y-63973985D01*
X119838097Y-64226612D01*
X119685572Y-64421049D01*
X119599530Y-64519746D01*
X119535819Y-64575548D01*
X119471925Y-64600669D01*
X119385335Y-64607325D01*
X119341805Y-64607553D01*
X119181170Y-64586462D01*
X119024095Y-64519214D01*
X118860943Y-64399849D01*
X118682072Y-64222404D01*
X118636376Y-64171245D01*
X118386625Y-63873240D01*
X118186388Y-63602049D01*
X118027387Y-63343160D01*
X117901341Y-63082061D01*
X117799970Y-62804242D01*
X117742556Y-62604652D01*
X117639478Y-62278435D01*
X117511653Y-62002550D01*
X117348966Y-61757804D01*
X117212184Y-61598213D01*
X116968454Y-61382256D01*
X116702138Y-61229961D01*
X116418750Y-61144287D01*
X116346196Y-61133661D01*
X116128372Y-61108392D01*
X116360297Y-60705475D01*
X116456632Y-60535590D01*
X116522166Y-60410560D01*
X116562937Y-60314487D01*
X116584983Y-60231474D01*
X116594343Y-60145624D01*
X116596426Y-60083797D01*
X116596946Y-60011141D01*
X116592470Y-59947999D01*
X116578600Y-59884387D01*
X116550939Y-59810321D01*
X116505090Y-59715815D01*
X116436655Y-59590887D01*
X116341237Y-59425550D01*
X116214438Y-59209821D01*
X116202797Y-59190070D01*
X116086717Y-58991184D01*
X115983928Y-58811348D01*
X115899668Y-58660034D01*
X115839176Y-58546715D01*
X115807687Y-58480862D01*
X115804369Y-58469553D01*
X115820740Y-58419471D01*
X115864896Y-58325425D01*
X115928526Y-58204649D01*
X115954755Y-58157671D01*
X116032069Y-58026586D01*
X116087545Y-57948806D01*
X116130674Y-57913868D01*
X116170948Y-57911308D01*
X116176783Y-57912903D01*
X116531457Y-57985522D01*
X116880418Y-57988596D01*
X117217635Y-57923631D01*
X117537078Y-57792130D01*
X117832713Y-57595597D01*
X117980172Y-57463121D01*
X118186215Y-57225058D01*
X118332220Y-56981428D01*
X118413715Y-56740092D01*
X118422974Y-56684911D01*
X118427338Y-56586761D01*
X118399069Y-56513769D01*
X118333194Y-56438638D01*
X118207609Y-56353305D01*
X118076835Y-56333460D01*
X117951935Y-56375426D01*
X117843974Y-56475526D01*
X117764909Y-56627508D01*
X117655861Y-56839751D01*
X117490121Y-57030910D01*
X117281860Y-57185061D01*
X117255583Y-57199827D01*
X117135378Y-57257365D01*
X117017086Y-57292388D01*
X116872058Y-57311930D01*
X116772258Y-57318539D01*
X116614837Y-57324077D01*
X116521029Y-57315331D01*
X116483685Y-57284430D01*
X116495659Y-57223503D01*
X116549804Y-57124680D01*
X116568479Y-57094126D01*
X116622363Y-56985567D01*
X116653299Y-56882443D01*
X116656039Y-56854272D01*
X115951056Y-56854272D01*
X115531137Y-57578115D01*
X115395133Y-57814013D01*
X115291555Y-57998008D01*
X115216150Y-58139049D01*
X115164667Y-58246083D01*
X115132852Y-58328056D01*
X115116454Y-58393916D01*
X115111219Y-58452611D01*
X115111134Y-58461818D01*
X115115078Y-58520349D01*
X115129712Y-58585677D01*
X115159139Y-58666663D01*
X115207466Y-58772165D01*
X115278798Y-58911043D01*
X115377242Y-59092155D01*
X115506902Y-59324360D01*
X115529409Y-59364343D01*
X115947769Y-60107007D01*
X115602200Y-60696511D01*
X115458132Y-60943202D01*
X115346492Y-61137461D01*
X115263202Y-61287806D01*
X115204180Y-61402755D01*
X115165345Y-61490826D01*
X115142617Y-61560538D01*
X115131914Y-61620408D01*
X115129157Y-61678955D01*
X115129158Y-61683948D01*
X115134189Y-61752390D01*
X115151484Y-61829132D01*
X115184861Y-61922354D01*
X115238138Y-62040238D01*
X115315134Y-62190964D01*
X115419667Y-62382711D01*
X115555556Y-62623659D01*
X115622441Y-62740700D01*
X115724875Y-62921472D01*
X115812990Y-63080819D01*
X115881392Y-63208668D01*
X115924689Y-63294942D01*
X115937599Y-63329373D01*
X115917407Y-63365287D01*
X115866481Y-63452860D01*
X115790358Y-63582658D01*
X115694574Y-63745247D01*
X115584667Y-63931193D01*
X115555105Y-63981113D01*
X115182098Y-64610754D01*
X114702517Y-64590417D01*
X114497441Y-64581055D01*
X114292053Y-64570534D01*
X114109997Y-64560131D01*
X113974918Y-64551125D01*
X113973268Y-64550999D01*
X113723599Y-64531919D01*
X113525480Y-64223372D01*
X113415684Y-64048872D01*
X113296524Y-63853960D01*
X113188825Y-63672844D01*
X113159364Y-63621959D01*
X112983250Y-63359570D01*
X112793741Y-63161713D01*
X112593681Y-63031294D01*
X112571049Y-63021145D01*
X112501901Y-63000941D01*
X112392422Y-62983939D01*
X112235486Y-62969533D01*
X112023968Y-62957115D01*
X111750742Y-62946077D01*
X111652209Y-62942835D01*
X111394987Y-62934520D01*
X111199343Y-62927118D01*
X111055838Y-62919419D01*
X110955033Y-62910218D01*
X110887489Y-62898305D01*
X110843766Y-62882474D01*
X110814427Y-62861517D01*
X110790031Y-62834227D01*
X110788503Y-62832343D01*
X110749368Y-62772338D01*
X110685737Y-62661485D01*
X110604643Y-62512606D01*
X110513120Y-62338519D01*
X110451104Y-62217393D01*
X110321961Y-61968478D01*
X110214339Y-61776928D01*
X110122041Y-61634689D01*
X110038871Y-61533705D01*
X109958633Y-61465924D01*
X109875131Y-61423290D01*
X109828843Y-61408513D01*
X109739402Y-61395325D01*
X109587359Y-61385743D01*
X109381084Y-61380032D01*
X109128945Y-61378452D01*
X108921217Y-61380052D01*
X108156020Y-61389944D01*
X108051907Y-61266930D01*
X107966397Y-61152824D01*
X107861398Y-60993322D01*
X107747982Y-60807170D01*
X107637222Y-60613112D01*
X107540188Y-60429893D01*
X107471088Y-60283605D01*
X107413389Y-60124332D01*
X107394292Y-60008008D01*
X107397936Y-59976100D01*
X107425346Y-59915290D01*
X107485062Y-59809872D01*
X107568857Y-59673586D01*
X107668502Y-59520177D01*
X107691069Y-59486481D01*
X107808077Y-59306527D01*
X107924814Y-59116287D01*
X108027586Y-58938693D01*
X108101419Y-58799301D01*
X108163407Y-58666833D01*
X108204229Y-58555250D01*
X108221231Y-58453450D01*
X108211761Y-58350330D01*
X108173165Y-58234786D01*
X108102791Y-58095718D01*
X107997986Y-57922021D01*
X107856096Y-57702593D01*
X107829788Y-57662518D01*
X107724970Y-57501162D01*
X107627049Y-57347133D01*
X107546700Y-57217431D01*
X107494598Y-57129057D01*
X107493050Y-57126254D01*
X107413082Y-56980760D01*
X107780667Y-56255904D01*
X108148252Y-55531049D01*
X108343636Y-55507919D01*
X108440067Y-55500575D01*
X108592883Y-55493825D01*
X108787419Y-55488094D01*
X109009010Y-55483806D01*
X109242992Y-55481386D01*
X109263892Y-55481276D01*
X109988763Y-55477762D01*
X110116479Y-55342660D01*
X110173979Y-55266948D01*
X110255189Y-55139475D01*
X110352941Y-54972470D01*
X110460065Y-54778159D01*
X110563916Y-54579543D01*
X110883636Y-53951529D01*
X111652494Y-53950869D01*
X112421352Y-53950210D01*
X112832287Y-54581667D01*
X113001392Y-54841128D01*
X113141043Y-55047958D01*
X113261677Y-55208314D01*
X113373734Y-55328358D01*
X113487650Y-55414249D01*
X113613864Y-55472147D01*
X113762816Y-55508211D01*
X113944942Y-55528600D01*
X114170682Y-55539476D01*
X114450474Y-55546996D01*
X114468955Y-55547469D01*
X115212316Y-55566574D01*
X115951056Y-56854272D01*
X116656039Y-56854272D01*
X116656181Y-56852822D01*
X116638485Y-56793126D01*
X116589139Y-56683207D01*
X116513933Y-56533226D01*
X116418653Y-56353347D01*
X116309087Y-56153731D01*
X116191024Y-55944541D01*
X116070251Y-55735939D01*
X115952557Y-55538087D01*
X115843728Y-55361148D01*
X115749553Y-55215283D01*
X115675820Y-55110656D01*
X115639089Y-55067013D01*
X115565039Y-55004120D01*
X115477682Y-54955997D01*
X115367010Y-54920830D01*
X115223015Y-54896804D01*
X115035691Y-54882105D01*
X114795030Y-54874917D01*
X114571332Y-54873361D01*
X114361240Y-54872053D01*
X114171528Y-54868727D01*
X114015409Y-54863782D01*
X113906094Y-54857619D01*
X113860238Y-54851829D01*
X113813074Y-54815693D01*
X113734686Y-54723464D01*
X113624054Y-54573761D01*
X113480157Y-54365200D01*
X113301975Y-54096400D01*
X113298630Y-54091282D01*
X113141545Y-53852589D01*
X113016716Y-53667544D01*
X112918993Y-53529391D01*
X112843225Y-53431373D01*
X112784262Y-53366733D01*
X112736954Y-53328716D01*
X112705748Y-53313513D01*
X112632070Y-53300763D01*
X112499643Y-53290539D01*
X112320721Y-53282821D01*
X112107557Y-53277591D01*
X111872406Y-53274828D01*
X111627522Y-53274513D01*
X111385158Y-53276625D01*
X111157569Y-53281145D01*
X110957008Y-53288054D01*
X110795730Y-53297332D01*
X110685988Y-53308959D01*
X110650645Y-53316818D01*
X110580496Y-53347773D01*
X110514779Y-53394131D01*
X110447783Y-53463809D01*
X110373794Y-53564723D01*
X110287100Y-53704786D01*
X110181988Y-53891915D01*
X110052747Y-54134024D01*
X110031049Y-54175338D01*
X109711328Y-54785035D01*
X109054126Y-54810432D01*
X108715866Y-54825387D01*
X108441079Y-54842132D01*
X108222195Y-54861669D01*
X108051641Y-54885004D01*
X107921847Y-54913139D01*
X107825241Y-54947079D01*
X107763011Y-54981620D01*
X107716312Y-55023982D01*
X107659525Y-55096578D01*
X107588604Y-55206074D01*
X107499502Y-55359139D01*
X107388174Y-55562438D01*
X107250571Y-55822638D01*
X107238313Y-55846100D01*
X107090427Y-56131524D01*
X106973946Y-56362825D01*
X106885978Y-56548104D01*
X106823631Y-56695462D01*
X106784011Y-56812998D01*
X106764226Y-56908814D01*
X106761385Y-56991008D01*
X106772594Y-57067682D01*
X106785113Y-57115264D01*
X106847696Y-57276147D01*
X106953694Y-57485290D01*
X107100054Y-57737207D01*
X107283724Y-58026411D01*
X107334253Y-58102608D01*
X107557157Y-58436125D01*
X107446193Y-58635475D01*
X107380051Y-58748343D01*
X107287534Y-58898430D01*
X107182130Y-59064141D01*
X107099831Y-59190070D01*
X106959932Y-59408715D01*
X106859586Y-59586247D01*
X106793195Y-59736412D01*
X106755165Y-59872959D01*
X106739900Y-60009635D01*
X106738984Y-60076564D01*
X106744209Y-60177434D01*
X106761265Y-60272318D01*
X106795714Y-60378427D01*
X106853114Y-60512971D01*
X106936477Y-60687946D01*
X107062942Y-60932576D01*
X107201269Y-61175688D01*
X107341627Y-61401497D01*
X107474185Y-61594218D01*
X107589113Y-61738066D01*
X107593567Y-61742978D01*
X107683841Y-61827965D01*
X107795539Y-61915652D01*
X107828531Y-61938363D01*
X107875278Y-61968198D01*
X107919953Y-61991047D01*
X107972548Y-62007998D01*
X108043053Y-62020143D01*
X108141461Y-62028572D01*
X108277764Y-62034373D01*
X108461953Y-62038637D01*
X108704019Y-62042455D01*
X108794615Y-62043750D01*
X109618601Y-62055471D01*
X109925636Y-62637136D01*
X110073595Y-62907922D01*
X110202154Y-63120047D01*
X110317593Y-63281097D01*
X110426196Y-63398655D01*
X110534243Y-63480305D01*
X110648016Y-63533632D01*
X110675651Y-63542688D01*
X110751698Y-63556262D01*
X110885982Y-63570325D01*
X111065704Y-63583948D01*
X111278066Y-63596199D01*
X111510270Y-63606147D01*
X111580944Y-63608514D01*
X111873302Y-63619331D01*
X112098267Y-63631507D01*
X112259485Y-63645346D01*
X112360603Y-63661155D01*
X112403231Y-63677312D01*
X112443146Y-63725949D01*
X112507447Y-63821113D01*
X112585955Y-63947257D01*
X112640422Y-64039604D01*
X112793815Y-64297936D01*
X112943717Y-64536460D01*
X113083684Y-64745735D01*
X113207271Y-64916319D01*
X113308036Y-65038770D01*
X113352761Y-65083385D01*
X113431050Y-65142045D01*
X113515581Y-65176950D01*
X113631974Y-65196610D01*
X113715033Y-65203738D01*
X113959997Y-65221265D01*
X113936588Y-65331821D01*
X113896982Y-65487440D01*
X113838029Y-65681384D01*
X113767816Y-65890184D01*
X113694431Y-66090368D01*
X113625962Y-66258466D01*
X113592455Y-66330490D01*
X113345687Y-66745176D01*
X113037573Y-67131444D01*
X112673849Y-67484284D01*
X112260250Y-67798688D01*
X111802511Y-68069647D01*
X111378605Y-68263832D01*
X110985989Y-68395826D01*
X110589730Y-68475950D01*
X110181707Y-68504037D01*
X109753799Y-68479918D01*
X109297886Y-68403428D01*
X108805846Y-68274398D01*
X108592308Y-68206446D01*
X108155766Y-68041187D01*
X107788108Y-67858897D01*
X107489219Y-67659498D01*
X107258985Y-67442913D01*
X107097293Y-67209065D01*
X107083138Y-67181165D01*
X106982378Y-67019417D01*
X106870560Y-66926576D01*
X106744568Y-66900945D01*
X106623559Y-66930922D01*
X106499172Y-67012059D01*
X106435898Y-67126754D01*
X106433492Y-67276249D01*
X106491706Y-67461788D01*
X106510348Y-67502797D01*
X106673116Y-67768771D01*
X106900634Y-68022272D01*
X107186967Y-68257997D01*
X107526179Y-68470642D01*
X107686433Y-68553476D01*
X108190054Y-68770751D01*
X108707436Y-68940949D01*
X109228946Y-69062765D01*
X109744952Y-69134896D01*
X110245819Y-69156039D01*
X110721916Y-69124890D01*
X111163608Y-69040147D01*
X111203356Y-69029282D01*
X111430760Y-68952817D01*
X111695903Y-68843426D01*
X111979620Y-68710724D01*
X112262742Y-68564322D01*
X112526102Y-68413833D01*
X112750532Y-68268869D01*
X112819720Y-68218669D01*
X113171322Y-67924242D01*
X113501687Y-67591461D01*
X113798859Y-67234639D01*
X114050879Y-66868087D01*
X114239848Y-66519016D01*
X114281901Y-66417308D01*
X114335026Y-66272738D01*
X114394606Y-66099817D01*
X114456026Y-65913055D01*
X114514669Y-65726963D01*
X114565920Y-65556051D01*
X114605162Y-65414829D01*
X114627779Y-65317807D01*
X114631464Y-65287980D01*
X114644608Y-65266630D01*
X114691414Y-65255272D01*
X114782947Y-65253163D01*
X114930273Y-65259564D01*
X114995594Y-65263582D01*
X115359720Y-65287009D01*
X115534403Y-65169309D01*
X115592458Y-65126976D01*
X115646595Y-65077898D01*
X115702670Y-65013694D01*
X115766540Y-64925985D01*
X115844064Y-64806392D01*
X115941098Y-64646534D01*
X116063500Y-64438032D01*
X116150551Y-64287832D01*
X116305185Y-64021275D01*
X116427229Y-63806359D01*
X116517328Y-63631927D01*
X116576128Y-63486824D01*
X116604274Y-63359894D01*
X116602410Y-63239980D01*
X116571182Y-63115928D01*
X116511235Y-62976580D01*
X116423214Y-62810782D01*
X116307764Y-62607376D01*
X116253268Y-62511608D01*
X115880836Y-61854406D01*
X116074586Y-61809602D01*
X116195147Y-61786005D01*
X116283651Y-61785930D01*
X116376063Y-61812384D01*
X116444291Y-61840493D01*
X116639252Y-61956550D01*
X116805230Y-62126455D01*
X116945013Y-62354317D01*
X117061389Y-62644248D01*
X117116343Y-62831329D01*
X117248473Y-63226491D01*
X117433477Y-63623493D01*
X117657250Y-63993279D01*
X117781516Y-64158167D01*
X117940240Y-64345035D01*
X118120053Y-64540237D01*
X118307582Y-64730126D01*
X118489458Y-64901055D01*
X118652309Y-65039378D01*
X118756484Y-65115182D01*
X118872278Y-65184401D01*
X118975160Y-65227196D01*
X119093788Y-65252592D01*
X119243307Y-65268503D01*
X119392750Y-65278676D01*
X119497699Y-65276524D01*
X119584207Y-65258166D01*
X119678324Y-65219722D01*
X119726701Y-65196500D01*
X119872386Y-65106943D01*
X120029655Y-64973846D01*
X120200997Y-64794019D01*
X120388898Y-64564276D01*
X120595849Y-64281427D01*
X120824336Y-63942285D01*
X121076849Y-63543661D01*
X121288459Y-63195455D01*
X121397116Y-63015205D01*
X121493344Y-62857948D01*
X121571264Y-62733096D01*
X121624999Y-62650062D01*
X121648670Y-62618258D01*
X121648960Y-62618182D01*
X121672605Y-62646679D01*
X121714442Y-62718344D01*
X121733235Y-62754147D01*
X121757526Y-62811424D01*
X121777276Y-62884327D01*
X121793711Y-62983059D01*
X121808053Y-63117819D01*
X121821528Y-63298810D01*
X121835359Y-63536233D01*
X121841718Y-63658162D01*
X121858429Y-64134077D01*
X121857535Y-64587212D01*
X121837528Y-65028699D01*
X121796896Y-65469666D01*
X121734130Y-65921246D01*
X121647720Y-66394568D01*
X121536155Y-66900764D01*
X121397926Y-67450963D01*
X121257456Y-67964677D01*
X121182696Y-68216232D01*
X121105689Y-68441505D01*
X121020714Y-68650686D01*
X120922055Y-68853969D01*
X120803991Y-69061545D01*
X120660803Y-69283605D01*
X120486774Y-69530342D01*
X120276184Y-69811948D01*
X120074116Y-70073584D01*
X119851995Y-70352000D01*
X119653064Y-70584546D01*
X119462463Y-70785349D01*
X119265328Y-70968539D01*
X119046797Y-71148242D01*
X118792008Y-71338589D01*
X118601004Y-71473951D01*
X118176081Y-71764096D01*
X117791572Y-72011472D01*
X117436242Y-72222094D01*
X117098851Y-72401975D01*
X116768162Y-72557132D01*
X116432936Y-72693578D01*
X116105734Y-72809459D01*
X115617661Y-72963742D01*
X115174680Y-73085645D01*
X114760196Y-73178043D01*
X114357614Y-73243809D01*
X113950341Y-73285817D01*
X113521780Y-73306941D01*
X113210489Y-73310842D01*
X112407831Y-73284287D01*
X111645641Y-73202920D01*
X110916726Y-73064616D01*
X110213893Y-72867254D01*
X109529946Y-72608709D01*
X108857693Y-72286859D01*
X108189939Y-71899581D01*
X107988391Y-71769647D01*
X107671817Y-71556405D01*
X107403737Y-71364984D01*
X107169756Y-71184142D01*
X106955482Y-71002636D01*
X106746522Y-70809223D01*
X106695806Y-70760022D01*
X106474260Y-70534515D01*
X106268340Y-70304720D01*
X106072768Y-70062682D01*
X105882268Y-69800441D01*
X105691560Y-69510040D01*
X105495367Y-69183521D01*
X105288412Y-68812928D01*
X105065417Y-68390303D01*
X104873342Y-68012220D01*
X104731015Y-67731008D01*
X104612065Y-67504943D01*
X104509590Y-67324898D01*
X104416688Y-67181747D01*
X104326457Y-67066362D01*
X104231997Y-66969616D01*
X104126406Y-66882381D01*
X104002782Y-66795532D01*
X103905707Y-66732554D01*
X103621565Y-66550518D01*
X103390235Y-66399763D01*
X103203742Y-66274783D01*
X103054115Y-66170070D01*
X102933383Y-66080117D01*
X102833571Y-65999418D01*
X102790870Y-65962456D01*
X102650848Y-65850629D01*
X102537653Y-65792271D01*
X102436889Y-65782981D01*
X102334163Y-65818360D01*
X102328783Y-65821187D01*
X102224982Y-65901000D01*
X102173749Y-66010695D01*
X102163507Y-66116679D01*
X102167816Y-66190504D01*
X102189007Y-66253148D01*
X102237444Y-66321089D01*
X102323493Y-66410803D01*
X102386956Y-66471924D01*
X102513321Y-66581741D01*
X102676961Y-66709214D01*
X102853810Y-66836151D01*
X102975248Y-66916643D01*
X103152018Y-67029449D01*
X103339795Y-67150227D01*
X103512180Y-67261956D01*
X103608809Y-67325175D01*
X103878658Y-67502797D01*
X104327560Y-68390909D01*
X104452254Y-68636100D01*
X104574014Y-68872754D01*
X104687031Y-69089784D01*
X104785494Y-69276105D01*
X104863592Y-69420632D01*
X104914109Y-69509930D01*
X105250523Y-70039900D01*
X105599570Y-70517896D01*
X105971278Y-70954123D01*
X106375676Y-71358783D01*
X106822791Y-71742080D01*
X107322651Y-72114218D01*
X107761277Y-72406929D01*
X108441060Y-72811352D01*
X109116860Y-73150566D01*
X109797531Y-73427210D01*
X110491924Y-73643921D01*
X111208895Y-73803337D01*
X111957296Y-73908097D01*
X112745980Y-73960837D01*
X112997342Y-73966995D01*
X113237752Y-73969899D01*
X113462333Y-73971208D01*
X113658545Y-73970958D01*
X113813845Y-73969187D01*
X113915693Y-73965931D01*
X113938741Y-73964213D01*
X114571593Y-73880199D01*
X115182728Y-73761682D01*
X115792982Y-73603676D01*
X116423189Y-73401198D01*
X116682352Y-73307813D01*
X117066628Y-73151018D01*
X117462282Y-72960052D01*
X117878485Y-72729888D01*
X118324413Y-72455499D01*
X118734545Y-72183146D01*
X119087008Y-71936617D01*
X119388874Y-71711461D01*
X119652567Y-71496248D01*
X119890514Y-71279547D01*
X120115141Y-71049927D01*
X120338871Y-70795959D01*
X120574132Y-70506211D01*
X120617139Y-70451329D01*
X120881189Y-70107022D01*
X121102021Y-69804960D01*
X121285249Y-69535785D01*
X121436491Y-69290137D01*
X121561361Y-69058655D01*
X121665476Y-68831981D01*
X121754452Y-68600755D01*
X121789493Y-68497483D01*
X121841501Y-68327896D01*
X121904971Y-68104167D01*
X121976033Y-67841529D01*
X122050818Y-67555215D01*
X122125459Y-67260459D01*
X122196085Y-66972493D01*
X122258829Y-66706552D01*
X122309821Y-66477868D01*
X122339838Y-66330490D01*
X122438319Y-65685865D01*
X122498942Y-64996098D01*
X122521014Y-64276599D01*
X122503844Y-63542777D01*
X122481062Y-63184794D01*
X122452502Y-62909643D01*
X122409806Y-62687210D01*
X122346327Y-62499560D01*
X122255421Y-62328757D01*
X122130441Y-62156866D01*
X122075853Y-62091295D01*
X121968230Y-61948212D01*
X121918378Y-61837255D01*
X121913986Y-61800531D01*
X121899326Y-61689564D01*
X121871515Y-61599166D01*
X121855870Y-61527631D01*
X121840925Y-61392440D01*
X121827217Y-61200985D01*
X121815282Y-60960660D01*
X121806247Y-60699860D01*
X121800370Y-60495393D01*
X121794287Y-60321214D01*
X121786278Y-60168442D01*
X121774623Y-60028193D01*
X121757602Y-59891585D01*
X121733496Y-59749735D01*
X121700583Y-59593760D01*
X121657145Y-59414776D01*
X121601461Y-59203903D01*
X121531811Y-58952256D01*
X121446475Y-58650953D01*
X121343733Y-58291111D01*
X121331608Y-58248671D01*
X121103280Y-57449371D01*
X121397213Y-57147413D01*
X121521797Y-57013524D01*
X121633885Y-56882375D01*
X121719935Y-56770442D01*
X121762172Y-56703357D01*
X121848456Y-56503388D01*
X121917111Y-56279526D01*
X121970304Y-56020716D01*
X122010202Y-55715906D01*
X122038972Y-55354040D01*
X122044024Y-55265676D01*
X122053148Y-55085299D01*
X122056242Y-54960135D01*
X122051286Y-54874459D01*
X122036257Y-54812548D01*
X122009135Y-54758678D01*
X121971620Y-54702497D01*
X121896684Y-54610005D01*
X121821264Y-54540486D01*
X121797464Y-54525458D01*
X121736090Y-54495815D01*
X121625387Y-54443388D01*
X121480474Y-54375302D01*
X121316469Y-54298680D01*
X121298141Y-54290143D01*
X120877680Y-54094359D01*
X120901600Y-53985453D01*
X120923174Y-53921344D01*
X120969878Y-53804061D01*
X121036934Y-53644875D01*
X121119564Y-53455060D01*
X121212990Y-53245889D01*
X121244596Y-53176245D01*
X121361364Y-52914975D01*
X121492935Y-52612332D01*
X121628682Y-52293284D01*
X121757979Y-51982802D01*
X121867687Y-51712168D01*
X121961974Y-51477813D01*
X122055023Y-51251103D01*
X122141227Y-51045364D01*
X122214974Y-50873923D01*
X122270658Y-50750106D01*
X122286328Y-50717483D01*
X122349293Y-50571280D01*
X122414184Y-50389167D01*
X122469211Y-50204946D01*
X122480325Y-50161377D01*
X122559695Y-49836180D01*
X122409903Y-49308789D01*
X122250641Y-48777692D01*
X122079068Y-48266582D01*
X121888543Y-47758160D01*
X121672422Y-47235121D01*
X121424063Y-46680166D01*
X121294928Y-46404695D01*
X121214825Y-46234261D01*
X121147722Y-46088206D01*
X121098621Y-45977685D01*
X121072523Y-45913852D01*
X121069804Y-45902670D01*
X121106135Y-45905100D01*
X121201945Y-45916632D01*
X121346450Y-45935825D01*
X121528868Y-45961243D01*
X121738414Y-45991444D01*
X121771888Y-45996352D01*
X122000636Y-46028694D01*
X122219173Y-46057265D01*
X122412480Y-46080276D01*
X122565537Y-46095941D01*
X122662974Y-46102462D01*
X122889755Y-46076220D01*
X123082037Y-45989478D01*
X123235571Y-45846023D01*
X123346109Y-45649641D01*
X123403326Y-45442562D01*
X123425723Y-45263559D01*
X123417653Y-45121420D01*
X123374476Y-44986820D01*
X123312056Y-44865769D01*
X123262776Y-44786073D01*
X123209286Y-44719814D01*
X123143800Y-44664387D01*
X123058532Y-44617188D01*
X122945696Y-44575609D01*
X122797505Y-44537047D01*
X122606174Y-44498896D01*
X122363916Y-44458551D01*
X122062944Y-44413405D01*
X121882533Y-44387436D01*
X120846290Y-44239478D01*
X120773130Y-44121103D01*
X120643564Y-43978179D01*
X120452914Y-43867646D01*
X120203784Y-43790396D01*
X119898775Y-43747321D01*
X119655133Y-43737985D01*
X119489325Y-43738754D01*
X119374291Y-43745071D01*
X119289768Y-43761195D01*
X119215492Y-43791384D01*
X119131199Y-43839896D01*
X119111170Y-43852287D01*
X118925500Y-43967651D01*
X116041351Y-43558911D01*
X115595650Y-43495675D01*
X115169281Y-43435045D01*
X114767619Y-43377792D01*
X114396040Y-43324689D01*
X114059919Y-43276509D01*
X113764630Y-43234024D01*
X113515548Y-43198007D01*
X113318048Y-43169230D01*
X113177505Y-43148466D01*
X113099294Y-43136487D01*
X113085333Y-43134054D01*
X113024466Y-43090497D01*
X112954847Y-42992848D01*
X112921248Y-42930088D01*
X112792309Y-42720635D01*
X112619643Y-42514183D01*
X112426671Y-42336948D01*
X112328480Y-42266573D01*
X112034797Y-42117523D01*
X111720651Y-42029175D01*
X111397762Y-42001579D01*
X111077849Y-42034788D01*
X111077849Y-42034788D01*
G37*
X111077849Y-42034788D02*
X110772632Y-42128853D01*
X110530537Y-42258658D01*
X110408384Y-42377020D01*
X110310951Y-42544164D01*
X110247765Y-42739465D01*
X110228089Y-42913315D01*
X110237057Y-43060657D01*
X110273945Y-43167614D01*
X110348776Y-43242989D01*
X110471576Y-43295583D01*
X110652369Y-43334201D01*
X110718906Y-43344304D01*
X110853290Y-43365028D01*
X110935249Y-43386043D01*
X110982787Y-43417025D01*
X111013906Y-43467652D01*
X111032804Y-43513039D01*
X111063624Y-43603734D01*
X111061547Y-43664547D01*
X111024603Y-43729560D01*
X111019912Y-43736204D01*
X110961102Y-43798783D01*
X110889430Y-43815760D01*
X110830349Y-43810288D01*
X110630323Y-43782406D01*
X110487166Y-43765769D01*
X110387457Y-43761292D01*
X110317771Y-43769889D01*
X110264685Y-43792476D01*
X110214775Y-43829967D01*
X110187361Y-43854099D01*
X110066573Y-43962042D01*
X110067368Y-44319633D01*
X110068162Y-44677223D01*
X110244990Y-44857427D01*
X110503781Y-45073591D01*
X110790112Y-45228643D01*
X111095114Y-45322483D01*
X111409920Y-45355012D01*
X111725661Y-45326129D01*
X112033470Y-45235735D01*
X112324478Y-45083728D01*
X112575680Y-44883715D01*
X112756345Y-44710494D01*
X115869781Y-45158530D01*
X116466488Y-45244752D01*
X116995198Y-45321921D01*
X117458335Y-45390419D01*
X117858321Y-45450630D01*
X118197580Y-45502937D01*
X118478534Y-45547723D01*
X118703606Y-45585372D01*
X118875220Y-45616267D01*
X118995798Y-45640791D01*
X119067763Y-45659327D01*
X119088533Y-45667686D01*
X119180681Y-45742539D01*
X119258330Y-45839274D01*
X119260502Y-45842933D01*
X119282333Y-45899634D01*
X119319168Y-46018093D01*
X119369037Y-46191075D01*
X119429969Y-46411347D01*
X119499995Y-46671674D01*
X119577145Y-46964823D01*
X119659448Y-47283560D01*
X119744936Y-47620651D01*
X119748707Y-47635662D01*
X119834742Y-47977668D01*
X119917439Y-48305304D01*
X119994811Y-48610768D01*
X120064868Y-48886255D01*
X120125621Y-49123963D01*
X120175081Y-49316088D01*
X120211259Y-49454826D01*
X120232057Y-49531987D01*
X120293854Y-49749707D01*
X120180264Y-49980441D01*
X120136091Y-50060275D01*
X120060473Y-50186032D01*
X119958838Y-50349447D01*
X119836613Y-50542255D01*
X119699227Y-50756189D01*
X119552107Y-50982984D01*
X119400682Y-51214375D01*
X119250378Y-51442096D01*
X119106625Y-51657881D01*
X118974849Y-51853464D01*
X118860478Y-52020580D01*
X118768941Y-52150964D01*
X118705666Y-52236349D01*
X118678826Y-52266873D01*
X118620891Y-52284577D01*
X118511891Y-52297341D01*
X118371653Y-52304892D01*
X118220006Y-52306960D01*
X118076781Y-52303273D01*
X117961805Y-52293560D01*
X117895016Y-52277605D01*
X117849784Y-52223376D01*
X117820547Y-52134587D01*
X117820034Y-52131244D01*
X117818357Y-52065246D01*
X117838277Y-51994514D01*
X117886882Y-51903236D01*
X117971262Y-51775600D01*
X117994264Y-51742591D01*
X118178968Y-51449842D01*
X118339964Y-51137509D01*
X118467627Y-50826684D01*
X118552326Y-50538456D01*
X118559560Y-50504336D01*
X118602712Y-50163331D01*
X118606702Y-49763846D01*
X118571586Y-49306648D01*
X118497418Y-48792502D01*
X118398685Y-48287980D01*
X118355898Y-48107718D01*
X118312097Y-47972467D01*
X118256758Y-47856830D01*
X118179357Y-47735409D01*
X118155790Y-47701826D01*
X118061568Y-47580145D01*
X117933728Y-47429975D01*
X117790172Y-47271757D01*
X117669071Y-47146116D01*
X117510482Y-46992336D01*
X117375181Y-46876285D01*
X117240758Y-46781292D01*
X117084802Y-46690684D01*
X116989906Y-46640870D01*
X116577352Y-46448763D01*
X116178898Y-46306666D01*
X115777202Y-46210874D01*
X115354922Y-46157678D01*
X114894716Y-46143372D01*
X114684755Y-46148112D01*
X114129456Y-46191114D01*
X113624652Y-46279450D01*
X113164401Y-46415293D01*
X112742763Y-46600819D01*
X112353795Y-46838200D01*
X111991556Y-47129610D01*
X111984572Y-47135977D01*
X111897963Y-47218871D01*
X111773619Y-47342967D01*
X111622156Y-47497410D01*
X111454193Y-47671344D01*
X111280347Y-47853916D01*
X111226469Y-47911049D01*
X111043379Y-48103614D01*
X110853609Y-48299574D01*
X110670265Y-48485653D01*
X110506451Y-48648572D01*
X110375271Y-48775054D01*
X110355377Y-48793630D01*
X109953542Y-49132351D01*
X109545343Y-49410798D01*
X109134552Y-49627781D01*
X108724942Y-49782112D01*
X108320285Y-49872600D01*
X107924352Y-49898058D01*
X107540915Y-49857296D01*
X107242377Y-49775025D01*
X107031706Y-49688441D01*
X106800313Y-49574787D01*
X106569747Y-49446151D01*
X106361559Y-49314622D01*
X106197302Y-49192290D01*
X106185336Y-49182081D01*
X106086608Y-49102203D01*
X106014050Y-49063162D01*
X105944055Y-49055095D01*
X105894987Y-49060776D01*
X105757760Y-49113533D01*
X105661939Y-49211026D01*
X105614197Y-49336396D01*
X105621206Y-49472780D01*
X105683351Y-49595543D01*
X105795586Y-49708531D01*
X105961238Y-49836511D01*
X106166461Y-49971590D01*
X106397409Y-50105874D01*
X106640235Y-50231472D01*
X106881094Y-50340490D01*
X107106140Y-50425036D01*
X107176847Y-50446878D01*
X107623171Y-50540553D01*
X108070623Y-50563831D01*
X108521437Y-50516645D01*
X108977846Y-50398927D01*
X109000839Y-50391193D01*
X109286958Y-50284702D01*
X109557981Y-50163048D01*
X109820845Y-50021027D01*
X110082489Y-49853435D01*
X110349851Y-49655070D01*
X110629870Y-49420727D01*
X110929483Y-49145203D01*
X111255629Y-48823293D01*
X111615247Y-48449795D01*
X111677475Y-48383708D01*
X111927320Y-48119957D01*
X112138213Y-47903233D01*
X112317730Y-47726864D01*
X112473444Y-47584181D01*
X112612930Y-47468513D01*
X112743761Y-47373191D01*
X112873513Y-47291544D01*
X112991860Y-47226210D01*
X113307009Y-47076677D01*
X113617394Y-46963812D01*
X113937829Y-46884680D01*
X114283124Y-46836345D01*
X114668091Y-46815871D01*
X115048955Y-46818499D01*
X115285368Y-46826581D01*
X115467959Y-46836953D01*
X115613953Y-46851744D01*
X115740578Y-46873080D01*
X115865059Y-46903089D01*
X115963636Y-46931442D01*
X116218367Y-47018972D01*
X116476814Y-47127302D01*
X116720671Y-47247420D01*
X116931630Y-47370310D01*
X117090622Y-47486304D01*
X117195890Y-47586122D01*
X117313041Y-47711823D01*
X117431942Y-47850630D01*
X117542457Y-47989768D01*
X117634453Y-48116459D01*
X117697793Y-48217928D01*
X117722343Y-48281399D01*
X117722375Y-48282706D01*
X117730808Y-48350223D01*
X117752932Y-48464559D01*
X117784405Y-48603808D01*
X117793065Y-48639301D01*
X117827595Y-48802989D01*
X117861289Y-49005812D01*
X117892399Y-49231517D01*
X117919178Y-49463852D01*
X117939878Y-49686567D01*
X117952751Y-49883409D01*
X117956049Y-50038127D01*
X117951611Y-50113567D01*
X117894743Y-50433523D01*
X117808099Y-50714975D01*
X117754780Y-50842393D01*
X117675077Y-50998482D01*
X117568273Y-51180555D01*
X117446242Y-51370819D01*
X117320860Y-51551479D01*
X117204002Y-51704741D01*
X117107543Y-51812811D01*
X117106480Y-51813835D01*
X116982261Y-51933265D01*
X116490669Y-51769430D01*
X116311425Y-51711001D01*
X116152920Y-51661772D01*
X116028891Y-51625827D01*
X115953072Y-51607250D01*
X115939676Y-51605595D01*
X115859898Y-51633076D01*
X115769709Y-51700920D01*
X115692926Y-51787228D01*
X115653631Y-51868639D01*
X115661414Y-52004496D01*
X115729083Y-52130983D01*
X115846081Y-52229469D01*
X115863374Y-52238745D01*
X116012137Y-52304548D01*
X116201332Y-52374363D01*
X116411676Y-52442489D01*
X116623882Y-52503226D01*
X116818669Y-52550872D01*
X116976750Y-52579727D01*
X117035742Y-52585315D01*
X117163459Y-52595067D01*
X117249259Y-52618010D01*
X117322266Y-52666201D01*
X117393360Y-52733361D01*
X117517810Y-52834488D01*
X117665117Y-52906089D01*
X117846700Y-52950975D01*
X118073978Y-52971954D01*
X118358370Y-52971837D01*
X118362015Y-52971724D01*
X118588297Y-52960693D01*
X118759204Y-52939586D01*
X118890314Y-52902048D01*
X118997204Y-52841723D01*
X119095449Y-52752255D01*
X119198001Y-52630628D01*
X119360604Y-52418254D01*
X119537646Y-52176636D01*
X119723548Y-51914307D01*
X119912731Y-51639799D01*
X120099614Y-51361644D01*
X120278620Y-51088373D01*
X120444169Y-50828520D01*
X120590682Y-50590617D01*
X120712579Y-50383195D01*
X120804282Y-50214787D01*
X120860212Y-50093925D01*
X120864712Y-50081730D01*
X120916822Y-49832902D01*
X120911110Y-49552398D01*
X120847896Y-49249378D01*
X120834007Y-49204209D01*
X120806325Y-49109768D01*
X120763994Y-48954838D01*
X120709219Y-48747954D01*
X120644203Y-48497648D01*
X120571151Y-48212454D01*
X120492267Y-47900905D01*
X120409755Y-47571534D01*
X120347936Y-47322472D01*
X120266015Y-46993490D01*
X120187503Y-46682777D01*
X120114357Y-46397759D01*
X120048534Y-46145861D01*
X119991994Y-45934511D01*
X119946693Y-45771133D01*
X119914590Y-45663155D01*
X119899297Y-45620780D01*
X119768826Y-45421014D01*
X119591172Y-45230362D01*
X119421069Y-45094679D01*
X119231888Y-44965828D01*
X115981398Y-44502297D01*
X115506320Y-44434757D01*
X115049220Y-44370175D01*
X114615270Y-44309260D01*
X114209645Y-44252720D01*
X113837517Y-44201262D01*
X113504059Y-44155595D01*
X113214443Y-44116426D01*
X112973843Y-44084464D01*
X112787431Y-44060416D01*
X112660381Y-44044990D01*
X112597864Y-44038895D01*
X112594959Y-44038824D01*
X112534068Y-44040730D01*
X112483716Y-44052153D01*
X112432403Y-44081736D01*
X112368631Y-44138122D01*
X112280900Y-44229957D01*
X112157713Y-44365883D01*
X112153195Y-44370903D01*
X111988649Y-44516806D01*
X111797492Y-44611735D01*
X111565032Y-44662109D01*
X111466710Y-44670673D01*
X111312819Y-44675902D01*
X111200902Y-44666727D01*
X111102614Y-44638899D01*
X111022654Y-44604115D01*
X110848112Y-44521452D01*
X110990210Y-44510488D01*
X111103249Y-44498966D01*
X111197767Y-44484782D01*
X111206712Y-44482937D01*
X110830349Y-44482937D01*
X110812587Y-44500699D01*
X110794825Y-44482937D01*
X110812587Y-44465175D01*
X110830349Y-44482937D01*
X111206712Y-44482937D01*
X111209442Y-44482374D01*
X111265458Y-44445492D01*
X111347350Y-44362017D01*
X111444525Y-44246334D01*
X111546390Y-44112825D01*
X111642353Y-43975873D01*
X111721820Y-43849862D01*
X111774197Y-43749174D01*
X111789510Y-43694773D01*
X111775006Y-43620286D01*
X111736522Y-43500452D01*
X111681598Y-43353601D01*
X111617775Y-43198059D01*
X111552595Y-43052156D01*
X111493598Y-42934218D01*
X111448326Y-42862573D01*
X111446014Y-42859928D01*
X111374664Y-42808985D01*
X111270516Y-42763171D01*
X111242121Y-42754316D01*
X111155079Y-42727967D01*
X111129793Y-42711036D01*
X111159233Y-42695148D01*
X111185594Y-42686958D01*
X111395838Y-42658521D01*
X111621395Y-42685431D01*
X111843845Y-42760508D01*
X112044766Y-42876569D01*
X112205737Y-43026432D01*
X112262532Y-43106801D01*
X112320392Y-43217368D01*
X112381837Y-43355269D01*
X112411189Y-43430171D01*
X112467512Y-43552035D01*
X112533516Y-43650173D01*
X112571049Y-43686431D01*
X112602805Y-43700052D01*
X112666156Y-43717077D01*
X112764635Y-43738061D01*
X112901773Y-43763561D01*
X113081101Y-43794133D01*
X113306152Y-43830332D01*
X113580456Y-43872714D01*
X113907546Y-43921835D01*
X114290954Y-43978251D01*
X114734210Y-44042518D01*
X115240846Y-44115192D01*
X115808428Y-44195982D01*
X116275239Y-44262059D01*
X116723514Y-44325188D01*
X117148049Y-44384653D01*
X117543639Y-44439741D01*
X117905080Y-44489737D01*
X118227167Y-44533927D01*
X118504696Y-44571596D01*
X118732461Y-44602031D01*
X118905258Y-44624517D01*
X119017883Y-44638340D01*
X119064438Y-44642797D01*
X119184787Y-44610145D01*
X119320699Y-44518462D01*
X119416521Y-44445626D01*
X119499811Y-44408413D01*
X119603625Y-44395276D01*
X119676595Y-44394126D01*
X119831945Y-44402015D01*
X119993366Y-44422066D01*
X120063200Y-44435566D01*
X120173938Y-44466868D01*
X120236190Y-44505551D01*
X120272026Y-44567351D01*
X120280088Y-44590203D01*
X120303464Y-44656376D01*
X120330413Y-44710841D01*
X120368266Y-44755973D01*
X120424355Y-44794146D01*
X120506010Y-44827736D01*
X120620562Y-44859118D01*
X120775343Y-44890667D01*
X120977683Y-44924759D01*
X121234914Y-44963769D01*
X121554366Y-45010071D01*
X121593277Y-45015662D01*
X121867036Y-45054840D01*
X122118538Y-45090543D01*
X122339071Y-45121557D01*
X122519924Y-45146670D01*
X122652387Y-45164666D01*
X122727748Y-45174333D01*
X122741451Y-45175664D01*
X122755178Y-45205685D01*
X122756660Y-45276695D01*
X122748091Y-45360119D01*
X122731664Y-45427380D01*
X122720657Y-45446569D01*
X122683415Y-45445187D01*
X122584919Y-45434609D01*
X122434203Y-45415998D01*
X122240303Y-45390514D01*
X122012253Y-45359320D01*
X121759089Y-45323575D01*
X121719085Y-45317832D01*
X121454390Y-45280498D01*
X121205704Y-45246831D01*
X120983756Y-45218173D01*
X120799273Y-45195867D01*
X120662983Y-45181256D01*
X120585615Y-45175682D01*
X120583149Y-45175664D01*
X120430947Y-45207644D01*
X120310710Y-45295882D01*
X120233195Y-45428829D01*
X120208847Y-45577627D01*
X120223673Y-45633305D01*
X120264875Y-45741217D01*
X120327572Y-45889793D01*
X120406885Y-46067462D01*
X120496271Y-46259161D01*
X120735662Y-46768413D01*
X120943987Y-47225930D01*
X121125223Y-47641783D01*
X121283343Y-48026044D01*
X121422322Y-48388787D01*
X121546135Y-48740082D01*
X121658756Y-49090002D01*
X121764159Y-49448619D01*
X121786607Y-49529078D01*
X121827823Y-49682952D01*
X121850516Y-49790520D01*
X121856173Y-49873646D01*
X121846280Y-49954198D01*
X121822324Y-50054041D01*
X121822296Y-50054147D01*
X121780396Y-50188251D01*
X121719269Y-50352843D01*
X121651314Y-50514789D01*
X121643477Y-50532063D01*
X121590721Y-50651603D01*
X121518364Y-50821755D01*
X121432852Y-51027028D01*
X121340635Y-51251935D01*
X121248160Y-51480984D01*
X121240945Y-51499021D01*
X121064152Y-51934358D01*
X120890700Y-52348092D01*
X120725383Y-52729194D01*
X120572998Y-53066633D01*
X120438342Y-53349379D01*
X120422252Y-53381818D01*
X120350922Y-53547958D01*
X120288368Y-53736347D01*
X120238324Y-53929914D01*
X120204523Y-54111592D01*
X120190696Y-54264313D01*
X120200576Y-54371007D01*
X120203821Y-54380671D01*
X120233330Y-54441119D01*
X120278348Y-54496370D01*
X120348314Y-54552684D01*
X120452671Y-54616324D01*
X120600857Y-54693549D01*
X120802315Y-54790622D01*
X120869625Y-54822244D01*
X121363356Y-55053365D01*
X121356670Y-55419307D01*
X121340211Y-55702982D01*
X121303434Y-55968146D01*
X121249499Y-56197635D01*
X121181562Y-56374288D01*
X121180600Y-56376161D01*
X121134603Y-56443046D01*
X121049321Y-56547208D01*
X120935830Y-56675808D01*
X120805206Y-56816005D01*
X120767046Y-56855614D01*
X120412282Y-57221019D01*
X120432781Y-57406244D01*
X120448465Y-57493350D01*
X120481223Y-57636229D01*
X120527911Y-57822541D01*
X120585385Y-58039947D01*
X120650502Y-58276108D01*
X120688150Y-58408532D01*
X120793832Y-58777003D01*
X120881496Y-59086447D01*
X120952928Y-59346070D01*
X121009912Y-59565079D01*
X121054232Y-59752680D01*
X121087674Y-59918080D01*
X121112023Y-60070484D01*
X121129063Y-60219099D01*
X121140579Y-60373132D01*
X121148356Y-60541790D01*
X121154178Y-60734277D01*
X121156464Y-60824196D01*
X121167375Y-61152598D01*
X121182008Y-61410603D01*
X121200352Y-61598031D01*
X121222391Y-61714703D01*
X121224785Y-61722430D01*
X121258623Y-61858160D01*
X121273968Y-61990002D01*
X121270949Y-62100731D01*
X121249696Y-62173117D01*
X121221259Y-62191888D01*
X121182116Y-62199858D01*
X121138844Y-62228354D01*
X121086356Y-62284256D01*
X121019569Y-62374444D01*
X120933398Y-62505796D01*
X120822758Y-62685194D01*
X120682564Y-62919515D01*
X120678857Y-62925764D01*
X120441870Y-63317703D01*
X120220153Y-63669063D01*
X120017598Y-63973985D01*
X119838097Y-64226612D01*
X119685572Y-64421049D01*
X119599530Y-64519746D01*
X119535819Y-64575548D01*
X119471925Y-64600669D01*
X119385335Y-64607325D01*
X119341805Y-64607553D01*
X119181170Y-64586462D01*
X119024095Y-64519214D01*
X118860943Y-64399849D01*
X118682072Y-64222404D01*
X118636376Y-64171245D01*
X118386625Y-63873240D01*
X118186388Y-63602049D01*
X118027387Y-63343160D01*
X117901341Y-63082061D01*
X117799970Y-62804242D01*
X117742556Y-62604652D01*
X117639478Y-62278435D01*
X117511653Y-62002550D01*
X117348966Y-61757804D01*
X117212184Y-61598213D01*
X116968454Y-61382256D01*
X116702138Y-61229961D01*
X116418750Y-61144287D01*
X116346196Y-61133661D01*
X116128372Y-61108392D01*
X116360297Y-60705475D01*
X116456632Y-60535590D01*
X116522166Y-60410560D01*
X116562937Y-60314487D01*
X116584983Y-60231474D01*
X116594343Y-60145624D01*
X116596426Y-60083797D01*
X116596946Y-60011141D01*
X116592470Y-59947999D01*
X116578600Y-59884387D01*
X116550939Y-59810321D01*
X116505090Y-59715815D01*
X116436655Y-59590887D01*
X116341237Y-59425550D01*
X116214438Y-59209821D01*
X116202797Y-59190070D01*
X116086717Y-58991184D01*
X115983928Y-58811348D01*
X115899668Y-58660034D01*
X115839176Y-58546715D01*
X115807687Y-58480862D01*
X115804369Y-58469553D01*
X115820740Y-58419471D01*
X115864896Y-58325425D01*
X115928526Y-58204649D01*
X115954755Y-58157671D01*
X116032069Y-58026586D01*
X116087545Y-57948806D01*
X116130674Y-57913868D01*
X116170948Y-57911308D01*
X116176783Y-57912903D01*
X116531457Y-57985522D01*
X116880418Y-57988596D01*
X117217635Y-57923631D01*
X117537078Y-57792130D01*
X117832713Y-57595597D01*
X117980172Y-57463121D01*
X118186215Y-57225058D01*
X118332220Y-56981428D01*
X118413715Y-56740092D01*
X118422974Y-56684911D01*
X118427338Y-56586761D01*
X118399069Y-56513769D01*
X118333194Y-56438638D01*
X118207609Y-56353305D01*
X118076835Y-56333460D01*
X117951935Y-56375426D01*
X117843974Y-56475526D01*
X117764909Y-56627508D01*
X117655861Y-56839751D01*
X117490121Y-57030910D01*
X117281860Y-57185061D01*
X117255583Y-57199827D01*
X117135378Y-57257365D01*
X117017086Y-57292388D01*
X116872058Y-57311930D01*
X116772258Y-57318539D01*
X116614837Y-57324077D01*
X116521029Y-57315331D01*
X116483685Y-57284430D01*
X116495659Y-57223503D01*
X116549804Y-57124680D01*
X116568479Y-57094126D01*
X116622363Y-56985567D01*
X116653299Y-56882443D01*
X116656039Y-56854272D01*
X115951056Y-56854272D01*
X115531137Y-57578115D01*
X115395133Y-57814013D01*
X115291555Y-57998008D01*
X115216150Y-58139049D01*
X115164667Y-58246083D01*
X115132852Y-58328056D01*
X115116454Y-58393916D01*
X115111219Y-58452611D01*
X115111134Y-58461818D01*
X115115078Y-58520349D01*
X115129712Y-58585677D01*
X115159139Y-58666663D01*
X115207466Y-58772165D01*
X115278798Y-58911043D01*
X115377242Y-59092155D01*
X115506902Y-59324360D01*
X115529409Y-59364343D01*
X115947769Y-60107007D01*
X115602200Y-60696511D01*
X115458132Y-60943202D01*
X115346492Y-61137461D01*
X115263202Y-61287806D01*
X115204180Y-61402755D01*
X115165345Y-61490826D01*
X115142617Y-61560538D01*
X115131914Y-61620408D01*
X115129157Y-61678955D01*
X115129158Y-61683948D01*
X115134189Y-61752390D01*
X115151484Y-61829132D01*
X115184861Y-61922354D01*
X115238138Y-62040238D01*
X115315134Y-62190964D01*
X115419667Y-62382711D01*
X115555556Y-62623659D01*
X115622441Y-62740700D01*
X115724875Y-62921472D01*
X115812990Y-63080819D01*
X115881392Y-63208668D01*
X115924689Y-63294942D01*
X115937599Y-63329373D01*
X115917407Y-63365287D01*
X115866481Y-63452860D01*
X115790358Y-63582658D01*
X115694574Y-63745247D01*
X115584667Y-63931193D01*
X115555105Y-63981113D01*
X115182098Y-64610754D01*
X114702517Y-64590417D01*
X114497441Y-64581055D01*
X114292053Y-64570534D01*
X114109997Y-64560131D01*
X113974918Y-64551125D01*
X113973268Y-64550999D01*
X113723599Y-64531919D01*
X113525480Y-64223372D01*
X113415684Y-64048872D01*
X113296524Y-63853960D01*
X113188825Y-63672844D01*
X113159364Y-63621959D01*
X112983250Y-63359570D01*
X112793741Y-63161713D01*
X112593681Y-63031294D01*
X112571049Y-63021145D01*
X112501901Y-63000941D01*
X112392422Y-62983939D01*
X112235486Y-62969533D01*
X112023968Y-62957115D01*
X111750742Y-62946077D01*
X111652209Y-62942835D01*
X111394987Y-62934520D01*
X111199343Y-62927118D01*
X111055838Y-62919419D01*
X110955033Y-62910218D01*
X110887489Y-62898305D01*
X110843766Y-62882474D01*
X110814427Y-62861517D01*
X110790031Y-62834227D01*
X110788503Y-62832343D01*
X110749368Y-62772338D01*
X110685737Y-62661485D01*
X110604643Y-62512606D01*
X110513120Y-62338519D01*
X110451104Y-62217393D01*
X110321961Y-61968478D01*
X110214339Y-61776928D01*
X110122041Y-61634689D01*
X110038871Y-61533705D01*
X109958633Y-61465924D01*
X109875131Y-61423290D01*
X109828843Y-61408513D01*
X109739402Y-61395325D01*
X109587359Y-61385743D01*
X109381084Y-61380032D01*
X109128945Y-61378452D01*
X108921217Y-61380052D01*
X108156020Y-61389944D01*
X108051907Y-61266930D01*
X107966397Y-61152824D01*
X107861398Y-60993322D01*
X107747982Y-60807170D01*
X107637222Y-60613112D01*
X107540188Y-60429893D01*
X107471088Y-60283605D01*
X107413389Y-60124332D01*
X107394292Y-60008008D01*
X107397936Y-59976100D01*
X107425346Y-59915290D01*
X107485062Y-59809872D01*
X107568857Y-59673586D01*
X107668502Y-59520177D01*
X107691069Y-59486481D01*
X107808077Y-59306527D01*
X107924814Y-59116287D01*
X108027586Y-58938693D01*
X108101419Y-58799301D01*
X108163407Y-58666833D01*
X108204229Y-58555250D01*
X108221231Y-58453450D01*
X108211761Y-58350330D01*
X108173165Y-58234786D01*
X108102791Y-58095718D01*
X107997986Y-57922021D01*
X107856096Y-57702593D01*
X107829788Y-57662518D01*
X107724970Y-57501162D01*
X107627049Y-57347133D01*
X107546700Y-57217431D01*
X107494598Y-57129057D01*
X107493050Y-57126254D01*
X107413082Y-56980760D01*
X107780667Y-56255904D01*
X108148252Y-55531049D01*
X108343636Y-55507919D01*
X108440067Y-55500575D01*
X108592883Y-55493825D01*
X108787419Y-55488094D01*
X109009010Y-55483806D01*
X109242992Y-55481386D01*
X109263892Y-55481276D01*
X109988763Y-55477762D01*
X110116479Y-55342660D01*
X110173979Y-55266948D01*
X110255189Y-55139475D01*
X110352941Y-54972470D01*
X110460065Y-54778159D01*
X110563916Y-54579543D01*
X110883636Y-53951529D01*
X111652494Y-53950869D01*
X112421352Y-53950210D01*
X112832287Y-54581667D01*
X113001392Y-54841128D01*
X113141043Y-55047958D01*
X113261677Y-55208314D01*
X113373734Y-55328358D01*
X113487650Y-55414249D01*
X113613864Y-55472147D01*
X113762816Y-55508211D01*
X113944942Y-55528600D01*
X114170682Y-55539476D01*
X114450474Y-55546996D01*
X114468955Y-55547469D01*
X115212316Y-55566574D01*
X115951056Y-56854272D01*
X116656039Y-56854272D01*
X116656181Y-56852822D01*
X116638485Y-56793126D01*
X116589139Y-56683207D01*
X116513933Y-56533226D01*
X116418653Y-56353347D01*
X116309087Y-56153731D01*
X116191024Y-55944541D01*
X116070251Y-55735939D01*
X115952557Y-55538087D01*
X115843728Y-55361148D01*
X115749553Y-55215283D01*
X115675820Y-55110656D01*
X115639089Y-55067013D01*
X115565039Y-55004120D01*
X115477682Y-54955997D01*
X115367010Y-54920830D01*
X115223015Y-54896804D01*
X115035691Y-54882105D01*
X114795030Y-54874917D01*
X114571332Y-54873361D01*
X114361240Y-54872053D01*
X114171528Y-54868727D01*
X114015409Y-54863782D01*
X113906094Y-54857619D01*
X113860238Y-54851829D01*
X113813074Y-54815693D01*
X113734686Y-54723464D01*
X113624054Y-54573761D01*
X113480157Y-54365200D01*
X113301975Y-54096400D01*
X113298630Y-54091282D01*
X113141545Y-53852589D01*
X113016716Y-53667544D01*
X112918993Y-53529391D01*
X112843225Y-53431373D01*
X112784262Y-53366733D01*
X112736954Y-53328716D01*
X112705748Y-53313513D01*
X112632070Y-53300763D01*
X112499643Y-53290539D01*
X112320721Y-53282821D01*
X112107557Y-53277591D01*
X111872406Y-53274828D01*
X111627522Y-53274513D01*
X111385158Y-53276625D01*
X111157569Y-53281145D01*
X110957008Y-53288054D01*
X110795730Y-53297332D01*
X110685988Y-53308959D01*
X110650645Y-53316818D01*
X110580496Y-53347773D01*
X110514779Y-53394131D01*
X110447783Y-53463809D01*
X110373794Y-53564723D01*
X110287100Y-53704786D01*
X110181988Y-53891915D01*
X110052747Y-54134024D01*
X110031049Y-54175338D01*
X109711328Y-54785035D01*
X109054126Y-54810432D01*
X108715866Y-54825387D01*
X108441079Y-54842132D01*
X108222195Y-54861669D01*
X108051641Y-54885004D01*
X107921847Y-54913139D01*
X107825241Y-54947079D01*
X107763011Y-54981620D01*
X107716312Y-55023982D01*
X107659525Y-55096578D01*
X107588604Y-55206074D01*
X107499502Y-55359139D01*
X107388174Y-55562438D01*
X107250571Y-55822638D01*
X107238313Y-55846100D01*
X107090427Y-56131524D01*
X106973946Y-56362825D01*
X106885978Y-56548104D01*
X106823631Y-56695462D01*
X106784011Y-56812998D01*
X106764226Y-56908814D01*
X106761385Y-56991008D01*
X106772594Y-57067682D01*
X106785113Y-57115264D01*
X106847696Y-57276147D01*
X106953694Y-57485290D01*
X107100054Y-57737207D01*
X107283724Y-58026411D01*
X107334253Y-58102608D01*
X107557157Y-58436125D01*
X107446193Y-58635475D01*
X107380051Y-58748343D01*
X107287534Y-58898430D01*
X107182130Y-59064141D01*
X107099831Y-59190070D01*
X106959932Y-59408715D01*
X106859586Y-59586247D01*
X106793195Y-59736412D01*
X106755165Y-59872959D01*
X106739900Y-60009635D01*
X106738984Y-60076564D01*
X106744209Y-60177434D01*
X106761265Y-60272318D01*
X106795714Y-60378427D01*
X106853114Y-60512971D01*
X106936477Y-60687946D01*
X107062942Y-60932576D01*
X107201269Y-61175688D01*
X107341627Y-61401497D01*
X107474185Y-61594218D01*
X107589113Y-61738066D01*
X107593567Y-61742978D01*
X107683841Y-61827965D01*
X107795539Y-61915652D01*
X107828531Y-61938363D01*
X107875278Y-61968198D01*
X107919953Y-61991047D01*
X107972548Y-62007998D01*
X108043053Y-62020143D01*
X108141461Y-62028572D01*
X108277764Y-62034373D01*
X108461953Y-62038637D01*
X108704019Y-62042455D01*
X108794615Y-62043750D01*
X109618601Y-62055471D01*
X109925636Y-62637136D01*
X110073595Y-62907922D01*
X110202154Y-63120047D01*
X110317593Y-63281097D01*
X110426196Y-63398655D01*
X110534243Y-63480305D01*
X110648016Y-63533632D01*
X110675651Y-63542688D01*
X110751698Y-63556262D01*
X110885982Y-63570325D01*
X111065704Y-63583948D01*
X111278066Y-63596199D01*
X111510270Y-63606147D01*
X111580944Y-63608514D01*
X111873302Y-63619331D01*
X112098267Y-63631507D01*
X112259485Y-63645346D01*
X112360603Y-63661155D01*
X112403231Y-63677312D01*
X112443146Y-63725949D01*
X112507447Y-63821113D01*
X112585955Y-63947257D01*
X112640422Y-64039604D01*
X112793815Y-64297936D01*
X112943717Y-64536460D01*
X113083684Y-64745735D01*
X113207271Y-64916319D01*
X113308036Y-65038770D01*
X113352761Y-65083385D01*
X113431050Y-65142045D01*
X113515581Y-65176950D01*
X113631974Y-65196610D01*
X113715033Y-65203738D01*
X113959997Y-65221265D01*
X113936588Y-65331821D01*
X113896982Y-65487440D01*
X113838029Y-65681384D01*
X113767816Y-65890184D01*
X113694431Y-66090368D01*
X113625962Y-66258466D01*
X113592455Y-66330490D01*
X113345687Y-66745176D01*
X113037573Y-67131444D01*
X112673849Y-67484284D01*
X112260250Y-67798688D01*
X111802511Y-68069647D01*
X111378605Y-68263832D01*
X110985989Y-68395826D01*
X110589730Y-68475950D01*
X110181707Y-68504037D01*
X109753799Y-68479918D01*
X109297886Y-68403428D01*
X108805846Y-68274398D01*
X108592308Y-68206446D01*
X108155766Y-68041187D01*
X107788108Y-67858897D01*
X107489219Y-67659498D01*
X107258985Y-67442913D01*
X107097293Y-67209065D01*
X107083138Y-67181165D01*
X106982378Y-67019417D01*
X106870560Y-66926576D01*
X106744568Y-66900945D01*
X106623559Y-66930922D01*
X106499172Y-67012059D01*
X106435898Y-67126754D01*
X106433492Y-67276249D01*
X106491706Y-67461788D01*
X106510348Y-67502797D01*
X106673116Y-67768771D01*
X106900634Y-68022272D01*
X107186967Y-68257997D01*
X107526179Y-68470642D01*
X107686433Y-68553476D01*
X108190054Y-68770751D01*
X108707436Y-68940949D01*
X109228946Y-69062765D01*
X109744952Y-69134896D01*
X110245819Y-69156039D01*
X110721916Y-69124890D01*
X111163608Y-69040147D01*
X111203356Y-69029282D01*
X111430760Y-68952817D01*
X111695903Y-68843426D01*
X111979620Y-68710724D01*
X112262742Y-68564322D01*
X112526102Y-68413833D01*
X112750532Y-68268869D01*
X112819720Y-68218669D01*
X113171322Y-67924242D01*
X113501687Y-67591461D01*
X113798859Y-67234639D01*
X114050879Y-66868087D01*
X114239848Y-66519016D01*
X114281901Y-66417308D01*
X114335026Y-66272738D01*
X114394606Y-66099817D01*
X114456026Y-65913055D01*
X114514669Y-65726963D01*
X114565920Y-65556051D01*
X114605162Y-65414829D01*
X114627779Y-65317807D01*
X114631464Y-65287980D01*
X114644608Y-65266630D01*
X114691414Y-65255272D01*
X114782947Y-65253163D01*
X114930273Y-65259564D01*
X114995594Y-65263582D01*
X115359720Y-65287009D01*
X115534403Y-65169309D01*
X115592458Y-65126976D01*
X115646595Y-65077898D01*
X115702670Y-65013694D01*
X115766540Y-64925985D01*
X115844064Y-64806392D01*
X115941098Y-64646534D01*
X116063500Y-64438032D01*
X116150551Y-64287832D01*
X116305185Y-64021275D01*
X116427229Y-63806359D01*
X116517328Y-63631927D01*
X116576128Y-63486824D01*
X116604274Y-63359894D01*
X116602410Y-63239980D01*
X116571182Y-63115928D01*
X116511235Y-62976580D01*
X116423214Y-62810782D01*
X116307764Y-62607376D01*
X116253268Y-62511608D01*
X115880836Y-61854406D01*
X116074586Y-61809602D01*
X116195147Y-61786005D01*
X116283651Y-61785930D01*
X116376063Y-61812384D01*
X116444291Y-61840493D01*
X116639252Y-61956550D01*
X116805230Y-62126455D01*
X116945013Y-62354317D01*
X117061389Y-62644248D01*
X117116343Y-62831329D01*
X117248473Y-63226491D01*
X117433477Y-63623493D01*
X117657250Y-63993279D01*
X117781516Y-64158167D01*
X117940240Y-64345035D01*
X118120053Y-64540237D01*
X118307582Y-64730126D01*
X118489458Y-64901055D01*
X118652309Y-65039378D01*
X118756484Y-65115182D01*
X118872278Y-65184401D01*
X118975160Y-65227196D01*
X119093788Y-65252592D01*
X119243307Y-65268503D01*
X119392750Y-65278676D01*
X119497699Y-65276524D01*
X119584207Y-65258166D01*
X119678324Y-65219722D01*
X119726701Y-65196500D01*
X119872386Y-65106943D01*
X120029655Y-64973846D01*
X120200997Y-64794019D01*
X120388898Y-64564276D01*
X120595849Y-64281427D01*
X120824336Y-63942285D01*
X121076849Y-63543661D01*
X121288459Y-63195455D01*
X121397116Y-63015205D01*
X121493344Y-62857948D01*
X121571264Y-62733096D01*
X121624999Y-62650062D01*
X121648670Y-62618258D01*
X121648960Y-62618182D01*
X121672605Y-62646679D01*
X121714442Y-62718344D01*
X121733235Y-62754147D01*
X121757526Y-62811424D01*
X121777276Y-62884327D01*
X121793711Y-62983059D01*
X121808053Y-63117819D01*
X121821528Y-63298810D01*
X121835359Y-63536233D01*
X121841718Y-63658162D01*
X121858429Y-64134077D01*
X121857535Y-64587212D01*
X121837528Y-65028699D01*
X121796896Y-65469666D01*
X121734130Y-65921246D01*
X121647720Y-66394568D01*
X121536155Y-66900764D01*
X121397926Y-67450963D01*
X121257456Y-67964677D01*
X121182696Y-68216232D01*
X121105689Y-68441505D01*
X121020714Y-68650686D01*
X120922055Y-68853969D01*
X120803991Y-69061545D01*
X120660803Y-69283605D01*
X120486774Y-69530342D01*
X120276184Y-69811948D01*
X120074116Y-70073584D01*
X119851995Y-70352000D01*
X119653064Y-70584546D01*
X119462463Y-70785349D01*
X119265328Y-70968539D01*
X119046797Y-71148242D01*
X118792008Y-71338589D01*
X118601004Y-71473951D01*
X118176081Y-71764096D01*
X117791572Y-72011472D01*
X117436242Y-72222094D01*
X117098851Y-72401975D01*
X116768162Y-72557132D01*
X116432936Y-72693578D01*
X116105734Y-72809459D01*
X115617661Y-72963742D01*
X115174680Y-73085645D01*
X114760196Y-73178043D01*
X114357614Y-73243809D01*
X113950341Y-73285817D01*
X113521780Y-73306941D01*
X113210489Y-73310842D01*
X112407831Y-73284287D01*
X111645641Y-73202920D01*
X110916726Y-73064616D01*
X110213893Y-72867254D01*
X109529946Y-72608709D01*
X108857693Y-72286859D01*
X108189939Y-71899581D01*
X107988391Y-71769647D01*
X107671817Y-71556405D01*
X107403737Y-71364984D01*
X107169756Y-71184142D01*
X106955482Y-71002636D01*
X106746522Y-70809223D01*
X106695806Y-70760022D01*
X106474260Y-70534515D01*
X106268340Y-70304720D01*
X106072768Y-70062682D01*
X105882268Y-69800441D01*
X105691560Y-69510040D01*
X105495367Y-69183521D01*
X105288412Y-68812928D01*
X105065417Y-68390303D01*
X104873342Y-68012220D01*
X104731015Y-67731008D01*
X104612065Y-67504943D01*
X104509590Y-67324898D01*
X104416688Y-67181747D01*
X104326457Y-67066362D01*
X104231997Y-66969616D01*
X104126406Y-66882381D01*
X104002782Y-66795532D01*
X103905707Y-66732554D01*
X103621565Y-66550518D01*
X103390235Y-66399763D01*
X103203742Y-66274783D01*
X103054115Y-66170070D01*
X102933383Y-66080117D01*
X102833571Y-65999418D01*
X102790870Y-65962456D01*
X102650848Y-65850629D01*
X102537653Y-65792271D01*
X102436889Y-65782981D01*
X102334163Y-65818360D01*
X102328783Y-65821187D01*
X102224982Y-65901000D01*
X102173749Y-66010695D01*
X102163507Y-66116679D01*
X102167816Y-66190504D01*
X102189007Y-66253148D01*
X102237444Y-66321089D01*
X102323493Y-66410803D01*
X102386956Y-66471924D01*
X102513321Y-66581741D01*
X102676961Y-66709214D01*
X102853810Y-66836151D01*
X102975248Y-66916643D01*
X103152018Y-67029449D01*
X103339795Y-67150227D01*
X103512180Y-67261956D01*
X103608809Y-67325175D01*
X103878658Y-67502797D01*
X104327560Y-68390909D01*
X104452254Y-68636100D01*
X104574014Y-68872754D01*
X104687031Y-69089784D01*
X104785494Y-69276105D01*
X104863592Y-69420632D01*
X104914109Y-69509930D01*
X105250523Y-70039900D01*
X105599570Y-70517896D01*
X105971278Y-70954123D01*
X106375676Y-71358783D01*
X106822791Y-71742080D01*
X107322651Y-72114218D01*
X107761277Y-72406929D01*
X108441060Y-72811352D01*
X109116860Y-73150566D01*
X109797531Y-73427210D01*
X110491924Y-73643921D01*
X111208895Y-73803337D01*
X111957296Y-73908097D01*
X112745980Y-73960837D01*
X112997342Y-73966995D01*
X113237752Y-73969899D01*
X113462333Y-73971208D01*
X113658545Y-73970958D01*
X113813845Y-73969187D01*
X113915693Y-73965931D01*
X113938741Y-73964213D01*
X114571593Y-73880199D01*
X115182728Y-73761682D01*
X115792982Y-73603676D01*
X116423189Y-73401198D01*
X116682352Y-73307813D01*
X117066628Y-73151018D01*
X117462282Y-72960052D01*
X117878485Y-72729888D01*
X118324413Y-72455499D01*
X118734545Y-72183146D01*
X119087008Y-71936617D01*
X119388874Y-71711461D01*
X119652567Y-71496248D01*
X119890514Y-71279547D01*
X120115141Y-71049927D01*
X120338871Y-70795959D01*
X120574132Y-70506211D01*
X120617139Y-70451329D01*
X120881189Y-70107022D01*
X121102021Y-69804960D01*
X121285249Y-69535785D01*
X121436491Y-69290137D01*
X121561361Y-69058655D01*
X121665476Y-68831981D01*
X121754452Y-68600755D01*
X121789493Y-68497483D01*
X121841501Y-68327896D01*
X121904971Y-68104167D01*
X121976033Y-67841529D01*
X122050818Y-67555215D01*
X122125459Y-67260459D01*
X122196085Y-66972493D01*
X122258829Y-66706552D01*
X122309821Y-66477868D01*
X122339838Y-66330490D01*
X122438319Y-65685865D01*
X122498942Y-64996098D01*
X122521014Y-64276599D01*
X122503844Y-63542777D01*
X122481062Y-63184794D01*
X122452502Y-62909643D01*
X122409806Y-62687210D01*
X122346327Y-62499560D01*
X122255421Y-62328757D01*
X122130441Y-62156866D01*
X122075853Y-62091295D01*
X121968230Y-61948212D01*
X121918378Y-61837255D01*
X121913986Y-61800531D01*
X121899326Y-61689564D01*
X121871515Y-61599166D01*
X121855870Y-61527631D01*
X121840925Y-61392440D01*
X121827217Y-61200985D01*
X121815282Y-60960660D01*
X121806247Y-60699860D01*
X121800370Y-60495393D01*
X121794287Y-60321214D01*
X121786278Y-60168442D01*
X121774623Y-60028193D01*
X121757602Y-59891585D01*
X121733496Y-59749735D01*
X121700583Y-59593760D01*
X121657145Y-59414776D01*
X121601461Y-59203903D01*
X121531811Y-58952256D01*
X121446475Y-58650953D01*
X121343733Y-58291111D01*
X121331608Y-58248671D01*
X121103280Y-57449371D01*
X121397213Y-57147413D01*
X121521797Y-57013524D01*
X121633885Y-56882375D01*
X121719935Y-56770442D01*
X121762172Y-56703357D01*
X121848456Y-56503388D01*
X121917111Y-56279526D01*
X121970304Y-56020716D01*
X122010202Y-55715906D01*
X122038972Y-55354040D01*
X122044024Y-55265676D01*
X122053148Y-55085299D01*
X122056242Y-54960135D01*
X122051286Y-54874459D01*
X122036257Y-54812548D01*
X122009135Y-54758678D01*
X121971620Y-54702497D01*
X121896684Y-54610005D01*
X121821264Y-54540486D01*
X121797464Y-54525458D01*
X121736090Y-54495815D01*
X121625387Y-54443388D01*
X121480474Y-54375302D01*
X121316469Y-54298680D01*
X121298141Y-54290143D01*
X120877680Y-54094359D01*
X120901600Y-53985453D01*
X120923174Y-53921344D01*
X120969878Y-53804061D01*
X121036934Y-53644875D01*
X121119564Y-53455060D01*
X121212990Y-53245889D01*
X121244596Y-53176245D01*
X121361364Y-52914975D01*
X121492935Y-52612332D01*
X121628682Y-52293284D01*
X121757979Y-51982802D01*
X121867687Y-51712168D01*
X121961974Y-51477813D01*
X122055023Y-51251103D01*
X122141227Y-51045364D01*
X122214974Y-50873923D01*
X122270658Y-50750106D01*
X122286328Y-50717483D01*
X122349293Y-50571280D01*
X122414184Y-50389167D01*
X122469211Y-50204946D01*
X122480325Y-50161377D01*
X122559695Y-49836180D01*
X122409903Y-49308789D01*
X122250641Y-48777692D01*
X122079068Y-48266582D01*
X121888543Y-47758160D01*
X121672422Y-47235121D01*
X121424063Y-46680166D01*
X121294928Y-46404695D01*
X121214825Y-46234261D01*
X121147722Y-46088206D01*
X121098621Y-45977685D01*
X121072523Y-45913852D01*
X121069804Y-45902670D01*
X121106135Y-45905100D01*
X121201945Y-45916632D01*
X121346450Y-45935825D01*
X121528868Y-45961243D01*
X121738414Y-45991444D01*
X121771888Y-45996352D01*
X122000636Y-46028694D01*
X122219173Y-46057265D01*
X122412480Y-46080276D01*
X122565537Y-46095941D01*
X122662974Y-46102462D01*
X122889755Y-46076220D01*
X123082037Y-45989478D01*
X123235571Y-45846023D01*
X123346109Y-45649641D01*
X123403326Y-45442562D01*
X123425723Y-45263559D01*
X123417653Y-45121420D01*
X123374476Y-44986820D01*
X123312056Y-44865769D01*
X123262776Y-44786073D01*
X123209286Y-44719814D01*
X123143800Y-44664387D01*
X123058532Y-44617188D01*
X122945696Y-44575609D01*
X122797505Y-44537047D01*
X122606174Y-44498896D01*
X122363916Y-44458551D01*
X122062944Y-44413405D01*
X121882533Y-44387436D01*
X120846290Y-44239478D01*
X120773130Y-44121103D01*
X120643564Y-43978179D01*
X120452914Y-43867646D01*
X120203784Y-43790396D01*
X119898775Y-43747321D01*
X119655133Y-43737985D01*
X119489325Y-43738754D01*
X119374291Y-43745071D01*
X119289768Y-43761195D01*
X119215492Y-43791384D01*
X119131199Y-43839896D01*
X119111170Y-43852287D01*
X118925500Y-43967651D01*
X116041351Y-43558911D01*
X115595650Y-43495675D01*
X115169281Y-43435045D01*
X114767619Y-43377792D01*
X114396040Y-43324689D01*
X114059919Y-43276509D01*
X113764630Y-43234024D01*
X113515548Y-43198007D01*
X113318048Y-43169230D01*
X113177505Y-43148466D01*
X113099294Y-43136487D01*
X113085333Y-43134054D01*
X113024466Y-43090497D01*
X112954847Y-42992848D01*
X112921248Y-42930088D01*
X112792309Y-42720635D01*
X112619643Y-42514183D01*
X112426671Y-42336948D01*
X112328480Y-42266573D01*
X112034797Y-42117523D01*
X111720651Y-42029175D01*
X111397762Y-42001579D01*
X111077849Y-42034788D01*
D11*
X100000000Y-59650000D03*
D12*
X100000000Y-84650000D03*
D13*
X82702620Y-42846300D03*
X86499920Y-42848840D03*
M02*
